<?xml version="1.0" encoding="UTF-8" standalone="no"?><svg xmlns="http://www.w3.org/2000/svg" xmlns:xlink="http://www.w3.org/1999/xlink" clip-rule="evenodd" stroke-miterlimit="4.00" viewBox="0 0 1920 1080"><desc>SVG generated by Keynote</desc><defs></defs><g transform="matrix(1.00, 0.00, -0.00, -1.00, 0.0, 1080.0)"><path d="M 0.0 1080.0 L 1920.0 1080.0 L 1920.0 0.0 L 0.0 0.0 Z M 0.0 1080.0 " fill="#000000"></path><text xml:space="preserve" font-family="GillSans" font-size="50.0" fill="#FEFFFF" transform="matrix(1.00, 0.00, -0.00, -1.00, 683.0, 523.0)">P</text><text xml:space="preserve" font-family="GillSans" font-size="50.0" fill="#FEFFFF" transform="matrix(1.00, 0.00, -0.00, -1.00, 708.5, 523.0)">R</text><text xml:space="preserve" font-family="GillSans" font-size="50.0" fill="#FEFFFF" transform="matrix(1.00, 0.00, -0.00, -1.00, 738.7, 523.0)">E</text><text xml:space="preserve" font-family="GillSans" font-size="50.0" fill="#FEFFFF" transform="matrix(1.00, 0.00, -0.00, -1.00, 763.7, 523.0)">S</text><text xml:space="preserve" font-family="GillSans" font-size="50.0" fill="#FEFFFF" transform="matrix(1.00, 0.00, -0.00, -1.00, 786.6, 523.0)">I</text><text xml:space="preserve" font-family="GillSans" font-size="50.0" fill="#FEFFFF" transform="matrix(1.00, 0.00, -0.00, -1.00, 799.1, 523.0)">D</text><text xml:space="preserve" font-family="GillSans" font-size="50.0" fill="#FEFFFF" transform="matrix(1.00, 0.00, -0.00, -1.00, 836.6, 523.0)">E</text><text xml:space="preserve" font-family="GillSans" font-size="50.0" fill="#FEFFFF" transform="matrix(1.00, 0.00, -0.00, -1.00, 861.6, 523.0)">N</text><text xml:space="preserve" font-family="GillSans" font-size="50.0" fill="#FEFFFF" transform="matrix(1.00, 0.00, -0.00, -1.00, 900.6, 523.0)">T</text><text xml:space="preserve" font-family="GillSans" font-size="50.0" fill="#FEFFFF" transform="matrix(1.00, 0.00, -0.00, -1.00, 930.8, 523.0)"> </text><text xml:space="preserve" font-family="GillSans" font-size="50.0" fill="#FEFFFF" transform="matrix(1.00, 0.00, -0.00, -1.00, 944.7, 523.0)">C</text><text xml:space="preserve" font-family="GillSans" font-size="50.0" fill="#FEFFFF" transform="matrix(1.00, 0.00, -0.00, -1.00, 981.3, 523.0)">A</text><text xml:space="preserve" font-family="GillSans" font-size="50.0" fill="#FEFFFF" transform="matrix(1.00, 0.00, -0.00, -1.00, 1014.7, 523.0)">R</text><text xml:space="preserve" font-family="GillSans" font-size="50.0" fill="#FEFFFF" transform="matrix(1.00, 0.00, -0.00, -1.00, 1040.4, 523.0)">T</text><text xml:space="preserve" font-family="GillSans" font-size="50.0" fill="#FEFFFF" transform="matrix(1.00, 0.00, -0.00, -1.00, 1070.6, 523.0)">E</text><text xml:space="preserve" font-family="GillSans" font-size="50.0" fill="#FEFFFF" transform="matrix(1.00, 0.00, -0.00, -1.00, 1095.6, 523.0)">R</text><text xml:space="preserve" font-family="GillSans" font-size="50.0" fill="#FEFFFF" transform="matrix(1.00, 0.00, -0.00, -1.00, 1125.8, 523.0)"> </text><text xml:space="preserve" font-family="GillSans" font-size="50.0" fill="#FEFFFF" transform="matrix(1.00, 0.00, -0.00, -1.00, 1139.7, 523.0)">C</text><text xml:space="preserve" font-family="GillSans" font-size="50.0" fill="#FEFFFF" transform="matrix(1.00, 0.00, -0.00, -1.00, 1175.1, 523.0)">L</text><text xml:space="preserve" font-family="GillSans" font-size="50.0" fill="#FEFFFF" transform="matrix(1.00, 0.00, -0.00, -1.00, 1199.6, 523.0)">I</text><text xml:space="preserve" font-family="GillSans" font-size="50.0" fill="#FEFFFF" transform="matrix(1.00, 0.00, -0.00, -1.00, 1212.1, 523.0)">P</text></g></svg>