<?xml version="1.0" encoding="UTF-8" standalone="no"?><svg xmlns="http://www.w3.org/2000/svg" xmlns:xlink="http://www.w3.org/1999/xlink" clip-rule="evenodd" stroke-miterlimit="4.00" viewBox="0 0 1232 188"><desc>SVG generated by Keynote</desc><defs></defs><g transform="matrix(1.00, 0.00, -0.00, -1.00, 0.0, 188.0)"><text xml:space="preserve" font-family="billy" font-size="134.0" fill="#FEFFFF" transform="matrix(1.00, 0.00, -0.00, -1.00, 38.0, 107.0)">T</text><text xml:space="preserve" font-family="billy" font-size="134.0" fill="#FEFFFF" transform="matrix(1.00, 0.00, -0.00, -1.00, 85.7, 107.0)">h</text><text xml:space="preserve" font-family="billy" font-size="134.0" fill="#FEFFFF" transform="matrix(1.00, 0.00, -0.00, -1.00, 120.7, 107.0)">e</text><text xml:space="preserve" font-family="billy" font-size="134.0" fill="#FEFFFF" transform="matrix(1.00, 0.00, -0.00, -1.00, 157.5, 107.0)">r</text><text xml:space="preserve" font-family="billy" font-size="134.0" fill="#FEFFFF" transform="matrix(1.00, 0.00, -0.00, -1.00, 191.0, 107.0)">e</text><text xml:space="preserve" font-family="billy" font-size="134.0" fill="#FEFFFF" transform="matrix(1.00, 0.00, -0.00, -1.00, 223.2, 107.0)">’</text><text xml:space="preserve" font-family="billy" font-size="134.0" fill="#FEFFFF" transform="matrix(1.00, 0.00, -0.00, -1.00, 232.3, 107.0)">s</text><text xml:space="preserve" font-family="billy" font-size="134.0" fill="#FEFFFF" transform="matrix(1.00, 0.00, -0.00, -1.00, 261.2, 107.0)"> </text><text xml:space="preserve" font-family="billy" font-size="134.0" fill="#FEFFFF" transform="matrix(1.00, 0.00, -0.00, -1.00, 298.2, 107.0)">t</text><text xml:space="preserve" font-family="billy" font-size="134.0" fill="#FEFFFF" transform="matrix(1.00, 0.00, -0.00, -1.00, 326.6, 107.0)">h</text><text xml:space="preserve" font-family="billy" font-size="134.0" fill="#FEFFFF" transform="matrix(1.00, 0.00, -0.00, -1.00, 362.4, 107.0)">i</text><text xml:space="preserve" font-family="billy" font-size="134.0" fill="#FEFFFF" transform="matrix(1.00, 0.00, -0.00, -1.00, 373.8, 107.0)">s</text><text xml:space="preserve" font-family="billy" font-size="134.0" fill="#FEFFFF" transform="matrix(1.00, 0.00, -0.00, -1.00, 402.7, 107.0)"> </text><text xml:space="preserve" font-family="billy" font-size="134.0" fill="#FEFFFF" transform="matrix(1.00, 0.00, -0.00, -1.00, 439.7, 107.0)">c</text><text xml:space="preserve" font-family="billy" font-size="134.0" fill="#FEFFFF" transform="matrix(1.00, 0.00, -0.00, -1.00, 474.3, 107.0)">e</text><text xml:space="preserve" font-family="billy" font-size="134.0" fill="#FEFFFF" transform="matrix(1.00, 0.00, -0.00, -1.00, 508.5, 107.0)">n</text><text xml:space="preserve" font-family="billy" font-size="134.0" fill="#FEFFFF" transform="matrix(1.00, 0.00, -0.00, -1.00, 545.6, 107.0)">t</text><text xml:space="preserve" font-family="billy" font-size="134.0" fill="#FEFFFF" transform="matrix(1.00, 0.00, -0.00, -1.00, 575.5, 107.0)">r</text><text xml:space="preserve" font-family="billy" font-size="134.0" fill="#FEFFFF" transform="matrix(1.00, 0.00, -0.00, -1.00, 609.0, 107.0)">e</text><text xml:space="preserve" font-family="billy" font-size="134.0" fill="#FEFFFF" transform="matrix(1.00, 0.00, -0.00, -1.00, 642.7, 107.0)">p</text><text xml:space="preserve" font-family="billy" font-size="134.0" fill="#FEFFFF" transform="matrix(1.00, 0.00, -0.00, -1.00, 675.2, 107.0)">i</text><text xml:space="preserve" font-family="billy" font-size="134.0" fill="#FEFFFF" transform="matrix(1.00, 0.00, -0.00, -1.00, 689.6, 107.0)">e</text><text xml:space="preserve" font-family="billy" font-size="134.0" fill="#FEFFFF" transform="matrix(1.00, 0.00, -0.00, -1.00, 721.8, 107.0)">c</text><text xml:space="preserve" font-family="billy" font-size="134.0" fill="#FEFFFF" transform="matrix(1.00, 0.00, -0.00, -1.00, 756.4, 107.0)">e</text><text xml:space="preserve" font-family="billy" font-size="134.0" fill="#FEFFFF" transform="matrix(1.00, 0.00, -0.00, -1.00, 790.5, 107.0)">,</text><text xml:space="preserve" font-family="billy" font-size="134.0" fill="#FEFFFF" transform="matrix(1.00, 0.00, -0.00, -1.00, 801.9, 107.0)"> </text><text xml:space="preserve" font-family="billy" font-size="134.0" fill="#FEFFFF" transform="matrix(1.00, 0.00, -0.00, -1.00, 838.9, 107.0)">t</text><text xml:space="preserve" font-family="billy" font-size="134.0" fill="#FEFFFF" transform="matrix(1.00, 0.00, -0.00, -1.00, 867.3, 107.0)">h</text><text xml:space="preserve" font-family="billy" font-size="134.0" fill="#FEFFFF" transform="matrix(1.00, 0.00, -0.00, -1.00, 902.3, 107.0)">e</text><text xml:space="preserve" font-family="billy" font-size="134.0" fill="#FEFFFF" transform="matrix(1.00, 0.00, -0.00, -1.00, 934.5, 107.0)"> </text><text xml:space="preserve" font-family="billy" font-size="134.0" fill="#FEFFFF" transform="matrix(1.00, 0.00, -0.00, -1.00, 971.4, 107.0)">D</text><text xml:space="preserve" font-family="billy" font-size="134.0" fill="#FEFFFF" transform="matrix(1.00, 0.00, -0.00, -1.00, 1020.6, 107.0)">N</text><text xml:space="preserve" font-family="billy" font-size="134.0" fill="#FEFFFF" transform="matrix(1.00, 0.00, -0.00, -1.00, 1079.2, 107.0)">A</text><text xml:space="preserve" font-family="billy" font-size="134.0" fill="#FEFFFF" transform="matrix(1.00, 0.00, -0.00, -1.00, 1128.9, 107.0)"> </text><text xml:space="preserve" font-family="billy" font-size="134.0" fill="#FEFFFF" transform="matrix(1.00, 0.00, -0.00, -1.00, 1165.9, 107.0)">-</text><text xml:space="preserve" font-family="billy" font-size="134.0" fill="#FEFFFF" transform="matrix(1.00, 0.00, -0.00, -1.00, 1192.4, 107.0)"> </text><text xml:space="preserve" font-family="billy" font-size="134.0" fill="#FEFFFF" transform="matrix(1.00, 0.00, -0.00, -1.00, 1.0, 7.0)">t</text><text xml:space="preserve" font-family="billy" font-size="134.0" fill="#FEFFFF" transform="matrix(1.00, 0.00, -0.00, -1.00, 29.4, 7.0)">h</text><text xml:space="preserve" font-family="billy" font-size="134.0" fill="#FEFFFF" transform="matrix(1.00, 0.00, -0.00, -1.00, 66.0, 7.0)">a</text><text xml:space="preserve" font-family="billy" font-size="134.0" fill="#FEFFFF" transform="matrix(1.00, 0.00, -0.00, -1.00, 99.8, 7.0)">t</text><text xml:space="preserve" font-family="billy" font-size="134.0" fill="#FEFFFF" transform="matrix(1.00, 0.00, -0.00, -1.00, 128.2, 7.0)"> </text><text xml:space="preserve" font-family="billy" font-size="134.0" fill="#FEFFFF" transform="matrix(1.00, 0.00, -0.00, -1.00, 165.2, 7.0)">s</text><text xml:space="preserve" font-family="billy" font-size="134.0" fill="#FEFFFF" transform="matrix(1.00, 0.00, -0.00, -1.00, 194.1, 7.0)">e</text><text xml:space="preserve" font-family="billy" font-size="134.0" fill="#FEFFFF" transform="matrix(1.00, 0.00, -0.00, -1.00, 228.3, 7.0)">n</text><text xml:space="preserve" font-family="billy" font-size="134.0" fill="#FEFFFF" transform="matrix(1.00, 0.00, -0.00, -1.00, 266.5, 7.0)">s</text><text xml:space="preserve" font-family="billy" font-size="134.0" fill="#FEFFFF" transform="matrix(1.00, 0.00, -0.00, -1.00, 295.4, 7.0)">e</text><text xml:space="preserve" font-family="billy" font-size="134.0" fill="#FEFFFF" transform="matrix(1.00, 0.00, -0.00, -1.00, 327.6, 7.0)"> </text><text xml:space="preserve" font-family="billy" font-size="134.0" fill="#FEFFFF" transform="matrix(1.00, 0.00, -0.00, -1.00, 364.5, 7.0)">o</text><text xml:space="preserve" font-family="billy" font-size="134.0" fill="#FEFFFF" transform="matrix(1.00, 0.00, -0.00, -1.00, 406.6, 7.0)">f</text><text xml:space="preserve" font-family="billy" font-size="134.0" fill="#FEFFFF" transform="matrix(1.00, 0.00, -0.00, -1.00, 436.4, 7.0)"> </text><text xml:space="preserve" font-family="billy" font-size="134.0" fill="#FEFFFF" transform="matrix(1.00, 0.00, -0.00, -1.00, 473.3, 7.0)">p</text><text xml:space="preserve" font-family="billy" font-size="134.0" fill="#FEFFFF" transform="matrix(1.00, 0.00, -0.00, -1.00, 508.2, 7.0)">o</text><text xml:space="preserve" font-family="billy" font-size="134.0" fill="#FEFFFF" transform="matrix(1.00, 0.00, -0.00, -1.00, 548.4, 7.0)">s</text><text xml:space="preserve" font-family="billy" font-size="134.0" fill="#FEFFFF" transform="matrix(1.00, 0.00, -0.00, -1.00, 577.3, 7.0)">s</text><text xml:space="preserve" font-family="billy" font-size="134.0" fill="#FEFFFF" transform="matrix(1.00, 0.00, -0.00, -1.00, 606.3, 7.0)">i</text><text xml:space="preserve" font-family="billy" font-size="134.0" fill="#FEFFFF" transform="matrix(1.00, 0.00, -0.00, -1.00, 617.7, 7.0)">b</text><text xml:space="preserve" font-family="billy" font-size="134.0" fill="#FEFFFF" transform="matrix(1.00, 0.00, -0.00, -1.00, 655.3, 7.0)">i</text><text xml:space="preserve" font-family="billy" font-size="134.0" fill="#FEFFFF" transform="matrix(1.00, 0.00, -0.00, -1.00, 669.0, 7.0)">l</text><text xml:space="preserve" font-family="billy" font-size="134.0" fill="#FEFFFF" transform="matrix(1.00, 0.00, -0.00, -1.00, 686.8, 7.0)">i</text><text xml:space="preserve" font-family="billy" font-size="134.0" fill="#FEFFFF" transform="matrix(1.00, 0.00, -0.00, -1.00, 700.2, 7.0)">t</text><text xml:space="preserve" font-family="billy" font-size="134.0" fill="#FEFFFF" transform="matrix(1.00, 0.00, -0.00, -1.00, 730.2, 7.0)">y</text><text xml:space="preserve" font-family="billy" font-size="134.0" fill="#FEFFFF" transform="matrix(1.00, 0.00, -0.00, -1.00, 766.4, 7.0)"> </text><text xml:space="preserve" font-family="billy" font-size="134.0" fill="#FEFFFF" transform="matrix(1.00, 0.00, -0.00, -1.00, 803.4, 7.0)">i</text><text xml:space="preserve" font-family="billy" font-size="134.0" fill="#FEFFFF" transform="matrix(1.00, 0.00, -0.00, -1.00, 819.9, 7.0)">n</text><text xml:space="preserve" font-family="billy" font-size="134.0" fill="#FEFFFF" transform="matrix(1.00, 0.00, -0.00, -1.00, 855.8, 7.0)"> </text><text xml:space="preserve" font-family="billy" font-size="134.0" fill="#FEFFFF" transform="matrix(1.00, 0.00, -0.00, -1.00, 892.8, 7.0)">t</text><text xml:space="preserve" font-family="billy" font-size="134.0" fill="#FEFFFF" transform="matrix(1.00, 0.00, -0.00, -1.00, 921.2, 7.0)">h</text><text xml:space="preserve" font-family="billy" font-size="134.0" fill="#FEFFFF" transform="matrix(1.00, 0.00, -0.00, -1.00, 956.2, 7.0)">e</text><text xml:space="preserve" font-family="billy" font-size="134.0" fill="#FEFFFF" transform="matrix(1.00, 0.00, -0.00, -1.00, 988.3, 7.0)"> </text><text xml:space="preserve" font-family="billy" font-size="134.0" fill="#FEFFFF" transform="matrix(1.00, 0.00, -0.00, -1.00, 1025.3, 7.0)">w</text><text xml:space="preserve" font-family="billy" font-size="134.0" fill="#FEFFFF" transform="matrix(1.00, 0.00, -0.00, -1.00, 1079.0, 7.0)">o</text><text xml:space="preserve" font-family="billy" font-size="134.0" fill="#FEFFFF" transform="matrix(1.00, 0.00, -0.00, -1.00, 1121.9, 7.0)">r</text><text xml:space="preserve" font-family="billy" font-size="134.0" fill="#FEFFFF" transform="matrix(1.00, 0.00, -0.00, -1.00, 1158.1, 7.0)">l</text><text xml:space="preserve" font-family="billy" font-size="134.0" fill="#FEFFFF" transform="matrix(1.00, 0.00, -0.00, -1.00, 1177.4, 7.0)">d</text><text xml:space="preserve" font-family="billy" font-size="134.0" fill="#FEFFFF" transform="matrix(1.00, 0.00, -0.00, -1.00, 1220.4, 7.0)">.</text></g></svg>