<?xml version="1.0" encoding="UTF-8" standalone="no"?><svg xmlns="http://www.w3.org/2000/svg" xmlns:xlink="http://www.w3.org/1999/xlink" clip-rule="evenodd" stroke-miterlimit="4.00" viewBox="0 0 1920 1080"><desc>SVG generated by Keynote</desc><defs></defs><g transform="matrix(1.00, 0.00, -0.00, -1.00, 0.0, 1080.0)"><path d="M 0.0 1080.0 L 1920.0 1080.0 L 1920.0 0.0 L 0.0 0.0 Z M 0.0 1080.0 " fill="#432754" fill-opacity="0.20"></path><text xml:space="preserve" font-family="GillSans" font-size="50.0" fill="#FEFFFF" transform="matrix(1.00, 0.00, -0.00, -1.00, 777.0, 523.0)">J</text><text xml:space="preserve" font-family="GillSans" font-size="50.0" fill="#FEFFFF" transform="matrix(1.00, 0.00, -0.00, -1.00, 789.5, 523.0)">E</text><text xml:space="preserve" font-family="GillSans" font-size="50.0" fill="#FEFFFF" transform="matrix(1.00, 0.00, -0.00, -1.00, 814.5, 523.0)">A</text><text xml:space="preserve" font-family="GillSans" font-size="50.0" fill="#FEFFFF" transform="matrix(1.00, 0.00, -0.00, -1.00, 847.8, 523.0)">N</text><text xml:space="preserve" font-family="GillSans" font-size="50.0" fill="#FEFFFF" transform="matrix(1.00, 0.00, -0.00, -1.00, 886.9, 523.0)"> </text><text xml:space="preserve" font-family="GillSans" font-size="50.0" fill="#FEFFFF" transform="matrix(1.00, 0.00, -0.00, -1.00, 900.8, 523.0)">8</text><text xml:space="preserve" font-family="GillSans" font-size="50.0" fill="#FEFFFF" transform="matrix(1.00, 0.00, -0.00, -1.00, 925.8, 523.0)">0</text><text xml:space="preserve" font-family="GillSans" font-size="50.0" fill="#FEFFFF" transform="matrix(1.00, 0.00, -0.00, -1.00, 950.8, 523.0)">’</text><text xml:space="preserve" font-family="GillSans" font-size="50.0" fill="#FEFFFF" transform="matrix(1.00, 0.00, -0.00, -1.00, 961.7, 523.0)">S</text><text xml:space="preserve" font-family="GillSans" font-size="50.0" fill="#FEFFFF" transform="matrix(1.00, 0.00, -0.00, -1.00, 984.6, 523.0)"> </text><text xml:space="preserve" font-family="GillSans" font-size="50.0" fill="#FEFFFF" transform="matrix(1.00, 0.00, -0.00, -1.00, 998.5, 523.0)">I</text><text xml:space="preserve" font-family="GillSans" font-size="50.0" fill="#FEFFFF" transform="matrix(1.00, 0.00, -0.00, -1.00, 1011.0, 523.0)">M</text><text xml:space="preserve" font-family="GillSans" font-size="50.0" fill="#FEFFFF" transform="matrix(1.00, 0.00, -0.00, -1.00, 1050.0, 523.0)">A</text><text xml:space="preserve" font-family="GillSans" font-size="50.0" fill="#FEFFFF" transform="matrix(1.00, 0.00, -0.00, -1.00, 1081.4, 523.0)">G</text><text xml:space="preserve" font-family="GillSans" font-size="50.0" fill="#FEFFFF" transform="matrix(1.00, 0.00, -0.00, -1.00, 1118.4, 523.0)">E</text><g><clipPath id="clip-140"><path d="M 12.0 1065.0 L 1908.0 1065.0 L 1908.0 15.0 L 12.0 15.0 Z M 12.2 1064.7 "></path></clipPath><g clip-path="url(#clip-140)"><image xlink:href="17879E706A0CA47D1C27FED143FB4E6C.jpeg" width="1365.00" height="682.00" transform="matrix(1.54, 0.00, -0.00, -1.54, -89.0, 1065.0)"></image></g></g><image xlink:href="../../280549DA-CE48-4E4A-AC08-F1803A1E6CB8/assets/2489AFB574C7F27921D6EAE031011AA9.png" width="1944.00" height="1101.00" transform="matrix(1.00, 0.00, -0.00, 1.00, -11.8, -12.7)"></image></g></svg>