<?xml version="1.0" encoding="UTF-8" standalone="no"?><svg xmlns="http://www.w3.org/2000/svg" xmlns:xlink="http://www.w3.org/1999/xlink" clip-rule="evenodd" stroke-miterlimit="4.00" viewBox="0 0 968 185"><desc>SVG generated by Keynote</desc><defs></defs><g transform="matrix(1.00, 0.00, -0.00, -1.00, 0.0, 185.0)"><text xml:space="preserve" font-family="billy" font-size="134.0" fill="#FEFFFF" transform="matrix(1.00, 0.00, -0.00, -1.00, 4.0, 104.0)">A</text><text xml:space="preserve" font-family="billy" font-size="134.0" fill="#FEFFFF" transform="matrix(1.00, 0.00, -0.00, -1.00, 53.7, 104.0)"> </text><text xml:space="preserve" font-family="billy" font-size="134.0" fill="#FEFFFF" transform="matrix(1.00, 0.00, -0.00, -1.00, 90.7, 104.0)">p</text><text xml:space="preserve" font-family="billy" font-size="134.0" fill="#FEFFFF" transform="matrix(1.00, 0.00, -0.00, -1.00, 123.1, 104.0)">a</text><text xml:space="preserve" font-family="billy" font-size="134.0" fill="#FEFFFF" transform="matrix(1.00, 0.00, -0.00, -1.00, 158.4, 104.0)">r</text><text xml:space="preserve" font-family="billy" font-size="134.0" fill="#FEFFFF" transform="matrix(1.00, 0.00, -0.00, -1.00, 194.3, 104.0)">t</text><text xml:space="preserve" font-family="billy" font-size="134.0" fill="#FEFFFF" transform="matrix(1.00, 0.00, -0.00, -1.00, 222.7, 104.0)">n</text><text xml:space="preserve" font-family="billy" font-size="134.0" fill="#FEFFFF" transform="matrix(1.00, 0.00, -0.00, -1.00, 261.7, 104.0)">e</text><text xml:space="preserve" font-family="billy" font-size="134.0" fill="#FEFFFF" transform="matrix(1.00, 0.00, -0.00, -1.00, 298.5, 104.0)">r</text><text xml:space="preserve" font-family="billy" font-size="134.0" fill="#FEFFFF" transform="matrix(1.00, 0.00, -0.00, -1.00, 332.0, 104.0)"> </text><text xml:space="preserve" font-family="billy" font-size="134.0" fill="#FEFFFF" transform="matrix(1.00, 0.00, -0.00, -1.00, 369.0, 104.0)">w</text><text xml:space="preserve" font-family="billy" font-size="134.0" fill="#FEFFFF" transform="matrix(1.00, 0.00, -0.00, -1.00, 422.8, 104.0)">h</text><text xml:space="preserve" font-family="billy" font-size="134.0" fill="#FEFFFF" transform="matrix(1.00, 0.00, -0.00, -1.00, 456.7, 104.0)">o</text><text xml:space="preserve" font-family="billy" font-size="134.0" fill="#FEFFFF" transform="matrix(1.00, 0.00, -0.00, -1.00, 496.9, 104.0)"> </text><text xml:space="preserve" font-family="billy" font-size="134.0" fill="#FEFFFF" transform="matrix(1.00, 0.00, -0.00, -1.00, 533.8, 104.0)">l</text><text xml:space="preserve" font-family="billy" font-size="134.0" fill="#FEFFFF" transform="matrix(1.00, 0.00, -0.00, -1.00, 550.5, 104.0)">e</text><text xml:space="preserve" font-family="billy" font-size="134.0" fill="#FEFFFF" transform="matrix(1.00, 0.00, -0.00, -1.00, 585.8, 104.0)">t</text><text xml:space="preserve" font-family="billy" font-size="134.0" fill="#FEFFFF" transform="matrix(1.00, 0.00, -0.00, -1.00, 614.2, 104.0)">s</text><text xml:space="preserve" font-family="billy" font-size="134.0" fill="#FEFFFF" transform="matrix(1.00, 0.00, -0.00, -1.00, 643.2, 104.0)"> </text><text xml:space="preserve" font-family="billy" font-size="134.0" fill="#FEFFFF" transform="matrix(1.00, 0.00, -0.00, -1.00, 680.2, 104.0)">y</text><text xml:space="preserve" font-family="billy" font-size="134.0" fill="#FEFFFF" transform="matrix(1.00, 0.00, -0.00, -1.00, 716.3, 104.0)">o</text><text xml:space="preserve" font-family="billy" font-size="134.0" fill="#FEFFFF" transform="matrix(1.00, 0.00, -0.00, -1.00, 759.8, 104.0)">u</text><text xml:space="preserve" font-family="billy" font-size="134.0" fill="#FEFFFF" transform="matrix(1.00, 0.00, -0.00, -1.00, 795.7, 104.0)"> </text><text xml:space="preserve" font-family="billy" font-size="134.0" fill="#FEFFFF" transform="matrix(1.00, 0.00, -0.00, -1.00, 832.7, 104.0)">l</text><text xml:space="preserve" font-family="billy" font-size="134.0" fill="#FEFFFF" transform="matrix(1.00, 0.00, -0.00, -1.00, 850.5, 104.0)">i</text><text xml:space="preserve" font-family="billy" font-size="134.0" fill="#FEFFFF" transform="matrix(1.00, 0.00, -0.00, -1.00, 861.9, 104.0)">v</text><text xml:space="preserve" font-family="billy" font-size="134.0" fill="#FEFFFF" transform="matrix(1.00, 0.00, -0.00, -1.00, 896.2, 104.0)">e</text><text xml:space="preserve" font-family="billy" font-size="134.0" fill="#FEFFFF" transform="matrix(1.00, 0.00, -0.00, -1.00, 928.3, 104.0)"> </text><text xml:space="preserve" font-family="billy" font-size="134.0" fill="#FEFFFF" transform="matrix(1.00, 0.00, -0.00, -1.00, 965.3, 104.0)"> </text><text xml:space="preserve" font-family="billy" font-size="134.0" fill="#FEFFFF" transform="matrix(1.00, 0.00, -0.00, -1.00, 287.0, 4.0)">y</text><text xml:space="preserve" font-family="billy" font-size="134.0" fill="#FEFFFF" transform="matrix(1.00, 0.00, -0.00, -1.00, 323.2, 4.0)">o</text><text xml:space="preserve" font-family="billy" font-size="134.0" fill="#FEFFFF" transform="matrix(1.00, 0.00, -0.00, -1.00, 366.6, 4.0)">u</text><text xml:space="preserve" font-family="billy" font-size="134.0" fill="#FEFFFF" transform="matrix(1.00, 0.00, -0.00, -1.00, 403.7, 4.0)">r</text><text xml:space="preserve" font-family="billy" font-size="134.0" fill="#FEFFFF" transform="matrix(1.00, 0.00, -0.00, -1.00, 437.2, 4.0)"> </text><text xml:space="preserve" font-family="billy" font-size="134.0" fill="#FEFFFF" transform="matrix(1.00, 0.00, -0.00, -1.00, 474.2, 4.0)">t</text><text xml:space="preserve" font-family="billy" font-size="134.0" fill="#FEFFFF" transform="matrix(1.00, 0.00, -0.00, -1.00, 504.1, 4.0)">r</text><text xml:space="preserve" font-family="billy" font-size="134.0" fill="#FEFFFF" transform="matrix(1.00, 0.00, -0.00, -1.00, 537.6, 4.0)">u</text><text xml:space="preserve" font-family="billy" font-size="134.0" fill="#FEFFFF" transform="matrix(1.00, 0.00, -0.00, -1.00, 575.1, 4.0)">t</text><text xml:space="preserve" font-family="billy" font-size="134.0" fill="#FEFFFF" transform="matrix(1.00, 0.00, -0.00, -1.00, 603.5, 4.0)">h</text><text xml:space="preserve" font-family="billy" font-size="134.0" fill="#FEFFFF" transform="matrix(1.00, 0.00, -0.00, -1.00, 635.4, 4.0)">.</text></g></svg>