<?xml version="1.0" encoding="UTF-8" standalone="no"?><svg xmlns="http://www.w3.org/2000/svg" xmlns:xlink="http://www.w3.org/1999/xlink" clip-rule="evenodd" stroke-miterlimit="4.00" viewBox="0 0 219 219"><desc>SVG generated by Keynote</desc><defs></defs><g transform="matrix(1.00, 0.00, -0.00, -1.00, 0.0, 219.0)"><g><clipPath id="clip-148"><path d="M 1.0 1.0 L 218.0 1.0 L 218.0 218.0 L 1.0 218.0 Z M 1.0 1.0 "></path></clipPath><g clip-path="url(#clip-148)"><path d="M 15.5 73.6 C 17.3 73.5 21.4 69.4 22.8 68.3 C 26.8 65.4 31.2 62.7 35.8 61.0 C 44.5 57.8 52.2 57.6 59.6 63.5 C 67.9 70.2 74.8 81.0 85.8 73.7 C 93.7 68.4 99.7 61.4 109.7 60.7 C 117.4 60.1 124.6 67.7 129.8 72.3 C 135.1 77.0 139.0 80.6 146.0 76.8 C 150.6 74.4 154.5 70.5 158.7 67.4 C 165.4 62.4 173.4 60.9 181.0 65.0 C 188.1 68.9 195.0 79.7 202.7 81.2 C 209.5 82.6 206.6 93.1 199.8 91.7 C 192.9 90.3 187.8 83.7 182.8 79.3 C 179.0 75.9 173.5 71.8 168.2 74.2 C 166.3 75.1 164.5 76.2 162.8 77.5 C 173.8 92.0 179.2 109.2 179.6 127.5 C 179.6 130.4 177.1 133.0 174.1 133.0 C 152.5 132.3 130.7 132.2 109.0 132.3 C 109.0 137.4 109.1 142.4 109.1 147.5 C 121.6 159.1 138.3 164.8 153.9 171.2 C 159.0 173.3 159.0 179.5 153.9 181.6 C 138.4 188.1 121.8 192.3 105.6 196.3 C 103.8 196.8 102.3 196.4 101.2 195.6 C 99.8 194.7 98.7 193.2 98.7 191.1 C 98.5 171.5 98.3 151.9 98.1 132.4 C 80.0 132.5 61.9 132.6 43.8 132.6 C 40.9 132.6 38.4 130.2 38.4 127.2 C 38.7 107.9 43.3 89.2 56.0 74.7 C 55.3 74.0 54.6 73.4 53.8 72.7 C 47.8 67.5 41.4 69.9 35.0 73.3 C 28.8 76.7 22.9 84.0 15.5 84.4 C 8.6 84.8 8.6 73.9 15.5 73.6 Z M 109.5 184.2 C 118.9 181.8 128.3 179.2 137.5 176.2 C 127.6 172.1 117.9 167.7 109.3 161.5 C 109.3 169.1 109.4 176.6 109.5 184.2 Z M 168.4 122.0 C 167.3 108.3 162.8 95.2 154.4 84.3 C 148.5 88.5 141.8 91.1 134.5 88.6 C 125.0 85.3 119.8 74.8 110.3 71.6 C 103.7 69.4 91.3 83.8 85.1 86.5 C 77.7 89.8 70.2 86.6 64.2 81.8 C 54.4 93.0 50.4 107.0 49.5 121.8 C 89.1 121.7 128.8 120.9 168.4 122.0 Z M 168.4 122.0 " fill="#FEFFFF"></path><path d="M 199.8 70.4 C 192.9 69.0 187.8 62.4 182.8 58.0 C 179.0 54.6 173.5 50.5 168.2 52.9 C 163.6 55.0 159.7 58.9 155.8 62.0 C 149.5 66.8 142.3 69.9 134.5 67.3 C 125.0 64.0 119.8 53.5 110.3 50.3 C 103.6 48.1 91.3 62.5 85.1 65.2 C 77.5 68.5 69.8 65.1 63.8 60.2 C 60.4 57.4 57.2 54.4 53.8 51.5 C 47.8 46.2 41.4 48.6 35.0 52.1 C 28.8 55.4 22.9 62.7 15.5 63.1 C 8.6 63.5 8.6 52.6 15.5 52.3 C 17.3 52.2 21.4 48.1 22.8 47.0 C 26.8 44.1 31.2 41.4 35.8 39.7 C 44.5 36.5 52.2 36.4 59.6 42.3 C 67.9 48.9 74.8 59.7 85.8 52.4 C 93.7 47.1 99.7 40.1 109.7 39.4 C 117.4 38.8 124.6 46.4 129.8 51.0 C 135.1 55.7 139.0 59.3 146.0 55.6 C 150.6 53.1 154.5 49.2 158.7 46.1 C 165.4 41.1 173.4 39.6 181.0 43.7 C 188.1 47.6 195.0 58.4 202.7 59.9 C 209.5 61.3 206.6 71.8 199.8 70.4 Z M 199.8 70.4 " fill="#FEFFFF"></path><path d="M 199.8 49.1 C 192.9 47.7 187.8 41.1 182.8 36.7 C 179.0 33.3 173.5 29.2 168.2 31.6 C 163.6 33.7 159.7 37.6 155.8 40.7 C 149.5 45.5 142.3 48.7 134.5 46.0 C 125.0 42.7 119.8 32.2 110.3 29.0 C 103.6 26.8 91.3 41.2 85.1 43.9 C 77.5 47.2 69.8 43.8 63.8 38.9 C 60.4 36.1 57.2 33.1 53.8 30.2 C 47.8 24.9 41.4 27.4 35.0 30.8 C 28.8 34.1 22.9 41.5 15.5 41.8 C 8.6 42.2 8.6 31.4 15.5 31.0 C 17.3 30.9 21.4 26.8 22.8 25.8 C 26.8 22.9 31.2 20.1 35.8 18.4 C 44.5 15.2 52.2 15.1 59.6 21.0 C 67.9 27.6 74.8 38.4 85.8 31.1 C 93.7 25.8 99.7 18.9 109.7 18.1 C 117.4 17.5 124.6 25.1 129.8 29.7 C 135.1 34.4 139.0 38.0 146.0 34.3 C 150.6 31.8 154.5 28.0 158.7 24.8 C 165.4 19.8 173.4 18.3 181.0 22.5 C 188.1 26.3 195.0 37.1 202.7 38.6 C 209.5 40.0 206.6 50.5 199.8 49.1 Z M 199.8 49.1 " fill="#FEFFFF"></path></g></g></g></svg>