<?xml version="1.0" encoding="UTF-8" standalone="no"?><svg xmlns="http://www.w3.org/2000/svg" xmlns:xlink="http://www.w3.org/1999/xlink" clip-rule="evenodd" stroke-miterlimit="4.00" viewBox="0 0 222 222"><desc>SVG generated by Keynote</desc><defs></defs><g transform="matrix(1.00, 0.00, -0.00, -1.00, 0.0, 222.0)"><g><clipPath id="clip-164"><path d="M 2.0 220.0 L 221.0 220.0 L 221.0 1.0 L 2.0 1.0 Z M 2.0 220.5 "></path></clipPath><g clip-path="url(#clip-164)"><g><clipPath id="clip-165"><path d="M -10.0 232.4 L 233.6 232.4 L 233.6 -10.8 L -10.0 -10.8 Z M -10.0 232.4 "></path></clipPath><g clip-path="url(#clip-165)"><g><clipPath id="clip-166"><path d="M 2.0 1.0 L 221.0 1.0 L 221.0 220.0 L 2.0 220.0 Z M 2.0 1.0 "></path></clipPath><g clip-path="url(#clip-166)"><path d="M 150.5 19.8 C 150.3 19.8 150.3 19.8 150.1 19.6 C 142.7 42.5 85.2 42.5 78.4 18.1 C 64.5 22.8 51.9 30.3 41.4 40.5 C 41.6 40.8 41.6 41.0 41.9 41.5 C 48.5 47.8 56.0 54.9 63.1 59.7 C 68.9 63.6 78.7 66.8 82.6 72.9 C 87.4 80.4 89.1 86.5 82.3 93.5 C 75.0 101.3 66.0 108.6 57.5 115.9 C 67.0 125.7 79.2 134.7 85.7 146.3 C 90.4 154.6 92.1 166.0 92.8 175.3 C 94.0 190.4 67.7 188.6 48.7 185.5 C 58.7 192.8 69.9 198.6 80.6 204.2 C 81.8 202.5 84.0 201.3 86.7 202.5 C 104.7 209.3 123.5 209.3 141.0 204.5 C 137.4 202.0 133.2 201.1 128.9 198.9 C 121.8 195.5 117.4 189.4 113.3 182.8 C 112.0 180.6 112.0 178.7 113.0 177.0 C 113.3 176.5 113.5 176.0 113.7 175.8 C 118.6 168.5 122.3 160.9 125.2 152.4 C 125.4 151.4 125.7 150.9 125.9 150.5 C 125.2 150.9 124.2 151.2 122.8 150.9 C 120.3 150.7 118.6 149.7 116.4 148.8 C 106.4 144.4 104.2 127.6 112.0 120.5 C 117.4 115.7 123.5 113.0 130.1 109.8 C 140.3 105.0 148.3 102.1 148.3 89.2 C 148.3 77.0 146.2 66.5 154.4 56.6 C 156.1 54.4 159.6 54.4 161.7 55.6 C 178.6 64.6 188.1 75.8 189.5 95.2 C 190.5 106.7 189.5 118.6 188.3 129.8 C 187.8 133.9 184.2 142.7 185.9 146.3 C 188.1 151.2 194.2 154.8 199.3 157.3 C 199.8 156.3 200.2 155.3 200.7 154.4 C 223.6 107.9 200.7 37.6 150.5 19.8 M 90.4 15.0 C 95.0 26.9 133.2 26.4 138.1 16.0 C 122.0 12.3 105.7 12.1 90.4 15.0 M 21.9 116.4 L 21.9 149.7 C 21.9 150.5 21.9 150.9 21.7 151.4 C 21.9 152.2 22.1 152.9 22.4 153.6 C 24.6 159.7 27.7 165.1 31.6 169.9 C 32.4 169.9 33.1 169.9 34.1 170.2 C 46.5 173.8 59.2 176.0 72.1 175.3 C 75.0 175.0 77.7 174.5 80.4 173.8 C 80.1 172.1 79.6 170.4 79.4 168.9 C 77.4 159.0 75.3 152.7 68.4 145.1 C 60.6 136.4 51.9 128.8 44.3 119.8 C 42.4 117.4 41.6 113.5 44.3 111.3 C 51.4 105.0 58.0 98.2 65.3 92.3 C 67.7 90.4 75.7 85.8 73.8 82.1 C 72.1 79.0 69.4 77.7 66.2 76.0 C 57.5 70.7 49.2 64.6 41.6 58.0 C 40.9 69.5 38.7 80.7 33.3 91.4 C 29.0 100.4 22.1 105.2 21.9 116.4 M 20.4 73.1 C 17.5 80.7 15.8 88.4 15.1 96.5 C 19.7 88.2 25.1 82.4 27.7 72.6 C 29.4 66.8 29.9 60.5 30.2 54.1 C 26.3 60.2 22.9 66.3 20.4 73.1 M 154.2 199.8 C 169.5 193.0 183.2 182.1 193.2 168.2 C 181.0 161.9 171.2 152.2 174.9 137.1 C 177.8 124.9 177.8 112.5 177.8 99.9 C 177.8 85.3 172.0 76.5 161.3 69.5 C 158.1 78.2 161.5 91.1 160.0 99.9 C 157.8 113.0 143.0 117.6 132.8 122.5 C 130.3 123.7 127.9 124.9 125.7 126.1 C 126.2 130.8 126.7 135.1 127.1 139.8 C 128.9 139.5 130.3 139.8 132.0 140.0 C 135.9 141.0 138.4 143.7 139.1 147.3 C 141.0 157.0 132.0 171.4 126.4 180.1 C 127.6 181.8 128.9 183.8 130.3 185.2 C 133.2 188.4 137.9 189.1 141.8 190.6 C 146.6 192.3 150.8 195.7 154.2 199.8 M 85.0 214.7 C 83.3 216.6 80.4 217.8 77.4 216.1 C 51.9 203.2 25.8 188.6 12.9 161.9 C -0.5 133.9 -1.0 98.9 8.5 70.0 C 17.3 43.4 37.7 21.8 62.8 10.1 C 90.4 -2.5 125.4 -0.8 153.7 7.9 C 211.9 26.2 234.1 103.3 213.4 156.1 C 194.6 204.9 134.5 232.2 85.0 214.7 " fill="#FFFFFF"></path></g></g></g></g></g></g></g></svg>