<?xml version="1.0" encoding="UTF-8" standalone="no"?><svg xmlns="http://www.w3.org/2000/svg" xmlns:xlink="http://www.w3.org/1999/xlink" clip-rule="evenodd" stroke-miterlimit="4.00" viewBox="0 0 1920 1080"><desc>SVG generated by Keynote</desc><defs></defs><g transform="matrix(1.00, 0.00, -0.00, -1.00, 0.0, 1080.0)"><path d="M 0.0 1080.0 L 1920.0 1080.0 L 1920.0 0.0 L 0.0 0.0 Z M 0.0 1080.0 " fill="#432754"></path><text xml:space="preserve" font-family="GillSans" font-size="50.0" fill="#FEFFFF" transform="matrix(1.00, 0.00, -0.00, -1.00, 546.0, 523.0)">J</text><text xml:space="preserve" font-family="GillSans" font-size="50.0" fill="#FEFFFF" transform="matrix(1.00, 0.00, -0.00, -1.00, 558.5, 523.0)">E</text><text xml:space="preserve" font-family="GillSans" font-size="50.0" fill="#FEFFFF" transform="matrix(1.00, 0.00, -0.00, -1.00, 583.5, 523.0)">A</text><text xml:space="preserve" font-family="GillSans" font-size="50.0" fill="#FEFFFF" transform="matrix(1.00, 0.00, -0.00, -1.00, 616.8, 523.0)">N</text><text xml:space="preserve" font-family="GillSans" font-size="50.0" fill="#FEFFFF" transform="matrix(1.00, 0.00, -0.00, -1.00, 655.9, 523.0)"> </text><text xml:space="preserve" font-family="GillSans" font-size="50.0" fill="#FEFFFF" transform="matrix(1.00, 0.00, -0.00, -1.00, 669.8, 523.0)">O</text><text xml:space="preserve" font-family="GillSans" font-size="50.0" fill="#FEFFFF" transform="matrix(1.00, 0.00, -0.00, -1.00, 710.9, 523.0)">E</text><text xml:space="preserve" font-family="GillSans" font-size="50.0" fill="#FEFFFF" transform="matrix(1.00, 0.00, -0.00, -1.00, 735.9, 523.0)">L</text><text xml:space="preserve" font-family="GillSans" font-size="50.0" fill="#FEFFFF" transform="matrix(1.00, 0.00, -0.00, -1.00, 755.4, 523.0)">W</text><text xml:space="preserve" font-family="GillSans" font-size="50.0" fill="#FEFFFF" transform="matrix(1.00, 0.00, -0.00, -1.00, 803.5, 523.0)">A</text><text xml:space="preserve" font-family="GillSans" font-size="50.0" fill="#FEFFFF" transform="matrix(1.00, 0.00, -0.00, -1.00, 836.9, 523.0)">N</text><text xml:space="preserve" font-family="GillSans" font-size="50.0" fill="#FEFFFF" transform="matrix(1.00, 0.00, -0.00, -1.00, 875.9, 523.0)">G</text><text xml:space="preserve" font-family="GillSans" font-size="50.0" fill="#FEFFFF" transform="matrix(1.00, 0.00, -0.00, -1.00, 912.9, 523.0)"> </text><text xml:space="preserve" font-family="GillSans" font-size="50.0" fill="#FEFFFF" transform="matrix(1.00, 0.00, -0.00, -1.00, 920.6, 523.0)">T</text><text xml:space="preserve" font-family="GillSans" font-size="50.0" fill="#FEFFFF" transform="matrix(1.00, 0.00, -0.00, -1.00, 950.8, 523.0)">E</text><text xml:space="preserve" font-family="GillSans" font-size="50.0" fill="#FEFFFF" transform="matrix(1.00, 0.00, -0.00, -1.00, 975.8, 523.0)">D</text><text xml:space="preserve" font-family="GillSans" font-size="50.0" fill="#FEFFFF" transform="matrix(1.00, 0.00, -0.00, -1.00, 1013.3, 523.0)"> </text><text xml:space="preserve" font-family="GillSans" font-size="50.0" fill="#FEFFFF" transform="matrix(1.00, 0.00, -0.00, -1.00, 1020.9, 523.0)">W</text><text xml:space="preserve" font-family="GillSans" font-size="50.0" fill="#FEFFFF" transform="matrix(1.00, 0.00, -0.00, -1.00, 1071.0, 523.0)">O</text><text xml:space="preserve" font-family="GillSans" font-size="50.0" fill="#FEFFFF" transform="matrix(1.00, 0.00, -0.00, -1.00, 1112.2, 523.0)">M</text><text xml:space="preserve" font-family="GillSans" font-size="50.0" fill="#FEFFFF" transform="matrix(1.00, 0.00, -0.00, -1.00, 1151.2, 523.0)">E</text><text xml:space="preserve" font-family="GillSans" font-size="50.0" fill="#FEFFFF" transform="matrix(1.00, 0.00, -0.00, -1.00, 1176.2, 523.0)">N</text><text xml:space="preserve" font-family="GillSans" font-size="50.0" fill="#FEFFFF" transform="matrix(1.00, 0.00, -0.00, -1.00, 1215.2, 523.0)"> </text><text xml:space="preserve" font-family="GillSans" font-size="50.0" fill="#FEFFFF" transform="matrix(1.00, 0.00, -0.00, -1.00, 1229.1, 523.0)">S</text><text xml:space="preserve" font-family="GillSans" font-size="50.0" fill="#FEFFFF" transform="matrix(1.00, 0.00, -0.00, -1.00, 1252.0, 523.0)">L</text><text xml:space="preserve" font-family="GillSans" font-size="50.0" fill="#FEFFFF" transform="matrix(1.00, 0.00, -0.00, -1.00, 1276.5, 523.0)">I</text><text xml:space="preserve" font-family="GillSans" font-size="50.0" fill="#FEFFFF" transform="matrix(1.00, 0.00, -0.00, -1.00, 1289.0, 523.0)">D</text><text xml:space="preserve" font-family="GillSans" font-size="50.0" fill="#FEFFFF" transform="matrix(1.00, 0.00, -0.00, -1.00, 1326.5, 523.0)">E</text><text xml:space="preserve" font-family="GillSans" font-size="50.0" fill="#FEFFFF" transform="matrix(1.00, 0.00, -0.00, -1.00, 1351.5, 523.0)">S</text></g></svg>