<?xml version="1.0" encoding="UTF-8" standalone="no"?><svg xmlns="http://www.w3.org/2000/svg" xmlns:xlink="http://www.w3.org/1999/xlink" clip-rule="evenodd" stroke-miterlimit="4.00" viewBox="0 0 1920 1080"><desc>SVG generated by Keynote</desc><defs></defs><g transform="matrix(1.00, 0.00, -0.00, -1.00, 0.0, 1080.0)"><path d="M 0.0 1080.0 L 1920.0 1080.0 L 1920.0 0.0 L 0.0 0.0 Z M 0.0 1080.0 " fill="#FEFFFF"></path><text xml:space="preserve" font-family="Bebas" font-size="40.0" fill="#000000" transform="matrix(1.00, 0.00, -0.00, -1.00, 56.0, 981.0)">D</text><text xml:space="preserve" font-family="Bebas" font-size="40.0" fill="#000000" transform="matrix(1.00, 0.00, -0.00, -1.00, 77.6, 981.0)">E</text><text xml:space="preserve" font-family="Bebas" font-size="40.0" fill="#000000" transform="matrix(1.00, 0.00, -0.00, -1.00, 96.6, 981.0)">S</text><text xml:space="preserve" font-family="Bebas" font-size="40.0" fill="#000000" transform="matrix(1.00, 0.00, -0.00, -1.00, 118.9, 981.0)">I</text><text xml:space="preserve" font-family="Bebas" font-size="40.0" fill="#000000" transform="matrix(1.00, 0.00, -0.00, -1.00, 129.0, 981.0)">R</text><text xml:space="preserve" font-family="Bebas" font-size="40.0" fill="#000000" transform="matrix(1.00, 0.00, -0.00, -1.00, 151.6, 981.0)">E</text><text xml:space="preserve" font-family="Bebas" font-size="40.0" fill="#000000" transform="matrix(1.00, 0.00, -0.00, -1.00, 170.6, 981.0)">D</text><text xml:space="preserve" font-family="Bebas" font-size="40.0" fill="#000000" transform="matrix(1.00, 0.00, -0.00, -1.00, 191.2, 981.0)"> </text><text xml:space="preserve" font-family="Bebas" font-size="40.0" fill="#000000" transform="matrix(1.00, 0.00, -0.00, -1.00, 194.9, 981.0)">F</text><text xml:space="preserve" font-family="Bebas" font-size="40.0" fill="#000000" transform="matrix(1.00, 0.00, -0.00, -1.00, 213.9, 981.0)">E</text><text xml:space="preserve" font-family="Bebas" font-size="40.0" fill="#000000" transform="matrix(1.00, 0.00, -0.00, -1.00, 232.9, 981.0)">E</text><text xml:space="preserve" font-family="Bebas" font-size="40.0" fill="#000000" transform="matrix(1.00, 0.00, -0.00, -1.00, 251.9, 981.0)">L</text><text xml:space="preserve" font-family="Bebas" font-size="40.0" fill="#000000" transform="matrix(1.00, 0.00, -0.00, -1.00, 270.2, 981.0)">I</text><text xml:space="preserve" font-family="Bebas" font-size="40.0" fill="#000000" transform="matrix(1.00, 0.00, -0.00, -1.00, 280.4, 981.0)">N</text><text xml:space="preserve" font-family="Bebas" font-size="40.0" fill="#000000" transform="matrix(1.00, 0.00, -0.00, -1.00, 303.6, 981.0)">G</text><path d="M 0.0 0.0 L 1858.0 0.0 L 1858.0 1025.6 L 0.0 1025.6 Z M 0.0 0.0 " fill="none" stroke="#000000" stroke-width="16.00" transform="matrix(1.00, 0.00, 0.00, -1.00, 31.0, 1052.8)"></path><g><clipPath id="clip-111"><path d="M 60.0 960.0 L 385.0 960.0 L 385.0 472.0 L 60.0 472.0 Z M 59.5 960.0 "></path></clipPath><g clip-path="url(#clip-111)"><image xlink:href="../../E570CA74-0A79-474E-9B36-F2079FD15AFA/assets/98441F23583334C743BF14836FCD9F66.png" width="325.00" height="488.00" transform="matrix(1.00, 0.00, -0.00, -1.00, 60.0, 960.0)"></image></g></g><g><clipPath id="clip-112"><path d="M 401.0 961.0 L 779.0 961.0 L 779.0 566.0 L 401.0 566.0 Z M 401.0 960.7 "></path></clipPath><g clip-path="url(#clip-112)"><image xlink:href="../../E570CA74-0A79-474E-9B36-F2079FD15AFA/assets/C4132307BFC404AF0873328606E2DF76.png" width="378.00" height="469.00" transform="matrix(1.00, 0.00, -0.00, -1.00, 401.0, 1035.0)"></image></g></g><g><clipPath id="clip-113"><path d="M 59.0 461.0 L 385.0 461.0 L 385.0 56.0 L 59.0 56.0 Z M 59.0 460.5 "></path></clipPath><g clip-path="url(#clip-113)"><image xlink:href="../../E570CA74-0A79-474E-9B36-F2079FD15AFA/assets/2D4FF504176E59BB451160DE895EFF83.png" width="326.00" height="491.00" transform="matrix(1.00, 0.00, -0.00, -1.00, 59.0, 503.0)"></image></g></g><g><clipPath id="clip-114"><path d="M 795.0 379.0 L 1377.0 379.0 L 1377.0 58.0 L 795.0 58.0 Z M 795.2 379.0 "></path></clipPath><g clip-path="url(#clip-114)"><image xlink:href="../../E570CA74-0A79-474E-9B36-F2079FD15AFA/assets/8EA8B1A3E87403DE7CACDC60A4D2DCFF.png" width="808.00" height="540.00" transform="matrix(1.05, 0.00, -0.00, -1.05, 535.0, 541.0)"></image></g></g><g><clipPath id="clip-115"><path d="M 796.0 961.0 L 1375.0 961.0 L 1375.0 392.0 L 796.0 392.0 Z M 795.7 960.5 "></path></clipPath><g clip-path="url(#clip-115)"><image xlink:href="../../E570CA74-0A79-474E-9B36-F2079FD15AFA/assets/F0C321ED5487A51D8AF4D590868D269A.png" width="808.00" height="540.00" transform="matrix(1.05, 0.00, -0.00, -1.05, 524.0, 960.0)"></image></g></g><g><clipPath id="clip-116"><path d="M 1391.0 962.0 L 1878.0 962.0 L 1878.0 61.0 L 1391.0 61.0 Z M 1391.1 961.6 "></path></clipPath><g clip-path="url(#clip-116)"><image xlink:href="../../E570CA74-0A79-474E-9B36-F2079FD15AFA/assets/1D46DDB863082D7DC061246B87130761.png" width="424.00" height="541.00" transform="matrix(1.67, 0.00, -0.00, -1.67, 1252.0, 962.0)"></image></g></g><image xlink:href="../../E570CA74-0A79-474E-9B36-F2079FD15AFA/assets/C4EF7EE7BC24DAEE7C9B344EC1A69460.jpeg" width="284.00" height="426.00" transform="matrix(1.35, 0.00, -0.00, -1.35, 398.0, 632.0)"></image></g></svg>