<?xml version="1.0" encoding="UTF-8" standalone="no"?><svg xmlns="http://www.w3.org/2000/svg" xmlns:xlink="http://www.w3.org/1999/xlink" clip-rule="evenodd" stroke-miterlimit="4.00" viewBox="0 0 296 101"><desc>SVG generated by Keynote</desc><defs></defs><g transform="matrix(1.00, 0.00, -0.00, -1.00, 0.0, 101.0)"><path d="M 143.4 85.5 C 143.6 85.4 143.8 85.3 144.2 85.2 C 144.0 85.2 143.9 85.1 143.9 85.0 C 143.6 85.2 143.1 85.3 142.5 85.5 C 142.5 85.5 142.9 85.4 143.1 85.4 C 143.3 85.3 143.3 85.4 143.4 85.5 C 143.4 85.5 143.4 85.5 143.4 85.5 Z M 217.6 56.7 C 217.1 57.0 217.8 57.0 218.0 56.9 C 218.0 56.8 218.0 56.7 218.2 56.7 C 218.4 56.8 217.9 57.1 217.6 57.3 C 216.2 57.9 217.0 57.0 217.6 56.7 C 217.6 56.7 217.6 56.7 217.6 56.7 Z M 281.3 17.2 C 282.3 16.5 281.1 17.1 280.9 17.1 C 281.3 16.7 280.7 16.7 281.3 16.2 C 281.4 16.2 281.7 16.1 281.9 16.1 C 281.7 16.3 281.3 16.6 281.3 16.7 C 281.6 16.5 282.1 16.1 282.2 16.1 C 281.5 16.8 282.3 16.4 282.5 16.5 C 281.8 17.0 281.7 17.3 281.3 17.2 C 281.3 17.2 281.3 17.2 281.3 17.2 Z M 55.3 97.8 C 55.0 97.8 54.7 97.8 54.8 97.6 C 55.1 97.6 55.4 97.6 55.6 97.7 C 55.7 97.5 55.5 97.4 55.9 97.4 C 56.3 97.6 56.1 97.9 55.9 98.1 C 55.9 97.9 54.6 98.0 55.3 97.8 C 55.3 97.8 55.3 97.8 55.3 97.8 Z M 86.8 94.7 C 87.8 94.7 86.8 94.3 87.8 94.3 C 87.8 94.5 88.0 94.8 87.3 94.9 C 87.3 94.8 86.8 94.8 86.8 94.7 C 86.8 94.7 86.8 94.7 86.8 94.7 Z M 254.2 33.5 C 254.3 33.7 254.9 33.2 254.9 33.5 C 254.5 33.7 254.3 33.9 253.9 34.1 C 253.8 34.0 253.8 33.8 254.2 33.5 C 254.2 33.5 254.2 33.5 254.2 33.5 Z M 286.4 10.1 C 287.6 9.5 288.4 8.3 288.2 8.8 C 288.8 8.7 288.0 10.0 287.9 9.7 C 287.6 9.5 285.6 10.7 286.4 10.1 C 286.4 10.1 286.4 10.1 286.4 10.1 Z M 221.2 49.7 C 222.5 49.3 221.9 48.7 222.9 48.6 C 222.6 48.8 222.5 48.9 222.5 49.0 C 222.7 49.0 222.9 48.8 223.0 48.9 C 222.4 49.2 221.8 49.6 221.2 49.7 C 221.2 49.7 221.2 49.7 221.2 49.7 Z M 124.7 89.4 C 124.5 89.5 124.4 89.6 124.5 89.7 C 123.6 89.8 123.7 90.0 123.1 90.0 C 123.0 89.6 123.7 89.6 124.4 89.5 C 124.4 89.4 124.6 89.3 124.7 89.4 C 124.7 89.4 124.7 89.4 124.7 89.4 Z M 100.3 93.0 C 100.4 93.2 100.9 93.2 100.1 93.4 C 99.1 93.2 99.9 92.9 100.8 92.5 C 100.8 92.4 100.8 92.3 100.8 92.2 C 100.4 92.3 100.1 92.3 99.9 92.2 C 99.8 92.7 99.1 92.0 97.7 92.5 C 98.3 92.2 97.6 92.0 98.5 92.0 C 98.2 91.8 98.8 91.7 98.7 91.5 C 98.3 91.7 97.4 91.8 97.6 92.1 C 97.2 92.2 96.8 92.2 96.5 92.2 C 96.1 92.0 97.4 92.0 97.0 91.8 C 96.8 91.8 96.7 91.7 96.5 91.8 C 96.4 91.9 96.6 92.0 96.2 92.1 C 95.3 92.1 96.4 91.7 95.1 91.9 C 95.0 92.1 95.4 92.0 95.4 92.2 C 94.9 92.4 94.9 92.2 94.3 92.4 C 94.2 92.3 94.7 92.2 94.3 92.2 C 94.0 92.6 93.1 92.1 92.4 92.5 C 93.0 93.0 92.2 92.4 91.6 93.1 C 91.4 93.0 91.9 92.5 91.2 92.6 C 91.6 93.3 89.1 93.4 91.1 93.7 C 90.1 93.8 89.8 94.4 90.6 94.4 C 88.8 94.5 89.4 94.8 88.7 94.9 C 88.0 95.0 89.1 94.7 88.7 94.6 C 89.4 94.5 89.2 94.3 89.8 94.4 C 89.8 94.3 89.9 94.2 90.0 94.1 C 89.3 94.4 88.4 94.1 88.9 93.7 C 89.3 93.7 88.9 94.1 89.5 94.0 C 89.2 93.6 90.0 94.0 90.0 93.7 C 89.6 93.4 90.6 93.0 89.6 93.1 C 89.6 93.2 89.7 93.4 89.7 93.5 C 89.4 93.6 89.1 93.6 88.9 93.6 C 88.6 93.4 88.8 93.2 88.5 93.1 C 88.0 93.2 87.8 93.3 87.7 93.4 C 88.3 93.4 89.0 93.5 88.0 93.7 C 88.3 93.1 86.7 93.8 87.4 93.4 C 86.4 93.3 85.9 93.8 85.8 93.5 C 85.2 93.5 85.6 93.8 84.9 93.8 C 83.9 93.7 84.1 94.1 82.7 94.0 C 82.6 94.5 82.6 93.9 82.2 94.0 C 82.2 94.1 82.2 94.3 82.2 94.4 C 81.7 94.2 80.6 94.2 79.4 94.6 C 79.1 94.6 79.3 94.3 78.6 94.4 C 77.8 94.9 76.8 94.6 75.9 95.1 C 75.8 94.9 75.1 94.9 74.7 95.1 C 74.6 95.0 75.0 94.6 74.4 94.7 C 74.0 95.0 74.8 95.0 73.9 95.2 C 74.0 94.9 73.1 95.5 73.0 95.1 C 73.3 95.0 73.6 94.9 73.9 94.8 C 73.5 94.8 73.6 94.7 73.3 94.7 C 73.4 95.0 72.7 94.8 72.4 94.7 C 72.5 94.9 72.4 95.0 72.2 95.1 C 71.7 95.2 71.3 95.2 71.1 95.3 C 70.5 95.2 71.4 95.1 70.8 95.1 C 70.6 95.8 69.9 95.1 68.6 95.6 C 68.3 95.4 67.8 95.3 66.9 95.4 C 66.8 95.6 67.7 95.4 67.8 95.6 C 66.5 95.6 68.0 95.7 67.2 95.8 C 65.5 95.8 64.3 95.9 62.5 95.8 C 62.5 96.0 61.1 96.2 61.1 96.1 C 61.5 96.0 60.3 95.8 59.7 95.8 C 59.6 96.3 58.7 96.8 58.6 97.0 C 58.4 96.8 58.4 96.7 58.3 96.3 C 57.3 96.3 56.8 96.7 56.1 96.3 C 56.2 96.5 55.7 96.6 55.3 96.7 C 55.4 96.5 55.6 96.3 55.8 96.1 C 55.3 96.2 55.2 96.0 54.7 96.1 C 54.2 96.9 53.4 95.9 53.0 96.7 C 52.2 96.7 52.4 96.4 51.6 96.5 C 51.7 96.6 51.6 96.7 51.4 96.8 C 51.9 96.7 52.2 96.5 52.5 96.8 C 51.4 96.9 54.6 97.5 52.8 97.9 C 52.7 97.7 52.9 97.5 52.5 97.5 C 51.5 97.7 52.1 97.9 52.5 97.9 C 51.9 98.0 51.1 97.9 51.7 98.3 C 50.1 98.4 51.1 98.1 50.6 98.0 C 47.8 98.3 44.3 98.5 40.5 98.2 C 40.4 98.6 38.3 98.3 37.7 98.0 C 36.6 98.3 35.5 98.4 35.2 98.0 C 35.0 98.4 33.9 97.8 33.8 98.1 C 34.2 98.1 34.5 98.2 34.1 98.3 C 32.5 98.1 30.2 98.0 29.3 98.2 C 28.7 97.9 27.7 97.9 27.0 98.1 C 26.9 97.9 27.5 97.9 27.1 97.8 C 26.9 98.0 25.5 98.1 25.1 97.9 C 25.5 98.0 26.0 97.6 25.4 97.6 C 25.4 97.8 24.6 97.7 24.8 97.9 C 23.9 97.8 23.3 97.9 22.6 97.8 C 23.2 97.7 23.6 97.6 23.7 97.4 C 23.2 97.6 22.7 97.7 22.3 97.4 C 22.4 97.8 21.5 97.5 20.6 97.7 C 20.4 97.5 20.2 97.4 19.5 97.4 C 19.1 97.6 20.6 97.7 19.8 97.7 C 19.8 97.6 19.0 97.4 19.2 97.7 C 18.3 97.5 17.7 97.7 17.0 97.4 C 18.0 97.6 17.2 97.1 17.0 97.1 C 16.8 97.1 16.5 97.0 16.4 97.1 C 16.4 97.2 16.9 97.2 17.0 97.3 C 16.3 97.2 16.1 97.6 15.9 97.4 C 16.2 97.4 16.2 97.2 15.9 97.2 C 15.8 97.6 13.8 97.2 14.5 97.0 C 14.5 97.1 15.2 97.2 15.3 97.1 C 15.1 96.9 14.0 97.0 14.2 96.7 C 14.9 96.7 14.8 96.9 15.6 96.9 C 15.7 96.7 16.2 96.7 16.5 96.6 C 15.2 96.5 14.9 96.8 14.8 96.5 C 14.2 96.5 14.6 96.8 13.7 96.7 C 12.4 96.5 13.5 96.3 13.1 96.2 C 12.0 96.3 12.3 96.7 12.8 97.0 C 11.9 96.9 11.6 97.1 10.5 96.9 C 10.6 96.8 10.8 96.7 11.1 96.6 C 11.2 96.7 12.1 97.0 12.0 96.8 C 11.9 96.4 11.2 96.1 10.1 96.0 C 10.3 96.4 10.4 96.2 9.2 96.1 C 9.4 96.5 8.7 96.0 8.6 96.3 C 8.7 96.4 9.1 96.4 9.5 96.4 C 9.4 96.6 9.3 96.7 8.9 96.7 C 8.7 96.6 8.5 96.7 7.8 96.6 C 7.7 96.3 8.2 96.3 8.4 96.2 C 8.0 96.2 7.9 96.3 7.5 96.3 C 7.2 96.0 7.2 95.6 7.3 95.3 C 7.7 95.2 8.4 95.3 7.9 95.0 C 9.5 95.1 7.8 95.4 8.4 95.5 C 9.1 95.2 8.7 95.7 9.8 95.7 C 10.1 95.7 10.2 95.7 10.4 95.6 C 10.3 95.5 9.7 95.2 10.4 95.2 C 10.5 95.4 10.9 95.6 11.5 95.7 C 11.5 95.5 10.3 95.3 11.5 95.4 C 12.1 95.4 11.5 95.8 12.3 95.8 C 12.3 95.7 12.5 95.7 12.6 95.6 C 11.5 95.6 12.8 95.4 12.1 95.2 C 13.1 95.2 12.2 95.6 12.9 95.6 C 12.9 95.4 14.0 95.8 14.0 95.5 C 13.6 95.6 12.8 95.5 12.9 95.2 C 13.6 95.3 17.0 95.3 15.7 95.6 C 16.2 95.5 18.7 95.2 18.5 95.4 C 17.7 95.4 17.8 95.6 17.6 95.7 C 19.0 95.5 19.7 95.8 21.3 95.5 C 19.6 95.3 20.9 94.9 19.9 94.7 C 19.5 94.7 18.9 94.6 18.8 94.7 C 19.0 95.0 19.6 94.9 19.9 94.8 C 19.9 95.0 19.9 95.2 19.9 95.5 C 18.1 95.1 17.1 95.4 16.3 95.2 C 17.0 95.2 14.9 94.8 15.7 94.7 C 16.1 94.9 16.9 95.0 17.7 95.1 C 17.7 95.0 17.7 94.9 17.7 94.8 C 18.0 94.8 18.5 94.9 18.5 94.8 C 17.5 94.8 17.0 94.5 16.3 94.7 C 16.3 94.6 16.3 94.6 16.3 94.5 C 16.1 94.5 16.0 94.5 16.0 94.4 C 16.3 94.4 16.8 94.4 16.9 94.3 C 16.1 94.2 16.0 94.0 15.2 93.9 C 15.4 93.6 14.4 93.2 15.6 93.1 C 15.7 93.4 16.4 93.5 16.3 93.7 C 16.7 93.8 17.4 93.8 17.7 93.7 C 17.4 93.5 16.7 93.4 16.7 93.1 C 17.2 93.1 17.7 93.0 18.0 93.2 C 16.8 93.3 18.7 93.5 19.1 93.8 C 19.0 93.7 18.7 93.6 18.6 93.4 C 19.5 93.5 19.9 93.7 20.0 93.3 C 21.1 93.3 20.8 93.6 21.6 93.6 C 21.1 93.2 22.1 93.4 21.6 93.0 C 22.9 93.0 22.0 93.4 22.5 93.4 C 22.9 93.4 22.9 93.3 23.3 93.3 C 23.9 93.5 25.1 93.5 25.2 93.9 C 25.7 93.9 25.8 94.0 26.3 94.0 C 26.5 93.9 26.6 93.8 26.9 93.8 C 27.0 93.9 27.3 94.0 27.5 93.9 C 26.0 93.4 26.4 93.4 25.0 93.1 C 24.9 93.2 24.6 93.2 25.0 93.3 C 23.9 93.4 23.6 93.2 22.7 93.2 C 22.6 92.9 22.5 92.5 21.7 92.8 C 21.9 92.5 21.6 92.4 22.0 92.3 C 22.4 92.5 23.0 92.6 23.6 92.8 C 23.7 92.6 23.6 92.5 23.9 92.5 C 24.2 92.6 24.6 92.7 25.0 92.6 C 25.0 92.7 24.9 92.8 24.7 92.9 C 26.1 93.0 25.6 92.6 26.6 92.9 C 26.5 92.7 25.8 92.6 26.4 92.5 C 27.3 92.4 27.5 92.6 28.0 92.7 C 28.1 92.6 28.1 92.5 28.3 92.5 C 29.0 92.7 26.8 93.0 28.0 93.4 C 28.1 93.1 29.3 93.3 29.4 93.5 C 29.0 93.7 28.4 93.3 28.3 93.5 C 30.4 93.6 28.3 94.0 30.5 94.1 C 30.5 94.0 30.5 93.9 30.5 93.8 C 29.6 93.8 29.6 93.5 29.7 93.3 C 28.9 93.2 28.6 92.9 28.0 93.1 C 28.3 92.5 28.6 93.1 29.4 93.1 C 29.4 92.8 28.7 92.8 28.6 92.5 C 30.4 92.8 30.7 92.4 32.4 92.9 C 32.0 92.6 33.4 92.8 33.3 92.6 C 31.8 92.7 32.4 91.9 32.2 91.8 C 31.2 91.8 31.6 92.3 31.1 92.5 C 30.8 92.2 30.9 92.1 31.1 91.7 C 31.9 91.8 31.8 91.7 32.5 91.6 C 33.0 91.9 33.5 92.4 32.7 92.5 C 32.9 92.5 34.0 92.3 34.1 92.5 C 33.0 92.5 34.2 92.7 33.6 92.8 C 34.4 93.0 35.9 92.7 36.9 92.9 C 36.8 92.7 37.2 92.7 37.2 92.6 C 36.1 92.8 35.9 92.2 35.0 92.2 C 35.4 92.2 35.1 92.0 35.0 91.9 C 35.9 92.1 36.5 91.8 37.2 92.1 C 37.2 92.0 37.2 91.9 37.2 91.8 C 38.3 92.1 38.2 92.0 39.1 91.7 C 39.4 91.9 39.0 92.4 38.8 92.6 C 39.3 92.5 40.8 92.6 39.9 92.3 C 40.9 92.3 40.6 92.6 41.6 92.6 C 41.6 92.3 40.7 92.4 41.0 92.0 C 41.9 91.9 41.4 92.3 42.1 92.1 C 42.2 92.3 42.2 92.5 42.9 92.5 C 42.4 92.3 43.0 92.4 43.2 92.2 C 42.9 92.2 42.6 92.2 42.4 92.1 C 43.8 92.1 44.0 92.1 45.1 92.0 C 44.7 92.3 45.4 92.4 44.6 92.6 C 45.3 92.4 46.2 92.7 46.5 92.5 C 46.1 92.5 45.4 92.5 45.1 92.3 C 47.3 92.2 48.5 91.8 50.4 92.2 C 50.1 92.2 49.6 92.2 49.6 92.3 C 49.8 92.3 50.1 92.3 50.1 92.4 C 49.4 92.4 48.8 92.4 48.5 92.5 C 47.9 92.4 48.8 92.3 48.2 92.2 C 48.1 92.4 46.9 92.3 47.4 92.6 C 48.4 92.3 49.4 92.6 49.9 93.0 C 50.8 92.5 49.9 92.5 50.9 92.0 C 50.9 92.1 51.2 92.2 51.5 92.2 C 51.2 91.8 52.4 92.0 52.6 92.0 C 52.1 92.2 50.3 92.5 51.2 92.8 C 50.8 92.1 53.4 92.9 52.9 92.4 C 54.0 92.2 53.6 92.7 54.3 92.3 C 54.3 92.4 54.2 92.6 54.5 92.6 C 54.9 92.5 55.0 92.4 55.1 92.4 C 53.5 92.3 53.9 91.9 52.8 91.9 C 53.0 91.9 53.2 91.9 53.1 91.8 C 53.1 91.7 53.2 91.7 53.4 91.7 C 53.5 92.1 54.3 91.6 54.5 91.8 C 54.2 91.9 53.9 91.9 54.0 92.0 C 55.3 91.9 55.1 92.3 57.0 92.4 C 56.4 92.2 57.2 92.1 57.8 92.0 C 58.7 92.0 58.4 92.5 59.5 92.4 C 59.4 91.7 60.7 92.4 62.0 91.9 C 61.9 92.3 63.6 92.3 63.9 92.0 C 64.0 92.1 64.6 92.0 65.0 92.0 C 65.1 92.1 64.6 92.2 65.0 92.2 C 65.4 92.2 65.0 91.9 65.6 91.8 C 66.1 91.9 66.1 92.2 66.9 92.1 C 67.0 91.9 66.5 92.0 66.9 91.8 C 67.7 91.8 68.4 91.7 67.7 91.5 C 68.9 91.4 68.4 91.9 69.4 91.8 C 69.1 91.7 69.1 91.6 69.7 91.5 C 70.1 91.7 70.1 91.8 70.3 91.9 C 70.6 91.7 70.5 91.6 71.4 91.7 C 71.4 91.5 71.3 91.4 71.3 91.3 C 71.7 91.3 72.3 91.2 72.4 91.3 C 71.7 91.3 71.9 91.5 71.6 91.6 C 72.4 91.6 73.9 91.8 72.7 91.6 C 73.8 91.3 73.3 91.8 74.1 91.6 C 73.6 91.4 74.1 91.6 74.9 91.4 C 74.8 91.1 75.5 91.3 76.0 91.3 C 75.9 91.1 76.1 90.9 76.5 90.8 C 76.5 91.0 76.8 91.0 77.4 90.9 C 77.4 90.8 76.2 90.8 77.4 90.7 C 77.9 90.7 77.9 91.0 78.8 91.0 C 79.0 91.2 78.0 91.2 78.3 91.5 C 78.9 91.1 79.2 91.3 80.2 91.3 C 79.7 90.8 82.2 90.4 80.9 90.3 C 81.3 90.3 81.7 89.8 82.0 90.1 C 81.7 90.2 82.3 90.3 82.3 90.4 C 82.8 90.3 83.9 90.3 83.9 90.1 C 82.9 90.3 82.9 90.1 82.5 89.9 C 84.0 89.6 85.4 89.6 85.3 89.9 C 85.3 89.8 85.5 89.8 85.6 89.7 C 85.0 89.8 84.6 89.4 85.2 89.3 C 85.1 89.6 85.6 89.6 86.1 89.6 C 86.1 89.3 88.1 89.5 87.7 89.1 C 87.0 89.5 86.3 89.1 86.9 88.9 C 87.4 89.1 88.5 89.1 88.3 89.3 C 88.6 89.2 88.8 89.1 89.1 89.0 C 89.3 88.7 88.7 88.8 88.8 88.5 C 89.2 88.5 89.8 88.4 89.9 88.5 C 88.8 88.7 90.4 88.6 89.3 88.9 C 90.0 88.8 90.2 89.0 90.8 88.9 C 90.7 88.8 91.0 88.8 91.0 88.7 C 90.5 88.9 90.0 88.8 90.1 88.5 C 91.1 88.4 91.0 88.7 91.8 88.6 C 92.0 88.4 93.1 87.8 93.7 88.0 C 92.6 88.1 93.8 88.1 93.2 88.3 C 92.2 88.3 91.9 88.6 91.6 88.9 C 92.0 89.0 92.9 89.0 92.9 88.6 C 92.4 88.7 92.4 88.8 92.1 88.9 C 92.1 88.7 92.3 88.6 92.6 88.5 C 93.1 88.6 94.1 88.3 93.5 88.7 C 94.2 88.5 95.0 88.6 95.7 88.3 C 94.9 88.4 94.3 88.4 94.0 88.2 C 94.6 88.0 95.3 88.2 95.3 88.0 C 95.2 87.8 94.2 88.0 93.9 87.8 C 94.8 87.5 96.2 88.0 95.0 87.6 C 95.5 87.6 96.2 87.5 96.4 87.6 C 95.8 87.7 96.5 88.0 96.8 88.0 C 97.3 87.9 97.6 87.8 97.8 87.6 C 97.1 87.9 96.4 87.6 97.0 87.5 C 97.1 87.6 97.2 87.4 97.5 87.3 C 97.5 87.5 98.4 87.2 98.6 87.3 C 98.5 87.2 98.1 87.3 98.0 87.2 C 98.5 87.0 99.2 86.5 99.6 86.8 C 99.3 86.9 98.8 86.9 98.8 87.0 C 100.3 87.2 100.8 87.5 102.5 87.3 C 102.3 87.4 102.2 87.5 102.3 87.6 C 103.3 87.4 104.0 87.4 103.9 87.7 C 104.6 87.5 104.9 87.3 105.2 87.1 C 104.5 87.0 104.3 87.3 103.9 87.2 C 104.1 87.1 103.3 86.8 102.9 86.6 C 101.8 87.1 101.7 86.7 100.5 87.0 C 100.8 86.7 99.6 87.1 99.9 86.8 C 101.1 87.0 102.1 86.5 103.7 86.4 C 103.6 86.7 103.4 86.9 104.1 86.9 C 105.1 86.9 104.6 86.6 105.4 86.5 C 105.8 86.7 105.3 86.8 105.8 86.8 C 106.0 86.6 106.8 86.5 107.1 86.7 C 106.0 86.9 107.4 86.9 106.7 87.2 C 107.1 87.1 107.3 87.1 107.5 87.1 C 106.4 87.0 108.5 86.6 107.7 86.5 C 109.2 86.1 107.9 87.1 109.1 86.8 C 108.5 86.8 109.3 86.5 110.2 86.4 C 110.5 86.6 111.4 86.5 112.2 86.5 C 111.7 86.3 111.4 86.4 112.1 86.1 C 111.7 86.1 111.1 86.2 110.7 86.4 C 110.7 86.2 110.6 86.2 110.4 86.2 C 111.3 85.9 110.9 85.9 111.2 85.7 C 111.5 85.8 112.1 85.7 112.3 85.8 C 112.3 85.7 112.5 85.6 112.5 85.6 C 111.4 85.8 112.7 85.2 111.9 85.2 C 111.4 85.3 111.8 85.6 111.2 85.6 C 110.5 85.4 111.6 85.2 111.9 84.9 C 111.3 84.8 110.7 85.2 110.5 85.0 C 111.1 84.5 112.3 84.5 113.2 84.4 C 113.0 84.1 114.7 84.2 114.7 83.8 C 114.9 83.8 115.1 83.9 115.3 83.9 C 115.5 83.6 115.9 83.9 116.1 83.9 C 116.1 83.7 116.0 83.6 115.8 83.5 C 116.9 83.5 117.2 83.4 118.5 83.0 C 118.7 83.1 119.0 83.2 119.2 83.4 C 118.8 83.5 118.6 83.6 118.4 83.8 C 120.2 83.4 118.9 82.9 120.2 83.1 C 120.1 83.0 119.2 82.8 119.8 82.6 C 121.0 82.7 122.6 82.1 122.7 82.8 C 123.7 82.9 124.3 82.2 124.9 82.5 C 125.2 82.4 125.3 82.3 125.4 82.2 C 125.0 82.1 124.6 82.0 124.2 82.0 C 123.6 82.2 123.3 82.0 124.0 82.3 C 123.1 82.5 122.8 82.4 122.3 82.4 C 123.5 81.9 124.7 81.9 124.6 81.5 C 125.1 81.6 125.5 81.7 125.8 81.8 C 125.9 81.6 127.3 81.1 127.5 81.4 C 126.5 81.5 125.6 82.1 126.5 82.1 C 128.7 81.4 130.1 81.6 132.1 80.8 C 132.2 80.9 132.1 81.1 132.5 81.0 C 132.4 80.9 132.5 80.8 132.7 80.6 C 133.3 80.5 133.7 80.5 134.5 80.3 C 134.5 80.5 134.7 80.7 135.2 80.6 C 135.4 80.3 136.1 79.6 136.7 79.5 C 136.1 79.7 136.9 79.8 137.3 79.7 C 136.9 79.5 139.7 79.4 138.9 79.2 C 140.0 79.0 140.5 79.0 140.5 79.1 C 140.9 78.9 141.2 78.8 141.5 78.6 C 141.9 78.9 143.7 78.1 144.0 78.2 C 143.3 78.3 143.3 78.7 143.8 78.6 C 144.1 78.3 145.8 77.6 146.1 77.6 C 146.0 77.7 146.0 78.0 145.2 78.3 C 146.6 77.9 146.5 77.5 146.9 77.1 C 146.9 77.5 147.5 77.0 147.7 76.9 C 148.2 77.0 147.7 77.0 147.8 77.3 C 148.3 77.2 148.5 77.3 149.1 77.1 C 148.9 76.8 149.6 76.8 149.9 76.7 C 150.0 76.5 150.3 76.3 150.9 76.1 C 150.2 76.8 154.4 75.6 153.3 75.5 C 154.1 75.1 154.2 75.6 155.2 75.2 C 155.4 75.0 156.0 74.9 155.4 74.9 C 156.2 74.6 155.8 75.1 156.8 74.7 C 156.3 74.5 157.8 74.4 157.5 74.1 C 158.1 74.4 158.7 73.5 159.7 73.7 C 159.6 73.6 159.9 73.5 159.9 73.4 C 160.0 73.2 158.8 73.5 159.5 73.2 C 160.5 73.1 160.0 73.4 160.2 73.5 C 162.6 72.6 165.5 71.7 168.1 70.9 C 167.8 70.9 167.8 70.8 168.3 70.6 C 169.2 70.8 172.1 69.5 172.5 69.2 C 172.9 69.4 174.3 68.6 174.6 68.6 C 174.3 68.7 173.8 69.2 174.5 69.0 C 174.7 68.5 175.4 68.5 175.9 68.1 C 176.3 68.3 178.0 67.2 177.4 68.1 C 177.7 68.0 178.0 67.9 178.2 67.9 C 178.1 67.6 178.5 67.5 177.8 67.6 C 179.5 67.1 179.8 66.7 181.2 66.4 C 181.4 66.2 180.3 66.5 181.1 66.1 C 181.1 66.2 181.1 66.2 181.1 66.3 C 181.4 66.2 181.5 66.0 181.6 66.1 C 181.6 66.2 181.2 66.4 181.3 66.7 C 181.9 66.3 182.5 66.5 182.6 66.2 C 181.7 66.5 182.1 65.8 182.7 65.9 C 182.3 66.2 184.8 65.0 185.5 64.6 C 186.0 64.7 184.7 65.0 184.8 65.1 C 186.3 64.5 186.2 64.6 186.3 64.3 C 187.1 64.0 187.5 64.1 188.4 63.5 C 189.0 63.4 188.1 63.9 188.7 63.7 C 189.0 63.4 189.1 63.2 189.6 63.0 C 191.2 63.0 194.1 60.8 196.0 60.9 C 195.2 61.0 196.0 60.5 196.8 60.2 C 196.9 60.2 196.9 60.4 197.2 60.3 C 197.1 60.1 197.3 59.9 197.8 59.7 C 197.9 59.8 197.9 60.0 198.2 59.9 C 198.3 59.4 199.1 59.5 199.4 59.1 C 199.7 59.3 198.5 59.7 198.5 59.9 C 199.9 59.5 200.0 59.1 201.1 58.8 C 200.5 59.0 201.5 58.9 201.7 58.9 C 201.4 58.7 202.1 58.2 201.5 58.3 C 201.8 58.1 202.4 57.9 202.5 57.9 C 202.3 58.0 202.0 58.2 202.0 58.2 C 202.5 58.0 203.2 58.0 203.3 57.7 C 203.0 57.8 202.7 57.8 202.7 57.7 C 202.7 57.5 202.9 57.3 203.1 57.2 C 202.7 58.1 204.6 56.9 204.6 56.7 C 205.0 57.0 205.1 56.9 205.2 57.1 C 206.0 56.7 205.8 56.5 206.3 56.2 C 206.3 56.6 206.2 56.9 207.1 56.6 C 206.7 56.4 207.7 56.0 207.3 55.7 C 209.3 54.7 209.9 54.8 211.1 54.2 C 211.1 54.1 210.7 54.3 211.1 54.0 C 211.7 53.8 212.2 53.7 212.7 53.6 C 212.9 53.3 212.5 53.5 212.8 53.2 C 213.8 53.0 213.7 53.4 214.6 53.2 C 215.5 52.5 215.2 52.8 215.7 52.3 C 215.4 52.4 215.0 52.4 215.4 52.2 C 216.1 52.2 216.5 52.3 216.7 52.3 C 216.2 52.5 215.9 52.7 215.6 52.7 C 215.6 52.9 215.0 53.2 215.6 53.1 C 214.9 53.4 214.2 53.7 213.3 54.2 C 213.7 54.3 212.5 54.6 212.9 54.7 C 213.9 54.2 214.3 54.2 215.2 53.7 C 214.8 53.5 215.9 53.2 216.2 53.2 C 216.1 53.0 216.8 52.7 216.5 52.6 C 217.2 52.1 217.3 52.4 218.0 51.9 C 218.1 52.0 218.1 52.2 218.4 52.0 C 218.5 51.6 218.9 51.9 219.2 51.7 C 218.9 51.6 220.0 51.1 220.0 50.9 C 219.7 51.1 219.3 51.3 219.2 51.2 C 220.4 50.6 219.3 50.9 219.0 50.8 C 219.1 50.9 218.8 51.5 218.6 51.3 C 219.6 50.6 217.0 51.6 218.0 51.2 C 218.8 50.9 218.6 50.7 219.4 50.4 C 220.6 50.4 219.6 51.2 220.7 51.1 C 221.2 50.6 221.6 50.4 221.5 50.2 C 221.7 50.2 221.8 50.2 222.1 50.2 C 222.3 49.9 221.2 50.3 221.9 49.8 C 222.3 49.7 222.1 50.3 222.8 49.8 C 223.1 49.4 221.7 50.0 222.4 49.6 C 223.4 49.6 222.2 49.5 223.1 49.0 C 223.2 49.1 223.3 49.0 223.6 48.9 C 223.7 48.9 223.7 49.2 224.0 49.0 C 224.0 48.5 224.4 49.0 225.0 48.6 C 225.2 48.1 224.3 48.8 224.4 48.5 C 225.2 48.4 225.5 47.8 225.8 47.7 C 225.3 48.2 226.8 47.4 227.0 47.6 C 226.7 47.4 227.1 47.3 227.8 46.6 C 228.1 47.1 228.9 46.2 229.3 46.5 C 229.3 46.3 229.5 46.1 229.6 45.9 C 229.3 46.0 229.0 46.2 229.0 46.0 C 229.2 45.9 229.5 45.7 229.7 45.6 C 230.2 45.6 229.5 46.6 231.0 45.7 C 230.7 45.5 231.4 45.1 231.7 44.7 C 231.5 44.4 231.1 45.0 230.9 44.9 C 231.4 44.4 232.1 44.3 232.5 44.3 C 233.3 43.6 234.5 43.2 235.8 42.3 C 236.2 42.3 234.8 43.1 235.8 42.7 C 236.1 42.5 235.8 42.4 236.4 42.2 C 236.5 43.5 240.1 40.3 240.6 40.6 C 240.6 40.3 241.9 39.7 241.6 39.5 C 240.9 40.2 240.2 40.2 239.7 40.2 C 239.1 40.8 240.5 40.1 239.9 40.6 C 239.8 40.4 238.9 41.1 238.8 40.9 C 239.9 40.3 238.2 41.0 238.8 40.3 C 239.8 39.8 241.5 38.4 241.2 38.9 C 241.2 38.9 240.8 39.1 240.8 39.2 C 241.9 38.7 242.4 38.1 242.8 37.7 C 243.4 37.6 245.1 36.1 244.7 36.6 C 245.0 36.7 243.5 37.2 243.8 37.3 C 245.8 36.2 245.8 36.0 247.2 35.4 C 246.6 35.4 248.3 34.1 248.2 34.3 C 248.3 34.6 248.8 34.5 249.4 33.8 C 249.5 34.1 249.9 33.9 250.4 33.7 C 250.4 33.4 249.9 33.7 249.9 33.5 C 250.3 33.2 250.7 33.0 251.1 32.7 C 251.2 32.8 251.2 33.0 251.5 32.8 C 251.8 32.4 253.2 31.2 253.2 31.4 C 252.7 32.1 254.4 31.0 253.5 31.9 C 253.8 31.7 253.9 31.8 254.2 31.5 C 254.2 31.4 254.1 31.3 254.0 31.2 C 254.9 30.6 254.7 31.3 255.4 30.8 C 255.4 30.7 255.7 30.4 255.8 30.3 C 255.5 30.5 255.5 30.6 255.1 30.8 C 255.3 30.2 254.2 31.1 254.1 30.8 C 254.9 30.2 255.1 30.5 255.5 30.4 C 256.4 29.5 256.0 29.9 257.1 29.3 C 257.0 29.2 256.7 29.4 256.7 29.2 C 258.1 28.4 258.3 29.0 259.1 28.2 C 258.9 28.4 258.2 29.1 258.8 28.8 C 259.3 28.3 259.3 27.9 260.1 27.3 C 260.2 27.4 260.2 27.6 260.5 27.4 C 260.8 27.1 260.7 26.9 260.9 26.6 C 261.1 26.6 261.5 26.3 261.6 26.1 C 262.0 26.1 261.7 26.4 262.1 26.2 C 262.7 25.8 262.8 25.0 263.4 24.7 C 263.5 25.0 264.1 24.5 264.6 24.1 C 264.9 24.3 266.1 23.4 266.9 22.9 C 266.5 22.8 267.4 22.4 267.1 22.3 C 266.7 22.5 266.4 22.6 266.3 22.6 C 267.2 21.9 267.8 22.2 268.2 21.4 C 268.6 21.3 269.1 21.1 269.8 20.8 C 269.7 20.6 268.5 21.3 269.1 20.8 C 269.2 20.9 269.4 20.7 269.6 20.5 C 269.6 20.8 270.2 20.5 270.6 20.5 C 271.0 19.9 272.3 19.4 271.6 19.5 C 272.4 18.9 272.1 19.6 272.8 19.2 C 272.2 19.1 273.3 18.3 272.6 18.5 C 273.4 17.8 273.6 18.3 273.4 18.7 C 274.2 18.1 274.2 17.8 274.7 17.7 C 274.2 17.7 275.3 16.7 274.8 17.3 C 274.8 17.7 275.6 16.9 275.8 16.8 C 275.4 16.9 275.9 16.6 275.2 16.9 C 275.7 16.4 276.6 15.7 277.3 15.5 C 277.9 14.9 278.6 14.3 278.5 14.8 C 279.1 14.2 278.9 14.4 279.6 13.9 C 279.5 13.9 279.3 14.0 279.2 14.0 C 280.2 13.2 280.1 13.5 281.4 12.6 C 281.4 13.0 282.2 12.4 282.6 12.3 C 282.0 12.7 281.6 13.0 281.1 13.2 C 281.1 13.4 281.6 13.2 281.3 13.4 C 281.2 13.4 281.0 13.5 280.8 13.6 C 281.7 13.2 280.0 14.8 280.4 14.1 C 280.4 14.2 280.5 14.2 280.7 14.0 C 280.4 13.9 280.4 14.0 280.4 13.7 C 280.0 14.0 279.5 14.0 279.5 14.3 C 279.6 14.4 280.0 14.1 280.1 14.1 C 279.2 15.0 279.6 14.1 278.8 14.8 C 278.8 15.1 279.3 14.9 279.6 14.9 C 278.9 15.4 278.2 15.9 277.9 15.9 C 277.3 16.5 278.1 16.0 277.7 16.5 C 277.4 16.6 277.3 16.4 276.8 16.7 C 276.4 17.2 277.2 16.7 276.7 17.1 C 276.1 17.4 276.9 16.5 276.0 17.1 C 276.5 17.3 275.2 17.6 275.4 17.7 C 275.9 17.3 276.1 17.6 275.7 17.6 C 274.4 18.1 274.2 19.5 272.8 19.7 C 272.8 19.8 272.7 20.0 272.7 20.1 C 273.6 19.6 274.8 18.8 275.3 18.9 C 275.9 18.4 275.6 18.2 275.7 18.1 C 276.7 17.8 276.6 17.9 276.4 18.6 C 275.2 19.6 274.5 19.8 273.6 20.3 C 273.2 20.8 273.7 20.4 273.9 20.4 C 271.1 22.0 273.6 21.3 272.6 21.9 C 272.5 21.7 272.3 21.8 272.0 22.0 C 272.1 22.1 271.7 22.3 271.6 22.5 C 271.8 22.3 272.0 22.3 272.0 22.4 C 271.4 23.0 271.5 22.6 271.3 22.5 C 271.8 22.1 272.2 21.8 272.1 21.7 C 271.5 22.3 270.9 22.4 270.6 22.9 C 269.8 23.1 270.5 22.1 270.0 22.1 C 270.0 21.8 270.0 22.9 269.6 23.4 C 268.7 23.9 268.9 24.2 268.1 24.7 C 267.7 24.6 268.8 24.1 268.6 23.9 C 268.4 24.1 268.3 24.1 268.1 24.2 C 267.6 24.6 267.7 24.8 267.4 25.1 C 267.0 25.1 266.9 25.3 266.7 25.6 C 266.1 25.8 266.9 25.2 266.3 25.5 C 265.7 25.9 265.5 26.5 265.3 26.5 C 265.2 26.5 265.2 26.3 264.9 26.5 C 264.4 27.1 264.2 27.2 265.1 26.8 C 264.4 27.2 264.1 27.5 264.4 27.7 C 265.5 27.0 265.8 26.8 266.5 26.7 C 266.5 26.3 266.9 26.3 267.4 26.1 C 266.9 25.9 267.8 25.8 267.9 25.4 C 267.6 25.5 267.3 25.7 267.1 25.7 C 268.3 25.0 268.3 25.0 269.0 24.0 C 269.0 24.1 269.2 24.1 269.4 24.1 C 269.1 24.4 268.3 24.9 268.4 25.1 C 269.2 24.9 269.1 24.3 270.1 24.1 C 270.3 23.7 269.3 24.3 269.9 23.8 C 270.3 23.8 270.7 23.6 271.3 23.4 C 271.7 23.0 271.9 22.7 272.2 22.4 C 272.4 22.4 272.5 22.5 272.8 22.2 C 272.7 22.1 272.3 22.3 272.7 21.9 C 274.1 21.4 275.0 21.0 276.1 20.0 C 275.6 20.2 274.5 20.7 275.0 20.4 C 275.6 20.1 276.1 19.3 276.8 19.1 C 277.1 19.1 276.1 19.5 276.6 19.8 C 277.1 19.4 277.5 19.1 277.8 19.0 C 277.7 18.9 278.3 18.5 278.0 18.4 C 277.6 18.7 277.6 19.0 277.4 19.0 C 277.4 18.1 279.2 18.0 280.1 17.4 C 280.6 16.9 279.5 17.5 280.1 17.0 C 280.4 16.6 281.0 16.9 280.5 17.5 C 280.0 17.7 280.0 18.1 279.7 17.9 C 279.6 18.0 279.3 18.2 279.3 18.3 C 279.7 18.1 279.7 18.3 280.0 18.2 C 279.5 18.5 279.7 19.0 279.2 19.0 C 279.4 18.8 279.5 18.7 279.5 18.5 C 278.4 19.5 277.8 19.6 277.1 20.0 C 277.6 19.8 277.1 20.1 277.3 20.3 C 277.8 19.8 278.9 19.2 278.3 19.7 C 277.7 19.7 277.9 20.7 277.3 20.7 C 277.6 20.5 277.4 20.4 277.6 20.2 C 277.1 20.5 277.0 20.3 276.5 20.6 C 275.3 22.0 273.7 22.2 271.7 24.4 C 270.8 25.0 272.4 23.8 272.2 23.6 C 271.9 23.8 271.8 23.8 271.6 23.9 C 271.8 24.2 271.2 24.2 271.1 24.6 C 271.0 24.3 270.0 25.3 269.3 25.5 C 269.4 25.6 269.5 25.7 269.3 25.9 C 267.4 26.8 264.6 29.3 263.1 29.9 C 263.3 30.0 262.7 30.4 262.7 30.6 C 261.8 31.1 262.1 30.7 261.0 31.7 C 260.5 32.1 261.0 31.5 261.1 31.3 C 259.4 32.6 257.7 33.4 256.7 34.4 C 256.2 34.8 256.6 34.2 255.4 34.9 C 255.6 35.3 253.4 35.9 253.4 36.5 C 252.8 37.0 251.2 37.3 252.0 37.3 C 251.0 37.9 251.5 37.2 251.1 37.4 C 250.4 37.9 251.6 37.9 251.0 38.3 C 250.9 38.0 250.4 38.5 249.8 38.5 C 250.3 38.2 250.7 38.0 250.6 37.8 C 250.3 38.2 250.2 38.0 249.5 38.5 C 249.0 39.0 247.5 40.2 246.8 40.1 C 246.9 40.3 247.0 40.2 247.2 40.2 C 246.7 40.5 246.0 40.6 246.3 40.9 C 245.2 41.5 244.6 41.5 244.1 42.2 C 243.7 42.5 244.1 41.8 242.8 42.7 C 242.9 42.9 240.4 44.3 239.6 44.5 C 239.8 44.8 239.5 44.6 239.2 44.7 C 239.2 44.9 239.3 45.0 239.0 45.1 C 238.9 45.1 238.7 45.2 238.6 45.4 C 238.5 44.9 237.7 46.0 237.5 45.8 C 237.7 45.7 237.6 45.5 237.4 45.6 C 237.4 45.9 236.2 46.0 236.4 46.2 C 236.7 46.2 237.3 45.7 237.3 46.0 C 236.4 46.7 236.6 46.1 235.9 46.5 C 236.0 46.5 236.5 46.4 236.1 46.7 C 235.4 47.0 236.0 46.7 235.5 46.7 C 235.1 47.0 234.6 47.5 234.3 47.7 C 234.4 47.6 234.1 47.6 234.0 47.6 C 232.7 48.2 230.0 50.1 228.6 50.4 C 228.5 50.6 228.3 50.8 228.5 50.9 C 227.6 51.1 227.7 51.2 226.9 51.5 C 227.0 51.6 227.0 51.7 227.1 51.8 C 226.1 52.5 226.8 51.5 226.2 51.9 C 226.4 52.5 225.7 51.9 225.1 52.2 C 225.1 52.4 224.8 52.6 225.0 52.7 C 224.0 53.2 223.9 52.8 223.1 53.4 C 223.3 53.3 223.9 54.0 223.9 54.3 C 223.7 54.2 223.4 54.3 223.0 54.4 C 223.3 53.9 222.6 53.2 221.6 54.0 C 222.2 53.7 222.5 53.6 222.5 53.9 C 221.6 54.4 221.2 54.4 220.4 54.8 C 220.4 55.1 221.0 54.8 220.9 55.2 C 220.7 55.3 220.7 55.4 220.8 55.5 C 219.9 55.9 219.8 55.7 219.0 56.3 C 218.9 56.1 219.1 56.0 219.4 56.0 C 219.3 55.8 219.2 55.6 219.7 55.3 C 219.9 55.4 219.7 55.8 220.4 55.4 C 220.3 55.2 220.3 55.1 220.2 55.0 C 219.6 55.2 218.2 55.7 218.2 55.9 C 218.5 55.8 218.9 55.7 218.8 56.0 C 217.9 56.5 217.4 56.3 216.6 56.6 C 215.3 57.3 212.8 58.4 213.3 58.7 C 212.4 59.0 212.7 58.8 211.9 59.1 C 212.3 59.3 211.1 59.6 211.3 59.8 C 212.2 59.3 212.0 59.5 212.8 59.0 C 212.9 59.2 212.8 59.3 212.4 59.6 C 212.3 59.4 211.9 59.6 211.4 59.9 C 211.5 59.9 212.1 59.9 211.5 60.2 C 211.4 60.2 211.3 60.2 211.0 60.4 C 210.9 60.2 210.9 60.1 210.8 60.0 C 211.1 59.7 211.5 59.5 211.7 59.2 C 211.4 59.4 211.4 59.3 211.1 59.4 C 211.0 59.6 209.9 59.9 209.9 60.2 C 210.4 59.9 210.7 59.9 210.3 60.2 C 210.2 60.2 209.4 60.4 209.3 60.7 C 210.2 60.4 209.9 60.6 210.5 60.6 C 209.5 61.1 209.5 60.8 208.4 61.4 C 208.2 61.2 208.1 61.0 208.4 60.8 C 207.4 60.6 205.9 61.9 205.3 62.1 C 205.7 62.0 206.0 61.4 205.4 61.7 C 205.5 61.8 205.0 61.9 205.0 62.1 C 205.0 62.6 205.6 62.6 206.2 62.7 C 205.7 62.9 205.7 63.0 205.2 63.2 C 205.0 63.1 205.3 62.5 204.7 62.8 C 204.7 63.2 203.6 63.3 203.6 63.7 C 204.0 63.5 204.3 63.5 203.9 63.7 C 203.9 63.5 203.1 64.0 203.0 63.8 C 203.6 63.4 203.7 63.1 204.1 62.9 C 203.6 63.1 204.4 62.5 203.5 62.9 C 203.2 63.3 203.1 63.6 202.2 64.0 C 201.8 64.1 202.0 63.7 201.5 63.9 C 201.8 64.1 200.8 64.6 201.3 64.1 C 200.9 64.3 200.7 64.3 200.5 64.3 C 201.1 64.4 198.8 65.8 199.3 65.8 C 199.1 65.4 198.9 65.2 198.7 65.1 C 198.3 65.6 197.7 65.6 196.4 66.2 C 196.6 66.5 196.2 66.3 195.7 66.6 C 195.6 66.8 196.1 66.7 195.8 66.9 C 195.1 67.0 195.1 67.0 194.9 66.9 C 194.4 67.1 194.1 67.3 193.8 67.3 C 193.8 67.4 194.0 67.4 194.2 67.4 C 192.3 67.9 191.6 68.6 190.0 69.1 C 190.7 69.0 190.7 68.6 190.2 68.8 C 189.9 69.0 189.6 69.1 189.5 69.3 C 190.0 69.4 189.7 69.3 189.0 69.6 C 188.4 69.9 189.4 69.9 188.9 70.1 C 188.3 70.2 188.6 69.9 188.2 70.0 C 188.0 70.1 187.7 70.2 187.5 70.3 C 188.0 70.2 187.5 70.6 187.1 70.8 C 187.3 70.4 187.1 70.4 186.2 70.9 C 186.0 70.8 186.5 70.5 186.1 70.6 C 185.9 70.7 185.3 71.3 184.6 71.3 C 184.8 71.2 184.9 71.1 184.8 71.0 C 184.2 71.5 183.5 71.4 182.8 71.5 C 183.5 71.5 183.3 71.8 183.6 71.9 C 182.9 71.9 182.3 72.5 181.7 72.3 C 182.6 72.1 181.5 71.8 180.9 72.0 C 180.9 72.3 181.8 71.9 181.7 72.3 C 181.4 72.7 180.6 72.5 180.4 72.9 C 180.5 73.1 180.8 72.7 180.9 72.8 C 180.4 73.0 181.1 72.9 180.7 73.1 C 180.4 72.9 180.2 73.4 180.0 73.5 C 179.6 73.5 178.8 73.4 178.6 73.7 C 178.6 73.8 179.1 73.6 179.1 73.7 C 177.8 74.4 177.2 74.1 176.0 74.9 C 175.8 74.8 175.5 74.9 175.1 74.9 C 175.2 75.1 175.0 75.2 174.7 75.4 C 174.1 75.5 173.5 75.5 172.7 75.7 C 172.8 75.4 173.1 75.2 172.1 75.5 C 172.1 75.7 172.5 75.6 172.1 75.7 C 172.1 75.7 171.9 75.7 171.9 75.8 C 171.9 75.9 171.9 75.9 171.9 76.0 C 172.2 75.9 172.5 75.8 172.7 75.7 C 172.8 75.9 172.9 76.0 173.1 76.0 C 172.0 76.5 171.9 75.9 171.2 76.4 C 170.9 76.1 170.6 76.1 171.2 75.6 C 170.6 75.9 170.1 76.2 170.0 76.5 C 170.8 76.1 170.7 76.5 171.0 76.6 C 170.4 76.8 170.5 76.9 170.2 77.0 C 169.6 77.1 170.7 76.4 169.5 76.7 C 170.5 76.7 168.9 77.2 168.3 77.3 C 168.4 77.4 168.6 77.4 168.3 77.6 C 166.8 78.3 166.6 77.4 165.9 78.2 C 165.9 78.0 165.4 78.1 165.2 78.1 C 166.0 77.7 166.2 77.6 166.5 77.5 C 166.4 77.4 166.2 77.4 165.9 77.5 C 166.0 77.6 165.8 77.7 165.4 77.7 C 165.2 78.0 165.4 78.3 164.9 78.8 C 164.8 78.7 164.8 78.5 164.5 78.6 C 164.3 78.9 164.6 78.1 163.3 78.6 C 163.6 78.6 163.8 78.7 163.7 78.9 C 163.1 79.3 163.2 79.1 162.4 79.5 C 162.0 79.1 162.8 78.8 163.0 78.4 C 162.4 78.7 162.1 79.1 161.4 79.1 C 161.9 79.1 161.5 79.5 161.0 79.7 C 160.6 79.8 160.9 79.3 160.4 79.5 C 159.9 79.7 159.8 80.0 160.2 80.0 C 159.2 80.2 159.5 80.4 158.7 80.7 C 158.6 80.5 158.8 80.4 159.2 80.4 C 159.1 80.3 159.2 80.1 158.8 80.2 C 158.4 80.6 157.2 81.0 156.6 81.4 C 155.2 81.3 154.0 82.3 152.8 82.5 C 153.2 82.0 151.2 82.9 150.5 82.7 C 150.2 82.9 149.2 83.8 149.5 83.5 C 149.3 83.1 148.7 83.5 148.1 83.5 C 148.1 83.6 148.1 83.7 148.2 83.8 C 147.0 84.2 146.6 84.0 146.2 83.9 C 144.7 84.5 143.0 84.5 141.3 85.3 C 140.8 85.1 140.4 85.3 139.3 85.4 C 139.4 85.6 138.5 85.8 137.7 86.0 C 138.0 86.2 137.2 86.3 137.3 86.5 C 138.0 86.4 137.8 86.7 138.2 86.7 C 137.2 86.7 136.8 87.4 136.0 87.3 C 136.9 86.9 137.1 86.5 137.1 86.1 C 136.1 86.4 135.4 86.5 135.2 86.3 C 135.1 86.5 135.3 86.6 135.6 86.7 C 135.2 86.8 134.8 86.8 134.5 86.9 C 134.3 86.8 134.8 86.6 134.4 86.7 C 134.2 86.8 133.9 87.0 133.7 87.1 C 133.3 86.9 134.0 86.8 134.1 86.7 C 132.6 86.9 133.4 87.3 132.6 87.6 C 132.4 87.4 132.3 87.1 131.7 87.2 C 131.4 87.5 131.4 87.7 130.7 87.9 C 130.2 88.0 130.6 87.5 130.0 87.6 C 130.0 87.8 129.7 87.8 129.5 87.8 C 129.5 87.9 129.3 88.0 129.0 88.1 C 128.9 88.0 128.4 88.2 128.2 88.3 C 128.1 88.2 127.2 88.1 127.0 88.3 C 127.1 88.4 127.5 88.3 127.6 88.4 C 127.0 88.5 126.6 88.6 126.3 88.8 C 125.9 88.2 125.0 88.9 123.7 88.9 C 123.0 89.2 124.0 89.3 123.0 89.7 C 122.4 89.6 123.1 89.4 122.9 89.1 C 122.7 89.1 121.8 89.1 121.8 89.4 C 121.8 89.5 122.3 89.4 122.4 89.4 C 121.7 89.8 121.7 89.5 121.3 89.5 C 121.4 89.7 120.9 89.9 120.8 90.0 C 118.9 90.6 118.8 90.1 118.0 90.1 C 118.0 90.2 117.5 90.3 117.5 90.4 C 118.0 90.2 118.8 90.2 118.0 90.4 C 118.1 90.3 117.0 90.7 116.9 90.7 C 117.1 90.9 117.8 90.6 117.6 91.0 C 116.6 91.3 116.9 90.7 116.1 91.1 C 116.0 90.9 116.5 90.8 116.7 90.7 C 116.3 90.8 115.9 90.9 115.8 90.8 C 116.2 90.6 116.2 90.4 116.3 90.2 C 115.8 90.6 114.8 90.5 115.5 90.7 C 114.4 90.9 113.4 91.3 114.2 91.4 C 113.3 91.6 113.8 91.1 113.1 91.5 C 113.1 91.2 113.3 91.0 112.7 90.8 C 112.6 91.0 112.1 91.2 112.2 91.4 C 110.9 91.6 110.5 91.4 109.9 91.3 C 110.5 91.6 109.8 91.4 109.2 91.8 C 108.7 91.7 109.1 91.3 108.0 91.6 C 109.2 91.8 106.7 91.9 107.3 92.3 C 105.9 92.3 105.9 92.3 104.5 92.5 C 104.6 92.3 104.9 92.1 105.5 91.9 C 105.1 92.3 106.7 92.0 106.6 91.8 C 106.6 91.8 106.6 91.7 106.6 91.7 C 105.5 91.9 104.8 91.9 104.3 91.9 C 104.2 92.1 103.7 92.3 103.9 92.6 C 102.9 92.4 101.9 93.0 101.4 92.8 C 101.7 92.7 102.1 92.7 101.9 92.5 C 101.5 92.7 101.1 92.8 101.1 93.0 C 102.0 93.0 102.1 93.0 102.5 92.7 C 102.2 93.0 103.4 93.0 102.6 93.2 C 102.5 92.7 101.0 93.6 101.5 93.2 C 102.3 92.9 100.4 93.2 100.3 93.0 C 100.3 93.0 100.3 93.0 100.3 93.0 Z M 276.7 20.4 C 277.3 19.8 276.3 20.2 275.9 20.6 C 276.1 20.6 276.2 20.6 276.3 20.8 C 276.5 20.6 276.6 20.4 276.7 20.4 C 276.7 20.4 276.7 20.4 276.7 20.4 Z M 267.2 22.4 C 267.1 22.8 268.1 21.9 268.6 21.6 C 268.5 21.6 268.3 21.7 268.5 21.4 C 267.9 21.6 268.0 22.1 267.2 22.4 C 267.2 22.4 267.2 22.4 267.2 22.4 Z M 241.8 39.9 C 241.9 39.7 242.4 39.4 242.5 39.5 C 242.8 39.3 242.6 39.2 242.6 39.1 C 243.1 38.7 242.7 39.5 243.5 38.9 C 243.5 38.2 241.7 39.2 241.8 39.9 C 241.8 39.9 241.8 39.9 241.8 39.9 Z M 110.1 87.2 C 109.6 87.1 110.5 86.8 110.2 86.6 C 108.7 87.0 110.0 87.2 107.8 87.4 C 108.0 87.5 108.2 87.5 108.2 87.7 C 109.1 87.4 109.2 87.2 109.0 87.7 C 109.5 87.6 109.5 87.0 110.1 87.2 C 110.1 87.2 110.1 87.2 110.1 87.2 Z M 90.2 89.2 C 90.4 89.2 90.5 89.3 90.5 89.4 C 91.2 89.2 91.0 89.2 91.9 89.1 C 91.7 88.7 90.9 88.9 90.2 89.2 C 90.2 89.2 90.2 89.2 90.2 89.2 Z M 38.0 92.0 C 37.8 92.0 37.6 92.0 37.4 92.0 C 37.6 92.2 37.0 92.6 38.0 92.5 C 38.0 92.4 37.9 92.4 37.7 92.4 C 37.9 92.3 38.3 92.3 38.3 92.1 C 38.0 92.1 38.0 92.1 38.0 92.0 C 38.0 92.0 38.0 92.0 38.0 92.0 Z M 15.8 93.9 C 16.9 93.7 14.3 92.9 15.8 93.9 C 15.8 93.9 15.8 93.9 15.8 93.9 C 15.8 93.9 15.8 93.9 15.8 93.9 Z M 17.9 97.2 C 17.9 97.3 18.1 97.3 18.1 97.2 C 19.1 97.3 18.2 97.4 18.7 97.6 C 19.4 97.4 18.3 97.1 19.3 97.0 C 19.1 96.8 18.4 97.2 17.9 97.2 C 17.9 97.2 17.9 97.2 17.9 97.2 Z M 166.9 77.6 C 167.6 77.3 167.7 77.0 167.7 76.7 C 167.2 76.8 166.8 76.9 166.6 76.9 C 165.7 77.3 167.3 76.8 167.5 76.9 C 167.5 77.1 166.8 77.4 166.9 77.6 C 166.9 77.6 166.9 77.6 166.9 77.6 Z M 169.2 76.7 C 169.5 76.5 169.9 76.3 169.9 76.0 C 169.4 76.2 169.3 76.2 169.3 76.1 C 168.9 76.3 169.5 76.3 169.2 76.7 C 169.2 76.7 169.2 76.7 169.2 76.7 Z M 164.6 78.0 C 165.0 77.9 164.8 77.7 164.8 77.6 C 164.3 77.8 164.2 77.7 163.7 77.8 C 163.7 77.9 163.7 78.0 163.8 78.1 C 164.2 78.0 164.2 77.9 164.5 77.8 C 164.6 77.8 164.6 77.9 164.6 78.0 C 164.6 78.0 164.6 78.0 164.6 78.0 Z M 171.5 75.6 C 172.9 75.1 173.4 74.5 174.1 73.8 C 173.1 74.2 172.4 75.0 171.7 75.1 C 170.8 75.5 172.0 75.2 172.0 75.3 C 172.0 75.4 171.7 75.5 171.5 75.6 C 171.5 75.6 171.5 75.6 171.5 75.6 Z M 183.6 71.1 C 183.9 71.2 184.3 70.6 185.1 70.3 C 184.9 70.3 184.8 70.3 184.7 70.2 C 183.6 70.6 184.4 70.8 183.6 71.1 C 183.6 71.1 183.6 71.1 183.6 71.1 Z M 190.0 68.4 C 190.7 68.1 189.6 68.4 189.9 68.0 C 189.1 68.4 188.3 68.7 188.4 68.9 C 189.2 68.4 189.4 68.4 190.0 68.4 C 190.0 68.4 190.0 68.4 190.0 68.4 Z M 194.7 66.5 C 195.4 66.0 194.2 66.3 194.4 65.9 C 194.1 66.0 194.3 66.1 194.3 66.2 C 194.0 66.3 193.8 66.3 193.5 66.5 C 193.8 66.5 194.7 66.1 194.7 66.5 C 194.7 66.5 194.7 66.5 194.7 66.5 Z M 147.0 82.9 C 147.5 82.7 147.3 82.5 148.3 82.3 C 146.8 82.7 147.4 81.6 145.4 82.3 C 145.8 82.3 145.6 82.5 145.5 82.4 C 144.8 82.8 146.2 82.4 145.6 82.8 C 146.1 82.7 145.7 82.5 146.3 82.3 C 146.9 82.4 147.3 82.4 147.0 82.9 C 147.0 82.9 147.0 82.9 147.0 82.9 Z M 145.4 82.1 C 144.8 82.1 144.9 82.7 144.6 82.5 C 144.3 82.5 144.4 82.6 144.4 82.7 C 144.6 82.6 144.6 82.7 144.7 82.7 C 145.1 82.5 145.6 82.3 145.4 82.1 C 145.4 82.1 145.4 82.1 145.4 82.1 Z M 150.5 80.6 C 149.6 81.0 149.3 80.9 148.9 81.3 C 148.5 81.0 148.3 81.6 147.8 81.4 C 146.9 81.7 147.6 81.7 147.9 81.7 C 147.0 82.1 147.6 81.5 146.8 81.9 C 146.7 82.2 147.8 81.8 147.7 82.2 C 148.4 82.0 148.3 81.8 148.7 81.6 C 149.0 81.5 149.0 81.7 149.1 81.8 C 149.8 81.5 149.8 81.7 150.4 81.5 C 150.5 81.2 150.2 81.2 149.5 81.5 C 150.2 81.1 150.5 80.8 151.4 80.7 C 150.8 81.2 153.6 80.5 153.2 80.1 C 152.5 80.2 152.8 80.4 152.5 80.6 C 151.5 80.6 150.9 80.8 150.5 80.6 C 150.5 80.6 150.5 80.6 150.5 80.6 Z M 164.1 77.2 C 164.3 77.2 164.5 77.2 164.9 77.1 C 165.0 77.3 164.5 77.4 165.0 77.4 C 165.6 77.3 165.7 77.1 166.0 77.0 C 165.8 76.9 164.5 77.0 165.1 76.7 C 164.9 76.7 164.5 76.7 164.0 76.9 C 164.7 77.1 163.2 77.2 162.6 77.3 C 162.8 77.7 161.7 77.6 161.4 77.9 C 161.7 78.1 162.8 77.5 163.2 77.3 C 163.0 77.4 164.7 77.5 164.1 77.2 C 164.1 77.2 164.1 77.2 164.1 77.2 Z M 143.3 82.8 C 143.1 83.0 142.5 83.2 143.0 83.1 C 142.8 83.2 142.3 83.2 142.6 83.6 C 142.3 83.6 142.0 83.7 141.8 83.8 C 141.8 83.6 142.6 83.5 142.2 83.3 C 141.7 83.6 141.9 83.4 141.2 83.6 C 141.5 83.2 141.1 83.3 141.3 82.9 C 141.1 83.1 140.4 83.3 140.5 83.5 C 139.5 83.7 140.7 83.0 139.4 83.4 C 139.3 83.2 140.3 82.9 140.7 83.0 C 140.8 82.7 139.0 83.3 137.9 83.5 C 138.9 83.5 138.3 83.9 137.9 84.3 C 137.5 84.2 137.8 84.1 137.2 84.0 C 136.8 84.1 136.6 84.4 136.4 84.3 C 136.0 84.4 136.2 84.5 136.2 84.7 C 135.6 84.8 136.0 84.3 135.1 84.6 C 135.8 84.8 135.1 85.1 133.8 85.3 C 133.9 85.4 134.3 85.3 134.4 85.4 C 134.3 85.6 133.4 85.5 133.2 85.4 C 132.8 85.6 133.1 85.6 133.5 85.5 C 133.3 85.7 133.1 85.8 132.8 86.0 C 134.1 85.7 136.3 85.1 138.9 84.8 C 138.3 84.7 138.9 84.5 139.6 84.4 C 139.8 84.6 139.5 84.7 139.1 84.8 C 140.1 84.9 139.8 84.2 141.2 84.0 C 142.0 83.9 140.5 84.4 141.3 84.4 C 141.8 84.2 142.1 83.9 142.4 84.1 C 143.3 83.7 143.4 83.3 144.7 83.0 C 143.9 83.1 143.4 82.5 142.7 82.9 C 142.7 83.0 143.0 82.9 143.3 82.8 C 143.3 82.8 143.3 82.8 143.3 82.8 Z M 169.2 75.9 C 169.7 75.7 169.9 75.5 170.0 75.6 C 170.8 75.3 169.8 75.4 169.7 75.4 C 169.3 75.5 169.2 75.7 169.2 75.9 C 169.2 75.9 169.2 75.9 169.2 75.9 Z M 246.1 40.0 C 247.0 39.6 246.7 39.4 247.4 38.9 C 246.8 39.2 246.5 39.1 245.6 39.7 C 245.7 39.9 245.8 40.1 246.1 40.0 C 246.1 40.0 246.1 40.0 246.1 40.0 Z M 166.5 76.6 C 166.0 77.1 167.2 76.0 167.3 76.3 C 168.0 75.8 166.5 76.4 167.1 75.8 C 166.5 76.2 166.1 76.1 165.3 76.5 C 165.4 76.7 166.1 76.5 166.7 76.3 C 166.8 76.4 166.5 76.5 166.5 76.6 C 166.5 76.6 166.5 76.6 166.5 76.6 Z M 236.3 44.9 C 235.8 45.5 237.2 45.0 237.6 44.9 C 237.4 44.6 237.3 44.7 236.3 44.9 C 236.3 44.9 236.3 44.9 236.3 44.9 Z M 252.1 35.9 C 252.2 35.3 251.0 36.5 251.1 36.0 C 250.7 36.2 250.7 36.3 250.8 36.5 C 250.5 36.5 249.9 37.0 249.9 36.7 C 249.7 36.5 251.0 36.0 250.5 36.0 C 250.9 35.7 250.9 35.8 251.2 35.6 C 250.5 36.0 251.0 36.1 251.9 35.6 C 251.8 35.4 251.4 35.7 251.7 35.3 C 251.8 35.4 252.4 35.3 252.6 35.6 C 253.3 35.2 252.6 35.0 253.5 34.5 C 253.3 34.4 252.8 34.8 252.4 34.9 C 252.3 34.6 253.5 34.5 253.0 34.3 C 253.3 34.4 253.9 34.1 254.1 34.4 C 253.5 34.9 253.1 35.3 252.7 35.8 C 253.3 35.6 253.7 34.6 254.7 34.3 C 254.5 34.2 255.0 33.9 254.7 33.8 C 255.4 33.4 255.3 33.9 255.2 34.0 C 255.4 34.0 256.7 33.1 256.5 32.9 C 256.7 33.1 258.3 32.0 258.0 31.7 C 258.6 31.6 259.1 30.8 259.5 31.0 C 259.7 30.7 260.3 30.3 260.9 29.9 C 260.9 29.6 259.9 30.4 259.7 30.3 C 259.4 30.2 260.9 29.6 260.6 29.5 C 260.5 29.5 260.5 29.4 260.5 29.3 C 260.0 29.7 259.6 30.1 259.2 30.5 C 258.9 30.7 259.2 30.3 259.1 30.3 C 258.8 30.6 257.5 31.9 257.2 31.5 C 256.3 32.3 255.5 32.6 255.2 33.1 C 254.6 33.5 255.5 32.7 255.0 32.8 C 253.5 34.2 251.1 35.2 249.8 36.5 C 249.5 36.7 249.5 36.4 249.4 36.3 C 247.4 37.8 249.4 37.0 247.7 37.9 C 247.6 37.7 248.4 37.3 248.2 37.1 C 247.6 37.4 247.6 37.6 246.8 38.0 C 246.9 38.1 246.9 38.2 247.0 38.3 C 246.4 38.7 246.5 38.3 246.1 38.4 C 245.3 38.9 245.6 38.9 245.1 38.9 C 244.4 39.4 243.8 39.9 242.9 40.2 C 242.6 40.7 243.7 40.5 244.5 40.1 C 244.5 40.1 244.3 40.3 244.3 40.4 C 243.3 40.7 242.9 40.3 241.5 41.1 C 242.7 40.7 241.1 41.5 240.7 41.4 C 240.2 41.8 240.8 41.9 241.2 41.6 C 241.2 41.7 240.7 41.9 240.6 41.8 C 240.8 42.2 242.2 41.6 243.5 40.6 C 243.1 41.4 244.5 40.0 244.0 41.0 C 245.1 40.2 244.0 40.5 245.3 39.8 C 245.1 39.7 244.8 39.8 244.6 39.8 C 245.6 39.1 245.5 39.7 246.4 39.0 C 246.5 38.7 245.9 39.1 245.8 39.0 C 247.0 38.5 247.4 38.4 248.3 38.2 C 248.3 38.0 248.0 37.9 249.3 37.2 C 249.3 37.3 249.4 37.4 249.4 37.4 C 248.8 37.7 248.9 38.2 250.3 37.3 C 250.3 37.1 249.9 37.4 249.5 37.6 C 249.6 37.4 250.0 37.0 250.6 36.7 C 250.9 36.5 251.3 36.4 250.9 36.7 C 251.3 36.7 251.2 36.2 252.1 35.9 C 252.1 35.9 252.1 35.9 252.1 35.9 Z M 182.1 71.0 C 182.3 70.9 182.4 70.8 182.8 70.6 C 182.9 70.4 182.2 70.7 182.2 70.5 C 181.6 70.7 182.1 70.9 182.1 71.0 C 182.1 71.0 182.1 71.0 182.1 71.0 Z M 174.7 73.6 C 174.8 73.8 175.1 73.3 175.7 73.2 C 175.8 72.9 175.1 73.2 175.1 73.1 C 174.3 73.3 175.4 73.4 174.7 73.6 C 174.7 73.6 174.7 73.6 174.7 73.6 Z M 177.8 72.4 C 178.2 72.6 178.1 72.2 177.5 72.5 C 177.5 72.3 177.6 72.1 177.9 71.9 C 177.4 71.8 177.3 72.3 176.6 72.5 C 176.9 72.6 177.3 72.5 177.8 72.4 C 177.8 72.4 177.8 72.4 177.8 72.4 Z M 178.9 72.0 C 179.2 71.7 179.5 71.9 180.1 71.5 C 179.9 71.4 178.5 72.0 178.3 72.2 C 178.1 72.4 179.7 71.9 178.9 72.0 C 178.9 72.0 178.9 72.0 178.9 72.0 Z M 226.4 49.9 C 226.6 49.8 226.5 49.7 226.5 49.6 C 227.5 49.6 228.5 49.0 227.9 49.8 C 228.5 49.1 229.4 49.0 230.1 48.7 C 230.7 48.4 230.3 48.3 230.8 48.1 C 231.5 47.7 230.4 48.4 230.7 48.5 C 230.9 48.6 230.9 48.0 231.8 47.7 C 231.4 47.4 232.6 47.3 232.1 47.1 C 232.6 47.0 232.7 46.7 233.3 46.4 C 233.2 46.3 232.6 46.6 232.4 46.5 C 232.0 46.4 232.2 46.9 232.7 46.5 C 232.5 46.9 231.5 47.0 231.3 47.4 C 230.9 47.3 232.1 46.9 231.6 46.8 C 231.4 47.0 231.2 47.1 231.2 47.2 C 230.9 47.4 230.6 47.4 230.4 47.4 C 230.6 47.3 230.6 47.3 230.7 47.3 C 231.1 47.1 230.0 47.2 230.9 46.7 C 230.7 46.7 230.3 46.9 230.3 46.7 C 229.9 46.7 230.7 47.4 229.5 47.6 C 229.0 48.2 231.2 47.0 230.9 47.8 C 229.5 48.5 230.1 47.7 229.0 48.3 C 229.0 48.4 229.1 48.5 228.8 48.6 C 228.9 48.7 229.3 48.5 229.6 48.3 C 229.6 48.4 229.2 48.6 228.9 48.8 C 229.0 48.8 229.2 48.7 229.3 48.8 C 228.3 49.2 228.1 48.7 228.9 48.1 C 228.7 47.9 227.6 48.5 227.4 48.8 C 227.8 48.8 227.4 49.0 227.8 49.1 C 228.0 48.9 227.9 48.9 228.0 48.8 C 228.4 48.6 228.1 48.9 228.1 49.0 C 227.6 49.2 227.5 49.0 227.1 49.5 C 227.2 49.3 227.3 49.2 227.2 49.1 C 227.0 49.2 226.7 49.4 226.5 49.5 C 226.6 49.6 226.3 49.8 226.4 49.9 C 226.4 49.9 226.4 49.9 226.4 49.9 Z M 239.4 43.6 C 240.2 43.1 239.7 43.2 239.3 43.4 C 239.4 43.2 239.7 43.0 240.0 42.8 C 239.7 42.9 239.5 43.1 238.7 43.4 C 239.2 42.7 238.3 42.7 237.1 43.4 C 237.0 44.1 238.0 43.6 237.8 44.1 C 238.6 43.4 239.1 43.3 239.4 43.6 C 239.4 43.6 239.4 43.6 239.4 43.6 Z M 169.6 75.3 C 170.1 75.1 170.7 74.9 171.2 74.7 C 171.1 74.5 169.4 74.9 169.6 75.3 C 169.6 75.3 169.6 75.3 169.6 75.3 Z M 131.6 85.9 C 131.4 86.0 131.4 85.9 131.3 85.9 C 130.6 86.1 131.8 86.0 131.4 86.3 C 131.7 86.2 132.0 86.2 132.3 86.1 C 132.3 86.0 131.1 86.1 131.9 85.8 C 131.8 85.7 131.6 85.8 131.6 85.9 C 131.6 85.9 131.6 85.9 131.6 85.9 Z M 181.4 70.9 C 181.8 70.6 181.4 70.4 182.6 70.1 C 182.1 70.0 181.9 70.2 181.2 70.5 C 181.3 70.6 181.4 70.8 181.4 70.9 C 181.4 70.9 181.4 70.9 181.4 70.9 Z M 222.9 52.3 C 223.6 52.2 223.5 51.5 224.8 51.1 C 224.0 51.1 223.5 51.8 222.9 52.3 C 222.9 52.3 222.9 52.3 222.9 52.3 Z M 262.5 28.3 C 262.1 28.5 262.5 28.2 261.9 28.4 C 261.6 28.7 261.5 28.9 261.1 29.3 C 261.9 29.1 262.9 28.0 263.6 28.1 C 264.2 27.7 264.0 27.5 264.0 27.2 C 263.8 27.4 263.6 27.4 263.5 27.4 C 263.4 28.0 262.6 27.7 262.5 28.3 C 262.5 28.3 262.5 28.3 262.5 28.3 Z M 236.0 45.0 C 235.5 45.1 236.2 44.6 236.3 44.3 C 236.6 44.1 236.6 44.4 236.7 44.5 C 237.2 44.2 237.2 44.0 237.0 43.9 C 236.2 44.3 235.2 44.8 235.6 44.2 C 234.8 44.5 235.4 44.6 235.0 44.9 C 234.5 45.0 234.9 44.7 234.8 44.4 C 234.6 44.6 234.2 45.2 234.1 44.8 C 233.1 45.8 233.8 45.9 234.9 45.8 C 235.5 45.1 234.6 45.5 236.0 45.0 C 236.0 45.0 236.0 45.0 236.0 45.0 Z M 204.4 60.7 C 204.5 60.8 204.9 60.6 205.0 60.7 C 205.4 60.2 205.8 59.7 206.1 59.2 C 205.9 59.1 205.3 59.6 205.7 59.6 C 205.4 59.6 204.9 59.7 204.5 59.7 C 204.0 59.9 204.0 60.5 203.8 60.1 C 203.4 60.5 203.7 60.4 202.8 60.7 C 204.2 60.3 202.4 61.0 202.5 61.3 C 203.2 61.0 203.9 60.7 203.7 60.5 C 204.2 60.3 204.9 60.1 205.1 60.3 C 205.1 60.4 204.7 60.6 204.4 60.7 C 204.4 60.7 204.4 60.7 204.4 60.7 Z M 207.1 58.6 C 206.9 58.8 206.7 58.9 206.4 59.0 C 206.6 59.0 206.7 59.1 206.8 59.3 C 207.4 58.9 207.5 58.7 207.8 58.9 C 208.4 58.6 207.5 58.6 208.5 58.3 C 208.3 58.2 207.9 58.4 207.9 58.3 C 207.9 58.5 207.5 58.8 207.1 58.6 C 207.1 58.6 207.1 58.6 207.1 58.6 Z M 215.1 55.4 C 215.7 55.0 214.7 55.4 214.9 55.1 C 214.8 55.2 213.5 55.7 213.6 55.4 C 213.0 55.3 212.1 56.6 212.0 56.1 C 211.7 56.2 211.9 56.3 211.9 56.4 C 212.7 55.9 212.8 56.1 212.2 56.5 C 212.4 56.6 212.9 56.2 213.3 56.1 C 213.2 55.9 212.9 56.1 212.8 55.9 C 213.7 55.6 214.3 55.6 215.1 55.4 C 215.1 55.4 215.1 55.4 215.1 55.4 Z M 101.8 91.3 C 102.4 91.2 102.8 91.1 103.1 91.0 C 102.9 90.9 102.6 91.1 102.3 91.1 C 102.2 91.0 102.5 90.9 102.8 90.9 C 102.4 90.7 101.3 91.1 101.8 91.3 C 101.8 91.3 101.8 91.3 101.8 91.3 Z M 107.2 90.4 C 107.9 90.3 108.3 90.2 108.3 90.0 C 108.0 89.9 108.2 90.1 107.8 90.2 C 107.5 90.2 107.3 90.1 107.2 90.0 C 106.9 90.1 107.0 90.2 106.9 90.3 C 106.7 90.3 106.7 90.3 106.6 90.2 C 105.9 90.6 107.5 90.0 107.2 90.4 C 107.2 90.4 107.2 90.4 107.2 90.4 Z M 210.8 57.3 C 210.5 57.3 210.2 57.2 209.6 57.5 C 209.8 57.6 209.3 57.8 208.9 58.0 C 209.6 58.0 209.9 57.7 210.8 57.3 C 210.8 57.3 210.8 57.3 210.8 57.3 Z M 141.2 82.7 C 142.1 82.7 141.9 82.3 143.1 82.2 C 143.1 82.1 143.1 82.0 143.0 82.0 C 142.4 82.4 142.0 82.3 141.2 82.7 C 141.2 82.7 141.2 82.7 141.2 82.7 Z M 27.4 96.1 C 27.5 95.9 26.6 96.0 26.6 95.8 C 26.4 96.3 26.0 95.5 24.3 95.6 C 24.3 95.5 24.4 95.4 24.6 95.4 C 23.3 95.3 25.0 95.7 25.2 96.0 C 26.2 95.9 26.4 96.1 27.4 96.1 C 27.4 96.1 27.4 96.1 27.4 96.1 Z M 255.0 32.3 C 255.0 32.3 255.2 32.3 255.3 32.2 C 255.5 32.1 255.6 32.0 255.8 31.9 C 255.5 31.6 254.7 32.0 255.1 31.3 C 254.8 31.4 254.9 31.5 254.9 31.5 C 254.2 32.9 252.6 32.4 251.4 33.7 C 251.1 33.9 251.2 33.9 251.2 34.0 C 251.4 33.9 251.5 33.9 251.5 34.0 C 251.5 33.5 253.1 33.0 252.5 33.5 C 252.6 33.6 252.8 33.4 252.8 33.4 C 252.9 33.3 253.1 33.2 253.3 33.1 C 253.1 33.0 252.8 33.2 252.6 33.1 C 253.4 32.8 254.4 32.3 254.1 32.8 C 254.6 32.5 254.6 32.3 254.9 32.0 C 255.2 31.9 255.3 32.1 255.0 32.3 C 255.0 32.3 255.0 32.3 255.0 32.3 Z M 261.0 28.2 C 261.8 27.8 261.3 27.7 262.1 27.3 C 261.5 27.4 261.2 28.1 260.4 28.3 C 260.6 28.3 260.9 28.1 261.0 28.2 C 261.0 28.2 261.0 28.2 261.0 28.2 Z M 247.3 36.6 C 247.2 36.2 246.6 36.6 245.9 37.0 C 245.9 37.4 246.6 37.0 247.3 36.6 C 247.3 36.6 247.3 36.6 247.3 36.6 Z M 250.3 34.7 C 251.0 34.2 249.4 35.2 249.7 34.7 C 249.3 34.9 249.0 35.1 248.9 35.0 C 248.7 35.3 248.8 35.4 248.3 35.6 C 248.4 35.8 249.1 35.2 249.2 35.4 C 249.6 35.0 249.7 34.9 250.3 34.7 C 250.3 34.7 250.3 34.7 250.3 34.7 Z M 250.8 34.4 C 251.2 34.0 250.4 34.0 249.8 34.4 C 250.1 34.4 250.4 34.5 250.8 34.4 C 250.8 34.4 250.8 34.4 250.8 34.4 Z M 193.1 64.2 C 193.5 64.0 193.1 63.9 193.5 63.7 C 193.5 63.6 192.0 64.2 193.2 63.7 C 192.6 63.6 192.5 64.1 191.9 64.3 C 192.2 64.3 192.3 64.3 192.0 64.4 C 191.9 64.7 193.2 63.9 193.1 64.2 C 193.1 64.2 193.1 64.2 193.1 64.2 Z M 194.7 63.5 C 195.0 63.4 194.8 63.4 194.6 63.4 C 194.6 63.3 195.1 63.2 195.4 63.0 C 195.4 63.1 194.7 62.9 194.6 62.7 C 193.4 63.4 194.5 63.3 194.7 63.5 C 194.7 63.5 194.7 63.5 194.7 63.5 Z M 195.9 62.8 C 196.8 62.7 197.9 62.1 198.4 61.6 C 197.6 61.5 196.1 62.3 195.9 62.8 C 195.9 62.8 195.9 62.8 195.9 62.8 Z M 187.4 66.2 C 189.0 65.9 191.9 64.3 189.0 65.2 C 189.2 65.3 187.5 66.2 186.5 66.4 C 186.5 66.5 185.6 67.1 185.6 67.0 C 185.0 67.4 187.8 66.3 187.4 66.2 C 187.4 66.2 187.4 66.2 187.4 66.2 Z M 199.2 60.7 C 198.8 61.0 199.6 61.2 198.8 61.3 C 198.5 61.5 199.0 61.4 199.0 61.6 C 199.7 61.2 201.2 60.2 201.5 60.5 C 201.9 60.2 201.9 60.0 202.7 59.6 C 202.6 59.5 200.1 61.1 199.3 60.9 C 199.3 60.7 200.2 60.2 199.2 60.7 C 199.2 60.7 199.2 60.7 199.2 60.7 Z M 140.8 81.2 C 140.8 81.4 141.9 80.9 141.7 81.3 C 142.2 80.8 142.8 80.9 143.5 80.4 C 143.7 80.5 143.7 80.9 144.7 80.7 C 144.6 80.4 144.2 80.6 144.6 80.3 C 145.4 80.0 145.3 80.4 146.2 80.0 C 146.0 79.7 148.3 79.4 148.0 79.0 C 147.5 79.2 147.6 79.4 146.7 79.5 C 146.4 79.6 146.5 79.4 146.1 79.5 C 146.3 79.2 146.8 79.5 147.1 79.1 C 147.0 79.0 146.4 79.2 146.2 79.0 C 145.9 79.2 146.4 79.1 146.3 79.3 C 145.3 79.6 146.2 78.7 145.1 79.1 C 145.4 79.2 145.4 79.3 145.2 79.6 C 144.8 79.6 143.4 80.1 144.1 79.6 C 144.0 79.5 143.2 80.0 143.4 80.1 C 142.9 80.2 142.8 80.2 142.8 80.1 C 141.7 80.5 141.6 80.8 141.9 81.0 C 141.7 81.3 141.4 80.9 140.8 81.2 C 140.8 81.2 140.8 81.2 140.8 81.2 Z M 179.1 69.4 C 178.5 69.8 179.7 69.1 180.4 68.9 C 179.6 69.1 179.7 68.7 178.9 69.0 C 179.2 69.0 179.2 69.1 178.7 69.2 C 178.6 69.4 179.8 69.1 179.1 69.4 C 179.1 69.4 179.1 69.4 179.1 69.4 Z M 204.2 59.0 C 204.5 59.0 205.8 58.3 206.5 58.0 C 206.2 57.7 204.8 59.0 204.4 58.7 C 204.0 58.9 204.6 58.7 204.2 59.0 C 204.2 59.0 204.2 59.0 204.2 59.0 Z M 151.1 78.7 C 151.4 78.6 151.2 78.5 151.0 78.6 C 151.1 78.4 151.7 78.3 152.1 78.2 C 151.4 78.2 152.1 77.9 151.9 77.6 C 152.2 77.6 152.4 77.5 152.4 77.4 C 152.6 77.9 154.0 76.6 152.3 77.1 C 152.7 77.2 152.6 77.3 151.9 77.6 C 151.1 77.6 150.6 78.0 150.2 77.8 C 149.7 78.0 149.6 78.2 148.9 78.3 C 148.7 78.2 148.1 78.2 148.5 77.7 C 147.3 78.1 148.3 78.5 147.3 78.8 C 146.4 78.9 147.7 78.4 147.4 78.2 C 147.2 78.3 147.2 78.2 147.1 78.1 C 146.8 78.2 146.9 78.5 147.2 78.4 C 147.1 78.5 146.3 79.0 146.4 78.6 C 145.9 78.9 147.5 79.2 148.2 78.7 C 148.6 78.5 148.7 79.0 148.3 79.1 C 148.5 79.3 149.2 78.4 149.1 79.0 C 149.5 78.9 149.8 78.8 150.2 78.7 C 150.1 78.7 149.9 78.7 149.9 78.6 C 150.2 78.5 150.6 78.4 151.0 78.3 C 150.7 78.5 150.7 78.6 151.1 78.7 C 151.1 78.7 151.1 78.7 151.1 78.7 Z M 200.8 60.4 C 201.5 60.1 201.6 59.9 202.0 59.6 C 201.8 59.5 200.4 60.2 200.8 60.4 C 200.8 60.4 200.8 60.4 200.8 60.4 Z M 136.0 81.6 C 136.1 81.6 136.6 81.5 136.6 81.6 C 135.8 81.9 136.8 81.8 136.2 82.4 C 137.2 81.9 137.4 81.2 136.0 81.4 C 134.9 81.7 137.1 81.3 136.0 81.6 C 136.0 81.6 136.0 81.6 136.0 81.6 Z M 139.3 80.9 C 139.9 80.6 138.2 80.9 137.8 80.9 C 137.8 80.8 137.8 80.7 137.8 80.6 C 137.0 81.3 138.2 81.1 137.5 81.8 C 138.6 81.7 139.1 81.7 140.0 81.3 C 139.9 81.2 139.7 81.3 139.7 81.4 C 139.0 81.5 139.4 81.0 140.1 81.0 C 139.9 80.9 139.3 81.1 138.8 81.1 C 138.9 81.2 139.1 81.2 139.1 81.3 C 138.5 81.5 138.7 81.3 138.3 81.4 C 138.2 81.2 139.2 80.7 139.3 80.9 C 139.3 80.9 139.3 80.9 139.3 80.9 Z M 85.8 91.6 C 86.4 91.4 85.2 91.2 85.2 90.8 C 84.6 90.8 84.4 91.0 84.1 91.0 C 84.3 91.2 84.9 91.1 85.2 91.3 C 85.2 91.6 84.4 91.3 84.1 91.6 C 83.8 92.0 85.5 91.2 85.8 91.6 C 85.8 91.6 85.8 91.6 85.8 91.6 Z M 163.4 74.3 C 163.7 74.2 163.5 74.2 163.4 74.2 C 163.4 74.1 163.9 74.0 163.9 74.1 C 164.3 73.9 163.6 74.0 164.1 73.8 C 164.2 73.6 163.4 74.1 163.4 74.2 C 162.8 74.4 163.1 73.9 162.9 73.8 C 162.4 74.0 162.7 74.2 161.9 74.3 C 162.4 74.3 162.9 74.4 163.4 74.3 C 163.4 74.3 163.4 74.3 163.4 74.3 Z M 134.3 82.6 C 134.2 82.7 134.8 82.0 135.6 82.1 C 136.5 81.8 134.9 81.9 135.8 81.7 C 135.0 81.8 134.2 82.3 133.1 82.6 C 132.9 82.8 134.7 82.2 133.7 82.6 C 133.8 82.7 134.0 82.6 134.0 82.5 C 134.2 82.5 134.2 82.5 134.3 82.6 C 134.3 82.6 134.3 82.6 134.3 82.6 Z M 135.2 81.7 C 135.1 81.6 134.9 81.7 134.9 81.7 C 134.6 81.8 134.5 81.6 134.8 81.5 C 134.3 81.3 134.5 81.8 133.5 81.9 C 134.0 82.0 134.2 82.1 133.3 82.1 C 132.7 82.6 134.9 81.9 135.2 81.7 C 135.2 81.7 135.2 81.7 135.2 81.7 Z M 94.6 90.2 C 94.5 90.1 93.9 90.2 93.4 90.3 C 93.9 90.0 96.2 89.8 96.5 89.9 C 96.7 89.8 96.9 89.8 97.0 89.9 C 97.0 89.8 97.6 89.6 97.3 89.6 C 97.3 89.4 97.8 89.4 97.8 89.3 C 98.6 89.2 97.6 89.5 97.8 89.6 C 98.8 89.2 98.6 89.5 99.7 89.3 C 99.5 89.1 98.2 89.4 98.3 89.0 C 97.4 89.5 96.4 89.4 95.8 89.2 C 96.7 89.5 93.6 90.2 92.1 90.3 C 92.1 90.1 91.6 90.2 90.9 90.2 C 90.5 90.0 90.7 90.5 91.5 90.3 C 91.5 90.5 90.3 90.5 89.9 90.6 C 90.4 90.7 90.1 90.8 90.4 90.9 C 91.5 90.7 90.5 90.8 90.7 90.6 C 91.0 90.5 91.2 90.5 91.5 90.5 C 90.1 91.1 93.6 90.2 92.3 90.4 C 93.5 90.3 93.5 90.5 94.6 90.2 C 94.6 90.2 94.6 90.2 94.6 90.2 Z M 120.2 85.8 C 120.4 85.7 121.2 85.3 121.3 85.6 C 122.3 85.1 121.3 85.1 122.6 84.8 C 122.5 84.7 122.0 84.9 122.0 84.8 C 121.5 84.9 121.1 85.1 121.2 85.4 C 120.7 85.5 120.5 85.6 120.2 85.7 C 120.3 85.6 120.5 85.4 121.0 85.3 C 121.0 85.1 120.8 85.0 120.1 85.2 C 119.8 85.5 120.1 85.6 120.2 85.8 C 120.2 85.8 120.2 85.8 120.2 85.8 Z M 122.8 84.9 C 123.0 84.9 123.2 84.9 123.2 85.1 C 123.6 85.3 123.2 84.7 123.6 84.6 C 124.0 84.5 123.9 84.7 124.0 84.8 C 124.4 84.6 124.8 84.5 125.0 84.5 C 125.8 84.2 124.1 84.5 123.9 84.4 C 123.4 84.6 123.6 84.8 122.8 84.9 C 122.8 84.9 122.8 84.9 122.8 84.9 Z M 131.0 83.3 C 131.2 83.5 131.4 83.0 131.8 83.0 C 131.5 82.8 130.7 83.1 131.2 82.7 C 130.3 82.8 130.3 82.8 129.5 83.1 C 129.0 82.9 129.6 83.3 130.4 83.0 C 130.3 83.1 129.9 83.2 129.9 83.3 C 129.2 82.9 128.1 84.1 128.8 83.5 C 129.1 83.5 129.2 83.6 129.4 83.6 C 129.5 83.4 131.4 83.1 131.0 83.3 C 131.0 83.3 131.0 83.3 131.0 83.3 Z M 157.7 75.6 C 156.6 76.0 156.6 76.0 155.6 76.3 C 155.5 76.2 155.6 76.1 155.8 76.0 C 155.5 76.0 155.2 76.1 154.7 76.3 C 154.8 76.4 155.0 76.3 155.0 76.3 C 155.9 76.2 155.2 76.4 155.1 76.7 C 156.2 76.6 157.0 75.8 157.5 76.0 C 157.9 75.8 157.4 75.9 157.7 75.6 C 157.7 75.6 157.7 75.6 157.7 75.6 Z M 28.6 93.9 C 28.4 94.0 27.9 94.0 28.0 94.1 C 28.4 94.1 28.7 94.0 29.1 94.0 C 28.3 93.9 28.5 93.5 27.5 93.5 C 27.8 93.6 27.7 93.9 28.6 93.9 C 28.6 93.9 28.6 93.9 28.6 93.9 Z M 128.3 83.8 C 128.2 83.7 128.2 83.6 128.5 83.5 C 128.5 83.3 127.7 83.6 127.6 83.4 C 127.4 83.5 127.5 83.6 127.1 83.7 C 127.3 83.8 128.0 83.6 127.8 83.9 C 127.5 84.0 127.5 84.0 127.5 83.9 C 126.9 84.2 127.8 84.0 128.3 83.8 C 128.3 83.8 128.3 83.8 128.3 83.8 Z M 83.0 91.6 C 83.4 91.5 83.0 91.4 82.7 91.5 C 83.5 91.1 82.2 91.1 82.1 90.8 C 82.5 91.0 83.6 90.7 83.8 90.8 C 84.1 90.7 83.7 90.5 84.5 90.3 C 84.4 90.1 83.5 90.5 83.7 90.6 C 83.5 90.3 82.6 90.8 82.6 90.5 C 81.4 90.5 81.1 90.8 81.0 91.1 C 82.2 90.9 81.6 91.4 82.7 91.2 C 82.7 91.3 82.4 91.3 82.2 91.3 C 82.3 91.5 82.7 91.5 83.0 91.6 C 83.0 91.6 83.0 91.6 83.0 91.6 Z M 111.5 87.3 C 112.1 87.2 112.0 87.0 111.9 86.8 C 111.7 86.9 111.4 87.0 110.9 87.1 C 111.0 87.2 111.7 87.0 111.5 87.3 C 111.5 87.3 111.5 87.3 111.5 87.3 Z M 87.4 90.7 C 87.4 90.8 87.7 90.7 87.6 90.7 C 88.3 90.6 88.5 90.7 88.8 90.8 C 89.1 90.7 89.0 90.6 89.0 90.4 C 88.4 90.7 88.5 90.4 87.6 90.5 C 87.7 90.6 87.6 90.7 87.4 90.7 C 87.4 90.7 87.4 90.7 87.4 90.7 Z M 105.7 88.2 C 106.0 88.1 105.9 88.1 105.7 88.1 C 106.0 87.7 107.2 87.8 107.6 87.6 C 107.6 87.4 106.2 87.6 107.8 87.3 C 107.5 87.1 106.1 87.5 105.4 87.6 C 105.5 87.3 106.5 87.2 106.4 86.9 C 105.5 87.2 104.6 87.5 104.6 87.9 C 105.8 87.7 105.4 88.1 105.7 88.2 C 105.7 88.2 105.7 88.2 105.7 88.2 Z M 104.3 88.2 C 104.5 88.4 104.7 88.1 105.1 88.1 C 104.4 87.9 104.0 88.1 102.7 88.2 C 102.7 88.3 102.7 88.4 102.7 88.4 C 102.4 88.5 102.1 88.5 101.9 88.6 C 103.1 88.7 103.4 88.4 104.6 88.1 C 104.7 88.2 104.5 88.2 104.3 88.2 C 104.3 88.2 104.3 88.2 104.3 88.2 Z M 140.6 80.4 C 140.2 80.3 139.8 80.3 139.2 80.4 C 139.3 80.6 139.7 80.6 140.6 80.4 C 140.6 80.4 140.6 80.4 140.6 80.4 Z M 86.3 90.7 C 85.5 90.9 87.0 90.6 86.5 90.4 C 85.9 90.3 85.2 90.3 85.1 90.1 C 84.0 90.6 86.4 90.3 86.3 90.7 C 86.3 90.7 86.3 90.7 86.3 90.7 Z M 91.1 89.4 C 91.4 89.4 91.5 89.8 91.1 89.6 C 90.3 89.7 91.8 89.8 90.6 89.9 C 91.1 89.9 92.3 89.9 92.8 89.6 C 92.8 89.4 91.7 89.7 91.7 89.4 C 91.6 89.4 91.8 89.3 91.9 89.3 C 91.8 89.2 91.6 89.4 91.1 89.4 C 91.1 89.4 91.1 89.4 91.1 89.4 Z M 95.3 89.3 C 94.8 89.2 94.2 89.2 93.3 89.3 C 93.9 89.4 94.3 89.6 95.3 89.3 C 95.3 89.3 95.3 89.3 95.3 89.3 Z M 43.2 93.1 C 43.9 93.0 43.3 92.8 43.2 92.7 C 42.6 92.7 42.6 92.9 41.8 92.8 C 42.1 93.1 42.8 92.8 43.2 93.1 C 43.2 93.1 43.2 93.1 43.2 93.1 Z M 40.8 92.9 C 40.7 92.7 39.7 92.8 39.7 92.6 C 39.1 93.2 38.2 92.3 38.3 92.7 C 38.0 92.7 37.8 92.6 37.4 92.6 C 38.2 93.1 39.9 92.9 40.8 92.9 C 40.8 92.9 40.8 92.9 40.8 92.9 Z M 99.8 88.1 C 100.6 88.0 99.6 87.7 100.3 87.6 C 100.3 87.5 98.9 87.7 99.7 87.4 C 98.6 87.4 99.9 88.0 99.8 88.1 C 99.8 88.1 99.8 88.1 99.8 88.1 Z M 113.1 85.5 C 113.1 85.7 114.1 85.3 114.5 85.3 C 114.4 85.2 114.1 85.3 113.9 85.3 C 114.0 85.2 114.1 85.1 114.4 85.0 C 114.2 84.9 113.5 85.4 113.1 85.5 C 113.1 85.5 113.1 85.5 113.1 85.5 Z M 99.2 92.9 C 98.7 92.7 98.0 92.6 97.8 93.0 C 97.3 92.9 98.1 92.7 97.4 92.6 C 96.7 92.9 97.0 92.5 95.8 92.9 C 96.0 92.5 95.1 92.6 94.9 92.4 C 95.4 92.3 96.1 92.5 96.3 92.2 C 95.8 92.3 96.0 92.0 96.3 92.2 C 97.1 92.2 95.3 92.7 96.3 92.7 C 96.6 92.3 98.1 92.7 99.1 92.6 C 98.8 92.8 99.9 92.8 99.2 92.9 C 99.2 92.9 99.2 92.9 99.2 92.9 Z M 94.1 93.1 C 93.5 93.2 93.0 92.7 93.2 92.7 C 93.2 92.8 94.0 92.7 94.1 92.6 C 93.9 92.6 93.7 92.6 93.8 92.5 C 95.0 92.4 94.6 92.7 94.9 92.8 C 94.3 93.0 94.1 92.9 93.8 93.0 C 94.0 93.0 94.2 93.0 94.1 93.1 C 94.1 93.1 94.1 93.1 94.1 93.1 Z M 79.0 90.4 C 79.1 90.6 79.3 90.3 79.6 90.3 C 79.6 90.7 81.0 90.0 81.2 90.2 C 80.9 90.3 80.2 90.4 79.9 90.6 C 80.2 90.6 80.3 90.7 80.7 90.5 C 80.6 90.8 79.8 90.9 79.6 91.1 C 79.5 90.9 79.2 91.2 79.1 91.0 C 80.1 90.8 78.4 90.5 79.0 90.4 C 79.0 90.4 79.0 90.4 79.0 90.4 Z M 106.0 86.7 C 106.1 86.4 104.8 85.9 105.8 85.4 C 106.1 85.6 106.3 85.8 106.2 86.2 C 106.9 85.9 107.2 86.1 107.5 85.8 C 108.9 86.3 106.6 85.9 106.0 86.7 C 106.0 86.7 106.0 86.7 106.0 86.7 Z M 110.3 85.6 C 110.1 85.9 110.7 85.8 110.7 86.0 C 110.1 85.9 108.5 86.5 109.0 86.2 C 109.6 86.0 109.5 85.8 110.3 85.6 C 110.3 85.6 110.3 85.6 110.3 85.6 Z M 218.8 51.5 C 218.1 52.1 217.4 51.9 217.8 51.5 C 217.8 51.9 218.9 51.1 218.8 51.5 C 218.8 51.5 218.8 51.5 218.8 51.5 Z M 191.1 68.9 C 192.0 68.7 192.3 68.4 192.5 68.6 C 191.8 69.0 191.8 68.8 191.2 69.1 C 191.2 69.2 190.9 69.4 190.7 69.4 C 191.1 69.2 190.9 69.1 191.1 68.9 C 191.1 68.9 191.1 68.9 191.1 68.9 Z M 128.2 88.4 C 128.3 88.5 128.7 88.5 128.6 88.7 C 127.7 88.8 126.8 89.2 126.2 89.6 C 126.1 89.4 126.1 89.3 126.1 89.2 C 127.4 89.0 127.7 88.7 128.2 88.4 C 128.2 88.4 128.2 88.4 128.2 88.4 Z M 130.0 88.6 C 130.1 88.4 129.6 88.2 130.2 88.1 C 130.2 88.3 131.3 88.3 130.8 88.5 C 130.6 88.3 130.3 88.4 130.0 88.6 C 130.0 88.6 130.0 88.6 130.0 88.6 Z M 83.4 95.2 C 82.8 95.3 83.8 95.4 83.7 95.5 C 83.3 95.5 82.6 95.6 82.3 95.5 C 82.8 95.5 83.1 95.0 83.4 95.2 C 83.4 95.2 83.4 95.2 83.4 95.2 Z M 93.6 93.3 C 95.0 93.0 94.5 93.6 95.9 93.5 C 95.3 93.7 94.1 93.9 93.7 94.2 C 93.7 94.0 93.4 94.0 93.4 93.8 C 93.9 93.7 94.0 93.9 94.5 93.8 C 94.3 93.5 94.3 93.6 94.4 93.3 C 94.1 93.4 93.8 93.5 93.6 93.5 C 93.7 93.4 93.2 93.4 93.6 93.3 C 93.6 93.3 93.6 93.3 93.6 93.3 Z M 83.6 94.4 C 83.1 94.6 82.5 94.3 83.0 94.2 C 83.1 94.4 83.5 94.1 83.6 94.3 C 82.8 94.4 84.3 94.3 83.9 94.6 C 83.4 94.6 83.3 94.7 83.4 94.9 C 83.1 94.9 82.6 95.0 82.6 94.9 C 82.8 94.9 83.1 94.9 83.1 94.8 C 82.9 94.8 82.8 94.8 82.8 94.7 C 83.3 94.7 83.5 94.6 83.6 94.4 C 83.6 94.4 83.6 94.4 83.6 94.4 Z M 87.5 94.0 C 86.7 94.1 86.6 93.8 86.3 93.7 C 87.4 93.6 87.6 94.0 88.3 94.1 C 87.5 94.1 86.7 94.5 86.4 94.4 C 86.8 94.2 87.5 94.2 87.5 94.0 C 87.5 94.0 87.5 94.0 87.5 94.0 Z M 280.9 14.9 C 280.3 15.1 279.8 15.3 279.1 15.7 C 279.1 16.0 280.5 15.6 279.9 15.8 C 279.3 16.3 279.5 15.7 279.0 16.0 C 279.8 16.0 277.2 17.9 276.8 17.7 C 277.2 17.4 277.3 17.2 277.1 17.2 C 278.2 16.4 278.4 15.9 279.2 15.3 C 280.0 15.1 281.7 14.0 282.3 13.0 C 283.2 13.0 283.9 11.7 285.0 11.4 C 285.1 11.1 284.1 11.7 284.8 11.1 C 285.4 11.0 285.1 11.4 285.8 11.0 C 285.7 10.9 285.5 10.8 285.7 10.6 C 285.8 10.7 286.2 10.5 286.4 10.4 C 285.1 11.4 286.7 10.7 285.8 11.5 C 285.3 11.7 285.9 10.8 284.8 11.6 C 284.5 12.0 284.2 12.4 284.4 12.5 C 284.1 12.7 284.0 12.9 283.8 13.1 C 284.0 12.5 282.4 14.3 283.0 13.4 C 283.1 13.3 283.7 12.9 284.0 12.5 C 283.5 12.5 283.1 13.0 282.5 13.7 C 282.1 13.7 282.4 13.3 282.1 13.5 C 281.6 14.1 282.5 13.7 282.2 14.1 C 282.4 14.0 282.6 13.8 282.7 13.9 C 281.6 14.4 281.4 14.9 280.9 15.2 C 281.1 14.8 280.2 15.5 280.9 14.9 C 280.9 14.9 280.9 14.9 280.9 14.9 Z M 288.7 8.4 C 288.9 8.2 289.1 8.0 289.3 7.9 C 289.5 8.0 288.7 8.7 289.4 8.5 C 288.4 9.2 289.3 8.2 288.7 8.4 C 288.7 8.4 288.7 8.4 288.7 8.4 Z M 283.7 11.0 C 283.2 11.1 283.7 11.4 283.4 11.7 C 283.9 11.2 284.4 10.8 284.6 11.0 C 284.0 11.4 283.7 11.6 283.1 12.2 C 283.5 11.4 282.2 12.5 281.8 12.4 C 282.3 11.9 282.6 11.5 283.3 11.0 C 283.2 11.2 284.3 10.5 283.7 11.0 C 283.7 11.0 283.7 11.0 283.7 11.0 Z M 285.2 9.4 C 285.4 9.4 286.3 8.6 286.3 9.0 C 285.7 9.4 285.5 9.6 285.8 9.7 C 285.4 10.1 285.3 10.0 284.9 10.3 C 284.4 10.3 285.1 9.8 285.3 9.5 C 285.1 9.6 285.0 9.6 285.2 9.4 C 285.2 9.4 285.2 9.4 285.2 9.4 Z M 22.2 92.8 C 22.4 93.1 21.3 92.9 21.1 92.8 C 21.4 93.1 21.3 93.2 20.6 93.3 C 20.8 92.9 19.8 93.0 19.2 92.6 C 19.0 92.8 19.8 93.0 18.9 93.0 C 18.2 92.9 17.5 93.0 16.4 93.0 C 16.2 92.7 16.7 92.6 17.0 92.6 C 16.2 92.6 16.4 92.3 15.9 92.3 C 16.0 92.5 15.5 92.5 15.3 92.4 C 16.3 92.3 14.0 92.0 15.1 91.9 C 15.1 92.0 15.4 92.0 15.6 91.9 C 15.3 92.3 16.7 92.2 17.0 92.5 C 17.5 91.9 19.0 92.2 20.6 92.4 C 20.7 92.6 20.2 92.7 20.6 92.7 C 20.6 92.6 21.2 92.6 21.4 92.6 C 21.4 92.7 21.6 92.8 21.9 92.9 C 22.0 92.8 22.0 92.8 22.2 92.8 C 22.2 92.8 22.2 92.8 22.2 92.8 Z M 241.5 37.8 C 241.3 37.3 239.9 38.5 239.5 38.8 C 239.4 38.3 242.1 36.9 241.5 37.8 C 241.5 37.8 241.5 37.8 241.5 37.8 Z M 250.5 31.8 C 250.1 32.1 250.5 32.1 250.2 32.4 C 250.0 32.1 249.4 33.2 249.2 32.9 C 249.5 32.5 249.8 32.3 250.5 31.8 C 250.5 31.8 250.5 31.8 250.5 31.8 Z M 258.9 26.5 C 258.3 27.0 259.4 26.4 259.3 26.6 C 258.7 27.0 258.1 27.4 258.0 27.1 C 258.6 26.9 258.7 26.4 258.9 26.5 C 258.9 26.5 258.9 26.5 258.9 26.5 Z M 246.1 34.2 C 245.5 34.5 246.3 33.6 246.5 33.7 C 245.9 34.2 247.0 33.7 247.5 33.3 C 247.6 33.6 247.4 33.7 247.8 33.7 C 247.0 34.4 247.5 33.6 246.9 34.0 C 246.6 34.3 247.0 34.0 247.1 34.3 C 246.9 34.4 246.7 34.5 246.4 34.7 C 246.3 34.6 246.3 34.4 246.2 34.3 C 246.5 34.1 246.7 33.9 246.6 33.9 C 246.3 34.0 246.3 34.1 246.1 34.2 C 246.1 34.2 246.1 34.2 246.1 34.2 Z M 7.9 91.4 C 7.5 91.4 7.8 91.6 8.1 91.6 C 8.2 91.5 8.5 91.0 9.0 91.3 C 7.9 91.5 9.3 91.8 8.7 91.9 C 8.5 91.6 7.8 91.8 7.3 91.8 C 7.1 91.5 7.7 91.2 7.9 91.4 C 7.9 91.4 7.9 91.4 7.9 91.4 Z M 9.8 91.8 C 9.8 91.7 9.6 91.6 9.3 91.6 C 9.6 91.4 9.1 91.3 9.6 91.3 C 9.5 91.4 11.0 91.6 10.1 91.6 C 9.4 91.4 10.3 91.8 10.7 91.8 C 10.3 91.8 9.6 92.0 9.5 91.8 C 9.7 91.8 9.9 91.8 9.8 91.8 C 9.8 91.8 9.8 91.8 9.8 91.8 Z M 27.8 92.2 C 27.9 92.1 27.4 92.1 27.2 92.0 C 28.6 92.0 29.8 92.1 30.5 92.1 C 29.9 92.1 29.9 92.4 30.3 92.5 C 29.6 92.4 29.4 92.5 29.2 92.4 C 29.8 92.2 28.6 92.3 27.8 92.2 C 27.8 92.2 27.8 92.2 27.8 92.2 Z M 27.8 92.2 " fill="#FEFFFF"></path></g></svg>