<?xml version="1.0" encoding="UTF-8" standalone="no"?><svg xmlns="http://www.w3.org/2000/svg" xmlns:xlink="http://www.w3.org/1999/xlink" clip-rule="evenodd" stroke-miterlimit="4.00" viewBox="0 0 295 100"><desc>SVG generated by Keynote</desc><defs></defs><g transform="matrix(1.00, 0.00, -0.00, -1.00, 0.0, 100.0)"><path d="M 143.4 84.5 C 143.6 84.4 143.8 84.3 144.2 84.2 C 144.0 84.2 143.9 84.1 143.9 84.0 C 143.6 84.2 143.1 84.3 142.5 84.5 C 142.5 84.5 142.9 84.4 143.1 84.4 C 143.3 84.3 143.3 84.4 143.4 84.5 C 143.4 84.5 143.4 84.5 143.4 84.5 Z M 217.6 55.7 C 217.1 56.0 217.8 56.0 218.0 55.9 C 218.0 55.8 218.0 55.7 218.2 55.7 C 218.4 55.8 217.9 56.1 217.6 56.3 C 216.2 56.9 217.0 56.0 217.6 55.7 C 217.6 55.7 217.6 55.7 217.6 55.7 Z M 281.3 16.2 C 282.3 15.5 281.1 16.1 280.9 16.1 C 281.3 15.7 280.7 15.7 281.3 15.2 C 281.4 15.2 281.7 15.1 281.9 15.1 C 281.7 15.3 281.3 15.6 281.3 15.7 C 281.6 15.5 282.1 15.1 282.2 15.1 C 281.5 15.8 282.3 15.4 282.5 15.5 C 281.8 16.0 281.7 16.3 281.3 16.2 C 281.3 16.2 281.3 16.2 281.3 16.2 Z M 55.3 96.8 C 55.0 96.8 54.7 96.8 54.8 96.6 C 55.1 96.6 55.4 96.6 55.6 96.7 C 55.7 96.5 55.5 96.4 55.9 96.4 C 56.3 96.6 56.1 96.9 55.9 97.1 C 55.9 96.9 54.6 97.0 55.3 96.8 C 55.3 96.8 55.3 96.8 55.3 96.8 Z M 86.8 93.7 C 87.8 93.7 86.8 93.3 87.8 93.3 C 87.8 93.5 88.0 93.8 87.3 93.9 C 87.3 93.8 86.8 93.8 86.8 93.7 C 86.8 93.7 86.8 93.7 86.8 93.7 Z M 254.2 32.5 C 254.3 32.7 254.9 32.2 254.9 32.5 C 254.5 32.7 254.3 32.9 253.9 33.1 C 253.8 33.0 253.8 32.8 254.2 32.5 C 254.2 32.5 254.2 32.5 254.2 32.5 Z M 286.4 9.1 C 287.6 8.5 288.4 7.3 288.2 7.8 C 288.8 7.7 288.0 9.0 287.9 8.7 C 287.6 8.5 285.6 9.7 286.4 9.1 C 286.4 9.1 286.4 9.1 286.4 9.1 Z M 221.2 48.7 C 222.5 48.3 221.9 47.7 222.9 47.6 C 222.6 47.8 222.5 47.9 222.5 48.0 C 222.7 48.0 222.9 47.8 223.0 47.9 C 222.4 48.2 221.8 48.6 221.2 48.7 C 221.2 48.7 221.2 48.7 221.2 48.7 Z M 124.7 88.4 C 124.5 88.5 124.4 88.6 124.5 88.7 C 123.6 88.8 123.7 89.0 123.1 89.0 C 123.0 88.6 123.7 88.6 124.4 88.5 C 124.4 88.4 124.6 88.3 124.7 88.4 C 124.7 88.4 124.7 88.4 124.7 88.4 Z M 100.3 92.0 C 100.4 92.2 100.9 92.2 100.1 92.4 C 99.1 92.2 99.9 91.9 100.8 91.5 C 100.8 91.4 100.8 91.3 100.8 91.2 C 100.4 91.3 100.1 91.3 99.9 91.2 C 99.8 91.7 99.1 91.0 97.7 91.5 C 98.3 91.2 97.6 91.0 98.5 91.0 C 98.2 90.8 98.8 90.7 98.7 90.5 C 98.3 90.7 97.4 90.8 97.6 91.1 C 97.2 91.2 96.8 91.2 96.5 91.2 C 96.1 91.0 97.4 91.0 97.0 90.8 C 96.8 90.8 96.7 90.7 96.5 90.8 C 96.4 90.9 96.6 91.0 96.2 91.1 C 95.3 91.1 96.4 90.7 95.1 90.9 C 95.0 91.1 95.4 91.0 95.4 91.2 C 94.9 91.4 94.9 91.2 94.3 91.4 C 94.2 91.3 94.7 91.2 94.3 91.2 C 94.0 91.6 93.1 91.1 92.4 91.5 C 93.0 92.0 92.2 91.4 91.6 92.1 C 91.4 92.0 91.9 91.5 91.2 91.6 C 91.6 92.3 89.1 92.4 91.1 92.7 C 90.1 92.8 89.8 93.4 90.6 93.4 C 88.8 93.5 89.4 93.8 88.7 93.9 C 88.0 94.0 89.1 93.7 88.7 93.6 C 89.4 93.5 89.2 93.3 89.8 93.4 C 89.8 93.3 89.9 93.2 90.0 93.1 C 89.3 93.4 88.4 93.1 88.9 92.7 C 89.3 92.7 88.9 93.1 89.5 93.0 C 89.2 92.6 90.0 93.0 90.0 92.7 C 89.6 92.4 90.6 92.0 89.6 92.1 C 89.6 92.2 89.7 92.4 89.7 92.5 C 89.4 92.6 89.1 92.6 88.9 92.6 C 88.6 92.4 88.8 92.2 88.5 92.1 C 88.0 92.2 87.8 92.3 87.7 92.4 C 88.3 92.4 89.0 92.5 88.0 92.7 C 88.3 92.1 86.7 92.8 87.4 92.4 C 86.4 92.3 85.9 92.8 85.8 92.5 C 85.2 92.5 85.6 92.8 84.9 92.8 C 83.9 92.7 84.1 93.1 82.7 93.0 C 82.6 93.5 82.6 92.9 82.2 93.0 C 82.2 93.1 82.2 93.3 82.2 93.4 C 81.7 93.2 80.6 93.2 79.4 93.6 C 79.1 93.6 79.3 93.3 78.6 93.4 C 77.8 93.9 76.8 93.6 75.9 94.1 C 75.8 93.9 75.1 93.9 74.7 94.1 C 74.6 94.0 75.0 93.6 74.4 93.7 C 74.0 94.0 74.8 94.0 73.9 94.2 C 74.0 93.9 73.1 94.5 73.0 94.1 C 73.3 94.0 73.6 93.9 73.9 93.8 C 73.5 93.8 73.6 93.7 73.3 93.7 C 73.4 94.0 72.7 93.8 72.4 93.7 C 72.5 93.9 72.4 94.0 72.2 94.1 C 71.7 94.2 71.3 94.2 71.1 94.3 C 70.5 94.2 71.4 94.1 70.8 94.1 C 70.6 94.8 69.9 94.1 68.6 94.6 C 68.3 94.4 67.8 94.3 66.9 94.4 C 66.8 94.6 67.7 94.4 67.8 94.6 C 66.5 94.6 68.0 94.7 67.2 94.8 C 65.5 94.8 64.3 94.9 62.5 94.8 C 62.5 95.0 61.1 95.2 61.1 95.1 C 61.5 95.0 60.3 94.8 59.7 94.8 C 59.6 95.3 58.7 95.8 58.6 96.0 C 58.4 95.8 58.4 95.7 58.3 95.3 C 57.3 95.3 56.8 95.7 56.1 95.3 C 56.2 95.5 55.7 95.6 55.3 95.7 C 55.4 95.5 55.6 95.3 55.8 95.1 C 55.3 95.2 55.2 95.0 54.7 95.1 C 54.2 95.9 53.4 94.9 53.0 95.7 C 52.2 95.7 52.4 95.4 51.6 95.5 C 51.7 95.6 51.6 95.7 51.4 95.8 C 51.9 95.7 52.2 95.5 52.5 95.8 C 51.4 95.9 54.6 96.5 52.8 96.9 C 52.7 96.7 52.9 96.5 52.5 96.5 C 51.5 96.7 52.1 96.9 52.5 96.9 C 51.9 97.0 51.1 96.9 51.7 97.3 C 50.1 97.4 51.1 97.1 50.6 97.0 C 47.8 97.3 44.3 97.5 40.5 97.2 C 40.4 97.6 38.3 97.3 37.7 97.0 C 36.6 97.3 35.5 97.4 35.2 97.0 C 35.0 97.4 33.9 96.8 33.8 97.1 C 34.2 97.1 34.5 97.2 34.1 97.3 C 32.5 97.1 30.2 97.0 29.3 97.2 C 28.7 96.9 27.7 96.9 27.0 97.1 C 26.9 96.9 27.5 96.9 27.1 96.8 C 26.9 97.0 25.5 97.1 25.1 96.9 C 25.5 97.0 26.0 96.6 25.4 96.6 C 25.4 96.8 24.6 96.7 24.8 96.9 C 23.9 96.8 23.3 96.9 22.6 96.8 C 23.2 96.7 23.6 96.6 23.7 96.4 C 23.2 96.6 22.7 96.7 22.3 96.4 C 22.4 96.8 21.5 96.5 20.6 96.7 C 20.4 96.5 20.2 96.4 19.5 96.4 C 19.1 96.6 20.6 96.7 19.8 96.7 C 19.8 96.6 19.0 96.4 19.2 96.7 C 18.3 96.5 17.7 96.7 17.0 96.4 C 18.0 96.6 17.2 96.1 17.0 96.1 C 16.8 96.1 16.5 96.0 16.4 96.1 C 16.4 96.2 16.9 96.2 17.0 96.3 C 16.3 96.2 16.1 96.6 15.9 96.4 C 16.2 96.4 16.2 96.2 15.9 96.2 C 15.8 96.6 13.8 96.2 14.5 96.0 C 14.5 96.1 15.2 96.2 15.3 96.1 C 15.1 95.9 14.0 96.0 14.2 95.7 C 14.9 95.7 14.8 95.9 15.6 95.9 C 15.7 95.7 16.2 95.7 16.5 95.6 C 15.2 95.5 14.9 95.8 14.8 95.5 C 14.2 95.5 14.6 95.8 13.7 95.7 C 12.4 95.5 13.5 95.3 13.1 95.2 C 12.0 95.3 12.3 95.7 12.8 96.0 C 11.9 95.9 11.6 96.1 10.5 95.9 C 10.6 95.8 10.8 95.7 11.1 95.6 C 11.2 95.7 12.1 96.0 12.0 95.8 C 11.9 95.4 11.2 95.1 10.1 95.0 C 10.3 95.4 10.4 95.2 9.2 95.1 C 9.4 95.5 8.7 95.0 8.6 95.3 C 8.7 95.4 9.1 95.4 9.5 95.4 C 9.4 95.6 9.3 95.7 8.9 95.7 C 8.7 95.6 8.5 95.7 7.8 95.6 C 7.7 95.3 8.2 95.3 8.4 95.2 C 8.0 95.2 7.9 95.3 7.5 95.3 C 7.2 95.0 7.2 94.6 7.3 94.3 C 7.7 94.2 8.4 94.3 7.9 94.0 C 9.5 94.1 7.8 94.4 8.4 94.5 C 9.1 94.2 8.7 94.7 9.8 94.7 C 10.1 94.7 10.2 94.7 10.4 94.6 C 10.3 94.5 9.7 94.2 10.4 94.2 C 10.5 94.4 10.9 94.6 11.5 94.7 C 11.5 94.5 10.3 94.3 11.5 94.4 C 12.1 94.4 11.5 94.8 12.3 94.8 C 12.3 94.7 12.5 94.7 12.6 94.6 C 11.5 94.6 12.8 94.4 12.1 94.2 C 13.1 94.2 12.2 94.6 12.9 94.6 C 12.9 94.4 14.0 94.8 14.0 94.5 C 13.6 94.6 12.8 94.5 12.9 94.2 C 13.6 94.3 17.0 94.3 15.7 94.6 C 16.2 94.5 18.7 94.2 18.5 94.4 C 17.7 94.4 17.8 94.6 17.6 94.7 C 19.0 94.5 19.7 94.8 21.3 94.5 C 19.6 94.3 20.9 93.9 19.9 93.7 C 19.5 93.7 18.9 93.6 18.8 93.7 C 19.0 94.0 19.6 93.9 19.9 93.8 C 19.9 94.0 19.9 94.2 19.9 94.5 C 18.1 94.1 17.1 94.4 16.3 94.2 C 17.0 94.2 14.9 93.8 15.7 93.7 C 16.1 93.9 16.9 94.0 17.7 94.1 C 17.7 94.0 17.7 93.9 17.7 93.8 C 18.0 93.8 18.5 93.9 18.5 93.8 C 17.5 93.8 17.0 93.5 16.3 93.7 C 16.3 93.6 16.3 93.6 16.3 93.5 C 16.1 93.5 16.0 93.5 16.0 93.4 C 16.3 93.4 16.8 93.4 16.9 93.3 C 16.1 93.2 16.0 93.0 15.2 92.9 C 15.4 92.6 14.4 92.2 15.6 92.1 C 15.7 92.4 16.4 92.5 16.3 92.7 C 16.7 92.8 17.4 92.8 17.7 92.7 C 17.4 92.5 16.7 92.4 16.7 92.1 C 17.2 92.1 17.7 92.0 18.0 92.2 C 16.8 92.3 18.7 92.5 19.1 92.8 C 19.0 92.7 18.7 92.6 18.6 92.4 C 19.5 92.5 19.9 92.7 20.0 92.3 C 21.1 92.3 20.8 92.6 21.6 92.6 C 21.1 92.2 22.1 92.4 21.6 92.0 C 22.9 92.0 22.0 92.4 22.5 92.4 C 22.9 92.4 22.9 92.3 23.3 92.3 C 23.9 92.5 25.1 92.5 25.2 92.9 C 25.7 92.9 25.8 93.0 26.3 93.0 C 26.5 92.9 26.6 92.8 26.9 92.8 C 27.0 92.9 27.3 93.0 27.5 92.9 C 26.0 92.4 26.4 92.4 25.0 92.1 C 24.9 92.2 24.6 92.2 25.0 92.3 C 23.9 92.4 23.6 92.2 22.7 92.2 C 22.6 91.9 22.5 91.5 21.7 91.8 C 21.9 91.5 21.6 91.4 22.0 91.3 C 22.4 91.5 23.0 91.6 23.6 91.8 C 23.7 91.6 23.6 91.5 23.9 91.5 C 24.2 91.6 24.6 91.7 25.0 91.6 C 25.0 91.7 24.9 91.8 24.7 91.9 C 26.1 92.0 25.6 91.6 26.6 91.9 C 26.5 91.7 25.8 91.6 26.4 91.5 C 27.3 91.4 27.5 91.6 28.0 91.7 C 28.1 91.6 28.1 91.5 28.3 91.5 C 29.0 91.7 26.8 92.0 28.0 92.4 C 28.1 92.1 29.3 92.3 29.4 92.5 C 29.0 92.7 28.4 92.3 28.3 92.5 C 30.4 92.6 28.3 93.0 30.5 93.1 C 30.5 93.0 30.5 92.9 30.5 92.8 C 29.6 92.8 29.6 92.5 29.7 92.3 C 28.9 92.2 28.6 91.9 28.0 92.1 C 28.3 91.5 28.6 92.1 29.4 92.1 C 29.4 91.8 28.7 91.8 28.6 91.5 C 30.4 91.8 30.7 91.4 32.4 91.9 C 32.0 91.6 33.4 91.8 33.3 91.6 C 31.8 91.7 32.4 90.9 32.2 90.8 C 31.2 90.8 31.6 91.3 31.1 91.5 C 30.8 91.2 30.9 91.1 31.1 90.7 C 31.9 90.8 31.8 90.7 32.5 90.6 C 33.0 90.9 33.5 91.4 32.7 91.5 C 32.9 91.5 34.0 91.3 34.1 91.5 C 33.0 91.5 34.2 91.7 33.6 91.8 C 34.4 92.0 35.9 91.7 36.9 91.9 C 36.8 91.7 37.2 91.7 37.2 91.6 C 36.1 91.8 35.9 91.2 35.0 91.2 C 35.4 91.2 35.1 91.0 35.0 90.9 C 35.9 91.1 36.5 90.8 37.2 91.1 C 37.2 91.0 37.2 90.9 37.2 90.8 C 38.3 91.1 38.2 91.0 39.1 90.7 C 39.4 90.9 39.0 91.4 38.8 91.6 C 39.3 91.5 40.8 91.6 39.9 91.3 C 40.9 91.3 40.6 91.6 41.6 91.6 C 41.6 91.3 40.7 91.4 41.0 91.0 C 41.9 90.9 41.4 91.3 42.1 91.1 C 42.2 91.3 42.2 91.5 42.9 91.5 C 42.4 91.3 43.0 91.4 43.2 91.2 C 42.9 91.2 42.6 91.2 42.4 91.1 C 43.8 91.1 44.0 91.1 45.1 91.0 C 44.7 91.3 45.4 91.4 44.6 91.6 C 45.3 91.4 46.2 91.7 46.5 91.5 C 46.1 91.5 45.4 91.5 45.1 91.3 C 47.3 91.2 48.5 90.8 50.4 91.2 C 50.1 91.2 49.6 91.2 49.6 91.3 C 49.8 91.3 50.1 91.3 50.1 91.4 C 49.4 91.4 48.8 91.4 48.5 91.5 C 47.9 91.4 48.8 91.3 48.2 91.2 C 48.1 91.4 46.9 91.3 47.4 91.6 C 48.4 91.3 49.4 91.6 49.9 92.0 C 50.8 91.5 49.9 91.5 50.9 91.0 C 50.9 91.1 51.2 91.2 51.5 91.2 C 51.2 90.8 52.4 91.0 52.6 91.0 C 52.1 91.2 50.3 91.5 51.2 91.8 C 50.8 91.1 53.4 91.9 52.9 91.4 C 54.0 91.2 53.6 91.7 54.3 91.3 C 54.3 91.4 54.2 91.6 54.5 91.6 C 54.9 91.5 55.0 91.4 55.1 91.4 C 53.5 91.3 53.9 90.9 52.8 90.9 C 53.0 90.9 53.2 90.9 53.1 90.8 C 53.1 90.7 53.2 90.7 53.4 90.7 C 53.5 91.1 54.3 90.6 54.5 90.8 C 54.2 90.9 53.9 90.9 54.0 91.0 C 55.3 90.9 55.1 91.3 57.0 91.4 C 56.4 91.2 57.2 91.1 57.8 91.0 C 58.7 91.0 58.4 91.5 59.5 91.4 C 59.4 90.7 60.7 91.4 62.0 90.9 C 61.9 91.3 63.6 91.3 63.9 91.0 C 64.0 91.1 64.6 91.0 65.0 91.0 C 65.1 91.1 64.6 91.2 65.0 91.2 C 65.4 91.2 65.0 90.9 65.6 90.8 C 66.1 90.9 66.1 91.2 66.9 91.1 C 67.0 90.9 66.5 91.0 66.9 90.8 C 67.7 90.8 68.4 90.7 67.7 90.5 C 68.9 90.4 68.4 90.9 69.4 90.8 C 69.1 90.7 69.1 90.6 69.7 90.5 C 70.1 90.7 70.1 90.8 70.3 90.9 C 70.6 90.7 70.5 90.6 71.4 90.7 C 71.4 90.5 71.3 90.4 71.3 90.3 C 71.7 90.3 72.3 90.2 72.4 90.3 C 71.7 90.3 71.9 90.5 71.6 90.6 C 72.4 90.6 73.9 90.8 72.7 90.6 C 73.8 90.3 73.3 90.8 74.1 90.6 C 73.6 90.4 74.1 90.6 74.9 90.4 C 74.8 90.1 75.5 90.3 76.0 90.3 C 75.9 90.1 76.1 89.9 76.5 89.8 C 76.5 90.0 76.8 90.0 77.4 89.9 C 77.4 89.8 76.2 89.8 77.4 89.7 C 77.9 89.7 77.9 90.0 78.8 90.0 C 79.0 90.2 78.0 90.2 78.3 90.5 C 78.9 90.1 79.2 90.3 80.2 90.3 C 79.7 89.8 82.2 89.4 80.9 89.3 C 81.3 89.3 81.7 88.8 82.0 89.1 C 81.7 89.2 82.3 89.3 82.3 89.4 C 82.8 89.3 83.9 89.3 83.9 89.1 C 82.9 89.3 82.9 89.1 82.5 88.9 C 84.0 88.6 85.4 88.6 85.3 88.9 C 85.3 88.8 85.5 88.8 85.6 88.7 C 85.0 88.8 84.6 88.4 85.2 88.3 C 85.1 88.6 85.6 88.6 86.1 88.6 C 86.1 88.3 88.1 88.5 87.7 88.1 C 87.0 88.5 86.3 88.1 86.9 87.9 C 87.4 88.1 88.5 88.1 88.3 88.3 C 88.6 88.2 88.8 88.1 89.1 88.0 C 89.3 87.7 88.7 87.8 88.8 87.5 C 89.2 87.5 89.8 87.4 89.9 87.5 C 88.8 87.7 90.4 87.6 89.3 87.9 C 90.0 87.8 90.2 88.0 90.8 87.9 C 90.7 87.8 91.0 87.8 91.0 87.7 C 90.5 87.9 90.0 87.8 90.1 87.5 C 91.1 87.4 91.0 87.7 91.8 87.6 C 92.0 87.4 93.1 86.8 93.7 87.0 C 92.6 87.1 93.8 87.1 93.2 87.3 C 92.2 87.3 91.9 87.6 91.6 87.9 C 92.0 88.0 92.9 88.0 92.9 87.6 C 92.4 87.7 92.4 87.8 92.1 87.9 C 92.1 87.7 92.3 87.6 92.6 87.5 C 93.1 87.6 94.1 87.3 93.5 87.7 C 94.2 87.5 95.0 87.6 95.7 87.3 C 94.9 87.4 94.3 87.4 94.0 87.2 C 94.6 87.0 95.3 87.2 95.3 87.0 C 95.2 86.8 94.2 87.0 93.9 86.8 C 94.8 86.5 96.2 87.0 95.0 86.6 C 95.5 86.6 96.2 86.5 96.4 86.6 C 95.8 86.7 96.5 87.0 96.8 87.0 C 97.3 86.9 97.6 86.8 97.8 86.6 C 97.1 86.9 96.4 86.6 97.0 86.5 C 97.1 86.6 97.2 86.4 97.5 86.3 C 97.5 86.5 98.4 86.2 98.6 86.3 C 98.5 86.2 98.1 86.3 98.0 86.2 C 98.5 86.0 99.2 85.5 99.6 85.8 C 99.3 85.9 98.8 85.9 98.8 86.0 C 100.3 86.2 100.8 86.5 102.5 86.3 C 102.3 86.4 102.2 86.5 102.3 86.6 C 103.3 86.4 104.0 86.4 103.9 86.7 C 104.6 86.5 104.9 86.3 105.2 86.1 C 104.5 86.0 104.3 86.3 103.9 86.2 C 104.1 86.1 103.3 85.8 102.9 85.6 C 101.8 86.1 101.7 85.7 100.5 86.0 C 100.8 85.7 99.6 86.1 99.9 85.8 C 101.1 86.0 102.1 85.5 103.7 85.4 C 103.6 85.7 103.4 85.9 104.1 85.9 C 105.1 85.9 104.6 85.6 105.4 85.5 C 105.8 85.7 105.3 85.8 105.8 85.8 C 106.0 85.6 106.8 85.5 107.1 85.7 C 106.0 85.9 107.4 85.9 106.7 86.2 C 107.1 86.1 107.3 86.1 107.5 86.1 C 106.4 86.0 108.5 85.6 107.7 85.5 C 109.2 85.1 107.9 86.1 109.1 85.8 C 108.5 85.8 109.3 85.5 110.2 85.4 C 110.5 85.6 111.4 85.5 112.2 85.5 C 111.7 85.3 111.4 85.4 112.1 85.1 C 111.7 85.1 111.1 85.2 110.7 85.4 C 110.7 85.2 110.6 85.2 110.4 85.2 C 111.3 84.9 110.9 84.9 111.2 84.7 C 111.5 84.8 112.1 84.7 112.3 84.8 C 112.3 84.7 112.5 84.6 112.5 84.6 C 111.4 84.8 112.7 84.2 111.9 84.2 C 111.4 84.3 111.8 84.6 111.2 84.6 C 110.5 84.4 111.6 84.2 111.9 83.9 C 111.3 83.8 110.7 84.2 110.5 84.0 C 111.1 83.5 112.3 83.5 113.2 83.4 C 113.0 83.1 114.7 83.2 114.7 82.8 C 114.9 82.8 115.1 82.9 115.3 82.9 C 115.5 82.6 115.9 82.9 116.1 82.9 C 116.1 82.7 116.0 82.6 115.8 82.5 C 116.9 82.5 117.2 82.4 118.5 82.0 C 118.7 82.1 119.0 82.2 119.2 82.4 C 118.8 82.5 118.6 82.6 118.4 82.8 C 120.2 82.4 118.9 81.9 120.2 82.1 C 120.1 82.0 119.2 81.8 119.8 81.6 C 121.0 81.7 122.6 81.1 122.7 81.8 C 123.7 81.9 124.3 81.2 124.9 81.5 C 125.2 81.4 125.3 81.3 125.4 81.2 C 125.0 81.1 124.6 81.0 124.2 81.0 C 123.6 81.2 123.3 81.0 124.0 81.3 C 123.1 81.5 122.8 81.4 122.3 81.4 C 123.5 80.9 124.7 80.9 124.6 80.5 C 125.1 80.6 125.5 80.7 125.8 80.8 C 125.9 80.6 127.3 80.1 127.5 80.4 C 126.5 80.5 125.6 81.1 126.5 81.1 C 128.7 80.4 130.1 80.6 132.1 79.8 C 132.2 79.9 132.1 80.1 132.5 80.0 C 132.4 79.9 132.5 79.8 132.7 79.6 C 133.3 79.5 133.7 79.5 134.5 79.3 C 134.5 79.5 134.7 79.7 135.2 79.6 C 135.4 79.3 136.1 78.6 136.7 78.5 C 136.1 78.7 136.9 78.8 137.3 78.7 C 136.9 78.5 139.7 78.4 138.9 78.2 C 140.0 78.0 140.5 78.0 140.5 78.1 C 140.9 77.9 141.2 77.8 141.5 77.6 C 141.9 77.9 143.7 77.1 144.0 77.2 C 143.3 77.3 143.3 77.7 143.8 77.6 C 144.1 77.3 145.8 76.6 146.1 76.6 C 146.0 76.7 146.0 77.0 145.2 77.3 C 146.6 76.9 146.5 76.5 146.9 76.1 C 146.9 76.5 147.5 76.0 147.7 75.9 C 148.2 76.0 147.7 76.0 147.8 76.3 C 148.3 76.2 148.5 76.3 149.1 76.1 C 148.9 75.8 149.6 75.8 149.9 75.7 C 150.0 75.5 150.3 75.3 150.9 75.1 C 150.2 75.8 154.4 74.6 153.3 74.5 C 154.1 74.1 154.2 74.6 155.2 74.2 C 155.4 74.0 156.0 73.9 155.4 73.9 C 156.2 73.6 155.8 74.1 156.8 73.7 C 156.3 73.5 157.8 73.4 157.5 73.1 C 158.1 73.4 158.7 72.5 159.7 72.7 C 159.6 72.6 159.9 72.5 159.9 72.4 C 160.0 72.2 158.8 72.5 159.5 72.2 C 160.5 72.1 160.0 72.4 160.2 72.5 C 162.6 71.6 165.5 70.7 168.1 69.9 C 167.8 69.9 167.8 69.8 168.3 69.6 C 169.2 69.8 172.1 68.5 172.5 68.2 C 172.9 68.4 174.3 67.6 174.6 67.6 C 174.3 67.7 173.8 68.2 174.5 68.0 C 174.7 67.5 175.4 67.5 175.9 67.1 C 176.3 67.3 178.0 66.2 177.4 67.1 C 177.7 67.0 178.0 66.9 178.2 66.9 C 178.1 66.6 178.5 66.5 177.8 66.6 C 179.5 66.1 179.8 65.7 181.2 65.4 C 181.4 65.2 180.3 65.5 181.1 65.1 C 181.1 65.2 181.1 65.2 181.1 65.3 C 181.4 65.2 181.5 65.0 181.6 65.1 C 181.6 65.2 181.2 65.4 181.3 65.7 C 181.9 65.3 182.5 65.5 182.6 65.2 C 181.7 65.5 182.1 64.8 182.7 64.9 C 182.3 65.2 184.8 64.0 185.5 63.6 C 186.0 63.7 184.7 64.0 184.8 64.1 C 186.3 63.5 186.2 63.6 186.3 63.3 C 187.1 63.0 187.5 63.1 188.4 62.5 C 189.0 62.4 188.1 62.9 188.7 62.7 C 189.0 62.4 189.1 62.2 189.6 62.0 C 191.2 62.0 194.1 59.8 196.0 59.9 C 195.2 60.0 196.0 59.5 196.8 59.2 C 196.9 59.2 196.9 59.4 197.2 59.3 C 197.1 59.1 197.3 58.9 197.8 58.7 C 197.9 58.8 197.9 59.0 198.2 58.9 C 198.3 58.4 199.1 58.5 199.4 58.1 C 199.7 58.3 198.5 58.7 198.5 58.9 C 199.9 58.5 200.0 58.1 201.1 57.8 C 200.5 58.0 201.5 57.9 201.7 57.9 C 201.4 57.7 202.1 57.2 201.5 57.3 C 201.8 57.1 202.4 56.9 202.5 56.9 C 202.3 57.0 202.0 57.2 202.0 57.2 C 202.5 57.0 203.2 57.0 203.3 56.7 C 203.0 56.8 202.7 56.8 202.7 56.7 C 202.7 56.5 202.9 56.3 203.1 56.2 C 202.7 57.1 204.6 55.9 204.6 55.7 C 205.0 56.0 205.1 55.9 205.2 56.1 C 206.0 55.7 205.8 55.5 206.3 55.2 C 206.3 55.6 206.2 55.9 207.1 55.6 C 206.7 55.4 207.7 55.0 207.3 54.7 C 209.3 53.7 209.9 53.8 211.1 53.2 C 211.1 53.1 210.7 53.3 211.1 53.0 C 211.7 52.8 212.2 52.7 212.7 52.6 C 212.9 52.3 212.5 52.5 212.8 52.2 C 213.8 52.0 213.7 52.4 214.6 52.2 C 215.5 51.5 215.2 51.8 215.7 51.3 C 215.4 51.4 215.0 51.4 215.4 51.2 C 216.1 51.2 216.5 51.3 216.7 51.3 C 216.2 51.5 215.9 51.7 215.6 51.7 C 215.6 51.9 215.0 52.2 215.6 52.1 C 214.9 52.4 214.2 52.7 213.3 53.2 C 213.7 53.3 212.5 53.6 212.9 53.7 C 213.9 53.2 214.3 53.2 215.2 52.7 C 214.8 52.5 215.9 52.2 216.2 52.2 C 216.1 52.0 216.8 51.7 216.5 51.6 C 217.2 51.1 217.3 51.4 218.0 50.9 C 218.1 51.0 218.1 51.2 218.4 51.0 C 218.5 50.6 218.9 50.9 219.2 50.7 C 218.9 50.6 220.0 50.1 220.0 49.9 C 219.7 50.1 219.3 50.3 219.2 50.2 C 220.4 49.6 219.3 49.9 219.0 49.8 C 219.1 49.9 218.8 50.5 218.6 50.3 C 219.6 49.6 217.0 50.6 218.0 50.2 C 218.8 49.9 218.6 49.7 219.4 49.4 C 220.6 49.4 219.6 50.2 220.7 50.1 C 221.2 49.6 221.6 49.4 221.5 49.2 C 221.7 49.2 221.8 49.2 222.1 49.2 C 222.3 48.9 221.2 49.3 221.9 48.8 C 222.3 48.7 222.1 49.3 222.8 48.8 C 223.1 48.4 221.7 49.0 222.4 48.6 C 223.4 48.6 222.2 48.5 223.1 48.0 C 223.2 48.1 223.3 48.0 223.6 47.9 C 223.7 47.9 223.7 48.2 224.0 48.0 C 224.0 47.5 224.4 48.0 225.0 47.6 C 225.2 47.1 224.3 47.8 224.4 47.5 C 225.2 47.4 225.5 46.8 225.8 46.7 C 225.3 47.2 226.8 46.4 227.0 46.6 C 226.7 46.4 227.1 46.3 227.8 45.6 C 228.1 46.1 228.9 45.2 229.3 45.5 C 229.3 45.3 229.5 45.1 229.6 44.9 C 229.3 45.0 229.0 45.2 229.0 45.0 C 229.2 44.9 229.5 44.7 229.7 44.6 C 230.2 44.6 229.5 45.6 231.0 44.7 C 230.7 44.5 231.4 44.1 231.7 43.7 C 231.5 43.4 231.1 44.0 230.9 43.9 C 231.4 43.4 232.1 43.3 232.5 43.3 C 233.3 42.6 234.5 42.2 235.8 41.3 C 236.2 41.3 234.8 42.1 235.8 41.7 C 236.1 41.5 235.8 41.4 236.4 41.2 C 236.5 42.5 240.1 39.3 240.6 39.6 C 240.6 39.3 241.9 38.7 241.6 38.5 C 240.9 39.2 240.2 39.2 239.7 39.2 C 239.1 39.8 240.5 39.1 239.9 39.6 C 239.8 39.4 238.9 40.1 238.8 39.9 C 239.9 39.3 238.2 40.0 238.8 39.3 C 239.8 38.8 241.5 37.4 241.2 37.9 C 241.2 37.9 240.8 38.1 240.8 38.2 C 241.9 37.7 242.4 37.1 242.8 36.7 C 243.4 36.6 245.1 35.1 244.7 35.6 C 245.0 35.7 243.5 36.2 243.8 36.3 C 245.8 35.2 245.8 35.0 247.2 34.4 C 246.6 34.4 248.3 33.1 248.2 33.3 C 248.3 33.6 248.8 33.5 249.4 32.8 C 249.5 33.1 249.9 32.9 250.4 32.7 C 250.4 32.4 249.9 32.7 249.9 32.5 C 250.3 32.2 250.7 32.0 251.1 31.7 C 251.2 31.8 251.2 32.0 251.5 31.8 C 251.8 31.4 253.2 30.2 253.2 30.4 C 252.7 31.1 254.4 30.0 253.5 30.9 C 253.8 30.7 253.9 30.8 254.2 30.5 C 254.2 30.4 254.1 30.3 254.0 30.2 C 254.9 29.6 254.7 30.3 255.4 29.8 C 255.4 29.7 255.7 29.4 255.8 29.3 C 255.5 29.5 255.5 29.6 255.1 29.8 C 255.3 29.2 254.2 30.1 254.1 29.8 C 254.9 29.2 255.1 29.5 255.5 29.4 C 256.4 28.5 256.0 28.9 257.1 28.3 C 257.0 28.2 256.7 28.4 256.7 28.2 C 258.1 27.4 258.3 28.0 259.1 27.2 C 258.9 27.4 258.2 28.1 258.8 27.8 C 259.3 27.3 259.3 26.9 260.1 26.3 C 260.2 26.4 260.2 26.6 260.5 26.4 C 260.8 26.1 260.7 25.9 260.9 25.6 C 261.1 25.6 261.5 25.3 261.6 25.1 C 262.0 25.1 261.7 25.4 262.1 25.2 C 262.7 24.8 262.8 24.0 263.4 23.7 C 263.5 24.0 264.1 23.5 264.6 23.1 C 264.9 23.3 266.1 22.4 266.9 21.9 C 266.5 21.8 267.4 21.4 267.1 21.3 C 266.7 21.5 266.4 21.6 266.3 21.6 C 267.2 20.9 267.8 21.2 268.2 20.4 C 268.6 20.3 269.1 20.1 269.8 19.8 C 269.7 19.6 268.5 20.3 269.1 19.8 C 269.2 19.9 269.4 19.7 269.6 19.5 C 269.6 19.8 270.2 19.5 270.6 19.5 C 271.0 18.9 272.3 18.4 271.6 18.5 C 272.4 17.9 272.1 18.6 272.8 18.2 C 272.2 18.1 273.3 17.3 272.6 17.5 C 273.4 16.8 273.6 17.3 273.4 17.7 C 274.2 17.1 274.2 16.8 274.7 16.7 C 274.2 16.7 275.3 15.7 274.8 16.3 C 274.8 16.7 275.6 15.9 275.8 15.8 C 275.4 15.9 275.9 15.6 275.2 15.9 C 275.7 15.4 276.6 14.7 277.3 14.5 C 277.9 13.9 278.6 13.3 278.5 13.8 C 279.1 13.2 278.9 13.4 279.6 12.9 C 279.5 12.9 279.3 13.0 279.2 13.0 C 280.2 12.2 280.1 12.5 281.4 11.6 C 281.4 12.0 282.2 11.4 282.6 11.3 C 282.0 11.7 281.6 12.0 281.1 12.2 C 281.1 12.4 281.6 12.2 281.3 12.4 C 281.2 12.4 281.0 12.5 280.8 12.6 C 281.7 12.2 280.0 13.8 280.4 13.1 C 280.4 13.2 280.5 13.2 280.7 13.0 C 280.4 12.9 280.4 13.0 280.4 12.7 C 280.0 13.0 279.5 13.0 279.5 13.3 C 279.6 13.4 280.0 13.1 280.1 13.1 C 279.2 14.0 279.6 13.1 278.8 13.8 C 278.8 14.1 279.3 13.9 279.6 13.9 C 278.9 14.4 278.2 14.9 277.9 14.9 C 277.3 15.5 278.1 15.0 277.7 15.5 C 277.4 15.6 277.3 15.4 276.8 15.7 C 276.4 16.2 277.2 15.7 276.7 16.1 C 276.1 16.4 276.9 15.5 276.0 16.1 C 276.5 16.3 275.2 16.6 275.4 16.7 C 275.9 16.3 276.1 16.6 275.7 16.6 C 274.4 17.1 274.2 18.5 272.8 18.7 C 272.8 18.8 272.7 19.0 272.7 19.1 C 273.6 18.6 274.8 17.8 275.3 17.9 C 275.9 17.4 275.6 17.2 275.7 17.1 C 276.7 16.8 276.6 16.9 276.4 17.6 C 275.2 18.6 274.5 18.8 273.6 19.3 C 273.2 19.8 273.7 19.4 273.9 19.4 C 271.1 21.0 273.6 20.3 272.6 20.9 C 272.5 20.7 272.3 20.8 272.0 21.0 C 272.1 21.1 271.7 21.3 271.6 21.5 C 271.8 21.3 272.0 21.3 272.0 21.4 C 271.4 22.0 271.5 21.6 271.3 21.5 C 271.8 21.1 272.2 20.8 272.1 20.7 C 271.5 21.3 270.9 21.4 270.6 21.9 C 269.8 22.1 270.5 21.1 270.0 21.1 C 270.0 20.8 270.0 21.9 269.6 22.4 C 268.7 22.9 268.9 23.2 268.1 23.7 C 267.7 23.6 268.8 23.1 268.6 22.9 C 268.4 23.1 268.3 23.1 268.1 23.2 C 267.6 23.6 267.7 23.8 267.4 24.1 C 267.0 24.1 266.9 24.3 266.7 24.6 C 266.1 24.8 266.9 24.2 266.3 24.5 C 265.7 24.9 265.5 25.5 265.3 25.5 C 265.2 25.5 265.2 25.3 264.9 25.5 C 264.4 26.1 264.2 26.2 265.1 25.8 C 264.4 26.2 264.1 26.5 264.4 26.7 C 265.5 26.0 265.8 25.8 266.5 25.7 C 266.5 25.3 266.9 25.3 267.4 25.1 C 266.9 24.9 267.8 24.8 267.9 24.4 C 267.6 24.5 267.3 24.7 267.1 24.7 C 268.3 24.0 268.3 24.0 269.0 23.0 C 269.0 23.1 269.2 23.1 269.4 23.1 C 269.1 23.4 268.3 23.9 268.4 24.1 C 269.2 23.9 269.1 23.3 270.1 23.1 C 270.3 22.7 269.3 23.3 269.9 22.8 C 270.3 22.8 270.7 22.6 271.3 22.4 C 271.7 22.0 271.9 21.7 272.2 21.4 C 272.4 21.4 272.5 21.5 272.8 21.2 C 272.7 21.1 272.3 21.3 272.7 20.9 C 274.1 20.4 275.0 20.0 276.1 19.0 C 275.6 19.2 274.5 19.7 275.0 19.4 C 275.6 19.1 276.1 18.3 276.8 18.1 C 277.1 18.1 276.1 18.5 276.6 18.8 C 277.1 18.4 277.5 18.1 277.8 18.0 C 277.7 17.9 278.3 17.5 278.0 17.4 C 277.6 17.7 277.6 18.0 277.4 18.0 C 277.4 17.1 279.2 17.0 280.1 16.4 C 280.6 15.9 279.5 16.5 280.1 16.0 C 280.4 15.6 281.0 15.9 280.5 16.5 C 280.0 16.7 280.0 17.1 279.7 16.9 C 279.6 17.0 279.3 17.2 279.3 17.3 C 279.7 17.1 279.7 17.3 280.0 17.2 C 279.5 17.5 279.7 18.0 279.2 18.0 C 279.4 17.8 279.5 17.7 279.5 17.5 C 278.4 18.5 277.8 18.6 277.1 19.0 C 277.6 18.8 277.1 19.1 277.3 19.3 C 277.8 18.8 278.9 18.2 278.3 18.7 C 277.7 18.7 277.9 19.7 277.3 19.7 C 277.6 19.5 277.4 19.4 277.6 19.2 C 277.1 19.5 277.0 19.3 276.5 19.6 C 275.3 21.0 273.7 21.2 271.7 23.4 C 270.8 24.0 272.4 22.8 272.2 22.6 C 271.9 22.8 271.8 22.8 271.6 22.9 C 271.8 23.2 271.2 23.2 271.1 23.6 C 271.0 23.3 270.0 24.3 269.3 24.5 C 269.4 24.6 269.5 24.7 269.3 24.9 C 267.4 25.8 264.6 28.3 263.1 28.9 C 263.3 29.0 262.7 29.4 262.7 29.6 C 261.8 30.1 262.1 29.7 261.0 30.7 C 260.5 31.1 261.0 30.5 261.1 30.3 C 259.4 31.6 257.7 32.4 256.7 33.4 C 256.2 33.8 256.6 33.2 255.4 33.9 C 255.6 34.3 253.4 34.9 253.4 35.5 C 252.8 36.0 251.2 36.3 252.0 36.3 C 251.0 36.9 251.5 36.2 251.1 36.4 C 250.4 36.9 251.6 36.9 251.0 37.3 C 250.9 37.0 250.4 37.5 249.8 37.5 C 250.3 37.2 250.7 37.0 250.6 36.8 C 250.3 37.2 250.2 37.0 249.5 37.5 C 249.0 38.0 247.5 39.2 246.8 39.1 C 246.9 39.3 247.0 39.2 247.2 39.2 C 246.7 39.5 246.0 39.6 246.3 39.9 C 245.2 40.5 244.6 40.5 244.1 41.2 C 243.7 41.5 244.1 40.8 242.8 41.7 C 242.9 41.9 240.4 43.3 239.6 43.5 C 239.8 43.8 239.5 43.6 239.2 43.7 C 239.2 43.9 239.3 44.0 239.0 44.1 C 238.9 44.1 238.7 44.2 238.6 44.4 C 238.5 43.9 237.7 45.0 237.5 44.8 C 237.7 44.7 237.6 44.5 237.4 44.6 C 237.4 44.9 236.2 45.0 236.4 45.2 C 236.7 45.2 237.3 44.7 237.3 45.0 C 236.4 45.7 236.6 45.1 235.9 45.5 C 236.0 45.5 236.5 45.4 236.1 45.7 C 235.4 46.0 236.0 45.7 235.5 45.7 C 235.1 46.0 234.6 46.5 234.3 46.7 C 234.4 46.6 234.1 46.6 234.0 46.6 C 232.7 47.2 230.0 49.1 228.6 49.4 C 228.5 49.6 228.3 49.8 228.5 49.9 C 227.6 50.1 227.7 50.2 226.9 50.5 C 227.0 50.6 227.0 50.7 227.1 50.8 C 226.1 51.5 226.8 50.5 226.2 50.9 C 226.4 51.5 225.7 50.9 225.1 51.2 C 225.1 51.4 224.8 51.6 225.0 51.7 C 224.0 52.2 223.9 51.8 223.1 52.4 C 223.3 52.3 223.9 53.0 223.9 53.3 C 223.7 53.2 223.4 53.3 223.0 53.4 C 223.3 52.9 222.6 52.2 221.6 53.0 C 222.2 52.7 222.5 52.6 222.5 52.9 C 221.6 53.4 221.2 53.4 220.4 53.8 C 220.4 54.1 221.0 53.8 220.9 54.2 C 220.7 54.3 220.7 54.4 220.8 54.5 C 219.9 54.9 219.8 54.7 219.0 55.3 C 218.9 55.1 219.1 55.0 219.4 55.0 C 219.3 54.8 219.2 54.6 219.7 54.3 C 219.9 54.4 219.7 54.8 220.4 54.4 C 220.3 54.2 220.3 54.1 220.2 54.0 C 219.6 54.2 218.2 54.7 218.2 54.9 C 218.5 54.8 218.9 54.7 218.8 55.0 C 217.9 55.5 217.4 55.3 216.6 55.6 C 215.3 56.3 212.8 57.4 213.3 57.7 C 212.4 58.0 212.7 57.8 211.9 58.1 C 212.3 58.3 211.1 58.6 211.3 58.8 C 212.2 58.3 212.0 58.5 212.8 58.0 C 212.9 58.2 212.8 58.3 212.4 58.6 C 212.3 58.4 211.9 58.6 211.4 58.9 C 211.5 58.9 212.1 58.9 211.5 59.2 C 211.4 59.2 211.3 59.2 211.0 59.4 C 210.9 59.2 210.9 59.1 210.8 59.0 C 211.1 58.7 211.5 58.5 211.7 58.2 C 211.4 58.4 211.4 58.3 211.1 58.4 C 211.0 58.6 209.9 58.9 209.9 59.2 C 210.4 58.9 210.7 58.9 210.3 59.2 C 210.2 59.2 209.4 59.4 209.3 59.7 C 210.2 59.4 209.9 59.6 210.5 59.6 C 209.5 60.1 209.5 59.8 208.4 60.4 C 208.2 60.2 208.1 60.0 208.4 59.8 C 207.4 59.6 205.9 60.9 205.3 61.1 C 205.7 61.0 206.0 60.4 205.4 60.7 C 205.5 60.8 205.0 60.9 205.0 61.1 C 205.0 61.6 205.6 61.6 206.2 61.7 C 205.7 61.9 205.7 62.0 205.2 62.2 C 205.0 62.1 205.3 61.5 204.7 61.8 C 204.7 62.2 203.6 62.3 203.6 62.7 C 204.0 62.5 204.3 62.5 203.9 62.7 C 203.9 62.5 203.1 63.0 203.0 62.8 C 203.6 62.4 203.7 62.1 204.1 61.9 C 203.6 62.1 204.4 61.5 203.5 61.9 C 203.2 62.3 203.1 62.6 202.2 63.0 C 201.8 63.1 202.0 62.7 201.5 62.9 C 201.8 63.1 200.8 63.6 201.3 63.1 C 200.9 63.3 200.7 63.3 200.5 63.3 C 201.1 63.4 198.8 64.8 199.3 64.8 C 199.1 64.4 198.9 64.2 198.7 64.1 C 198.3 64.6 197.7 64.6 196.4 65.2 C 196.6 65.5 196.2 65.3 195.7 65.6 C 195.6 65.8 196.1 65.7 195.8 65.9 C 195.1 66.0 195.1 66.0 194.9 65.9 C 194.4 66.1 194.1 66.3 193.8 66.3 C 193.8 66.4 194.0 66.4 194.2 66.4 C 192.3 66.9 191.6 67.6 190.0 68.1 C 190.7 68.0 190.7 67.6 190.2 67.8 C 189.9 68.0 189.6 68.1 189.5 68.3 C 190.0 68.4 189.7 68.3 189.0 68.6 C 188.4 68.9 189.4 68.9 188.9 69.1 C 188.3 69.2 188.6 68.9 188.2 69.0 C 188.0 69.1 187.7 69.2 187.5 69.3 C 188.0 69.2 187.5 69.6 187.1 69.8 C 187.3 69.4 187.1 69.4 186.2 69.9 C 186.0 69.8 186.5 69.5 186.1 69.6 C 185.9 69.7 185.3 70.3 184.6 70.3 C 184.8 70.2 184.9 70.1 184.8 70.0 C 184.2 70.5 183.5 70.4 182.8 70.5 C 183.5 70.5 183.3 70.8 183.6 70.9 C 182.9 70.9 182.3 71.5 181.7 71.3 C 182.6 71.1 181.5 70.8 180.9 71.0 C 180.9 71.3 181.8 70.9 181.7 71.3 C 181.4 71.7 180.6 71.5 180.4 71.9 C 180.5 72.1 180.8 71.7 180.9 71.8 C 180.4 72.0 181.1 71.9 180.7 72.1 C 180.4 71.9 180.2 72.4 180.0 72.5 C 179.6 72.5 178.8 72.4 178.6 72.7 C 178.6 72.8 179.1 72.6 179.1 72.7 C 177.8 73.4 177.2 73.1 176.0 73.9 C 175.8 73.8 175.5 73.9 175.1 73.9 C 175.2 74.1 175.0 74.2 174.7 74.4 C 174.1 74.5 173.5 74.5 172.7 74.7 C 172.8 74.4 173.1 74.2 172.1 74.5 C 172.1 74.7 172.5 74.6 172.1 74.7 C 172.1 74.7 171.9 74.7 171.9 74.8 C 171.9 74.9 171.9 74.9 171.9 75.0 C 172.2 74.9 172.5 74.8 172.7 74.7 C 172.8 74.9 172.9 75.0 173.1 75.0 C 172.0 75.5 171.9 74.9 171.2 75.4 C 170.9 75.1 170.6 75.1 171.2 74.6 C 170.6 74.9 170.1 75.2 170.0 75.5 C 170.8 75.1 170.7 75.5 171.0 75.6 C 170.4 75.8 170.5 75.9 170.2 76.0 C 169.6 76.1 170.7 75.4 169.5 75.7 C 170.5 75.7 168.9 76.2 168.3 76.3 C 168.4 76.4 168.6 76.4 168.3 76.6 C 166.8 77.3 166.6 76.4 165.9 77.2 C 165.9 77.0 165.4 77.1 165.2 77.1 C 166.0 76.7 166.2 76.6 166.5 76.5 C 166.4 76.4 166.2 76.4 165.9 76.5 C 166.0 76.6 165.8 76.7 165.4 76.7 C 165.2 77.0 165.4 77.3 164.9 77.8 C 164.8 77.7 164.8 77.5 164.5 77.6 C 164.3 77.9 164.6 77.1 163.3 77.6 C 163.6 77.6 163.8 77.7 163.7 77.9 C 163.1 78.3 163.2 78.1 162.4 78.5 C 162.0 78.1 162.8 77.8 163.0 77.4 C 162.4 77.7 162.1 78.1 161.4 78.1 C 161.9 78.1 161.5 78.5 161.0 78.7 C 160.6 78.8 160.9 78.3 160.4 78.5 C 159.9 78.7 159.8 79.0 160.2 79.0 C 159.2 79.2 159.5 79.4 158.7 79.7 C 158.6 79.5 158.8 79.4 159.2 79.4 C 159.1 79.3 159.2 79.1 158.8 79.2 C 158.4 79.6 157.2 80.0 156.6 80.4 C 155.2 80.3 154.0 81.3 152.8 81.5 C 153.2 81.0 151.2 81.9 150.5 81.7 C 150.2 81.9 149.2 82.8 149.5 82.5 C 149.3 82.1 148.7 82.5 148.1 82.5 C 148.1 82.6 148.1 82.7 148.2 82.8 C 147.0 83.2 146.6 83.0 146.2 82.9 C 144.7 83.5 143.0 83.5 141.3 84.3 C 140.8 84.1 140.4 84.3 139.3 84.4 C 139.4 84.6 138.5 84.8 137.7 85.0 C 138.0 85.2 137.2 85.3 137.3 85.5 C 138.0 85.4 137.8 85.7 138.2 85.7 C 137.2 85.7 136.8 86.4 136.0 86.3 C 136.9 85.9 137.1 85.5 137.1 85.1 C 136.1 85.4 135.4 85.5 135.2 85.3 C 135.1 85.5 135.3 85.6 135.6 85.7 C 135.2 85.8 134.8 85.8 134.5 85.9 C 134.3 85.8 134.8 85.6 134.4 85.7 C 134.2 85.8 133.9 86.0 133.7 86.1 C 133.3 85.9 134.0 85.8 134.1 85.7 C 132.6 85.9 133.4 86.3 132.6 86.6 C 132.4 86.4 132.3 86.1 131.7 86.2 C 131.4 86.5 131.4 86.7 130.7 86.9 C 130.2 87.0 130.6 86.5 130.0 86.6 C 130.0 86.8 129.7 86.8 129.5 86.8 C 129.5 86.9 129.3 87.0 129.0 87.1 C 128.9 87.0 128.4 87.2 128.2 87.3 C 128.1 87.2 127.2 87.1 127.0 87.3 C 127.1 87.4 127.5 87.3 127.6 87.4 C 127.0 87.5 126.6 87.6 126.3 87.8 C 125.9 87.2 125.0 87.9 123.7 87.9 C 123.0 88.2 124.0 88.3 123.0 88.7 C 122.4 88.6 123.1 88.4 122.9 88.1 C 122.7 88.1 121.8 88.1 121.8 88.4 C 121.8 88.5 122.3 88.4 122.4 88.4 C 121.7 88.8 121.7 88.5 121.3 88.5 C 121.4 88.7 120.9 88.9 120.8 89.0 C 118.9 89.6 118.8 89.1 118.0 89.1 C 118.0 89.2 117.5 89.3 117.5 89.4 C 118.0 89.2 118.8 89.2 118.0 89.4 C 118.1 89.3 117.0 89.7 116.9 89.7 C 117.1 89.9 117.8 89.6 117.6 90.0 C 116.6 90.3 116.9 89.7 116.1 90.1 C 116.0 89.9 116.5 89.8 116.7 89.7 C 116.3 89.8 115.9 89.9 115.8 89.8 C 116.2 89.6 116.2 89.4 116.3 89.2 C 115.8 89.6 114.8 89.5 115.5 89.7 C 114.4 89.9 113.4 90.3 114.2 90.4 C 113.3 90.6 113.8 90.1 113.1 90.5 C 113.1 90.2 113.3 90.0 112.7 89.8 C 112.6 90.0 112.1 90.2 112.2 90.4 C 110.9 90.6 110.5 90.4 109.9 90.3 C 110.5 90.6 109.8 90.4 109.2 90.8 C 108.7 90.7 109.1 90.3 108.0 90.6 C 109.2 90.8 106.7 90.9 107.3 91.3 C 105.9 91.3 105.9 91.3 104.5 91.5 C 104.6 91.3 104.9 91.1 105.5 90.9 C 105.1 91.3 106.7 91.0 106.6 90.8 C 106.6 90.8 106.6 90.7 106.6 90.7 C 105.5 90.9 104.8 90.9 104.3 90.9 C 104.2 91.1 103.7 91.3 103.9 91.6 C 102.9 91.4 101.9 92.0 101.4 91.8 C 101.7 91.7 102.1 91.7 101.9 91.5 C 101.5 91.7 101.1 91.8 101.1 92.0 C 102.0 92.0 102.1 92.0 102.5 91.7 C 102.2 92.0 103.4 92.0 102.6 92.2 C 102.5 91.7 101.0 92.6 101.5 92.2 C 102.3 91.9 100.4 92.2 100.3 92.0 C 100.3 92.0 100.3 92.0 100.3 92.0 Z M 276.7 19.4 C 277.3 18.8 276.3 19.2 275.9 19.6 C 276.1 19.6 276.2 19.6 276.3 19.8 C 276.5 19.6 276.6 19.4 276.7 19.4 C 276.7 19.4 276.7 19.4 276.7 19.4 Z M 267.2 21.4 C 267.1 21.8 268.1 20.9 268.6 20.6 C 268.5 20.6 268.3 20.7 268.5 20.4 C 267.9 20.6 268.0 21.1 267.2 21.4 C 267.2 21.4 267.2 21.4 267.2 21.4 Z M 241.8 38.9 C 241.9 38.7 242.4 38.4 242.5 38.5 C 242.8 38.3 242.6 38.2 242.6 38.1 C 243.1 37.7 242.7 38.5 243.5 37.9 C 243.5 37.2 241.7 38.2 241.8 38.9 C 241.8 38.9 241.8 38.9 241.8 38.9 Z M 110.1 86.2 C 109.6 86.1 110.5 85.8 110.2 85.6 C 108.7 86.0 110.0 86.2 107.8 86.4 C 108.0 86.5 108.2 86.5 108.2 86.7 C 109.1 86.4 109.2 86.2 109.0 86.7 C 109.5 86.6 109.5 86.0 110.1 86.2 C 110.1 86.2 110.1 86.2 110.1 86.2 Z M 90.2 88.2 C 90.4 88.2 90.5 88.3 90.5 88.4 C 91.2 88.2 91.0 88.2 91.9 88.1 C 91.7 87.7 90.9 87.9 90.2 88.2 C 90.2 88.2 90.2 88.2 90.2 88.2 Z M 38.0 91.0 C 37.8 91.0 37.6 91.0 37.4 91.0 C 37.6 91.2 37.0 91.6 38.0 91.5 C 38.0 91.4 37.9 91.4 37.7 91.4 C 37.9 91.3 38.3 91.3 38.3 91.1 C 38.0 91.1 38.0 91.1 38.0 91.0 C 38.0 91.0 38.0 91.0 38.0 91.0 Z M 15.8 92.9 C 16.9 92.7 14.3 91.9 15.8 92.9 C 15.8 92.9 15.8 92.9 15.8 92.9 C 15.8 92.9 15.8 92.9 15.8 92.9 Z M 17.9 96.2 C 17.9 96.3 18.1 96.3 18.1 96.2 C 19.1 96.3 18.2 96.4 18.7 96.6 C 19.4 96.4 18.3 96.1 19.3 96.0 C 19.1 95.8 18.4 96.2 17.9 96.2 C 17.9 96.2 17.9 96.2 17.9 96.2 Z M 166.9 76.6 C 167.6 76.3 167.7 76.0 167.7 75.7 C 167.2 75.8 166.8 75.9 166.6 75.9 C 165.7 76.3 167.3 75.8 167.5 75.9 C 167.5 76.1 166.8 76.4 166.9 76.6 C 166.9 76.6 166.9 76.6 166.9 76.6 Z M 169.2 75.7 C 169.5 75.5 169.9 75.3 169.9 75.0 C 169.4 75.2 169.3 75.2 169.3 75.1 C 168.9 75.3 169.5 75.3 169.2 75.7 C 169.2 75.7 169.2 75.7 169.2 75.7 Z M 164.6 77.0 C 165.0 76.9 164.8 76.7 164.8 76.6 C 164.3 76.8 164.2 76.7 163.7 76.8 C 163.7 76.9 163.7 77.0 163.8 77.1 C 164.2 77.0 164.2 76.9 164.5 76.8 C 164.6 76.8 164.6 76.9 164.6 77.0 C 164.6 77.0 164.6 77.0 164.6 77.0 Z M 171.5 74.6 C 172.9 74.1 173.4 73.5 174.1 72.8 C 173.1 73.2 172.4 74.0 171.7 74.1 C 170.8 74.5 172.0 74.2 172.0 74.3 C 172.0 74.4 171.7 74.5 171.5 74.6 C 171.5 74.6 171.5 74.6 171.5 74.6 Z M 183.6 70.1 C 183.9 70.2 184.3 69.6 185.1 69.3 C 184.9 69.3 184.8 69.3 184.7 69.2 C 183.6 69.6 184.4 69.8 183.6 70.1 C 183.6 70.1 183.6 70.1 183.6 70.1 Z M 190.0 67.4 C 190.7 67.1 189.6 67.4 189.9 67.0 C 189.1 67.4 188.3 67.7 188.4 67.9 C 189.2 67.4 189.4 67.4 190.0 67.4 C 190.0 67.4 190.0 67.4 190.0 67.4 Z M 194.7 65.5 C 195.4 65.0 194.2 65.3 194.4 64.9 C 194.1 65.0 194.3 65.1 194.3 65.2 C 194.0 65.3 193.8 65.3 193.5 65.5 C 193.8 65.5 194.7 65.1 194.7 65.5 C 194.7 65.5 194.7 65.5 194.7 65.5 Z M 147.0 81.9 C 147.5 81.7 147.3 81.5 148.3 81.3 C 146.8 81.7 147.4 80.6 145.4 81.3 C 145.8 81.3 145.6 81.5 145.5 81.4 C 144.8 81.8 146.2 81.4 145.6 81.8 C 146.1 81.7 145.7 81.5 146.3 81.3 C 146.9 81.4 147.3 81.4 147.0 81.9 C 147.0 81.9 147.0 81.9 147.0 81.9 Z M 145.4 81.1 C 144.8 81.1 144.9 81.7 144.6 81.5 C 144.3 81.5 144.4 81.6 144.4 81.7 C 144.6 81.6 144.6 81.7 144.7 81.7 C 145.1 81.5 145.6 81.3 145.4 81.1 C 145.4 81.1 145.4 81.1 145.4 81.1 Z M 150.5 79.6 C 149.6 80.0 149.3 79.9 148.9 80.3 C 148.5 80.0 148.3 80.6 147.8 80.4 C 146.9 80.7 147.6 80.7 147.9 80.7 C 147.0 81.1 147.6 80.5 146.8 80.9 C 146.7 81.2 147.8 80.8 147.7 81.2 C 148.4 81.0 148.3 80.8 148.7 80.6 C 149.0 80.5 149.0 80.7 149.1 80.8 C 149.8 80.5 149.8 80.7 150.4 80.5 C 150.5 80.2 150.2 80.2 149.5 80.5 C 150.2 80.1 150.5 79.8 151.4 79.7 C 150.8 80.2 153.6 79.5 153.2 79.1 C 152.5 79.2 152.8 79.4 152.5 79.6 C 151.5 79.6 150.9 79.8 150.5 79.6 C 150.5 79.6 150.5 79.6 150.5 79.6 Z M 164.1 76.2 C 164.3 76.2 164.5 76.2 164.9 76.1 C 165.0 76.3 164.5 76.4 165.0 76.4 C 165.6 76.3 165.7 76.1 166.0 76.0 C 165.8 75.9 164.5 76.0 165.1 75.7 C 164.9 75.7 164.5 75.7 164.0 75.9 C 164.7 76.1 163.2 76.2 162.6 76.3 C 162.8 76.7 161.7 76.6 161.4 76.9 C 161.7 77.1 162.8 76.5 163.2 76.3 C 163.0 76.4 164.7 76.5 164.1 76.2 C 164.1 76.2 164.1 76.2 164.1 76.2 Z M 143.3 81.8 C 143.1 82.0 142.5 82.2 143.0 82.1 C 142.8 82.2 142.3 82.2 142.6 82.6 C 142.3 82.6 142.0 82.7 141.8 82.8 C 141.8 82.6 142.6 82.5 142.2 82.3 C 141.7 82.6 141.9 82.4 141.2 82.6 C 141.5 82.2 141.1 82.3 141.3 81.9 C 141.1 82.1 140.4 82.3 140.5 82.5 C 139.5 82.7 140.7 82.0 139.4 82.4 C 139.3 82.2 140.3 81.9 140.7 82.0 C 140.8 81.7 139.0 82.3 137.9 82.5 C 138.9 82.5 138.3 82.9 137.9 83.3 C 137.5 83.2 137.8 83.1 137.2 83.0 C 136.8 83.1 136.6 83.4 136.4 83.3 C 136.0 83.4 136.2 83.5 136.2 83.7 C 135.6 83.8 136.0 83.3 135.1 83.6 C 135.8 83.8 135.1 84.1 133.8 84.3 C 133.9 84.4 134.3 84.3 134.4 84.4 C 134.3 84.6 133.4 84.5 133.2 84.4 C 132.8 84.6 133.1 84.6 133.5 84.5 C 133.3 84.7 133.1 84.8 132.8 85.0 C 134.1 84.7 136.3 84.1 138.9 83.8 C 138.3 83.7 138.9 83.5 139.6 83.4 C 139.8 83.6 139.5 83.7 139.1 83.8 C 140.1 83.9 139.8 83.2 141.2 83.0 C 142.0 82.9 140.5 83.4 141.3 83.4 C 141.8 83.2 142.1 82.9 142.4 83.1 C 143.3 82.7 143.4 82.3 144.7 82.0 C 143.9 82.1 143.4 81.5 142.7 81.9 C 142.7 82.0 143.0 81.9 143.3 81.8 C 143.3 81.8 143.3 81.8 143.3 81.8 Z M 169.2 74.9 C 169.7 74.7 169.9 74.5 170.0 74.6 C 170.8 74.3 169.8 74.4 169.7 74.4 C 169.3 74.5 169.2 74.7 169.2 74.9 C 169.2 74.9 169.2 74.9 169.2 74.9 Z M 246.1 39.0 C 247.0 38.6 246.7 38.4 247.4 37.9 C 246.8 38.2 246.5 38.1 245.6 38.7 C 245.7 38.9 245.8 39.1 246.1 39.0 C 246.1 39.0 246.1 39.0 246.1 39.0 Z M 166.5 75.6 C 166.0 76.1 167.2 75.0 167.3 75.3 C 168.0 74.8 166.5 75.4 167.1 74.8 C 166.5 75.2 166.1 75.1 165.3 75.5 C 165.4 75.7 166.1 75.5 166.7 75.3 C 166.8 75.4 166.5 75.5 166.5 75.6 C 166.5 75.6 166.5 75.6 166.5 75.6 Z M 236.3 43.9 C 235.8 44.5 237.2 44.0 237.6 43.9 C 237.4 43.6 237.3 43.7 236.3 43.9 C 236.3 43.9 236.3 43.9 236.3 43.9 Z M 252.1 34.9 C 252.2 34.3 251.0 35.5 251.1 35.0 C 250.7 35.2 250.7 35.3 250.8 35.5 C 250.5 35.5 249.9 36.0 249.9 35.7 C 249.7 35.5 251.0 35.0 250.5 35.0 C 250.9 34.7 250.9 34.8 251.2 34.6 C 250.5 35.0 251.0 35.1 251.9 34.6 C 251.8 34.4 251.4 34.7 251.7 34.3 C 251.8 34.4 252.4 34.3 252.6 34.6 C 253.3 34.2 252.6 34.0 253.5 33.5 C 253.3 33.4 252.8 33.8 252.4 33.9 C 252.3 33.6 253.5 33.5 253.0 33.3 C 253.3 33.4 253.9 33.1 254.1 33.4 C 253.5 33.9 253.1 34.3 252.7 34.8 C 253.3 34.6 253.7 33.6 254.7 33.3 C 254.5 33.2 255.0 32.9 254.7 32.8 C 255.4 32.4 255.3 32.9 255.2 33.0 C 255.4 33.0 256.7 32.1 256.5 31.9 C 256.7 32.1 258.3 31.0 258.0 30.7 C 258.6 30.6 259.1 29.8 259.5 30.0 C 259.7 29.7 260.3 29.3 260.9 28.9 C 260.9 28.6 259.9 29.4 259.7 29.3 C 259.4 29.2 260.9 28.6 260.6 28.5 C 260.5 28.5 260.5 28.4 260.5 28.3 C 260.0 28.7 259.6 29.1 259.2 29.5 C 258.9 29.7 259.2 29.3 259.1 29.3 C 258.8 29.6 257.5 30.9 257.2 30.5 C 256.3 31.3 255.5 31.6 255.2 32.1 C 254.6 32.5 255.5 31.7 255.0 31.8 C 253.5 33.2 251.1 34.2 249.8 35.5 C 249.5 35.7 249.5 35.4 249.4 35.3 C 247.4 36.8 249.4 36.0 247.7 36.9 C 247.6 36.7 248.4 36.3 248.2 36.1 C 247.6 36.4 247.6 36.6 246.8 37.0 C 246.9 37.1 246.9 37.2 247.0 37.3 C 246.4 37.7 246.5 37.3 246.1 37.4 C 245.3 37.9 245.6 37.9 245.1 37.9 C 244.4 38.4 243.8 38.9 242.9 39.2 C 242.6 39.7 243.7 39.5 244.5 39.1 C 244.5 39.1 244.3 39.3 244.3 39.4 C 243.3 39.7 242.9 39.3 241.5 40.1 C 242.7 39.7 241.1 40.5 240.7 40.4 C 240.2 40.8 240.8 40.9 241.2 40.6 C 241.2 40.7 240.7 40.9 240.6 40.8 C 240.8 41.2 242.2 40.6 243.5 39.6 C 243.1 40.4 244.5 39.0 244.0 40.0 C 245.1 39.2 244.0 39.5 245.3 38.8 C 245.1 38.7 244.8 38.8 244.6 38.8 C 245.6 38.1 245.5 38.7 246.4 38.0 C 246.5 37.7 245.9 38.1 245.8 38.0 C 247.0 37.5 247.4 37.4 248.3 37.2 C 248.3 37.0 248.0 36.9 249.3 36.2 C 249.3 36.3 249.4 36.4 249.4 36.4 C 248.8 36.7 248.9 37.2 250.3 36.3 C 250.3 36.1 249.9 36.4 249.5 36.6 C 249.6 36.4 250.0 36.0 250.6 35.7 C 250.9 35.5 251.3 35.4 250.9 35.7 C 251.3 35.7 251.2 35.2 252.1 34.9 C 252.1 34.9 252.1 34.9 252.1 34.9 Z M 182.1 70.0 C 182.3 69.9 182.4 69.8 182.8 69.6 C 182.9 69.4 182.2 69.7 182.2 69.5 C 181.6 69.7 182.1 69.9 182.1 70.0 C 182.1 70.0 182.1 70.0 182.1 70.0 Z M 174.7 72.6 C 174.8 72.8 175.1 72.3 175.7 72.2 C 175.8 71.9 175.1 72.2 175.1 72.1 C 174.3 72.3 175.4 72.4 174.7 72.6 C 174.7 72.6 174.7 72.6 174.7 72.6 Z M 177.8 71.4 C 178.2 71.6 178.1 71.2 177.5 71.5 C 177.5 71.3 177.6 71.1 177.9 70.9 C 177.4 70.8 177.3 71.3 176.6 71.5 C 176.9 71.6 177.3 71.5 177.8 71.4 C 177.8 71.4 177.8 71.4 177.8 71.4 Z M 178.9 71.0 C 179.2 70.7 179.5 70.9 180.1 70.5 C 179.9 70.4 178.5 71.0 178.3 71.2 C 178.1 71.4 179.7 70.9 178.9 71.0 C 178.9 71.0 178.9 71.0 178.9 71.0 Z M 226.4 48.9 C 226.6 48.8 226.5 48.7 226.5 48.6 C 227.5 48.6 228.5 48.0 227.9 48.8 C 228.5 48.1 229.4 48.0 230.1 47.7 C 230.7 47.4 230.3 47.3 230.8 47.1 C 231.5 46.7 230.4 47.4 230.7 47.5 C 230.9 47.6 230.9 47.0 231.8 46.7 C 231.4 46.4 232.6 46.3 232.1 46.1 C 232.6 46.0 232.7 45.7 233.3 45.4 C 233.2 45.3 232.6 45.6 232.4 45.5 C 232.0 45.4 232.2 45.9 232.7 45.5 C 232.5 45.9 231.5 46.0 231.3 46.4 C 230.9 46.3 232.1 45.9 231.6 45.8 C 231.4 46.0 231.2 46.1 231.2 46.2 C 230.9 46.4 230.6 46.4 230.4 46.4 C 230.6 46.3 230.6 46.3 230.7 46.3 C 231.1 46.1 230.0 46.2 230.9 45.7 C 230.7 45.7 230.3 45.9 230.3 45.7 C 229.9 45.7 230.7 46.4 229.5 46.6 C 229.0 47.2 231.2 46.0 230.9 46.8 C 229.5 47.5 230.1 46.7 229.0 47.3 C 229.0 47.4 229.1 47.5 228.8 47.6 C 228.9 47.7 229.3 47.5 229.6 47.3 C 229.6 47.4 229.2 47.6 228.9 47.8 C 229.0 47.8 229.2 47.7 229.3 47.8 C 228.3 48.2 228.1 47.7 228.9 47.1 C 228.7 46.9 227.6 47.5 227.4 47.8 C 227.8 47.8 227.4 48.0 227.8 48.1 C 228.0 47.9 227.9 47.9 228.0 47.8 C 228.4 47.6 228.1 47.9 228.1 48.0 C 227.6 48.2 227.5 48.0 227.1 48.5 C 227.2 48.3 227.3 48.2 227.2 48.1 C 227.0 48.2 226.7 48.4 226.5 48.5 C 226.6 48.6 226.3 48.8 226.4 48.9 C 226.4 48.9 226.4 48.9 226.4 48.9 Z M 239.4 42.6 C 240.2 42.1 239.7 42.2 239.3 42.4 C 239.4 42.2 239.7 42.0 240.0 41.8 C 239.7 41.9 239.5 42.1 238.7 42.4 C 239.2 41.7 238.3 41.7 237.1 42.4 C 237.0 43.1 238.0 42.6 237.8 43.1 C 238.6 42.4 239.1 42.3 239.4 42.6 C 239.4 42.6 239.4 42.6 239.4 42.6 Z M 169.6 74.3 C 170.1 74.1 170.7 73.9 171.2 73.7 C 171.1 73.5 169.4 73.9 169.6 74.3 C 169.6 74.3 169.6 74.3 169.6 74.3 Z M 131.6 84.9 C 131.4 85.0 131.4 84.9 131.3 84.9 C 130.6 85.1 131.8 85.0 131.4 85.3 C 131.7 85.2 132.0 85.2 132.3 85.1 C 132.3 85.0 131.1 85.1 131.9 84.8 C 131.8 84.7 131.6 84.8 131.6 84.9 C 131.6 84.9 131.6 84.9 131.6 84.9 Z M 181.4 69.9 C 181.8 69.6 181.4 69.4 182.6 69.1 C 182.1 69.0 181.9 69.2 181.2 69.5 C 181.3 69.6 181.4 69.8 181.4 69.9 C 181.4 69.9 181.4 69.9 181.4 69.9 Z M 222.9 51.3 C 223.6 51.2 223.5 50.5 224.8 50.1 C 224.0 50.1 223.5 50.8 222.9 51.3 C 222.9 51.3 222.9 51.3 222.9 51.3 Z M 262.5 27.3 C 262.1 27.5 262.5 27.2 261.9 27.4 C 261.6 27.7 261.5 27.9 261.1 28.3 C 261.9 28.1 262.9 27.0 263.6 27.1 C 264.2 26.7 264.0 26.5 264.0 26.2 C 263.8 26.4 263.6 26.4 263.5 26.4 C 263.4 27.0 262.6 26.7 262.5 27.3 C 262.5 27.3 262.5 27.3 262.5 27.3 Z M 236.0 44.0 C 235.5 44.1 236.2 43.6 236.3 43.3 C 236.6 43.1 236.6 43.4 236.7 43.5 C 237.2 43.2 237.2 43.0 237.0 42.9 C 236.2 43.3 235.2 43.8 235.6 43.2 C 234.8 43.5 235.4 43.6 235.0 43.9 C 234.5 44.0 234.9 43.7 234.8 43.4 C 234.6 43.6 234.2 44.2 234.1 43.8 C 233.1 44.8 233.8 44.9 234.9 44.8 C 235.5 44.1 234.6 44.5 236.0 44.0 C 236.0 44.0 236.0 44.0 236.0 44.0 Z M 204.4 59.7 C 204.5 59.8 204.9 59.6 205.0 59.7 C 205.4 59.2 205.8 58.7 206.1 58.2 C 205.9 58.1 205.3 58.6 205.7 58.6 C 205.4 58.6 204.9 58.7 204.5 58.7 C 204.0 58.9 204.0 59.5 203.8 59.1 C 203.4 59.5 203.7 59.4 202.8 59.7 C 204.2 59.3 202.4 60.0 202.5 60.3 C 203.2 60.0 203.9 59.7 203.7 59.5 C 204.2 59.3 204.9 59.1 205.1 59.3 C 205.1 59.4 204.7 59.6 204.4 59.7 C 204.4 59.7 204.4 59.7 204.4 59.7 Z M 207.1 57.6 C 206.9 57.8 206.7 57.9 206.4 58.0 C 206.6 58.0 206.7 58.1 206.8 58.3 C 207.4 57.9 207.5 57.7 207.8 57.9 C 208.4 57.6 207.5 57.6 208.5 57.3 C 208.3 57.2 207.9 57.4 207.9 57.3 C 207.9 57.5 207.5 57.8 207.1 57.6 C 207.1 57.6 207.1 57.6 207.1 57.6 Z M 215.1 54.4 C 215.7 54.0 214.7 54.4 214.9 54.1 C 214.8 54.2 213.5 54.7 213.6 54.4 C 213.0 54.3 212.1 55.6 212.0 55.1 C 211.7 55.2 211.9 55.3 211.9 55.4 C 212.7 54.9 212.8 55.1 212.2 55.5 C 212.4 55.6 212.9 55.2 213.3 55.1 C 213.2 54.9 212.9 55.1 212.8 54.9 C 213.7 54.6 214.3 54.6 215.1 54.4 C 215.1 54.4 215.1 54.4 215.1 54.4 Z M 101.8 90.3 C 102.4 90.2 102.8 90.1 103.1 90.0 C 102.9 89.9 102.6 90.1 102.3 90.1 C 102.2 90.0 102.5 89.9 102.8 89.9 C 102.4 89.7 101.3 90.1 101.8 90.3 C 101.8 90.3 101.8 90.3 101.8 90.3 Z M 107.2 89.4 C 107.9 89.3 108.3 89.2 108.3 89.0 C 108.0 88.9 108.2 89.1 107.8 89.2 C 107.5 89.2 107.3 89.1 107.2 89.0 C 106.9 89.1 107.0 89.2 106.9 89.3 C 106.7 89.3 106.7 89.3 106.6 89.2 C 105.9 89.6 107.5 89.0 107.2 89.4 C 107.2 89.4 107.2 89.4 107.2 89.4 Z M 210.8 56.3 C 210.5 56.3 210.2 56.2 209.6 56.5 C 209.8 56.6 209.3 56.8 208.9 57.0 C 209.6 57.0 209.9 56.7 210.8 56.3 C 210.8 56.3 210.8 56.3 210.8 56.3 Z M 141.2 81.7 C 142.1 81.7 141.9 81.3 143.1 81.2 C 143.1 81.1 143.1 81.0 143.0 81.0 C 142.4 81.4 142.0 81.3 141.2 81.7 C 141.2 81.7 141.2 81.7 141.2 81.7 Z M 27.4 95.1 C 27.5 94.9 26.6 95.0 26.6 94.8 C 26.4 95.3 26.0 94.5 24.3 94.6 C 24.3 94.5 24.4 94.4 24.6 94.4 C 23.3 94.3 25.0 94.7 25.2 95.0 C 26.2 94.9 26.4 95.1 27.4 95.1 C 27.4 95.1 27.4 95.1 27.4 95.1 Z M 255.0 31.3 C 255.0 31.3 255.2 31.3 255.3 31.2 C 255.5 31.1 255.6 31.0 255.8 30.9 C 255.5 30.6 254.7 31.0 255.1 30.3 C 254.8 30.4 254.9 30.5 254.9 30.5 C 254.2 31.9 252.6 31.4 251.4 32.7 C 251.1 32.9 251.2 32.9 251.2 33.0 C 251.4 32.9 251.5 32.9 251.5 33.0 C 251.5 32.5 253.1 32.0 252.5 32.5 C 252.6 32.6 252.8 32.4 252.8 32.4 C 252.9 32.3 253.1 32.2 253.3 32.1 C 253.1 32.0 252.8 32.2 252.6 32.1 C 253.4 31.8 254.4 31.3 254.1 31.8 C 254.6 31.5 254.6 31.3 254.9 31.0 C 255.2 30.9 255.3 31.1 255.0 31.3 C 255.0 31.3 255.0 31.3 255.0 31.3 Z M 261.0 27.2 C 261.8 26.8 261.3 26.7 262.1 26.3 C 261.5 26.4 261.2 27.1 260.4 27.3 C 260.6 27.3 260.9 27.1 261.0 27.2 C 261.0 27.2 261.0 27.2 261.0 27.2 Z M 247.3 35.6 C 247.2 35.2 246.6 35.6 245.9 36.0 C 245.9 36.4 246.6 36.0 247.3 35.6 C 247.3 35.6 247.3 35.6 247.3 35.6 Z M 250.3 33.7 C 251.0 33.2 249.4 34.2 249.7 33.7 C 249.3 33.9 249.0 34.1 248.9 34.0 C 248.7 34.3 248.8 34.4 248.3 34.6 C 248.4 34.8 249.1 34.2 249.2 34.4 C 249.6 34.0 249.7 33.9 250.3 33.7 C 250.3 33.7 250.3 33.7 250.3 33.7 Z M 250.8 33.4 C 251.2 33.0 250.4 33.0 249.8 33.4 C 250.1 33.4 250.4 33.5 250.8 33.4 C 250.8 33.4 250.8 33.4 250.8 33.4 Z M 193.1 63.2 C 193.5 63.0 193.1 62.9 193.5 62.7 C 193.5 62.6 192.0 63.2 193.2 62.7 C 192.6 62.6 192.5 63.1 191.9 63.3 C 192.2 63.3 192.3 63.3 192.0 63.4 C 191.9 63.7 193.2 62.9 193.1 63.2 C 193.1 63.2 193.1 63.2 193.1 63.2 Z M 194.7 62.5 C 195.0 62.4 194.8 62.4 194.6 62.4 C 194.6 62.3 195.1 62.2 195.4 62.0 C 195.4 62.1 194.7 61.9 194.6 61.7 C 193.4 62.4 194.5 62.3 194.7 62.5 C 194.7 62.5 194.7 62.5 194.7 62.5 Z M 195.9 61.8 C 196.8 61.7 197.9 61.1 198.4 60.6 C 197.6 60.5 196.1 61.3 195.9 61.8 C 195.9 61.8 195.9 61.8 195.9 61.8 Z M 187.4 65.2 C 189.0 64.9 191.9 63.3 189.0 64.2 C 189.2 64.3 187.5 65.2 186.5 65.4 C 186.5 65.5 185.6 66.1 185.6 66.0 C 185.0 66.4 187.8 65.3 187.4 65.2 C 187.4 65.2 187.4 65.2 187.4 65.2 Z M 199.2 59.7 C 198.8 60.0 199.6 60.2 198.8 60.3 C 198.5 60.5 199.0 60.4 199.0 60.6 C 199.7 60.2 201.2 59.2 201.5 59.5 C 201.9 59.2 201.9 59.0 202.7 58.6 C 202.6 58.5 200.1 60.1 199.3 59.9 C 199.3 59.7 200.2 59.2 199.2 59.7 C 199.2 59.7 199.2 59.7 199.2 59.7 Z M 140.8 80.2 C 140.8 80.4 141.9 79.9 141.7 80.3 C 142.2 79.8 142.8 79.9 143.5 79.4 C 143.7 79.5 143.7 79.9 144.7 79.7 C 144.6 79.4 144.2 79.6 144.6 79.3 C 145.4 79.0 145.3 79.4 146.2 79.0 C 146.0 78.7 148.3 78.4 148.0 78.0 C 147.5 78.2 147.6 78.4 146.7 78.5 C 146.4 78.6 146.5 78.4 146.1 78.5 C 146.3 78.2 146.8 78.5 147.1 78.1 C 147.0 78.0 146.4 78.2 146.2 78.0 C 145.9 78.2 146.4 78.1 146.3 78.3 C 145.3 78.6 146.2 77.7 145.1 78.1 C 145.4 78.2 145.4 78.3 145.2 78.6 C 144.8 78.6 143.4 79.1 144.1 78.6 C 144.0 78.5 143.2 79.0 143.4 79.1 C 142.9 79.2 142.8 79.2 142.8 79.1 C 141.7 79.5 141.6 79.8 141.9 80.0 C 141.7 80.3 141.4 79.9 140.8 80.2 C 140.8 80.2 140.8 80.2 140.8 80.2 Z M 179.1 68.4 C 178.5 68.8 179.7 68.1 180.4 67.9 C 179.6 68.1 179.7 67.7 178.9 68.0 C 179.2 68.0 179.2 68.1 178.7 68.2 C 178.6 68.4 179.8 68.1 179.1 68.4 C 179.1 68.4 179.1 68.4 179.1 68.4 Z M 204.2 58.0 C 204.5 58.0 205.8 57.3 206.5 57.0 C 206.2 56.7 204.8 58.0 204.4 57.7 C 204.0 57.9 204.6 57.7 204.2 58.0 C 204.2 58.0 204.2 58.0 204.2 58.0 Z M 151.1 77.7 C 151.4 77.6 151.2 77.5 151.0 77.6 C 151.1 77.4 151.7 77.3 152.1 77.2 C 151.4 77.2 152.1 76.9 151.9 76.6 C 152.2 76.6 152.4 76.5 152.4 76.4 C 152.6 76.9 154.0 75.6 152.3 76.1 C 152.7 76.2 152.6 76.3 151.9 76.6 C 151.1 76.6 150.6 77.0 150.2 76.8 C 149.7 77.0 149.6 77.2 148.9 77.3 C 148.7 77.2 148.1 77.2 148.5 76.7 C 147.3 77.1 148.3 77.5 147.3 77.8 C 146.4 77.9 147.7 77.4 147.4 77.2 C 147.2 77.3 147.2 77.2 147.1 77.1 C 146.8 77.2 146.9 77.5 147.2 77.4 C 147.1 77.5 146.3 78.0 146.4 77.6 C 145.9 77.9 147.5 78.2 148.2 77.7 C 148.6 77.5 148.7 78.0 148.3 78.1 C 148.5 78.3 149.2 77.4 149.1 78.0 C 149.5 77.9 149.8 77.8 150.2 77.7 C 150.1 77.7 149.9 77.7 149.9 77.6 C 150.2 77.5 150.6 77.4 151.0 77.3 C 150.7 77.5 150.7 77.6 151.1 77.7 C 151.1 77.7 151.1 77.7 151.1 77.7 Z M 200.8 59.4 C 201.5 59.1 201.6 58.9 202.0 58.6 C 201.8 58.5 200.4 59.2 200.8 59.4 C 200.8 59.4 200.8 59.4 200.8 59.4 Z M 136.0 80.6 C 136.1 80.6 136.6 80.5 136.6 80.6 C 135.8 80.9 136.8 80.8 136.2 81.4 C 137.2 80.9 137.4 80.2 136.0 80.4 C 134.9 80.7 137.1 80.3 136.0 80.6 C 136.0 80.6 136.0 80.6 136.0 80.6 Z M 139.3 79.9 C 139.9 79.6 138.2 79.9 137.8 79.9 C 137.8 79.8 137.8 79.7 137.8 79.6 C 137.0 80.3 138.2 80.1 137.5 80.8 C 138.6 80.7 139.1 80.7 140.0 80.3 C 139.9 80.2 139.7 80.3 139.7 80.4 C 139.0 80.5 139.4 80.0 140.1 80.0 C 139.9 79.9 139.3 80.1 138.8 80.1 C 138.9 80.2 139.1 80.2 139.1 80.3 C 138.5 80.5 138.7 80.3 138.3 80.4 C 138.2 80.2 139.2 79.7 139.3 79.9 C 139.3 79.9 139.3 79.9 139.3 79.9 Z M 85.8 90.6 C 86.4 90.4 85.2 90.2 85.2 89.8 C 84.6 89.8 84.4 90.0 84.1 90.0 C 84.3 90.2 84.9 90.1 85.2 90.3 C 85.2 90.6 84.4 90.3 84.1 90.6 C 83.8 91.0 85.5 90.2 85.8 90.6 C 85.8 90.6 85.8 90.6 85.8 90.6 Z M 163.4 73.3 C 163.7 73.2 163.5 73.2 163.4 73.2 C 163.4 73.1 163.9 73.0 163.9 73.1 C 164.3 72.9 163.6 73.0 164.1 72.8 C 164.2 72.6 163.4 73.1 163.4 73.2 C 162.8 73.4 163.1 72.9 162.9 72.8 C 162.4 73.0 162.7 73.2 161.9 73.3 C 162.4 73.3 162.9 73.4 163.4 73.3 C 163.4 73.3 163.4 73.3 163.4 73.3 Z M 134.3 81.6 C 134.2 81.7 134.8 81.0 135.6 81.1 C 136.5 80.8 134.9 80.9 135.8 80.7 C 135.0 80.8 134.2 81.3 133.1 81.6 C 132.9 81.8 134.7 81.2 133.7 81.6 C 133.8 81.7 134.0 81.6 134.0 81.5 C 134.2 81.5 134.2 81.5 134.3 81.6 C 134.3 81.6 134.3 81.6 134.3 81.6 Z M 135.2 80.7 C 135.1 80.6 134.9 80.7 134.9 80.7 C 134.6 80.8 134.5 80.6 134.8 80.5 C 134.3 80.3 134.5 80.8 133.5 80.9 C 134.0 81.0 134.2 81.1 133.3 81.1 C 132.7 81.6 134.9 80.9 135.2 80.7 C 135.2 80.7 135.2 80.7 135.2 80.7 Z M 94.6 89.2 C 94.5 89.1 93.9 89.2 93.4 89.3 C 93.9 89.0 96.2 88.8 96.5 88.9 C 96.7 88.8 96.9 88.8 97.0 88.9 C 97.0 88.8 97.6 88.6 97.3 88.6 C 97.3 88.4 97.8 88.4 97.8 88.3 C 98.6 88.2 97.6 88.5 97.8 88.6 C 98.8 88.2 98.6 88.5 99.7 88.3 C 99.5 88.1 98.2 88.4 98.3 88.0 C 97.4 88.5 96.4 88.4 95.8 88.2 C 96.7 88.5 93.6 89.2 92.1 89.3 C 92.1 89.1 91.6 89.2 90.9 89.2 C 90.5 89.0 90.7 89.5 91.5 89.3 C 91.5 89.5 90.3 89.5 89.9 89.6 C 90.4 89.7 90.1 89.8 90.4 89.9 C 91.5 89.7 90.5 89.8 90.7 89.6 C 91.0 89.5 91.2 89.5 91.5 89.5 C 90.1 90.1 93.6 89.2 92.3 89.4 C 93.5 89.3 93.5 89.5 94.6 89.2 C 94.6 89.2 94.6 89.2 94.6 89.2 Z M 120.2 84.8 C 120.4 84.7 121.2 84.3 121.3 84.6 C 122.3 84.1 121.3 84.1 122.6 83.8 C 122.5 83.7 122.0 83.9 122.0 83.8 C 121.5 83.9 121.1 84.1 121.2 84.4 C 120.7 84.5 120.5 84.6 120.2 84.7 C 120.3 84.6 120.5 84.4 121.0 84.3 C 121.0 84.1 120.8 84.0 120.1 84.2 C 119.8 84.5 120.1 84.6 120.2 84.8 C 120.2 84.8 120.2 84.8 120.2 84.8 Z M 122.8 83.9 C 123.0 83.9 123.2 83.9 123.2 84.1 C 123.6 84.3 123.2 83.7 123.6 83.6 C 124.0 83.5 123.9 83.7 124.0 83.8 C 124.4 83.6 124.8 83.5 125.0 83.5 C 125.8 83.2 124.1 83.5 123.9 83.4 C 123.4 83.6 123.6 83.8 122.8 83.9 C 122.8 83.9 122.8 83.9 122.8 83.9 Z M 131.0 82.3 C 131.2 82.5 131.4 82.0 131.8 82.0 C 131.5 81.8 130.7 82.1 131.2 81.7 C 130.3 81.8 130.3 81.8 129.5 82.1 C 129.0 81.9 129.6 82.3 130.4 82.0 C 130.3 82.1 129.9 82.2 129.9 82.3 C 129.2 81.9 128.1 83.1 128.8 82.5 C 129.1 82.5 129.2 82.6 129.4 82.6 C 129.5 82.4 131.4 82.1 131.0 82.3 C 131.0 82.3 131.0 82.3 131.0 82.3 Z M 157.7 74.6 C 156.6 75.0 156.6 75.0 155.6 75.3 C 155.5 75.2 155.6 75.1 155.8 75.0 C 155.5 75.0 155.2 75.1 154.7 75.3 C 154.8 75.4 155.0 75.3 155.0 75.3 C 155.9 75.2 155.2 75.4 155.1 75.7 C 156.2 75.6 157.0 74.8 157.5 75.0 C 157.9 74.8 157.4 74.9 157.7 74.6 C 157.7 74.6 157.7 74.6 157.7 74.6 Z M 28.6 92.9 C 28.4 93.0 27.9 93.0 28.0 93.1 C 28.4 93.1 28.7 93.0 29.1 93.0 C 28.3 92.9 28.5 92.5 27.5 92.5 C 27.8 92.6 27.7 92.9 28.6 92.9 C 28.6 92.9 28.6 92.9 28.6 92.9 Z M 128.3 82.8 C 128.2 82.7 128.2 82.6 128.5 82.5 C 128.5 82.3 127.7 82.6 127.6 82.4 C 127.4 82.5 127.5 82.6 127.1 82.7 C 127.3 82.8 128.0 82.6 127.8 82.9 C 127.5 83.0 127.5 83.0 127.5 82.9 C 126.9 83.2 127.8 83.0 128.3 82.8 C 128.3 82.8 128.3 82.8 128.3 82.8 Z M 83.0 90.6 C 83.4 90.5 83.0 90.4 82.7 90.5 C 83.5 90.1 82.2 90.1 82.1 89.8 C 82.5 90.0 83.6 89.7 83.8 89.8 C 84.1 89.7 83.7 89.5 84.5 89.3 C 84.4 89.1 83.5 89.5 83.7 89.6 C 83.5 89.3 82.6 89.8 82.6 89.5 C 81.4 89.5 81.1 89.8 81.0 90.1 C 82.2 89.9 81.6 90.4 82.7 90.2 C 82.7 90.3 82.4 90.3 82.2 90.3 C 82.3 90.5 82.7 90.5 83.0 90.6 C 83.0 90.6 83.0 90.6 83.0 90.6 Z M 111.5 86.3 C 112.1 86.2 112.0 86.0 111.9 85.8 C 111.7 85.9 111.4 86.0 110.9 86.1 C 111.0 86.2 111.7 86.0 111.5 86.3 C 111.5 86.3 111.5 86.3 111.5 86.3 Z M 87.4 89.7 C 87.4 89.8 87.7 89.7 87.6 89.7 C 88.3 89.6 88.5 89.7 88.8 89.8 C 89.1 89.7 89.0 89.6 89.0 89.4 C 88.4 89.7 88.5 89.4 87.6 89.5 C 87.7 89.6 87.6 89.7 87.4 89.7 C 87.4 89.7 87.4 89.7 87.4 89.7 Z M 105.7 87.2 C 106.0 87.1 105.9 87.1 105.7 87.1 C 106.0 86.7 107.2 86.8 107.6 86.6 C 107.6 86.4 106.2 86.6 107.8 86.3 C 107.5 86.1 106.1 86.5 105.4 86.6 C 105.5 86.3 106.5 86.2 106.4 85.9 C 105.5 86.2 104.6 86.5 104.6 86.9 C 105.8 86.7 105.4 87.1 105.7 87.2 C 105.7 87.2 105.7 87.2 105.7 87.2 Z M 104.3 87.2 C 104.5 87.4 104.7 87.1 105.1 87.1 C 104.4 86.9 104.0 87.1 102.7 87.2 C 102.7 87.3 102.7 87.4 102.7 87.4 C 102.4 87.5 102.1 87.5 101.9 87.6 C 103.1 87.7 103.4 87.4 104.6 87.1 C 104.7 87.2 104.5 87.2 104.3 87.2 C 104.3 87.2 104.3 87.2 104.3 87.2 Z M 140.6 79.4 C 140.2 79.3 139.8 79.3 139.2 79.4 C 139.3 79.6 139.7 79.6 140.6 79.4 C 140.6 79.4 140.6 79.4 140.6 79.4 Z M 86.3 89.7 C 85.5 89.9 87.0 89.6 86.5 89.4 C 85.9 89.3 85.2 89.3 85.1 89.1 C 84.0 89.6 86.4 89.3 86.3 89.7 C 86.3 89.7 86.3 89.7 86.3 89.7 Z M 91.1 88.4 C 91.4 88.4 91.5 88.8 91.1 88.6 C 90.3 88.7 91.8 88.8 90.6 88.9 C 91.1 88.9 92.3 88.9 92.8 88.6 C 92.8 88.4 91.7 88.7 91.7 88.4 C 91.6 88.4 91.8 88.3 91.9 88.3 C 91.8 88.2 91.6 88.4 91.1 88.4 C 91.1 88.4 91.1 88.4 91.1 88.4 Z M 95.3 88.3 C 94.8 88.2 94.2 88.2 93.3 88.3 C 93.9 88.4 94.3 88.6 95.3 88.3 C 95.3 88.3 95.3 88.3 95.3 88.3 Z M 43.2 92.1 C 43.9 92.0 43.3 91.8 43.2 91.7 C 42.6 91.7 42.6 91.9 41.8 91.8 C 42.1 92.1 42.8 91.8 43.2 92.1 C 43.2 92.1 43.2 92.1 43.2 92.1 Z M 40.8 91.9 C 40.7 91.7 39.7 91.8 39.7 91.6 C 39.1 92.2 38.2 91.3 38.3 91.7 C 38.0 91.7 37.8 91.6 37.4 91.6 C 38.2 92.1 39.9 91.9 40.8 91.9 C 40.8 91.9 40.8 91.9 40.8 91.9 Z M 99.8 87.1 C 100.6 87.0 99.6 86.7 100.3 86.6 C 100.3 86.5 98.9 86.7 99.7 86.4 C 98.6 86.4 99.9 87.0 99.8 87.1 C 99.8 87.1 99.8 87.1 99.8 87.1 Z M 113.1 84.5 C 113.1 84.7 114.1 84.3 114.5 84.3 C 114.4 84.2 114.1 84.3 113.9 84.3 C 114.0 84.2 114.1 84.1 114.4 84.0 C 114.2 83.9 113.5 84.4 113.1 84.5 C 113.1 84.5 113.1 84.5 113.1 84.5 Z M 99.2 91.9 C 98.7 91.7 98.0 91.6 97.8 92.0 C 97.3 91.9 98.1 91.7 97.4 91.6 C 96.7 91.9 97.0 91.5 95.8 91.9 C 96.0 91.5 95.1 91.6 94.9 91.4 C 95.4 91.3 96.1 91.5 96.3 91.2 C 95.8 91.3 96.0 91.0 96.3 91.2 C 97.1 91.2 95.3 91.7 96.3 91.7 C 96.6 91.3 98.1 91.7 99.1 91.6 C 98.8 91.8 99.9 91.8 99.2 91.9 C 99.2 91.9 99.2 91.9 99.2 91.9 Z M 94.1 92.1 C 93.5 92.2 93.0 91.7 93.2 91.7 C 93.2 91.8 94.0 91.7 94.1 91.6 C 93.9 91.6 93.7 91.6 93.8 91.5 C 95.0 91.4 94.6 91.7 94.9 91.8 C 94.3 92.0 94.1 91.9 93.8 92.0 C 94.0 92.0 94.2 92.0 94.1 92.1 C 94.1 92.1 94.1 92.1 94.1 92.1 Z M 79.0 89.4 C 79.1 89.6 79.3 89.3 79.6 89.3 C 79.6 89.7 81.0 89.0 81.2 89.2 C 80.9 89.3 80.2 89.4 79.9 89.6 C 80.2 89.6 80.3 89.7 80.7 89.5 C 80.6 89.8 79.8 89.9 79.6 90.1 C 79.5 89.9 79.2 90.2 79.1 90.0 C 80.1 89.8 78.4 89.5 79.0 89.4 C 79.0 89.4 79.0 89.4 79.0 89.4 Z M 106.0 85.7 C 106.1 85.4 104.8 84.9 105.8 84.4 C 106.1 84.6 106.3 84.8 106.2 85.2 C 106.9 84.9 107.2 85.1 107.5 84.8 C 108.9 85.3 106.6 84.9 106.0 85.7 C 106.0 85.7 106.0 85.7 106.0 85.7 Z M 110.3 84.6 C 110.1 84.9 110.7 84.8 110.7 85.0 C 110.1 84.9 108.5 85.5 109.0 85.2 C 109.6 85.0 109.5 84.8 110.3 84.6 C 110.3 84.6 110.3 84.6 110.3 84.6 Z M 218.8 50.5 C 218.1 51.1 217.4 50.9 217.8 50.5 C 217.8 50.9 218.9 50.1 218.8 50.5 C 218.8 50.5 218.8 50.5 218.8 50.5 Z M 191.1 67.9 C 192.0 67.7 192.3 67.4 192.5 67.6 C 191.8 68.0 191.8 67.8 191.2 68.1 C 191.2 68.2 190.9 68.4 190.7 68.4 C 191.1 68.2 190.9 68.1 191.1 67.9 C 191.1 67.9 191.1 67.9 191.1 67.9 Z M 128.2 87.4 C 128.3 87.5 128.7 87.5 128.6 87.7 C 127.7 87.8 126.8 88.2 126.2 88.6 C 126.1 88.4 126.1 88.3 126.1 88.2 C 127.4 88.0 127.7 87.7 128.2 87.4 C 128.2 87.4 128.2 87.4 128.2 87.4 Z M 130.0 87.6 C 130.1 87.4 129.6 87.2 130.2 87.1 C 130.2 87.3 131.3 87.3 130.8 87.5 C 130.6 87.3 130.3 87.4 130.0 87.6 C 130.0 87.6 130.0 87.6 130.0 87.6 Z M 83.4 94.2 C 82.8 94.3 83.8 94.4 83.7 94.5 C 83.3 94.5 82.6 94.6 82.3 94.5 C 82.8 94.5 83.1 94.0 83.4 94.2 C 83.4 94.2 83.4 94.2 83.4 94.2 Z M 93.6 92.3 C 95.0 92.0 94.5 92.6 95.9 92.5 C 95.3 92.7 94.1 92.9 93.7 93.2 C 93.7 93.0 93.4 93.0 93.4 92.8 C 93.9 92.7 94.0 92.9 94.5 92.8 C 94.3 92.5 94.3 92.6 94.4 92.3 C 94.1 92.4 93.8 92.5 93.6 92.5 C 93.7 92.4 93.2 92.4 93.6 92.3 C 93.6 92.3 93.6 92.3 93.6 92.3 Z M 83.6 93.4 C 83.1 93.6 82.5 93.3 83.0 93.2 C 83.1 93.4 83.5 93.1 83.6 93.3 C 82.8 93.4 84.3 93.3 83.9 93.6 C 83.4 93.6 83.3 93.7 83.4 93.9 C 83.1 93.9 82.6 94.0 82.6 93.9 C 82.8 93.9 83.1 93.9 83.1 93.8 C 82.9 93.8 82.8 93.8 82.8 93.7 C 83.3 93.7 83.5 93.6 83.6 93.4 C 83.6 93.4 83.6 93.4 83.6 93.4 Z M 87.5 93.0 C 86.7 93.1 86.6 92.8 86.3 92.7 C 87.4 92.6 87.6 93.0 88.3 93.1 C 87.5 93.1 86.7 93.5 86.4 93.4 C 86.8 93.2 87.5 93.2 87.5 93.0 C 87.5 93.0 87.5 93.0 87.5 93.0 Z M 280.9 13.9 C 280.3 14.1 279.8 14.3 279.1 14.7 C 279.1 15.0 280.5 14.6 279.9 14.8 C 279.3 15.3 279.5 14.7 279.0 15.0 C 279.8 15.0 277.2 16.9 276.8 16.7 C 277.2 16.4 277.3 16.2 277.1 16.2 C 278.2 15.4 278.4 14.9 279.2 14.3 C 280.0 14.1 281.7 13.0 282.3 12.0 C 283.2 12.0 283.9 10.7 285.0 10.4 C 285.1 10.1 284.1 10.7 284.8 10.1 C 285.4 10.0 285.1 10.4 285.8 10.0 C 285.7 9.9 285.5 9.8 285.7 9.6 C 285.8 9.7 286.2 9.5 286.4 9.4 C 285.1 10.4 286.7 9.7 285.8 10.5 C 285.3 10.7 285.9 9.8 284.8 10.6 C 284.5 11.0 284.2 11.4 284.4 11.5 C 284.1 11.7 284.0 11.9 283.8 12.1 C 284.0 11.5 282.4 13.3 283.0 12.4 C 283.1 12.3 283.7 11.9 284.0 11.5 C 283.5 11.5 283.1 12.0 282.5 12.7 C 282.1 12.7 282.4 12.3 282.1 12.5 C 281.6 13.1 282.5 12.7 282.2 13.1 C 282.4 13.0 282.6 12.8 282.7 12.9 C 281.6 13.4 281.4 13.9 280.9 14.2 C 281.1 13.8 280.2 14.5 280.9 13.9 C 280.9 13.9 280.9 13.9 280.9 13.9 Z M 288.7 7.4 C 288.9 7.2 289.1 7.0 289.3 6.9 C 289.5 7.0 288.7 7.7 289.4 7.5 C 288.4 8.2 289.3 7.2 288.7 7.4 C 288.7 7.4 288.7 7.4 288.7 7.4 Z M 283.7 10.0 C 283.2 10.1 283.7 10.4 283.4 10.7 C 283.9 10.2 284.4 9.8 284.6 10.0 C 284.0 10.4 283.7 10.6 283.1 11.2 C 283.5 10.4 282.2 11.5 281.8 11.4 C 282.3 10.9 282.6 10.5 283.3 10.0 C 283.2 10.2 284.3 9.5 283.7 10.0 C 283.7 10.0 283.7 10.0 283.7 10.0 Z M 285.2 8.4 C 285.4 8.4 286.3 7.6 286.3 8.0 C 285.7 8.4 285.5 8.6 285.8 8.7 C 285.4 9.1 285.3 9.0 284.9 9.3 C 284.4 9.3 285.1 8.8 285.3 8.5 C 285.1 8.6 285.0 8.6 285.2 8.4 C 285.2 8.4 285.2 8.4 285.2 8.4 Z M 22.2 91.8 C 22.4 92.1 21.3 91.9 21.1 91.8 C 21.4 92.1 21.3 92.2 20.6 92.3 C 20.8 91.9 19.8 92.0 19.2 91.6 C 19.0 91.8 19.8 92.0 18.9 92.0 C 18.2 91.9 17.5 92.0 16.4 92.0 C 16.2 91.7 16.7 91.6 17.0 91.6 C 16.2 91.6 16.4 91.3 15.9 91.3 C 16.0 91.5 15.5 91.5 15.3 91.4 C 16.3 91.3 14.0 91.0 15.1 90.9 C 15.1 91.0 15.4 91.0 15.6 90.9 C 15.3 91.3 16.7 91.2 17.0 91.5 C 17.5 90.9 19.0 91.2 20.6 91.4 C 20.7 91.6 20.2 91.7 20.6 91.7 C 20.6 91.6 21.2 91.6 21.4 91.6 C 21.4 91.7 21.6 91.8 21.9 91.9 C 22.0 91.8 22.0 91.8 22.2 91.8 C 22.2 91.8 22.2 91.8 22.2 91.8 Z M 241.5 36.8 C 241.3 36.3 239.9 37.5 239.5 37.8 C 239.4 37.3 242.1 35.9 241.5 36.8 C 241.5 36.8 241.5 36.8 241.5 36.8 Z M 250.5 30.8 C 250.1 31.1 250.5 31.1 250.2 31.4 C 250.0 31.1 249.4 32.2 249.2 31.9 C 249.5 31.5 249.8 31.3 250.5 30.8 C 250.5 30.8 250.5 30.8 250.5 30.8 Z M 258.9 25.5 C 258.3 26.0 259.4 25.4 259.3 25.6 C 258.7 26.0 258.1 26.4 258.0 26.1 C 258.6 25.9 258.7 25.4 258.9 25.5 C 258.9 25.5 258.9 25.5 258.9 25.5 Z M 246.1 33.2 C 245.5 33.5 246.3 32.6 246.5 32.7 C 245.9 33.2 247.0 32.7 247.5 32.3 C 247.6 32.6 247.4 32.7 247.8 32.7 C 247.0 33.4 247.5 32.6 246.9 33.0 C 246.6 33.3 247.0 33.0 247.1 33.3 C 246.9 33.4 246.7 33.5 246.4 33.7 C 246.3 33.6 246.3 33.4 246.2 33.3 C 246.5 33.1 246.7 32.9 246.6 32.9 C 246.3 33.0 246.3 33.1 246.1 33.2 C 246.1 33.2 246.1 33.2 246.1 33.2 Z M 7.9 90.4 C 7.5 90.4 7.8 90.6 8.1 90.6 C 8.2 90.5 8.5 90.0 9.0 90.3 C 7.9 90.5 9.3 90.8 8.7 90.9 C 8.5 90.6 7.8 90.8 7.3 90.8 C 7.1 90.5 7.7 90.2 7.9 90.4 C 7.9 90.4 7.9 90.4 7.9 90.4 Z M 9.8 90.8 C 9.8 90.7 9.6 90.6 9.3 90.6 C 9.6 90.4 9.1 90.3 9.6 90.3 C 9.5 90.4 11.0 90.6 10.1 90.6 C 9.4 90.4 10.3 90.8 10.7 90.8 C 10.3 90.8 9.6 91.0 9.5 90.8 C 9.7 90.8 9.9 90.8 9.8 90.8 C 9.8 90.8 9.8 90.8 9.8 90.8 Z M 27.8 91.2 C 27.9 91.1 27.4 91.1 27.2 91.0 C 28.6 91.0 29.8 91.1 30.5 91.1 C 29.9 91.1 29.9 91.4 30.3 91.5 C 29.6 91.4 29.4 91.5 29.2 91.4 C 29.8 91.2 28.6 91.3 27.8 91.2 C 27.8 91.2 27.8 91.2 27.8 91.2 Z M 27.8 91.2 " fill="#FEFFFF"></path></g></svg>