<?xml version="1.0" encoding="UTF-8" standalone="no"?><svg xmlns="http://www.w3.org/2000/svg" xmlns:xlink="http://www.w3.org/1999/xlink" clip-rule="evenodd" stroke-miterlimit="4.00" viewBox="0 0 1920 1080"><desc>SVG generated by Keynote</desc><defs></defs><g transform="matrix(1.00, 0.00, -0.00, -1.00, 0.0, 1080.0)"><path d="M 0.0 1080.0 L 1920.0 1080.0 L 1920.0 0.0 L 0.0 0.0 Z M 0.0 1080.0 " fill="#432754"></path><text xml:space="preserve" font-family="GillSans" font-size="50.0" fill="#FEFFFF" transform="matrix(1.00, 0.00, -0.00, -1.00, 324.0, 523.0)">J</text><text xml:space="preserve" font-family="GillSans" font-size="50.0" fill="#FEFFFF" transform="matrix(1.00, 0.00, -0.00, -1.00, 336.5, 523.0)">E</text><text xml:space="preserve" font-family="GillSans" font-size="50.0" fill="#FEFFFF" transform="matrix(1.00, 0.00, -0.00, -1.00, 361.5, 523.0)">A</text><text xml:space="preserve" font-family="GillSans" font-size="50.0" fill="#FEFFFF" transform="matrix(1.00, 0.00, -0.00, -1.00, 394.8, 523.0)">N</text><text xml:space="preserve" font-family="GillSans" font-size="50.0" fill="#FEFFFF" transform="matrix(1.00, 0.00, -0.00, -1.00, 433.9, 523.0)">S</text><text xml:space="preserve" font-family="GillSans" font-size="50.0" fill="#FEFFFF" transform="matrix(1.00, 0.00, -0.00, -1.00, 456.8, 523.0)"> </text><text xml:space="preserve" font-family="GillSans" font-size="50.0" fill="#FEFFFF" transform="matrix(1.00, 0.00, -0.00, -1.00, 470.7, 523.0)">1</text><text xml:space="preserve" font-family="GillSans" font-size="50.0" fill="#FEFFFF" transform="matrix(1.00, 0.00, -0.00, -1.00, 495.7, 523.0)">S</text><text xml:space="preserve" font-family="GillSans" font-size="50.0" fill="#FEFFFF" transform="matrix(1.00, 0.00, -0.00, -1.00, 518.6, 523.0)">T</text><text xml:space="preserve" font-family="GillSans" font-size="50.0" fill="#FEFFFF" transform="matrix(1.00, 0.00, -0.00, -1.00, 548.8, 523.0)"> </text><text xml:space="preserve" font-family="GillSans" font-size="50.0" fill="#FEFFFF" transform="matrix(1.00, 0.00, -0.00, -1.00, 562.6, 523.0)">G</text><text xml:space="preserve" font-family="GillSans" font-size="50.0" fill="#FEFFFF" transform="matrix(1.00, 0.00, -0.00, -1.00, 599.7, 523.0)">R</text><text xml:space="preserve" font-family="GillSans" font-size="50.0" fill="#FEFFFF" transform="matrix(1.00, 0.00, -0.00, -1.00, 629.9, 523.0)">A</text><text xml:space="preserve" font-family="GillSans" font-size="50.0" fill="#FEFFFF" transform="matrix(1.00, 0.00, -0.00, -1.00, 663.2, 523.0)">D</text><text xml:space="preserve" font-family="GillSans" font-size="50.0" fill="#FEFFFF" transform="matrix(1.00, 0.00, -0.00, -1.00, 700.7, 523.0)">E</text><image xlink:href="785930EEC64FAEF9DAB106CD0E84384B.png" width="739.00" height="970.00" transform="matrix(1.00, 0.00, -0.00, -1.00, 1026.0, 1021.2)" opacity="0.50"></image><g><clipPath id="clip-6"><path d="M 1055.0 994.0 L 1736.0 994.0 L 1736.0 86.0 L 1055.0 86.0 Z M 1055.0 994.2 "></path></clipPath><g clip-path="url(#clip-6)"><image xlink:href="AB07615B864CDA0E03D1BF0E53844ABB.jpeg" width="1062.00" height="769.00" transform="matrix(1.18, 0.00, -0.00, -1.18, 828.0, 994.0)"></image></g></g><image xlink:href="../../13ED3A0A-EAC1-40F6-8536-8063D0EF59BD/assets/83D70946B275F66529D167CA12417227.png" width="729.00" height="960.00" transform="matrix(1.00, 0.00, -0.00, 1.00, 1031.0, 57.8)"></image></g></svg>