<?xml version="1.0" encoding="UTF-8" standalone="no"?><svg xmlns="http://www.w3.org/2000/svg" xmlns:xlink="http://www.w3.org/1999/xlink" clip-rule="evenodd" stroke-miterlimit="4.00" viewBox="0 0 481 33"><desc>SVG generated by Keynote</desc><defs></defs><g transform="matrix(1.00, 0.00, -0.00, -1.00, 0.0, 33.0)"><text xml:space="preserve" font-family="billy" font-size="50.0" fill="#FEFFFF" transform="matrix(1.00, 0.00, -0.00, -1.00, 2.0, 2.0)">P</text><text xml:space="preserve" font-family="billy" font-size="50.0" fill="#FEFFFF" transform="matrix(1.00, 0.00, -0.00, -1.00, 14.0, 2.0)">A</text><text xml:space="preserve" font-family="billy" font-size="50.0" fill="#FEFFFF" transform="matrix(1.00, 0.00, -0.00, -1.00, 31.5, 2.0)">T</text><text xml:space="preserve" font-family="billy" font-size="50.0" fill="#FEFFFF" transform="matrix(1.00, 0.00, -0.00, -1.00, 46.5, 2.0)"> </text><text xml:space="preserve" font-family="billy" font-size="50.0" fill="#FEFFFF" transform="matrix(1.00, 0.00, -0.00, -1.00, 60.3, 2.0)">M</text><text xml:space="preserve" font-family="billy" font-size="50.0" fill="#FEFFFF" transform="matrix(1.00, 0.00, -0.00, -1.00, 86.2, 2.0)">I</text><text xml:space="preserve" font-family="billy" font-size="50.0" fill="#FEFFFF" transform="matrix(1.00, 0.00, -0.00, -1.00, 93.7, 2.0)">T</text><text xml:space="preserve" font-family="billy" font-size="50.0" fill="#FEFFFF" transform="matrix(1.00, 0.00, -0.00, -1.00, 109.4, 2.0)">C</text><text xml:space="preserve" font-family="billy" font-size="50.0" fill="#FEFFFF" transform="matrix(1.00, 0.00, -0.00, -1.00, 126.0, 2.0)">H</text><text xml:space="preserve" font-family="billy" font-size="50.0" fill="#FEFFFF" transform="matrix(1.00, 0.00, -0.00, -1.00, 144.5, 2.0)">E</text><text xml:space="preserve" font-family="billy" font-size="50.0" fill="#FEFFFF" transform="matrix(1.00, 0.00, -0.00, -1.00, 163.4, 2.0)">L</text><text xml:space="preserve" font-family="billy" font-size="50.0" fill="#FEFFFF" transform="matrix(1.00, 0.00, -0.00, -1.00, 180.8, 2.0)">L</text><text xml:space="preserve" font-family="billy" font-size="50.0" fill="#FEFFFF" transform="matrix(1.00, 0.00, -0.00, -1.00, 198.2, 2.0)">,</text><text xml:space="preserve" font-family="billy" font-size="50.0" fill="#FEFFFF" transform="matrix(1.00, 0.00, -0.00, -1.00, 202.4, 2.0)"> </text><text xml:space="preserve" font-family="billy" font-size="50.0" fill="#FEFFFF" transform="matrix(1.00, 0.00, -0.00, -1.00, 216.2, 2.0)">M</text><text xml:space="preserve" font-family="billy" font-size="50.0" fill="#FEFFFF" transform="matrix(1.00, 0.00, -0.00, -1.00, 242.4, 2.0)">E</text><text xml:space="preserve" font-family="billy" font-size="50.0" fill="#FEFFFF" transform="matrix(1.00, 0.00, -0.00, -1.00, 261.0, 2.0)">D</text><text xml:space="preserve" font-family="billy" font-size="50.0" fill="#FEFFFF" transform="matrix(1.00, 0.00, -0.00, -1.00, 278.8, 2.0)">I</text><text xml:space="preserve" font-family="billy" font-size="50.0" fill="#FEFFFF" transform="matrix(1.00, 0.00, -0.00, -1.00, 283.7, 2.0)">A</text><text xml:space="preserve" font-family="billy" font-size="50.0" fill="#FEFFFF" transform="matrix(1.00, 0.00, -0.00, -1.00, 302.2, 2.0)"> </text><text xml:space="preserve" font-family="billy" font-size="50.0" fill="#FEFFFF" transform="matrix(1.00, 0.00, -0.00, -1.00, 316.0, 2.0)">I</text><text xml:space="preserve" font-family="billy" font-size="50.0" fill="#FEFFFF" transform="matrix(1.00, 0.00, -0.00, -1.00, 321.9, 2.0)">N</text><text xml:space="preserve" font-family="billy" font-size="50.0" fill="#FEFFFF" transform="matrix(1.00, 0.00, -0.00, -1.00, 342.2, 2.0)">N</text><text xml:space="preserve" font-family="billy" font-size="50.0" fill="#FEFFFF" transform="matrix(1.00, 0.00, -0.00, -1.00, 363.6, 2.0)">O</text><text xml:space="preserve" font-family="billy" font-size="50.0" fill="#FEFFFF" transform="matrix(1.00, 0.00, -0.00, -1.00, 385.4, 2.0)">V</text><text xml:space="preserve" font-family="billy" font-size="50.0" fill="#FEFFFF" transform="matrix(1.00, 0.00, -0.00, -1.00, 402.8, 2.0)">A</text><text xml:space="preserve" font-family="billy" font-size="50.0" fill="#FEFFFF" transform="matrix(1.00, 0.00, -0.00, -1.00, 420.2, 2.0)">T</text><text xml:space="preserve" font-family="billy" font-size="50.0" fill="#FEFFFF" transform="matrix(1.00, 0.00, -0.00, -1.00, 435.3, 2.0)">O</text><text xml:space="preserve" font-family="billy" font-size="50.0" fill="#FEFFFF" transform="matrix(1.00, 0.00, -0.00, -1.00, 458.6, 2.0)">R</text><text xml:space="preserve" font-family="billy" font-size="50.0" fill="#FEFFFF" transform="matrix(1.00, 0.00, -0.00, -1.00, 474.8, 2.0)">,</text><text xml:space="preserve" font-family="billy" font-size="50.0" fill="#FEFFFF" transform="matrix(1.00, 0.00, -0.00, -1.00, 479.0, 2.0)"> </text></g></svg>