<?xml version="1.0" encoding="UTF-8" standalone="no"?><svg xmlns="http://www.w3.org/2000/svg" xmlns:xlink="http://www.w3.org/1999/xlink" clip-rule="evenodd" stroke-miterlimit="4.00" viewBox="0 0 74 233"><desc>SVG generated by Keynote</desc><defs></defs><g transform="matrix(1.00, 0.00, -0.00, -1.00, 0.0, 233.0)"><g><clipPath id="clip-178"><path d="M -90.2 243.6 L 164.5 243.6 L 164.5 -11.0 L -90.2 -11.0 Z M -90.2 243.6 "></path></clipPath><g clip-path="url(#clip-178)"><g><clipPath id="clip-179"><path d="M 2.0 2.0 L 72.0 2.0 L 72.0 231.0 L 2.0 231.0 Z M 2.0 2.0 "></path></clipPath><g clip-path="url(#clip-179)"><path d="M 44.5 223.0 C 44.0 225.0 42.5 226.6 40.7 227.3 C 40.2 227.8 39.7 228.4 39.2 229.1 C 35.6 232.9 30.0 230.4 28.5 226.3 C 26.7 221.2 24.7 216.4 22.9 211.3 C 12.7 194.5 7.3 175.7 2.2 156.6 C 0.2 148.4 11.7 145.6 14.5 153.2 C 20.1 168.3 25.9 183.5 31.5 198.6 C 31.0 135.2 30.5 71.8 30.0 8.1 C 30.0 -0.0 42.7 -0.0 42.7 8.1 C 43.2 72.5 43.8 136.7 44.3 201.1 C 51.1 189.9 56.2 177.7 59.5 164.4 C 61.6 156.6 73.8 159.9 71.8 167.8 C 66.9 188.1 57.5 206.7 44.5 223.0 " fill="#FFFFFF"></path></g></g></g></g></g></svg>