<?xml version="1.0" encoding="UTF-8" standalone="no"?><svg xmlns="http://www.w3.org/2000/svg" xmlns:xlink="http://www.w3.org/1999/xlink" clip-rule="evenodd" stroke-miterlimit="4.00" viewBox="0 0 1204 184"><desc>SVG generated by Keynote</desc><defs></defs><g transform="matrix(1.00, 0.00, -0.00, -1.00, 0.0, 184.0)"><text xml:space="preserve" font-family="billy" font-size="134.0" fill="#FEFFFF" transform="matrix(1.00, 0.00, -0.00, -1.00, 1.0, 107.0)">Y</text><text xml:space="preserve" font-family="billy" font-size="134.0" fill="#FEFFFF" transform="matrix(1.00, 0.00, -0.00, -1.00, 41.2, 107.0)">o</text><text xml:space="preserve" font-family="billy" font-size="134.0" fill="#FEFFFF" transform="matrix(1.00, 0.00, -0.00, -1.00, 84.6, 107.0)">u</text><text xml:space="preserve" font-family="billy" font-size="134.0" fill="#FEFFFF" transform="matrix(1.00, 0.00, -0.00, -1.00, 120.5, 107.0)"> </text><text xml:space="preserve" font-family="billy" font-size="134.0" fill="#FEFFFF" transform="matrix(1.00, 0.00, -0.00, -1.00, 156.4, 107.0)">a</text><text xml:space="preserve" font-family="billy" font-size="134.0" fill="#FEFFFF" transform="matrix(1.00, 0.00, -0.00, -1.00, 191.7, 107.0)">l</text><text xml:space="preserve" font-family="billy" font-size="134.0" fill="#FEFFFF" transform="matrix(1.00, 0.00, -0.00, -1.00, 211.4, 107.0)">w</text><text xml:space="preserve" font-family="billy" font-size="134.0" fill="#FEFFFF" transform="matrix(1.00, 0.00, -0.00, -1.00, 265.1, 107.0)">a</text><text xml:space="preserve" font-family="billy" font-size="134.0" fill="#FEFFFF" transform="matrix(1.00, 0.00, -0.00, -1.00, 299.3, 107.0)">y</text><text xml:space="preserve" font-family="billy" font-size="134.0" fill="#FEFFFF" transform="matrix(1.00, 0.00, -0.00, -1.00, 335.5, 107.0)">s</text><text xml:space="preserve" font-family="billy" font-size="134.0" fill="#FEFFFF" transform="matrix(1.00, 0.00, -0.00, -1.00, 364.4, 107.0)"> </text><text xml:space="preserve" font-family="billy" font-size="134.0" fill="#FEFFFF" transform="matrix(1.00, 0.00, -0.00, -1.00, 401.4, 107.0)">h</text><text xml:space="preserve" font-family="billy" font-size="134.0" fill="#FEFFFF" transform="matrix(1.00, 0.00, -0.00, -1.00, 438.0, 107.0)">a</text><text xml:space="preserve" font-family="billy" font-size="134.0" fill="#FEFFFF" transform="matrix(1.00, 0.00, -0.00, -1.00, 468.3, 107.0)">v</text><text xml:space="preserve" font-family="billy" font-size="134.0" fill="#FEFFFF" transform="matrix(1.00, 0.00, -0.00, -1.00, 502.6, 107.0)">e</text><text xml:space="preserve" font-family="billy" font-size="134.0" fill="#FEFFFF" transform="matrix(1.00, 0.00, -0.00, -1.00, 534.7, 107.0)"> </text><text xml:space="preserve" font-family="billy" font-size="134.0" fill="#FEFFFF" transform="matrix(1.00, 0.00, -0.00, -1.00, 571.7, 107.0)">t</text><text xml:space="preserve" font-family="billy" font-size="134.0" fill="#FEFFFF" transform="matrix(1.00, 0.00, -0.00, -1.00, 600.1, 107.0)">o</text><text xml:space="preserve" font-family="billy" font-size="134.0" fill="#FEFFFF" transform="matrix(1.00, 0.00, -0.00, -1.00, 640.3, 107.0)"> </text><text xml:space="preserve" font-family="billy" font-size="134.0" fill="#FEFFFF" transform="matrix(1.00, 0.00, -0.00, -1.00, 677.3, 107.0)">p</text><text xml:space="preserve" font-family="billy" font-size="134.0" fill="#FEFFFF" transform="matrix(1.00, 0.00, -0.00, -1.00, 712.4, 107.0)">u</text><text xml:space="preserve" font-family="billy" font-size="134.0" fill="#FEFFFF" transform="matrix(1.00, 0.00, -0.00, -1.00, 749.9, 107.0)">t</text><text xml:space="preserve" font-family="billy" font-size="134.0" fill="#FEFFFF" transform="matrix(1.00, 0.00, -0.00, -1.00, 778.3, 107.0)"> </text><text xml:space="preserve" font-family="billy" font-size="134.0" fill="#FEFFFF" transform="matrix(1.00, 0.00, -0.00, -1.00, 815.3, 107.0)">y</text><text xml:space="preserve" font-family="billy" font-size="134.0" fill="#FEFFFF" transform="matrix(1.00, 0.00, -0.00, -1.00, 851.5, 107.0)">o</text><text xml:space="preserve" font-family="billy" font-size="134.0" fill="#FEFFFF" transform="matrix(1.00, 0.00, -0.00, -1.00, 894.9, 107.0)">u</text><text xml:space="preserve" font-family="billy" font-size="134.0" fill="#FEFFFF" transform="matrix(1.00, 0.00, -0.00, -1.00, 932.0, 107.0)">r</text><text xml:space="preserve" font-family="billy" font-size="134.0" fill="#FEFFFF" transform="matrix(1.00, 0.00, -0.00, -1.00, 965.5, 107.0)"> </text><text xml:space="preserve" font-family="billy" font-size="134.0" fill="#FEFFFF" transform="matrix(1.00, 0.00, -0.00, -1.00, 1002.5, 107.0)">s</text><text xml:space="preserve" font-family="billy" font-size="134.0" fill="#FEFFFF" transform="matrix(1.00, 0.00, -0.00, -1.00, 1031.5, 107.0)">e</text><text xml:space="preserve" font-family="billy" font-size="134.0" fill="#FEFFFF" transform="matrix(1.00, 0.00, -0.00, -1.00, 1067.5, 107.0)">l</text><text xml:space="preserve" font-family="billy" font-size="134.0" fill="#FEFFFF" transform="matrix(1.00, 0.00, -0.00, -1.00, 1082.9, 107.0)">f</text><text xml:space="preserve" font-family="billy" font-size="134.0" fill="#FEFFFF" transform="matrix(1.00, 0.00, -0.00, -1.00, 1112.7, 107.0)"> </text><text xml:space="preserve" font-family="billy" font-size="134.0" fill="#FEFFFF" transform="matrix(1.00, 0.00, -0.00, -1.00, 1149.6, 107.0)">i</text><text xml:space="preserve" font-family="billy" font-size="134.0" fill="#FEFFFF" transform="matrix(1.00, 0.00, -0.00, -1.00, 1166.1, 107.0)">n</text><text xml:space="preserve" font-family="billy" font-size="134.0" fill="#FEFFFF" transform="matrix(1.00, 0.00, -0.00, -1.00, 1202.0, 107.0)"> </text><text xml:space="preserve" font-family="billy" font-size="134.0" fill="#FEFFFF" transform="matrix(1.00, 0.00, -0.00, -1.00, 92.0, 7.0)">t</text><text xml:space="preserve" font-family="billy" font-size="134.0" fill="#FEFFFF" transform="matrix(1.00, 0.00, -0.00, -1.00, 120.4, 7.0)">h</text><text xml:space="preserve" font-family="billy" font-size="134.0" fill="#FEFFFF" transform="matrix(1.00, 0.00, -0.00, -1.00, 155.4, 7.0)">e</text><text xml:space="preserve" font-family="billy" font-size="134.0" fill="#FEFFFF" transform="matrix(1.00, 0.00, -0.00, -1.00, 187.5, 7.0)"> </text><text xml:space="preserve" font-family="billy" font-size="134.0" fill="#FEFFFF" transform="matrix(1.00, 0.00, -0.00, -1.00, 224.5, 7.0)">s</text><text xml:space="preserve" font-family="billy" font-size="134.0" fill="#FEFFFF" transform="matrix(1.00, 0.00, -0.00, -1.00, 255.7, 7.0)">h</text><text xml:space="preserve" font-family="billy" font-size="134.0" fill="#FEFFFF" transform="matrix(1.00, 0.00, -0.00, -1.00, 289.6, 7.0)">o</text><text xml:space="preserve" font-family="billy" font-size="134.0" fill="#FEFFFF" transform="matrix(1.00, 0.00, -0.00, -1.00, 329.9, 7.0)">e</text><text xml:space="preserve" font-family="billy" font-size="134.0" fill="#FEFFFF" transform="matrix(1.00, 0.00, -0.00, -1.00, 362.0, 7.0)">s</text><text xml:space="preserve" font-family="billy" font-size="134.0" fill="#FEFFFF" transform="matrix(1.00, 0.00, -0.00, -1.00, 391.0, 7.0)"> </text><text xml:space="preserve" font-family="billy" font-size="134.0" fill="#FEFFFF" transform="matrix(1.00, 0.00, -0.00, -1.00, 427.9, 7.0)">o</text><text xml:space="preserve" font-family="billy" font-size="134.0" fill="#FEFFFF" transform="matrix(1.00, 0.00, -0.00, -1.00, 470.0, 7.0)">f</text><text xml:space="preserve" font-family="billy" font-size="134.0" fill="#FEFFFF" transform="matrix(1.00, 0.00, -0.00, -1.00, 499.8, 7.0)"> </text><text xml:space="preserve" font-family="billy" font-size="134.0" fill="#FEFFFF" transform="matrix(1.00, 0.00, -0.00, -1.00, 536.7, 7.0)">t</text><text xml:space="preserve" font-family="billy" font-size="134.0" fill="#FEFFFF" transform="matrix(1.00, 0.00, -0.00, -1.00, 565.2, 7.0)">h</text><text xml:space="preserve" font-family="billy" font-size="134.0" fill="#FEFFFF" transform="matrix(1.00, 0.00, -0.00, -1.00, 600.1, 7.0)">e</text><text xml:space="preserve" font-family="billy" font-size="134.0" fill="#FEFFFF" transform="matrix(1.00, 0.00, -0.00, -1.00, 632.3, 7.0)"> </text><text xml:space="preserve" font-family="billy" font-size="134.0" fill="#FEFFFF" transform="matrix(1.00, 0.00, -0.00, -1.00, 669.3, 7.0)">o</text><text xml:space="preserve" font-family="billy" font-size="134.0" fill="#FEFFFF" transform="matrix(1.00, 0.00, -0.00, -1.00, 711.5, 7.0)">t</text><text xml:space="preserve" font-family="billy" font-size="134.0" fill="#FEFFFF" transform="matrix(1.00, 0.00, -0.00, -1.00, 739.9, 7.0)">h</text><text xml:space="preserve" font-family="billy" font-size="134.0" fill="#FEFFFF" transform="matrix(1.00, 0.00, -0.00, -1.00, 774.9, 7.0)">e</text><text xml:space="preserve" font-family="billy" font-size="134.0" fill="#FEFFFF" transform="matrix(1.00, 0.00, -0.00, -1.00, 811.7, 7.0)">r</text><text xml:space="preserve" font-family="billy" font-size="134.0" fill="#FEFFFF" transform="matrix(1.00, 0.00, -0.00, -1.00, 845.2, 7.0)"> </text><text xml:space="preserve" font-family="billy" font-size="134.0" fill="#FEFFFF" transform="matrix(1.00, 0.00, -0.00, -1.00, 882.2, 7.0)">p</text><text xml:space="preserve" font-family="billy" font-size="134.0" fill="#FEFFFF" transform="matrix(1.00, 0.00, -0.00, -1.00, 917.7, 7.0)">e</text><text xml:space="preserve" font-family="billy" font-size="134.0" fill="#FEFFFF" transform="matrix(1.00, 0.00, -0.00, -1.00, 954.6, 7.0)">r</text><text xml:space="preserve" font-family="billy" font-size="134.0" fill="#FEFFFF" transform="matrix(1.00, 0.00, -0.00, -1.00, 988.1, 7.0)">s</text><text xml:space="preserve" font-family="billy" font-size="134.0" fill="#FEFFFF" transform="matrix(1.00, 0.00, -0.00, -1.00, 1017.0, 7.0)">o</text><text xml:space="preserve" font-family="billy" font-size="134.0" fill="#FEFFFF" transform="matrix(1.00, 0.00, -0.00, -1.00, 1060.4, 7.0)">n</text><text xml:space="preserve" font-family="billy" font-size="134.0" fill="#FEFFFF" transform="matrix(1.00, 0.00, -0.00, -1.00, 1099.8, 7.0)">.</text></g></svg>