<?xml version="1.0" encoding="UTF-8" standalone="no"?><svg xmlns="http://www.w3.org/2000/svg" xmlns:xlink="http://www.w3.org/1999/xlink" clip-rule="evenodd" stroke-miterlimit="4.00" viewBox="0 0 1920 1080"><desc>SVG generated by Keynote</desc><defs></defs><g transform="matrix(1.00, 0.00, -0.00, -1.00, 0.0, 1080.0)"><path d="M 0.0 1080.0 L 1920.0 1080.0 L 1920.0 0.0 L 0.0 0.0 Z M 0.0 1080.0 " fill="#FEFFFF"></path><g><clipPath id="clip-0"><path d="M 0.0 1080.0 L 1920.0 1080.0 L 1920.0 0.0 L 0.0 0.0 Z M 0.1 1080.0 "></path></clipPath><g clip-path="url(#clip-0)"><image xlink:href="272ED392ED83FA69DCFB00F15FF997A9.jpeg" width="1152.00" height="767.00" transform="matrix(2.36, 0.00, -0.00, -2.36, 0.0, 1191.0)"></image></g></g><path d="M 0.0 0.0 L 1858.0 0.0 L 1858.0 1025.6 L 0.0 1025.6 Z M 0.0 0.0 " fill="none" stroke="#000000" stroke-width="16.00" transform="matrix(1.00, 0.00, 0.00, -1.00, 31.0, 1052.8)"></path><text xml:space="preserve" font-family="Bebas" font-size="71.0" fill="#000000" transform="matrix(1.00, 0.00, -0.00, -1.00, 220.0, 557.0)">C</text><text xml:space="preserve" font-family="Bebas" font-size="71.0" fill="#000000" transform="matrix(1.00, 0.00, -0.00, -1.00, 279.2, 557.0)">o</text><text xml:space="preserve" font-family="Bebas" font-size="71.0" fill="#000000" transform="matrix(1.00, 0.00, -0.00, -1.00, 339.0, 557.0)">n</text><text xml:space="preserve" font-family="Bebas" font-size="71.0" fill="#000000" transform="matrix(1.00, 0.00, -0.00, -1.00, 401.8, 557.0)">d</text><text xml:space="preserve" font-family="Bebas" font-size="71.0" fill="#000000" transform="matrix(1.00, 0.00, -0.00, -1.00, 461.2, 557.0)">o</text><text xml:space="preserve" font-family="Bebas" font-size="71.0" fill="#000000" transform="matrix(1.00, 0.00, -0.00, -1.00, 521.2, 557.0)">r</text><text xml:space="preserve" font-family="Bebas" font-size="71.0" fill="#000000" transform="matrix(1.00, 0.00, -0.00, -1.00, 581.0, 557.0)"> </text><text xml:space="preserve" font-family="Bebas" font-size="71.0" fill="#000000" transform="matrix(1.00, 0.00, -0.00, -1.00, 608.8, 557.0)">V</text><text xml:space="preserve" font-family="Bebas" font-size="71.0" fill="#000000" transform="matrix(1.00, 0.00, -0.00, -1.00, 664.0, 557.0)">a</text><text xml:space="preserve" font-family="Bebas" font-size="71.0" fill="#000000" transform="matrix(1.00, 0.00, -0.00, -1.00, 727.8, 557.0)">l</text><text xml:space="preserve" font-family="Bebas" font-size="71.0" fill="#000000" transform="matrix(1.00, 0.00, -0.00, -1.00, 781.6, 557.0)">l</text><text xml:space="preserve" font-family="Bebas" font-size="71.0" fill="#000000" transform="matrix(1.00, 0.00, -0.00, -1.00, 835.5, 557.0)">e</text><text xml:space="preserve" font-family="Bebas" font-size="71.0" fill="#000000" transform="matrix(1.00, 0.00, -0.00, -1.00, 890.5, 557.0)">y</text><text xml:space="preserve" font-family="CerebriSans-Light" font-size="40.0" fill="#000000" transform="matrix(1.00, 0.00, -0.00, -1.00, 461.0, 487.0)">B</text><text xml:space="preserve" font-family="CerebriSans-Light" font-size="40.0" fill="#000000" transform="matrix(1.00, 0.00, -0.00, -1.00, 485.7, 487.0)">R</text><text xml:space="preserve" font-family="CerebriSans-Light" font-size="40.0" fill="#000000" transform="matrix(1.00, 0.00, -0.00, -1.00, 510.3, 487.0)">A</text><text xml:space="preserve" font-family="CerebriSans-Light" font-size="40.0" fill="#000000" transform="matrix(1.00, 0.00, -0.00, -1.00, 536.3, 487.0)">N</text><text xml:space="preserve" font-family="CerebriSans-Light" font-size="40.0" fill="#000000" transform="matrix(1.00, 0.00, -0.00, -1.00, 566.3, 487.0)">D</text><text xml:space="preserve" font-family="CerebriSans-Light" font-size="50.0" fill="#000000" transform="matrix(1.00, 0.00, -0.00, -1.00, 594.4, 487.0)"> </text><text xml:space="preserve" font-family="CerebriSans-Light" font-size="40.0" fill="#000000" transform="matrix(1.00, 0.00, -0.00, -1.00, 609.7, 487.0)">B</text><text xml:space="preserve" font-family="CerebriSans-Light" font-size="40.0" fill="#000000" transform="matrix(1.00, 0.00, -0.00, -1.00, 634.4, 487.0)">R</text><text xml:space="preserve" font-family="CerebriSans-Light" font-size="40.0" fill="#000000" transform="matrix(1.00, 0.00, -0.00, -1.00, 658.9, 487.0)">I</text><text xml:space="preserve" font-family="CerebriSans-Light" font-size="40.0" fill="#000000" transform="matrix(1.00, 0.00, -0.00, -1.00, 670.7, 487.0)">E</text><text xml:space="preserve" font-family="CerebriSans-Light" font-size="40.0" fill="#000000" transform="matrix(1.00, 0.00, -0.00, -1.00, 691.8, 487.0)">F</text><text xml:space="preserve" font-family="CerebriSans-Light" font-size="40.0" fill="#000000" transform="matrix(1.00, 0.00, -0.00, -1.00, 722.0, 75.0)">C</text><text xml:space="preserve" font-family="CerebriSans-Light" font-size="40.0" fill="#000000" transform="matrix(1.00, 0.00, -0.00, -1.00, 751.7, 75.0)">R</text><text xml:space="preserve" font-family="CerebriSans-Light" font-size="40.0" fill="#000000" transform="matrix(1.00, 0.00, -0.00, -1.00, 776.2, 75.0)">A</text><text xml:space="preserve" font-family="CerebriSans-Light" font-size="40.0" fill="#000000" transform="matrix(1.00, 0.00, -0.00, -1.00, 802.3, 75.0)">F</text><text xml:space="preserve" font-family="CerebriSans-Light" font-size="40.0" fill="#000000" transform="matrix(1.00, 0.00, -0.00, -1.00, 822.7, 75.0)">T</text><text xml:space="preserve" font-family="CerebriSans-Light" font-size="40.0" fill="#000000" transform="matrix(1.00, 0.00, -0.00, -1.00, 842.2, 75.0)">E</text><text xml:space="preserve" font-family="CerebriSans-Light" font-size="40.0" fill="#000000" transform="matrix(1.00, 0.00, -0.00, -1.00, 863.3, 75.0)">D</text><text xml:space="preserve" font-family="CerebriSans-Light" font-size="50.0" fill="#000000" transform="matrix(1.00, 0.00, -0.00, -1.00, 891.4, 75.0)"> </text><text xml:space="preserve" font-family="CerebriSans-Light" font-size="40.0" fill="#000000" transform="matrix(1.00, 0.00, -0.00, -1.00, 906.6, 75.0)">B</text><text xml:space="preserve" font-family="CerebriSans-Light" font-size="40.0" fill="#000000" transform="matrix(1.00, 0.00, -0.00, -1.00, 929.0, 75.0)">Y</text><text xml:space="preserve" font-family="CerebriSans-Light" font-size="50.0" fill="#000000" transform="matrix(1.00, 0.00, -0.00, -1.00, 951.8, 75.0)"> </text><text xml:space="preserve" font-family="CerebriSans-Light" font-size="40.0" fill="#000000" transform="matrix(1.00, 0.00, -0.00, -1.00, 967.1, 75.0)">P</text><text xml:space="preserve" font-family="CerebriSans-Light" font-size="40.0" fill="#000000" transform="matrix(1.00, 0.00, -0.00, -1.00, 991.6, 75.0)">H</text><text xml:space="preserve" font-family="CerebriSans-Light" font-size="40.0" fill="#000000" transform="matrix(1.00, 0.00, -0.00, -1.00, 1020.6, 75.0)">I</text><text xml:space="preserve" font-family="CerebriSans-Light" font-size="40.0" fill="#000000" transform="matrix(1.00, 0.00, -0.00, -1.00, 1032.4, 75.0)">L</text><text xml:space="preserve" font-family="CerebriSans-Light" font-size="40.0" fill="#000000" transform="matrix(1.00, 0.00, -0.00, -1.00, 1050.4, 75.0)">W</text><text xml:space="preserve" font-family="CerebriSans-Light" font-size="40.0" fill="#000000" transform="matrix(1.00, 0.00, -0.00, -1.00, 1089.4, 75.0)">E</text><text xml:space="preserve" font-family="CerebriSans-Light" font-size="40.0" fill="#000000" transform="matrix(1.00, 0.00, -0.00, -1.00, 1110.4, 75.0)">I</text><text xml:space="preserve" font-family="CerebriSans-Light" font-size="40.0" fill="#000000" transform="matrix(1.00, 0.00, -0.00, -1.00, 1122.2, 75.0)">N</text><text xml:space="preserve" font-family="CerebriSans-Light" font-size="40.0" fill="#000000" transform="matrix(1.00, 0.00, -0.00, -1.00, 1152.2, 75.0)">E</text><text xml:space="preserve" font-family="CerebriSans-Light" font-size="40.0" fill="#000000" transform="matrix(1.00, 0.00, -0.00, -1.00, 1173.3, 75.0)">R</text><text xml:space="preserve" font-family="CerebriSans-Light" font-size="24.0" fill="#000000" transform="matrix(1.00, 0.00, -0.00, -1.00, 876.0, 1004.0)">C</text><text xml:space="preserve" font-family="CerebriSans-Light" font-size="24.0" fill="#000000" transform="matrix(1.00, 0.00, -0.00, -1.00, 893.8, 1004.0)">O</text><text xml:space="preserve" font-family="CerebriSans-Light" font-size="24.0" fill="#000000" transform="matrix(1.00, 0.00, -0.00, -1.00, 913.1, 1004.0)">N</text><text xml:space="preserve" font-family="CerebriSans-Light" font-size="24.0" fill="#000000" transform="matrix(1.00, 0.00, -0.00, -1.00, 931.0, 1004.0)">F</text><text xml:space="preserve" font-family="CerebriSans-Light" font-size="24.0" fill="#000000" transform="matrix(1.00, 0.00, -0.00, -1.00, 943.3, 1004.0)">I</text><text xml:space="preserve" font-family="CerebriSans-Light" font-size="24.0" fill="#000000" transform="matrix(1.00, 0.00, -0.00, -1.00, 950.4, 1004.0)">D</text><text xml:space="preserve" font-family="CerebriSans-Light" font-size="24.0" fill="#000000" transform="matrix(1.00, 0.00, -0.00, -1.00, 967.2, 1004.0)">E</text><text xml:space="preserve" font-family="CerebriSans-Light" font-size="24.0" fill="#000000" transform="matrix(1.00, 0.00, -0.00, -1.00, 979.9, 1004.0)">N</text><text xml:space="preserve" font-family="CerebriSans-Light" font-size="24.0" fill="#000000" transform="matrix(1.00, 0.00, -0.00, -1.00, 997.9, 1004.0)">T</text><text xml:space="preserve" font-family="CerebriSans-Light" font-size="24.0" fill="#000000" transform="matrix(1.00, 0.00, -0.00, -1.00, 1009.6, 1004.0)">I</text><text xml:space="preserve" font-family="CerebriSans-Light" font-size="24.0" fill="#000000" transform="matrix(1.00, 0.00, -0.00, -1.00, 1016.6, 1004.0)">A</text><text xml:space="preserve" font-family="CerebriSans-Light" font-size="24.0" fill="#000000" transform="matrix(1.00, 0.00, -0.00, -1.00, 1032.2, 1004.0)">L</text></g></svg>