<?xml version="1.0" encoding="UTF-8" standalone="no"?><svg xmlns="http://www.w3.org/2000/svg" xmlns:xlink="http://www.w3.org/1999/xlink" clip-rule="evenodd" stroke-miterlimit="4.00" viewBox="0 0 229 236"><desc>SVG generated by Keynote</desc><defs></defs><g transform="matrix(1.00, 0.00, -0.00, -1.00, 0.0, 236.0)"><g><clipPath id="clip-222"><path d="M -16.9 247.4 L 242.1 247.4 L 242.1 -11.2 L -16.9 -11.2 Z M -16.9 247.4 "></path></clipPath><g clip-path="url(#clip-222)"><g><clipPath id="clip-223"><path d="M 1.0 2.0 L 227.0 2.0 L 227.0 234.0 L 1.0 234.0 Z M 1.0 2.0 "></path></clipPath><g clip-path="url(#clip-223)"><path d="M 189.4 209.7 C 131.4 257.7 47.7 229.9 14.7 167.0 C -3.6 132.1 -2.5 89.3 11.6 53.3 C 22.4 25.4 51.1 -10.3 84.6 6.2 C 92.1 9.9 85.5 21.1 78.1 17.4 C 59.7 8.3 41.9 25.8 32.5 39.9 C 21.8 56.0 16.4 76.5 14.5 95.6 C 10.7 131.9 23.7 167.2 49.8 192.5 C 102.3 243.4 195.2 222.7 212.0 149.1 C 216.2 131.1 213.9 112.0 209.3 94.4 C 204.8 76.6 196.2 53.1 180.5 42.2 C 166.8 32.6 143.9 35.1 128.1 36.7 C 107.8 38.7 90.6 48.2 80.6 66.2 C 62.1 99.3 84.7 137.3 117.4 149.3 C 128.9 153.6 139.0 152.7 145.7 141.5 C 151.5 131.8 154.3 120.5 152.5 109.3 C 150.8 99.2 142.0 90.9 131.9 90.0 C 126.4 89.5 121.7 93.7 118.9 97.8 C 113.9 104.8 121.1 107.4 126.2 110.1 C 127.5 110.8 128.7 111.5 130.0 112.2 C 137.3 116.2 130.8 127.3 123.4 123.4 C 110.8 116.4 102.6 114.2 104.7 98.6 C 106.1 87.9 118.3 78.1 128.7 77.3 C 160.3 74.8 170.4 110.0 162.9 134.6 C 159.8 144.7 152.7 159.6 141.7 163.1 C 127.2 167.9 112.1 162.2 99.3 155.2 C 74.7 141.7 59.8 114.7 61.5 87.0 C 63.2 57.9 83.4 35.7 110.4 27.1 C 136.8 18.8 177.0 18.1 197.2 39.7 C 218.2 62.1 227.0 100.5 227.0 130.2 C 227.0 161.2 213.2 190.1 189.4 209.7 " fill="#FFFFFF"></path></g></g></g></g></g></svg>