<?xml version="1.0" encoding="UTF-8" standalone="no"?><svg xmlns="http://www.w3.org/2000/svg" xmlns:xlink="http://www.w3.org/1999/xlink" clip-rule="evenodd" stroke-miterlimit="4.00" viewBox="0 0 1920 1080"><desc>SVG generated by Keynote</desc><defs></defs><g transform="matrix(1.00, 0.00, -0.00, -1.00, 0.0, 1080.0)"><path d="M 0.0 1080.0 L 1920.0 1080.0 L 1920.0 0.0 L 0.0 0.0 Z M 0.0 1080.0 " fill="#432754"></path><g opacity="0.16"><g><clipPath id="clip-224"><path d="M 0.0 1080.0 L 1920.0 1080.0 L 1920.0 0.0 L 0.0 0.0 Z M 0.0 1080.0 "></path></clipPath><g clip-path="url(#clip-224)"><g><clipPath id="clip-225"><path d="M 0.0 0.0 L 1920.0 0.0 L 1920.0 1080.0 L 0.0 1080.0 Z M 0.0 0.0 "></path></clipPath><g clip-path="url(#clip-225)"><image xlink:href="../../BEDC1035-ABF5-44BF-BD05-D32B7C0E5D0E/assets/9133CD8A2C4155892E6E5E32D923530C.jpeg" width="1153.00" height="768.00" transform="matrix(1.67, 0.00, -0.00, -1.67, 0.0, 1180.0)"></image></g></g></g></g></g><g><clipPath id="clip-226"><path d="M 827.1 885.4 L 1086.1 885.4 L 1086.1 626.8 L 827.1 626.8 Z M 827.1 885.4 "></path></clipPath><g clip-path="url(#clip-226)"><g><clipPath id="clip-227"><path d="M 845.0 640.0 L 1071.0 640.0 L 1071.0 872.0 L 845.0 872.0 Z M 845.0 640.0 "></path></clipPath><g clip-path="url(#clip-227)"><path d="M 1033.4 847.7 C 975.4 895.7 891.7 867.9 858.7 805.0 C 840.4 770.1 841.5 727.3 855.6 691.3 C 866.4 663.4 895.1 627.7 928.6 644.2 C 936.1 647.9 929.5 659.1 922.1 655.4 C 903.7 646.3 885.9 663.8 876.5 677.9 C 865.8 694.0 860.4 714.5 858.5 733.6 C 854.7 769.9 867.7 805.2 893.8 830.5 C 946.3 881.4 1039.2 860.7 1056.0 787.1 C 1060.2 769.1 1057.9 750.0 1053.3 732.4 C 1048.8 714.6 1040.2 691.1 1024.5 680.2 C 1010.8 670.6 987.9 673.1 972.1 674.7 C 951.8 676.7 934.6 686.2 924.6 704.2 C 906.1 737.3 928.7 775.3 961.4 787.3 C 972.9 791.6 983.0 790.7 989.7 779.5 C 995.5 769.8 998.3 758.5 996.5 747.3 C 994.8 737.2 986.0 728.9 975.9 728.0 C 970.4 727.5 965.7 731.7 962.9 735.8 C 957.9 742.8 965.1 745.4 970.2 748.1 C 971.5 748.8 972.7 749.5 974.0 750.2 C 981.3 754.2 974.8 765.3 967.4 761.4 C 954.8 754.4 946.6 752.2 948.7 736.6 C 950.1 725.9 962.3 716.1 972.7 715.3 C 1004.3 712.8 1014.4 748.0 1006.9 772.6 C 1003.8 782.7 996.7 797.6 985.7 801.1 C 971.2 805.9 956.1 800.2 943.3 793.2 C 918.7 779.7 903.8 752.7 905.5 725.0 C 907.2 695.9 927.4 673.7 954.4 665.1 C 980.8 656.8 1021.0 656.1 1041.2 677.7 C 1062.2 700.1 1071.0 738.5 1071.0 768.2 C 1071.0 799.2 1057.2 828.1 1033.4 847.7 " fill="#FFFFFF"></path></g></g></g></g></g></svg>