<?xml version="1.0" encoding="UTF-8" standalone="no"?><svg xmlns="http://www.w3.org/2000/svg" xmlns:xlink="http://www.w3.org/1999/xlink" clip-rule="evenodd" stroke-miterlimit="4.00" viewBox="0 0 199 211"><desc>SVG generated by Keynote</desc><defs></defs><g transform="matrix(1.00, 0.00, -0.00, -1.00, 0.0, 211.0)"><g><clipPath id="clip-233"><path d="M -12.4 217.1 L 211.6 217.1 L 211.6 -6.3 L -12.4 -6.3 Z M -12.4 217.1 "></path></clipPath><g clip-path="url(#clip-233)"><g><clipPath id="clip-234"><path d="M 1.0 2.0 L 198.0 2.0 L 198.0 209.0 L 1.0 209.0 Z M 1.0 2.0 "></path></clipPath><g clip-path="url(#clip-234)"><path d="M 130.5 159.5 C 129.8 143.6 116.4 115.0 99.4 110.6 C 99.1 110.8 98.7 111.0 98.5 111.0 C 79.2 119.3 72.3 138.3 70.0 157.7 C 68.9 167.1 68.2 177.4 72.7 185.9 C 77.4 194.6 94.2 197.5 103.0 197.7 C 122.0 198.2 131.2 175.1 130.5 159.5 M 107.2 208.4 C 95.6 210.7 82.4 206.0 72.3 200.4 C 60.9 194.4 58.2 181.0 57.9 169.1 C 57.7 143.0 66.5 112.6 92.7 101.4 C 93.8 101.0 94.9 100.7 95.8 101.0 C 96.9 99.9 98.7 99.0 100.9 99.4 C 123.1 103.7 139.0 135.6 141.2 155.7 C 143.7 178.9 131.6 203.5 107.2 208.4 " fill="#FFFFFF"></path><path d="M 186.0 25.2 C 185.6 24.6 174.4 22.6 172.6 22.1 C 148.9 15.9 124.2 13.2 99.6 12.9 C 76.3 12.9 53.2 15.6 30.6 21.0 C 25.3 22.3 19.9 23.9 14.5 25.5 C 11.6 26.4 12.7 31.9 12.7 35.5 C 12.7 47.1 15.2 58.7 19.0 69.7 C 22.8 81.1 29.5 93.2 41.2 98.1 C 51.7 102.5 60.4 94.5 68.0 88.7 C 77.2 81.8 86.4 74.6 95.6 67.5 C 96.9 66.6 98.3 66.1 99.6 66.1 C 100.9 66.1 102.3 66.3 103.6 67.5 C 112.1 74.2 120.6 80.6 129.4 87.3 C 137.0 93.2 144.4 100.5 154.7 99.2 C 166.5 97.6 173.3 85.6 177.7 75.9 C 183.1 64.8 185.6 52.0 186.3 39.8 C 186.5 36.4 187.8 27.9 186.0 25.2 M 187.4 81.5 C 178.2 103.2 156.5 118.6 134.1 104.8 C 122.0 97.2 110.8 87.6 99.6 78.6 C 88.2 87.6 77.0 96.5 65.1 104.8 C 42.9 120.4 21.2 101.6 11.8 81.5 C 6.2 69.7 3.3 56.7 2.0 43.6 C 1.3 36.9 -1.6 18.8 7.6 15.9 C 37.6 6.7 68.2 2.0 99.6 2.0 C 130.7 2.0 161.8 6.7 191.6 16.1 C 200.1 18.8 197.7 33.5 197.7 39.8 C 197.0 54.3 193.0 68.4 187.4 81.5 " fill="#FFFFFF"></path></g></g></g></g></g></svg>