<?xml version="1.0" encoding="UTF-8" standalone="no"?><svg xmlns="http://www.w3.org/2000/svg" xmlns:xlink="http://www.w3.org/1999/xlink" clip-rule="evenodd" stroke-miterlimit="4.00" viewBox="0 0 771 33"><desc>SVG generated by Keynote</desc><defs></defs><g transform="matrix(1.00, 0.00, -0.00, -1.00, 0.0, 33.0)"><text xml:space="preserve" font-family="billy" font-size="50.0" fill="#FEFFFF" transform="matrix(1.00, 0.00, -0.00, -1.00, 1.0, 2.0)">J</text><text xml:space="preserve" font-family="billy" font-size="50.0" fill="#FEFFFF" transform="matrix(1.00, 0.00, -0.00, -1.00, 13.9, 2.0)">O</text><text xml:space="preserve" font-family="billy" font-size="50.0" fill="#FEFFFF" transform="matrix(1.00, 0.00, -0.00, -1.00, 36.2, 2.0)">S</text><text xml:space="preserve" font-family="billy" font-size="50.0" fill="#FEFFFF" transform="matrix(1.00, 0.00, -0.00, -1.00, 52.9, 2.0)">E</text><text xml:space="preserve" font-family="billy" font-size="50.0" fill="#FEFFFF" transform="matrix(1.00, 0.00, -0.00, -1.00, 70.4, 2.0)"> </text><text xml:space="preserve" font-family="billy" font-size="50.0" fill="#FEFFFF" transform="matrix(1.00, 0.00, -0.00, -1.00, 84.2, 2.0)">M</text><text xml:space="preserve" font-family="billy" font-size="50.0" fill="#FEFFFF" transform="matrix(1.00, 0.00, -0.00, -1.00, 111.0, 2.0)">A</text><text xml:space="preserve" font-family="billy" font-size="50.0" fill="#FEFFFF" transform="matrix(1.00, 0.00, -0.00, -1.00, 129.5, 2.0)">R</text><text xml:space="preserve" font-family="billy" font-size="50.0" fill="#FEFFFF" transform="matrix(1.00, 0.00, -0.00, -1.00, 144.3, 2.0)">I</text><text xml:space="preserve" font-family="billy" font-size="50.0" fill="#FEFFFF" transform="matrix(1.00, 0.00, -0.00, -1.00, 149.2, 2.0)">A</text><text xml:space="preserve" font-family="billy" font-size="50.0" fill="#FEFFFF" transform="matrix(1.00, 0.00, -0.00, -1.00, 167.8, 2.0)"> </text><text xml:space="preserve" font-family="billy" font-size="50.0" fill="#FEFFFF" transform="matrix(1.00, 0.00, -0.00, -1.00, 181.6, 2.0)">F</text><text xml:space="preserve" font-family="billy" font-size="50.0" fill="#FEFFFF" transform="matrix(1.00, 0.00, -0.00, -1.00, 198.6, 2.0)">I</text><text xml:space="preserve" font-family="billy" font-size="50.0" fill="#FEFFFF" transform="matrix(1.00, 0.00, -0.00, -1.00, 203.5, 2.0)">G</text><text xml:space="preserve" font-family="billy" font-size="50.0" fill="#FEFFFF" transform="matrix(1.00, 0.00, -0.00, -1.00, 222.1, 2.0)">U</text><text xml:space="preserve" font-family="billy" font-size="50.0" fill="#FEFFFF" transform="matrix(1.00, 0.00, -0.00, -1.00, 243.5, 2.0)">E</text><text xml:space="preserve" font-family="billy" font-size="50.0" fill="#FEFFFF" transform="matrix(1.00, 0.00, -0.00, -1.00, 262.2, 2.0)">R</text><text xml:space="preserve" font-family="billy" font-size="50.0" fill="#FEFFFF" transform="matrix(1.00, 0.00, -0.00, -1.00, 277.9, 2.0)">E</text><text xml:space="preserve" font-family="billy" font-size="50.0" fill="#FEFFFF" transform="matrix(1.00, 0.00, -0.00, -1.00, 294.7, 2.0)">S</text><text xml:space="preserve" font-family="billy" font-size="50.0" fill="#FEFFFF" transform="matrix(1.00, 0.00, -0.00, -1.00, 311.1, 2.0)">,</text><text xml:space="preserve" font-family="billy" font-size="50.0" fill="#FEFFFF" transform="matrix(1.00, 0.00, -0.00, -1.00, 315.4, 2.0)"> </text><text xml:space="preserve" font-family="billy" font-size="50.0" fill="#FEFFFF" transform="matrix(1.00, 0.00, -0.00, -1.00, 329.2, 2.0)">F</text><text xml:space="preserve" font-family="billy" font-size="50.0" fill="#FEFFFF" transform="matrix(1.00, 0.00, -0.00, -1.00, 346.2, 2.0)">M</text><text xml:space="preserve" font-family="billy" font-size="50.0" fill="#FEFFFF" transform="matrix(1.00, 0.00, -0.00, -1.00, 372.2, 2.0)">R</text><text xml:space="preserve" font-family="billy" font-size="50.0" fill="#FEFFFF" transform="matrix(1.00, 0.00, -0.00, -1.00, 386.2, 2.0)"> </text><text xml:space="preserve" font-family="billy" font-size="50.0" fill="#FEFFFF" transform="matrix(1.00, 0.00, -0.00, -1.00, 400.1, 2.0)">P</text><text xml:space="preserve" font-family="billy" font-size="50.0" fill="#FEFFFF" transform="matrix(1.00, 0.00, -0.00, -1.00, 414.2, 2.0)">R</text><text xml:space="preserve" font-family="billy" font-size="50.0" fill="#FEFFFF" transform="matrix(1.00, 0.00, -0.00, -1.00, 429.9, 2.0)">E</text><text xml:space="preserve" font-family="billy" font-size="50.0" fill="#FEFFFF" transform="matrix(1.00, 0.00, -0.00, -1.00, 446.8, 2.0)">S</text><text xml:space="preserve" font-family="billy" font-size="50.0" fill="#FEFFFF" transform="matrix(1.00, 0.00, -0.00, -1.00, 463.2, 2.0)">I</text><text xml:space="preserve" font-family="billy" font-size="50.0" fill="#FEFFFF" transform="matrix(1.00, 0.00, -0.00, -1.00, 469.2, 2.0)">D</text><text xml:space="preserve" font-family="billy" font-size="50.0" fill="#FEFFFF" transform="matrix(1.00, 0.00, -0.00, -1.00, 487.7, 2.0)">E</text><text xml:space="preserve" font-family="billy" font-size="50.0" fill="#FEFFFF" transform="matrix(1.00, 0.00, -0.00, -1.00, 506.8, 2.0)">N</text><text xml:space="preserve" font-family="billy" font-size="50.0" fill="#FEFFFF" transform="matrix(1.00, 0.00, -0.00, -1.00, 528.7, 2.0)">T</text><text xml:space="preserve" font-family="billy" font-size="50.0" fill="#FEFFFF" transform="matrix(1.00, 0.00, -0.00, -1.00, 543.7, 2.0)"> </text><text xml:space="preserve" font-family="billy" font-size="50.0" fill="#FEFFFF" transform="matrix(1.00, 0.00, -0.00, -1.00, 557.5, 2.0)">O</text><text xml:space="preserve" font-family="billy" font-size="50.0" fill="#FEFFFF" transform="matrix(1.00, 0.00, -0.00, -1.00, 580.6, 2.0)">F</text><text xml:space="preserve" font-family="billy" font-size="50.0" fill="#FEFFFF" transform="matrix(1.00, 0.00, -0.00, -1.00, 596.5, 2.0)"> </text><text xml:space="preserve" font-family="billy" font-size="50.0" fill="#FEFFFF" transform="matrix(1.00, 0.00, -0.00, -1.00, 610.3, 2.0)">C</text><text xml:space="preserve" font-family="billy" font-size="50.0" fill="#FEFFFF" transform="matrix(1.00, 0.00, -0.00, -1.00, 626.0, 2.0)">O</text><text xml:space="preserve" font-family="billy" font-size="50.0" fill="#FEFFFF" transform="matrix(1.00, 0.00, -0.00, -1.00, 648.4, 2.0)">S</text><text xml:space="preserve" font-family="billy" font-size="50.0" fill="#FEFFFF" transform="matrix(1.00, 0.00, -0.00, -1.00, 665.9, 2.0)">T</text><text xml:space="preserve" font-family="billy" font-size="50.0" fill="#FEFFFF" transform="matrix(1.00, 0.00, -0.00, -1.00, 679.2, 2.0)">A</text><text xml:space="preserve" font-family="billy" font-size="50.0" fill="#FEFFFF" transform="matrix(1.00, 0.00, -0.00, -1.00, 697.7, 2.0)"> </text><text xml:space="preserve" font-family="billy" font-size="50.0" fill="#FEFFFF" transform="matrix(1.00, 0.00, -0.00, -1.00, 711.5, 2.0)">R</text><text xml:space="preserve" font-family="billy" font-size="50.0" fill="#FEFFFF" transform="matrix(1.00, 0.00, -0.00, -1.00, 726.4, 2.0)">I</text><text xml:space="preserve" font-family="billy" font-size="50.0" fill="#FEFFFF" transform="matrix(1.00, 0.00, -0.00, -1.00, 732.7, 2.0)">C</text><text xml:space="preserve" font-family="billy" font-size="50.0" fill="#FEFFFF" transform="matrix(1.00, 0.00, -0.00, -1.00, 749.9, 2.0)">A</text></g></svg>