<?xml version="1.0" encoding="UTF-8" standalone="no"?><svg xmlns="http://www.w3.org/2000/svg" xmlns:xlink="http://www.w3.org/1999/xlink" clip-rule="evenodd" stroke-miterlimit="4.00" viewBox="0 0 754 184"><desc>SVG generated by Keynote</desc><defs></defs><g transform="matrix(1.00, 0.00, -0.00, -1.00, 0.0, 184.0)"><text xml:space="preserve" font-family="billy" font-size="134.0" fill="#FEFFFF" transform="matrix(1.00, 0.00, -0.00, -1.00, 6.0, 107.0)">W</text><text xml:space="preserve" font-family="billy" font-size="134.0" fill="#FEFFFF" transform="matrix(1.00, 0.00, -0.00, -1.00, 66.2, 107.0)">e</text><text xml:space="preserve" font-family="billy" font-size="134.0" fill="#FEFFFF" transform="matrix(1.00, 0.00, -0.00, -1.00, 98.3, 107.0)"> </text><text xml:space="preserve" font-family="billy" font-size="134.0" fill="#FEFFFF" transform="matrix(1.00, 0.00, -0.00, -1.00, 135.3, 107.0)">b</text><text xml:space="preserve" font-family="billy" font-size="134.0" fill="#FEFFFF" transform="matrix(1.00, 0.00, -0.00, -1.00, 171.8, 107.0)">o</text><text xml:space="preserve" font-family="billy" font-size="134.0" fill="#FEFFFF" transform="matrix(1.00, 0.00, -0.00, -1.00, 214.0, 107.0)">t</text><text xml:space="preserve" font-family="billy" font-size="134.0" fill="#FEFFFF" transform="matrix(1.00, 0.00, -0.00, -1.00, 242.4, 107.0)">h</text><text xml:space="preserve" font-family="billy" font-size="134.0" fill="#FEFFFF" transform="matrix(1.00, 0.00, -0.00, -1.00, 274.3, 107.0)"> </text><text xml:space="preserve" font-family="billy" font-size="134.0" fill="#FEFFFF" transform="matrix(1.00, 0.00, -0.00, -1.00, 311.3, 107.0)">l</text><text xml:space="preserve" font-family="billy" font-size="134.0" fill="#FEFFFF" transform="matrix(1.00, 0.00, -0.00, -1.00, 329.1, 107.0)">i</text><text xml:space="preserve" font-family="billy" font-size="134.0" fill="#FEFFFF" transform="matrix(1.00, 0.00, -0.00, -1.00, 341.9, 107.0)">f</text><text xml:space="preserve" font-family="billy" font-size="134.0" fill="#FEFFFF" transform="matrix(1.00, 0.00, -0.00, -1.00, 371.7, 107.0)">t</text><text xml:space="preserve" font-family="billy" font-size="134.0" fill="#FEFFFF" transform="matrix(1.00, 0.00, -0.00, -1.00, 400.1, 107.0)"> </text><text xml:space="preserve" font-family="billy" font-size="134.0" fill="#FEFFFF" transform="matrix(1.00, 0.00, -0.00, -1.00, 437.1, 107.0)">e</text><text xml:space="preserve" font-family="billy" font-size="134.0" fill="#FEFFFF" transform="matrix(1.00, 0.00, -0.00, -1.00, 470.8, 107.0)">a</text><text xml:space="preserve" font-family="billy" font-size="134.0" fill="#FEFFFF" transform="matrix(1.00, 0.00, -0.00, -1.00, 506.6, 107.0)">c</text><text xml:space="preserve" font-family="billy" font-size="134.0" fill="#FEFFFF" transform="matrix(1.00, 0.00, -0.00, -1.00, 543.9, 107.0)">h</text><text xml:space="preserve" font-family="billy" font-size="134.0" fill="#FEFFFF" transform="matrix(1.00, 0.00, -0.00, -1.00, 575.8, 107.0)"> </text><text xml:space="preserve" font-family="billy" font-size="134.0" fill="#FEFFFF" transform="matrix(1.00, 0.00, -0.00, -1.00, 612.8, 107.0)">.</text><text xml:space="preserve" font-family="billy" font-size="134.0" fill="#FEFFFF" transform="matrix(1.00, 0.00, -0.00, -1.00, 622.3, 107.0)"> </text><text xml:space="preserve" font-family="billy" font-size="134.0" fill="#FEFFFF" transform="matrix(1.00, 0.00, -0.00, -1.00, 659.3, 107.0)">.</text><text xml:space="preserve" font-family="billy" font-size="134.0" fill="#FEFFFF" transform="matrix(1.00, 0.00, -0.00, -1.00, 668.8, 107.0)"> </text><text xml:space="preserve" font-family="billy" font-size="134.0" fill="#FEFFFF" transform="matrix(1.00, 0.00, -0.00, -1.00, 705.7, 107.0)">.</text><text xml:space="preserve" font-family="billy" font-size="134.0" fill="#FEFFFF" transform="matrix(1.00, 0.00, -0.00, -1.00, 715.3, 107.0)"> </text><text xml:space="preserve" font-family="billy" font-size="134.0" fill="#FEFFFF" transform="matrix(1.00, 0.00, -0.00, -1.00, 752.2, 107.0)"> </text><text xml:space="preserve" font-family="billy" font-size="134.0" fill="#FEFFFF" transform="matrix(1.00, 0.00, -0.00, -1.00, 2.0, 7.0)">w</text><text xml:space="preserve" font-family="billy" font-size="134.0" fill="#FEFFFF" transform="matrix(1.00, 0.00, -0.00, -1.00, 56.5, 7.0)">e</text><text xml:space="preserve" font-family="billy" font-size="134.0" fill="#FEFFFF" transform="matrix(1.00, 0.00, -0.00, -1.00, 88.7, 7.0)"> </text><text xml:space="preserve" font-family="billy" font-size="134.0" fill="#FEFFFF" transform="matrix(1.00, 0.00, -0.00, -1.00, 125.7, 7.0)">l</text><text xml:space="preserve" font-family="billy" font-size="134.0" fill="#FEFFFF" transform="matrix(1.00, 0.00, -0.00, -1.00, 143.5, 7.0)">i</text><text xml:space="preserve" font-family="billy" font-size="134.0" fill="#FEFFFF" transform="matrix(1.00, 0.00, -0.00, -1.00, 156.4, 7.0)">f</text><text xml:space="preserve" font-family="billy" font-size="134.0" fill="#FEFFFF" transform="matrix(1.00, 0.00, -0.00, -1.00, 186.1, 7.0)">t</text><text xml:space="preserve" font-family="billy" font-size="134.0" fill="#FEFFFF" transform="matrix(1.00, 0.00, -0.00, -1.00, 214.5, 7.0)"> </text><text xml:space="preserve" font-family="billy" font-size="134.0" fill="#FEFFFF" transform="matrix(1.00, 0.00, -0.00, -1.00, 251.5, 7.0)">e</text><text xml:space="preserve" font-family="billy" font-size="134.0" fill="#FEFFFF" transform="matrix(1.00, 0.00, -0.00, -1.00, 285.3, 7.0)">a</text><text xml:space="preserve" font-family="billy" font-size="134.0" fill="#FEFFFF" transform="matrix(1.00, 0.00, -0.00, -1.00, 321.1, 7.0)">c</text><text xml:space="preserve" font-family="billy" font-size="134.0" fill="#FEFFFF" transform="matrix(1.00, 0.00, -0.00, -1.00, 358.3, 7.0)">h</text><text xml:space="preserve" font-family="billy" font-size="134.0" fill="#FEFFFF" transform="matrix(1.00, 0.00, -0.00, -1.00, 390.2, 7.0)"> </text><text xml:space="preserve" font-family="billy" font-size="134.0" fill="#FEFFFF" transform="matrix(1.00, 0.00, -0.00, -1.00, 427.2, 7.0)">o</text><text xml:space="preserve" font-family="billy" font-size="134.0" fill="#FEFFFF" transform="matrix(1.00, 0.00, -0.00, -1.00, 469.4, 7.0)">t</text><text xml:space="preserve" font-family="billy" font-size="134.0" fill="#FEFFFF" transform="matrix(1.00, 0.00, -0.00, -1.00, 497.8, 7.0)">h</text><text xml:space="preserve" font-family="billy" font-size="134.0" fill="#FEFFFF" transform="matrix(1.00, 0.00, -0.00, -1.00, 532.8, 7.0)">e</text><text xml:space="preserve" font-family="billy" font-size="134.0" fill="#FEFFFF" transform="matrix(1.00, 0.00, -0.00, -1.00, 569.6, 7.0)">r</text><text xml:space="preserve" font-family="billy" font-size="134.0" fill="#FEFFFF" transform="matrix(1.00, 0.00, -0.00, -1.00, 603.1, 7.0)"> </text><text xml:space="preserve" font-family="billy" font-size="134.0" fill="#FEFFFF" transform="matrix(1.00, 0.00, -0.00, -1.00, 640.1, 7.0)">u</text><text xml:space="preserve" font-family="billy" font-size="134.0" fill="#FEFFFF" transform="matrix(1.00, 0.00, -0.00, -1.00, 676.0, 7.0)">p</text><text xml:space="preserve" font-family="billy" font-size="134.0" fill="#FEFFFF" transform="matrix(1.00, 0.00, -0.00, -1.00, 708.4, 7.0)">.</text></g></svg>