<?xml version="1.0" encoding="UTF-8" standalone="no"?><svg xmlns="http://www.w3.org/2000/svg" xmlns:xlink="http://www.w3.org/1999/xlink" clip-rule="evenodd" stroke-miterlimit="4.00" viewBox="0 0 106 94"><desc>SVG generated by Keynote</desc><defs></defs><g transform="matrix(1.00, 0.00, -0.00, -1.00, 0.0, 94.0)"><g><clipPath id="clip-208"><path d="M 2.0 92.0 L 105.0 92.0 L 105.0 1.0 L 2.0 1.0 Z M 2.0 92.0 "></path></clipPath><g clip-path="url(#clip-208)"><g><clipPath id="clip-209"><path d="M 2.0 1.0 L 105.0 1.0 L 105.0 92.0 L 2.0 92.0 Z M 2.0 1.0 "></path></clipPath><g clip-path="url(#clip-209)"><path d="M 41.5 47.5 C 40.2 47.5 38.8 47.7 37.5 48.1 C 37.6 48.3 37.7 48.5 37.9 48.7 C 39.6 50.9 39.8 53.4 39.7 56.1 C 39.7 58.4 36.2 58.4 36.2 56.1 C 36.3 53.3 35.8 51.8 34.1 49.6 C 31.6 51.1 29.2 53.0 27.5 54.8 C 25.9 56.4 23.5 53.9 25.0 52.3 C 26.9 50.4 29.2 48.4 31.8 46.9 C 30.9 45.9 30.0 44.8 29.2 43.8 C 27.7 42.2 30.1 39.7 31.6 41.4 C 32.8 42.6 33.9 43.9 35.1 45.2 C 37.2 44.4 39.4 43.9 41.5 44.0 C 43.8 44.2 43.8 47.7 41.5 47.5 " fill="#FFFFFF"></path><path d="M 34.3 43.7 C 34.2 43.7 34.4 43.9 34.4 44.0 C 34.5 44.0 34.4 43.8 34.3 43.7 M 42.0 46.6 C 42.0 46.5 42.2 46.4 41.9 46.3 C 42.0 46.2 42.0 46.1 42.0 46.1 C 41.9 46.0 41.8 45.9 41.8 45.8 C 41.8 45.7 41.8 45.6 41.8 45.5 C 41.7 45.4 41.7 45.4 41.6 45.3 C 41.5 45.3 41.5 45.3 41.4 45.3 C 41.3 45.3 41.1 45.2 41.0 45.2 C 40.7 45.2 40.4 45.2 40.1 45.1 C 38.7 45.5 37.5 45.5 35.6 46.4 L 34.8 46.8 L 34.1 46.1 L 34.1 46.1 C 33.0 44.7 32.3 43.9 31.1 42.7 C 31.1 42.6 31.0 42.5 30.9 42.3 C 30.9 42.3 30.8 42.1 30.8 42.1 C 30.7 42.0 30.6 41.9 30.6 41.9 C 30.5 41.9 30.3 41.9 30.1 42.1 C 29.9 42.3 29.7 42.6 29.8 42.8 C 29.8 42.9 29.8 43.0 29.9 43.1 C 29.9 43.1 30.0 43.2 30.1 43.2 L 30.2 43.4 L 30.5 43.7 C 31.2 44.6 31.8 45.4 32.5 46.2 L 33.3 47.2 L 32.3 47.7 C 31.7 48.0 31.1 48.4 30.5 48.9 C 29.6 49.3 28.9 49.7 28.2 50.5 C 27.4 51.0 26.0 51.9 25.6 52.6 C 25.5 52.7 25.5 52.8 25.4 52.8 C 25.4 52.8 25.3 52.9 25.3 52.9 C 25.2 52.9 25.2 52.9 25.1 53.0 C 25.1 53.0 25.1 53.1 25.1 53.2 C 24.9 53.2 25.0 53.4 25.0 53.5 C 25.0 53.6 25.1 53.7 24.9 53.8 C 25.1 53.9 25.1 54.0 25.2 54.1 C 25.3 54.2 25.4 54.4 25.7 54.6 C 26.0 55.0 26.7 55.1 27.2 54.7 C 27.4 54.6 27.7 54.2 28.0 54.0 C 28.3 53.7 28.6 53.4 29.0 53.1 C 30.4 51.9 32.1 50.6 34.0 49.5 L 34.2 49.4 L 34.3 49.5 C 34.8 50.2 35.3 50.9 35.7 51.7 C 36.1 52.5 36.4 53.4 36.5 54.3 C 36.5 54.8 36.5 55.2 36.5 55.7 C 36.5 56.2 36.5 56.5 36.7 56.8 C 37.1 57.5 38.0 57.6 38.6 57.3 C 39.0 57.1 39.2 56.8 39.3 56.5 C 39.3 56.4 39.3 56.3 39.3 56.3 C 39.3 56.2 39.3 56.1 39.3 56.0 L 39.3 55.3 C 39.3 54.4 39.2 53.6 39.1 52.8 C 38.7 51.1 38.0 49.7 36.9 48.6 L 36.3 47.8 L 37.2 47.5 C 38.2 47.2 39.0 47.0 39.8 46.8 C 39.8 47.0 40.3 46.9 40.7 46.8 C 41.1 46.8 41.5 46.8 41.3 47.0 C 42.1 47.1 40.6 47.1 40.9 47.3 C 40.4 47.3 40.4 47.5 40.2 47.7 C 39.2 48.0 38.7 48.4 37.7 48.9 L 38.1 47.6 C 38.3 47.8 38.4 47.9 38.6 48.1 C 39.6 49.4 40.1 50.5 40.4 51.5 C 40.6 52.6 40.8 53.5 40.9 54.6 C 40.9 55.1 40.8 55.2 40.7 55.4 C 40.8 55.5 40.8 55.7 40.8 56.0 C 40.8 56.0 40.8 56.1 40.9 56.1 C 40.8 56.2 40.8 56.3 40.8 56.4 C 40.8 56.6 40.8 56.8 40.7 57.0 C 40.6 57.2 40.6 57.4 40.4 57.6 C 40.3 57.8 40.2 58.0 40.1 58.1 C 39.8 58.4 39.5 58.6 39.3 58.8 C 38.8 59.0 38.3 59.0 37.8 59.0 C 37.3 59.0 36.8 58.9 36.3 58.7 C 36.1 58.4 35.7 58.1 35.4 57.6 C 35.1 57.2 34.9 56.6 34.9 56.1 C 35.0 56.1 35.1 55.9 35.0 55.4 C 35.0 54.3 34.8 53.5 34.6 52.8 C 34.4 52.1 34.0 51.4 33.2 50.4 L 34.7 50.7 C 34.5 50.8 34.2 51.0 33.9 51.3 C 33.4 51.5 32.7 52.0 32.3 52.2 C 32.3 52.4 31.3 53.0 30.9 53.4 C 30.2 54.0 29.5 54.6 28.8 55.2 L 28.6 55.5 L 28.4 55.6 C 28.4 55.6 28.3 55.7 28.2 55.8 C 27.9 56.0 27.5 56.3 27.1 56.4 C 26.2 56.6 25.3 56.4 24.6 55.9 C 23.9 55.3 23.4 54.4 23.5 53.2 C 23.5 52.7 23.8 52.1 24.1 51.8 C 24.3 51.5 24.4 51.4 24.6 51.3 L 25.0 51.0 C 26.0 50.0 27.1 49.1 28.2 48.4 C 28.8 47.6 29.6 47.4 30.1 47.0 C 30.6 46.8 30.9 46.4 31.3 46.1 C 31.3 46.1 31.3 46.1 31.3 46.1 L 31.1 47.5 C 30.9 47.2 30.7 46.8 30.5 46.5 C 30.0 46.0 29.6 45.5 29.1 44.9 C 28.9 44.7 28.8 44.5 28.5 44.2 C 28.3 43.9 28.1 43.6 28.1 43.2 C 27.9 42.5 28.1 41.9 28.3 41.6 C 28.4 41.4 28.5 41.4 28.5 41.4 C 28.6 41.2 28.7 41.1 28.7 41.0 C 28.8 40.9 28.8 40.8 28.8 40.8 C 29.3 40.4 29.8 40.2 30.3 40.2 C 30.9 40.1 31.4 40.4 31.9 40.7 L 32.1 40.9 L 32.3 41.1 L 32.6 41.6 C 32.9 41.9 33.1 42.2 33.4 42.4 C 33.9 43.0 34.4 43.7 35.0 44.4 C 35.1 44.6 35.3 44.7 35.4 44.9 L 34.9 44.8 C 36.7 44.0 38.1 43.9 39.6 43.6 C 40.1 43.6 40.4 43.7 41.1 43.7 C 41.4 43.8 41.5 43.7 41.7 43.7 C 41.8 43.7 42.0 43.6 42.4 43.8 C 42.7 44.0 43.1 44.3 43.3 44.8 C 43.5 45.2 43.5 45.7 43.4 46.0 C 43.4 46.5 43.2 47.0 42.9 47.3 C 42.5 47.6 42.1 47.6 41.9 47.6 C 41.9 47.5 41.9 47.4 41.7 47.4 C 41.4 47.3 41.6 47.2 41.8 47.1 C 42.0 47.0 42.1 46.8 42.0 46.6 " fill="#FFFFFF"></path><path d="M 83.1 37.6 C 81.2 38.3 79.4 39.2 77.6 40.1 C 78.5 42.0 79.4 43.9 80.3 45.8 C 81.2 47.9 78.2 49.7 77.2 47.6 C 76.4 45.6 75.5 43.7 74.6 41.8 C 72.8 42.9 71.1 44.1 69.5 45.3 C 67.7 46.7 65.9 43.7 67.7 42.3 C 69.4 41.0 71.2 39.8 73.0 38.7 C 72.0 36.8 71.0 34.9 70.0 33.0 C 68.9 31.0 71.9 29.2 73.0 31.2 C 74.1 33.1 75.1 35.0 76.1 37.0 C 78.0 35.9 80.1 35.0 82.2 34.2 C 84.3 33.4 85.2 36.8 83.1 37.6 " fill="#FFFFFF"></path><path d="M 75.8 35.7 C 75.7 35.6 75.8 35.9 75.9 35.9 C 76.0 36.0 75.9 35.7 75.8 35.7 M 83.2 36.6 C 83.2 36.5 83.4 36.2 83.1 36.2 C 83.3 35.9 82.9 35.9 82.9 35.7 C 82.9 35.6 82.8 35.5 82.8 35.4 C 82.8 35.4 82.8 35.4 82.8 35.4 C 82.8 35.4 82.7 35.4 82.7 35.4 C 82.6 35.4 82.5 35.4 82.5 35.4 L 82.2 35.5 C 81.9 35.6 81.7 35.7 81.4 35.8 C 80.1 36.6 78.8 36.9 76.9 38.0 C 76.8 38.0 76.7 38.1 76.6 38.1 L 75.4 38.7 L 74.9 37.5 C 74.3 36.2 73.8 35.3 73.0 33.9 C 72.9 33.5 72.7 33.0 72.5 32.5 C 72.3 32.3 72.2 32.0 72.1 31.8 C 72.0 31.7 72.0 31.7 71.9 31.6 C 71.9 31.6 71.9 31.5 71.8 31.5 C 71.8 31.5 71.7 31.5 71.6 31.4 C 71.5 31.4 71.4 31.4 71.3 31.5 C 71.0 31.6 70.8 31.9 70.9 32.1 C 70.9 32.1 70.9 32.1 70.9 32.2 C 70.9 32.2 70.9 32.2 70.9 32.3 C 70.9 32.3 70.9 32.3 70.9 32.4 L 70.9 32.5 L 71.0 32.6 C 71.2 33.0 71.3 33.4 71.5 33.8 C 71.9 34.6 72.3 35.4 72.8 36.3 C 73.0 37.0 73.2 37.6 73.6 38.3 L 74.0 38.9 L 73.4 39.3 C 73.2 39.4 73.0 39.5 72.9 39.7 C 72.1 40.1 70.6 40.8 70.1 41.3 C 69.6 41.8 69.6 41.4 69.1 41.9 C 68.9 41.8 68.7 42.3 68.4 42.2 C 68.1 42.7 68.0 42.6 67.6 43.1 C 67.2 43.4 67.2 44.1 67.4 44.7 C 67.7 45.2 68.3 45.7 69.1 45.3 C 70.7 44.2 72.5 42.9 74.4 41.6 L 74.6 41.5 L 74.7 41.7 C 75.4 43.1 76.0 44.4 76.7 45.8 L 77.2 46.8 C 77.4 47.2 77.5 47.6 77.7 47.8 C 78.1 48.3 78.8 48.3 79.3 47.9 C 79.9 47.5 80.1 46.8 80.0 46.3 C 79.9 46.0 79.7 45.6 79.6 45.3 C 79.4 45.0 79.2 44.6 79.0 44.3 C 78.4 43.0 77.7 41.6 77.1 40.4 L 76.8 39.8 L 77.3 39.5 C 78.8 38.7 80.1 38.1 81.3 37.5 C 81.4 37.7 82.9 36.7 82.7 37.2 C 83.4 37.0 82.1 37.5 82.4 37.6 C 82.0 37.8 82.1 38.0 81.9 38.2 C 80.9 38.9 80.5 39.6 79.2 40.3 C 78.7 40.6 78.3 40.8 78.1 41.0 L 78.5 39.7 C 79.4 41.5 79.9 42.6 80.7 44.1 C 81.0 44.5 80.8 44.6 80.9 44.8 C 81.0 44.9 81.1 45.0 81.2 45.2 C 81.2 45.3 81.3 45.3 81.3 45.4 C 81.3 45.5 81.4 45.6 81.4 45.6 C 81.5 45.8 81.5 46.0 81.5 46.2 C 81.7 47.1 81.3 47.9 81.2 48.3 C 80.5 49.1 79.8 49.6 78.6 49.8 C 78.3 49.7 77.8 49.6 77.3 49.4 C 76.8 49.2 76.3 48.7 76.1 48.3 C 76.2 48.3 76.1 48.1 76.1 48.0 C 76.1 47.9 76.0 47.7 75.9 47.5 C 74.8 45.5 74.5 44.4 73.5 42.4 L 75.2 42.9 C 74.9 43.1 74.5 43.3 74.0 43.7 C 73.5 43.9 72.9 44.4 72.4 44.6 C 72.4 44.8 71.4 45.4 71.1 45.8 C 70.9 45.9 70.7 46.0 70.5 46.2 C 70.4 46.3 70.3 46.3 70.2 46.4 C 70.0 46.5 69.8 46.6 69.6 46.7 C 69.4 46.8 69.2 46.9 69.0 46.9 C 68.8 46.9 68.5 47.0 68.3 46.9 C 67.8 46.9 67.4 46.7 67.0 46.4 C 66.4 45.9 66.0 45.2 65.8 44.5 C 65.6 43.7 65.7 42.9 66.2 42.1 C 66.3 42.0 66.5 41.8 66.6 41.6 C 66.8 41.5 67.0 41.3 67.1 41.3 C 67.3 41.1 67.6 41.0 67.8 40.8 C 68.3 40.5 68.9 40.1 69.4 39.8 C 70.4 39.1 71.5 38.5 72.6 38.0 L 72.2 39.0 C 72.2 38.8 72.1 38.7 72.0 38.5 C 71.3 37.7 71.2 37.0 70.9 36.4 C 70.7 36.0 70.4 35.7 70.2 35.3 C 70.0 35.0 69.9 34.5 69.8 34.2 C 69.7 34.0 69.6 33.8 69.5 33.7 L 69.4 33.5 L 69.3 33.4 L 69.3 33.2 C 69.1 32.8 69.0 32.3 69.1 31.7 C 69.2 30.9 69.8 30.3 70.4 30.0 C 71.0 29.7 71.6 29.6 71.9 29.7 C 72.2 29.8 72.2 29.8 72.2 29.9 C 72.5 29.9 72.8 30.1 72.9 30.1 C 73.4 30.4 73.6 31.0 73.7 31.2 C 73.9 31.6 74.1 31.9 74.3 32.2 C 74.8 33.6 75.6 34.8 76.3 36.5 C 76.4 36.6 76.4 36.7 76.5 36.7 L 75.8 36.5 C 77.6 35.5 79.0 35.2 80.4 34.4 C 80.9 34.3 81.1 34.3 81.8 34.0 C 82.1 34.0 82.2 33.9 82.3 33.9 C 82.4 33.8 82.6 33.6 83.1 33.7 C 83.4 33.8 83.8 34.0 84.1 34.4 C 84.4 34.8 84.6 35.3 84.5 35.6 C 84.6 36.1 84.5 36.6 84.3 36.9 C 84.2 37.1 84.0 37.2 83.9 37.3 C 83.7 37.4 83.6 37.5 83.5 37.5 C 83.4 37.5 83.4 37.4 83.2 37.4 C 82.9 37.5 83.1 37.3 83.2 37.1 C 83.3 36.9 83.3 36.7 83.2 36.6 " fill="#FFFFFF"></path><path d="M 62.4 60.5 C 61.8 62.7 58.4 61.7 59.0 59.5 C 61.1 51.7 54.4 44.4 49.4 39.1 C 44.3 33.8 38.3 30.4 31.1 29.1 C 28.9 28.7 29.8 25.3 32.0 25.7 C 40.7 27.3 47.7 31.9 53.5 38.5 C 58.8 44.6 64.7 51.8 62.4 60.5 " fill="#FFFFFF"></path><path d="M 57.2 42.2 C 57.0 42.1 57.2 42.5 57.3 42.5 C 57.5 42.6 57.2 42.2 57.2 42.2 M 61.8 59.2 C 61.8 58.9 61.9 58.1 61.6 58.3 C 61.8 57.1 61.5 57.4 61.5 56.4 C 61.6 54.6 61.1 52.7 60.7 51.2 C 59.7 49.2 59.0 47.5 57.1 45.0 C 55.8 43.1 54.9 41.9 53.2 40.1 C 52.6 38.9 51.4 37.8 50.2 36.6 C 49.0 35.4 47.8 34.2 46.4 33.4 C 44.5 31.8 42.8 30.5 40.1 29.3 C 38.9 28.5 38.0 28.0 36.4 27.6 C 35.3 27.1 33.0 26.4 32.0 26.3 C 31.6 26.3 31.5 26.3 31.4 26.3 C 31.3 26.3 31.1 26.2 30.8 26.5 C 30.7 26.5 30.6 26.6 30.6 26.8 C 30.5 26.9 30.4 27.1 30.3 27.1 C 30.3 27.5 30.3 27.6 30.3 27.7 C 30.4 27.9 30.4 28.2 30.7 28.4 C 30.7 28.5 30.8 28.6 30.9 28.6 L 31.1 28.7 C 31.4 28.8 31.6 28.9 31.8 28.9 C 32.3 29.1 32.8 29.2 33.3 29.3 C 34.3 29.6 35.4 29.9 36.7 30.4 C 39.7 31.6 42.8 33.2 45.6 35.4 C 47.1 36.5 48.4 37.8 49.7 39.1 C 50.9 40.4 52.2 41.7 53.4 43.1 C 55.8 45.9 58.1 48.9 59.2 52.4 C 59.8 54.1 60.1 56.0 59.9 57.8 C 59.9 58.2 59.8 58.7 59.8 59.1 L 59.6 59.7 C 59.6 59.9 59.6 60.0 59.6 60.1 C 59.7 60.6 60.2 60.9 60.7 61.0 C 60.7 61.1 61.1 61.1 61.3 60.8 C 61.6 60.7 61.6 60.3 61.8 60.5 C 61.9 60.2 61.9 60.4 61.8 60.6 C 61.8 60.9 61.6 61.1 61.7 61.1 C 61.5 61.3 61.4 61.4 61.3 61.5 C 61.3 61.6 61.2 61.7 61.1 61.8 C 60.2 62.0 59.2 61.9 58.6 61.0 C 58.3 60.6 58.1 60.0 58.2 59.4 C 58.2 59.0 58.3 58.6 58.3 58.0 C 58.6 56.2 58.3 54.8 58.0 53.5 C 57.6 52.3 57.1 51.2 56.4 49.9 C 56.1 49.4 56.2 49.3 56.1 49.0 C 55.8 48.8 55.4 48.2 55.0 47.6 C 54.6 47.0 54.2 46.4 53.9 46.2 C 53.4 45.4 52.9 44.8 52.2 44.2 C 52.1 43.7 51.2 43.0 50.6 42.5 C 50.7 42.4 50.5 42.1 50.0 41.6 C 48.6 40.2 47.7 39.2 46.6 38.2 C 45.6 37.2 44.4 36.2 42.4 34.9 C 41.8 34.5 40.7 33.9 40.2 33.5 C 39.9 33.6 38.6 32.7 37.8 32.5 C 36.6 31.9 35.4 31.5 34.1 31.1 C 33.4 30.9 32.8 30.7 32.1 30.6 C 31.8 30.5 31.5 30.4 31.1 30.4 L 30.8 30.3 C 30.7 30.3 30.5 30.2 30.4 30.2 C 30.3 30.1 30.1 30.1 30.0 30.0 C 29.8 29.9 29.7 29.8 29.5 29.7 C 29.0 29.2 28.7 28.3 28.7 27.6 C 28.8 26.9 29.0 26.2 29.5 25.7 C 29.9 25.1 30.7 24.7 31.4 24.7 C 31.6 24.6 31.8 24.7 32.0 24.7 C 32.2 24.7 32.3 24.7 32.4 24.8 L 33.2 24.9 C 35.2 25.4 37.1 26.0 38.7 26.8 C 40.1 27.1 40.9 27.7 41.8 28.2 C 42.4 28.5 43.1 28.7 43.7 29.1 C 44.1 29.3 44.6 29.8 45.1 30.1 C 46.0 30.7 46.8 31.2 47.6 31.9 C 48.9 32.9 50.2 34.1 50.7 34.7 C 50.9 34.9 50.9 34.9 50.9 35.0 C 51.1 35.2 51.5 35.4 51.5 35.4 C 52.4 36.3 53.0 37.1 53.8 37.9 C 55.1 39.5 56.5 41.0 58.0 43.3 C 60.1 45.8 60.9 47.8 62.0 50.1 C 62.2 50.8 62.2 51.1 62.6 52.1 C 62.6 52.9 62.9 52.6 63.1 53.7 C 63.1 54.4 63.3 56.1 63.1 56.9 C 63.1 57.2 63.1 57.5 63.1 57.8 C 63.0 58.1 63.0 58.4 63.0 58.7 C 62.9 59.2 62.7 59.7 62.5 59.9 C 62.5 60.0 62.4 59.9 62.3 60.2 C 61.9 61.0 62.2 59.0 61.8 59.2 " fill="#FFFFFF"></path><path d="M 69.3 60.8 C 66.7 63.2 64.3 65.9 62.3 68.9 C 61.6 70.0 59.9 70.2 59.3 68.9 C 57.4 65.3 54.4 62.8 50.4 61.7 C 48.3 61.1 49.2 57.7 51.4 58.3 C 55.3 59.4 58.6 61.6 60.9 64.9 C 62.7 62.5 64.7 60.3 66.8 58.3 C 68.5 56.7 71.0 59.2 69.3 60.8 " fill="#FFFFFF"></path><path d="M 62.9 61.7 C 62.9 61.8 63.1 61.7 63.1 61.6 C 63.1 61.5 62.9 61.7 62.9 61.7 M 68.9 59.9 C 68.9 59.8 69.0 59.6 68.7 59.6 C 68.8 59.4 68.5 59.6 68.5 59.4 C 68.4 59.3 68.2 59.1 68.1 59.1 C 68.0 59.0 67.9 59.0 67.6 59.1 C 67.0 60.0 66.1 60.6 65.0 62.0 C 64.1 62.9 63.5 63.5 62.8 64.6 C 62.4 64.8 62.1 65.1 61.8 65.5 L 60.9 66.7 L 60.0 65.5 C 59.8 65.2 59.6 64.9 59.3 64.6 C 58.8 64.0 58.2 63.2 57.5 62.8 C 56.6 61.9 55.7 61.1 54.3 60.4 C 53.7 60.0 53.2 59.6 52.4 59.5 C 52.1 59.3 51.7 59.1 51.2 58.9 C 50.9 58.8 50.6 58.8 50.5 59.0 C 50.2 59.2 50.1 58.9 49.9 59.3 C 49.8 59.3 49.8 59.4 49.8 59.5 C 49.8 59.6 49.8 59.7 49.6 59.7 C 49.7 59.9 49.7 59.9 49.7 60.0 C 49.7 60.1 49.7 60.3 49.7 60.5 C 49.7 60.9 50.0 61.3 50.5 61.4 C 51.0 61.6 51.6 61.8 52.3 62.2 C 53.9 62.8 55.6 63.9 57.0 65.3 C 57.7 66.0 58.3 66.8 58.8 67.6 C 59.1 68.1 59.4 68.5 59.6 68.9 C 59.8 69.3 60.2 69.5 60.6 69.5 C 61.0 69.5 61.4 69.3 61.7 69.0 C 62.0 68.8 62.3 68.3 62.5 67.9 C 63.1 67.0 63.7 66.2 64.2 65.4 C 65.4 63.9 66.6 62.4 67.9 61.1 C 68.1 61.3 68.7 60.0 68.8 60.5 C 69.3 60.1 68.5 60.9 68.8 60.9 C 68.5 61.2 68.7 61.3 68.6 61.6 C 68.1 62.4 68.0 63.1 67.4 64.1 C 65.9 65.7 65.3 66.5 64.4 67.9 C 64.2 68.2 64.1 68.2 64.0 68.3 C 64.0 68.5 63.7 68.8 63.5 69.2 C 63.4 69.3 63.3 69.5 63.2 69.7 C 63.0 69.9 62.9 70.1 62.8 70.3 C 62.4 70.5 62.1 70.7 61.7 70.8 C 61.4 71.0 61.0 71.1 60.6 71.1 C 60.4 71.0 60.0 70.9 59.6 70.8 C 59.2 70.7 58.8 70.4 58.5 70.1 C 58.5 70.1 58.5 70.0 58.4 69.8 C 58.4 69.7 58.2 69.4 58.1 69.3 C 57.6 68.5 57.2 67.9 56.8 67.3 C 56.3 66.7 55.8 66.0 54.8 65.3 C 54.6 65.0 54.0 64.7 53.8 64.4 C 53.6 64.6 53.0 64.0 52.6 63.9 C 52.0 63.6 51.3 63.3 50.7 63.1 L 50.2 62.9 L 50.0 62.9 L 49.8 62.8 C 49.6 62.7 49.5 62.7 49.3 62.6 C 48.8 62.2 48.3 61.6 48.1 60.9 C 48.0 60.2 48.1 59.4 48.5 58.7 C 48.8 58.0 49.6 57.4 50.5 57.3 C 50.9 57.2 51.4 57.3 51.7 57.4 C 52.0 57.5 52.2 57.6 52.5 57.7 C 53.0 57.9 53.5 58.1 53.9 58.4 C 54.7 58.4 55.1 58.9 55.6 59.2 C 56.0 59.4 56.3 59.5 56.7 59.7 C 56.9 59.8 57.2 60.1 57.4 60.3 C 57.9 60.7 58.3 61.0 58.8 61.4 C 59.4 62.0 60.1 62.7 60.3 63.1 C 60.4 63.2 60.4 63.3 60.4 63.3 C 60.5 63.4 60.7 63.5 60.7 63.5 C 61.0 63.9 61.2 64.2 61.4 64.5 L 60.4 64.5 C 60.6 64.3 60.7 64.1 60.8 63.9 C 61.6 63.1 62.3 62.2 63.4 61.2 C 64.5 59.7 65.5 59.1 66.4 58.1 C 66.5 58.0 66.7 57.9 66.9 57.8 C 66.9 57.8 67.0 57.7 67.1 57.7 C 67.3 57.6 67.4 57.6 67.5 57.5 C 67.8 57.6 67.9 57.5 68.0 57.5 C 68.1 57.4 68.3 57.3 68.6 57.4 C 68.8 57.6 69.2 57.7 69.4 58.0 C 69.7 58.2 69.9 58.6 70.0 58.8 C 70.1 59.2 70.2 59.6 70.1 60.0 C 70.0 60.3 69.7 60.5 69.6 60.6 C 69.5 60.6 69.4 60.5 69.3 60.6 C 69.1 60.7 69.1 60.5 69.2 60.3 C 69.2 60.1 69.1 59.9 68.9 59.9 " fill="#FFFFFF"></path><path d="M 41.2 84.9 C 41.1 84.9 41.3 84.9 41.4 84.9 C 41.4 84.8 41.2 84.8 41.2 84.9 M 49.6 82.5 C 49.5 82.7 49.1 82.8 49.3 83.0 C 48.7 83.1 49.0 83.4 48.5 83.6 C 47.6 83.9 46.7 84.3 46.0 84.5 C 45.1 85.1 44.2 85.3 42.9 86.0 C 41.8 86.4 41.1 86.7 40.1 87.2 C 39.4 87.2 38.7 87.6 38.0 88.0 C 37.3 88.2 36.5 88.5 35.8 88.9 C 34.7 89.3 33.7 89.6 32.4 90.2 C 31.7 90.3 31.2 90.4 30.6 90.8 C 30.0 91.0 28.8 91.2 28.4 91.5 C 28.0 91.7 28.1 91.4 27.6 91.6 C 27.5 91.5 27.3 91.9 27.1 91.6 C 26.8 92.0 26.8 91.9 26.2 92.0 C 25.9 92.0 25.7 91.9 25.4 91.9 C 25.2 91.9 24.9 91.9 24.7 91.8 C 24.4 91.8 24.2 91.8 23.9 91.6 C 23.8 91.6 23.6 91.5 23.5 91.5 C 23.4 91.4 23.2 91.3 23.1 91.2 C 22.0 90.4 21.2 89.0 21.0 87.4 L 21.0 87.5 C 19.5 82.6 17.8 77.2 16.2 72.7 C 16.5 72.6 15.7 71.6 16.2 71.7 C 16.1 71.2 16.4 72.1 16.5 71.9 C 16.7 72.2 16.9 72.1 17.0 72.2 C 17.5 73.0 18.0 73.3 18.4 74.3 C 19.0 76.1 19.3 77.0 19.8 78.3 C 19.9 78.6 19.8 78.7 19.8 78.8 C 20.1 79.1 20.2 80.1 20.5 80.4 C 20.5 80.9 20.7 81.2 20.9 81.6 C 20.7 81.9 21.0 82.3 21.2 82.7 C 21.1 82.7 21.1 82.9 21.2 83.2 C 21.8 84.7 21.8 85.5 22.3 87.1 L 22.4 87.3 C 22.4 87.4 22.5 87.6 22.5 87.9 C 22.6 88.2 22.8 88.6 22.8 88.9 C 23.0 88.9 23.2 89.4 23.5 89.6 C 23.8 89.9 24.1 90.1 24.5 90.3 C 24.9 90.4 25.4 90.4 26.0 90.3 C 26.1 90.3 26.3 90.3 26.4 90.3 C 26.6 90.3 26.8 90.2 27.0 90.2 C 27.4 90.1 27.8 90.0 28.2 89.8 C 29.1 89.5 30.0 89.2 30.8 89.0 C 31.3 88.5 31.8 88.6 32.2 88.4 C 32.5 88.3 32.7 88.0 33.0 87.9 C 33.2 87.8 33.6 87.8 33.8 87.7 C 34.3 87.6 34.7 87.4 35.1 87.2 C 35.8 86.9 36.6 86.6 36.9 86.5 C 37.0 86.5 37.0 86.5 37.1 86.5 C 37.2 86.5 37.3 86.3 37.3 86.3 C 37.9 86.1 38.3 86.0 38.8 85.7 C 39.7 85.4 40.6 85.0 41.7 84.6 C 43.1 83.8 44.1 83.7 45.1 83.1 C 45.4 83.0 45.6 83.1 46.0 82.8 C 46.4 82.9 46.2 82.6 46.7 82.4 C 47.0 82.4 47.7 82.0 48.0 82.0 C 48.6 81.7 49.1 81.5 49.4 81.6 C 49.5 81.6 49.5 81.7 49.7 81.7 C 50.1 81.7 49.3 82.2 49.6 82.5 " fill="#FFFFFF"></path><path d="M 100.4 54.0 C 100.5 54.0 100.5 53.9 100.5 53.9 C 100.4 53.9 100.4 54.0 100.4 54.0 M 98.9 48.5 C 99.0 48.6 99.1 48.8 99.3 48.7 C 99.4 49.0 99.6 48.8 99.8 49.1 C 100.0 49.6 100.3 50.2 100.4 50.7 C 101.0 51.2 101.1 51.8 101.6 52.6 C 101.9 53.3 102.1 53.7 102.5 54.3 C 102.5 54.8 102.8 55.2 103.0 55.7 C 103.2 56.1 103.4 56.7 103.7 57.1 C 104.0 57.8 104.1 58.5 104.5 59.4 C 104.5 59.8 104.4 60.2 104.7 60.6 C 104.8 61.0 104.8 61.8 105.0 62.1 C 105.1 62.5 104.8 62.4 104.9 62.7 C 104.7 62.8 105.1 63.0 104.8 63.0 C 105.0 63.3 104.9 63.3 104.9 63.7 C 104.6 64.0 104.6 64.3 104.5 64.6 C 104.4 64.9 104.2 65.3 103.9 65.6 C 103.4 66.4 102.6 67.2 101.5 67.6 C 100.5 68.0 99.5 68.3 98.4 68.7 C 96.3 69.3 94.2 69.9 92.4 70.4 C 92.3 70.2 91.7 70.8 91.7 70.3 C 91.4 70.3 92.0 70.2 91.9 70.0 C 92.1 69.9 92.0 69.7 92.1 69.6 C 92.5 69.2 92.8 68.8 93.4 68.5 C 94.5 68.2 95.1 68.1 95.9 67.7 C 96.1 67.7 96.2 67.8 96.3 67.8 C 96.4 67.6 97.1 67.6 97.3 67.3 C 97.6 67.3 97.8 67.2 98.0 67.1 C 98.2 67.3 98.5 67.0 98.7 66.8 C 98.7 67.0 98.8 67.0 99.0 66.9 C 99.5 66.7 99.9 66.6 100.3 66.5 C 100.5 66.4 100.7 66.3 101.0 66.2 C 101.2 66.2 101.4 66.1 101.6 65.9 C 101.8 65.9 102.0 65.7 102.2 65.6 C 102.1 65.5 102.4 65.3 102.5 65.1 C 102.8 64.7 103.1 64.2 103.2 63.5 C 103.4 63.2 103.4 62.7 103.3 62.2 C 103.3 61.6 103.1 61.1 103.1 60.6 C 102.7 60.3 102.9 60.0 102.8 59.7 C 102.7 59.5 102.5 59.4 102.4 59.2 C 102.4 59.1 102.4 58.8 102.3 58.7 C 102.2 58.4 102.1 58.1 102.0 57.8 C 101.8 57.4 101.6 56.9 101.6 56.7 C 101.5 56.6 101.6 56.6 101.6 56.6 C 101.6 56.5 101.4 56.5 101.4 56.5 C 101.3 56.1 101.2 55.8 101.0 55.6 C 100.8 54.9 100.5 54.4 100.2 53.7 C 99.6 52.9 99.6 52.2 99.1 51.6 C 99.1 51.4 99.2 51.3 98.9 51.0 C 99.0 50.7 98.7 50.9 98.6 50.6 C 98.6 50.4 98.3 50.0 98.3 49.8 C 98.1 49.4 97.9 49.1 98.0 48.9 C 98.1 48.8 98.2 48.8 98.1 48.7 C 98.2 48.3 98.6 48.8 98.9 48.5 " fill="#FFFFFF"></path><path d="M 65.4 7.9 C 65.5 7.8 65.2 7.8 65.2 7.9 C 65.2 7.9 65.4 7.9 65.4 7.9 M 56.9 11.1 C 56.9 11.0 57.4 10.8 57.1 10.6 C 57.7 10.4 57.4 10.2 57.9 9.9 C 58.8 9.5 59.7 9.0 60.5 8.7 C 61.3 7.9 62.3 7.7 63.6 6.8 C 64.7 6.3 65.4 6.0 66.5 5.4 C 67.2 5.4 67.9 4.9 68.7 4.5 C 69.4 4.2 70.2 3.9 70.9 3.5 C 72.1 3.0 73.2 2.8 74.6 2.1 C 75.3 2.1 75.8 2.0 76.5 1.6 C 76.9 1.5 77.3 1.5 77.8 1.4 C 78.2 1.3 78.7 1.2 78.9 1.1 C 79.4 0.9 79.3 1.2 79.8 1.1 C 79.9 1.3 80.2 0.9 80.3 1.2 C 80.7 1.0 80.7 1.0 81.4 1.0 C 81.9 1.2 82.3 1.3 82.8 1.4 C 83.0 1.5 83.1 1.5 83.2 1.5 C 83.4 1.6 83.5 1.6 83.6 1.7 C 83.9 1.8 84.2 2.0 84.4 2.2 C 85.1 2.7 85.6 3.3 86.0 4.1 C 86.4 4.9 86.6 5.7 86.7 6.7 L 86.7 6.6 C 88.4 11.5 90.3 17.0 92.0 21.5 C 91.7 21.6 92.5 22.6 92.0 22.6 C 92.1 23.1 91.8 22.1 91.7 22.3 C 91.5 22.0 91.3 22.1 91.2 22.0 C 90.7 21.2 90.2 20.9 89.7 19.9 C 89.0 18.0 88.8 17.1 88.2 15.7 C 88.1 15.4 88.2 15.3 88.2 15.1 C 87.9 14.9 87.7 13.8 87.4 13.5 C 87.3 13.0 87.2 12.7 86.9 12.3 C 87.1 12.0 86.8 11.5 86.5 11.2 C 86.7 11.1 86.7 10.9 86.5 10.6 C 85.9 9.2 85.8 8.4 85.3 7.1 L 85.3 6.9 L 85.3 6.7 C 85.2 6.5 85.2 6.0 85.0 5.6 C 85.0 5.3 84.8 4.9 84.8 4.6 C 84.6 4.6 84.3 4.0 84.1 3.9 C 83.4 3.2 82.5 2.7 81.3 2.7 C 80.6 2.6 79.7 2.6 78.8 2.8 C 78.4 2.8 77.9 3.0 77.5 3.1 C 77.1 3.2 76.6 3.3 76.2 3.4 C 75.7 3.8 75.1 3.8 74.7 3.9 C 74.4 4.1 74.1 4.3 73.8 4.4 C 73.6 4.5 73.3 4.5 73.0 4.6 C 72.5 4.8 72.1 5.0 71.7 5.2 C 70.9 5.5 70.2 5.8 69.8 6.0 C 69.7 6.0 69.7 5.9 69.6 5.9 C 69.5 6.0 69.4 6.2 69.4 6.2 C 68.8 6.4 68.3 6.6 67.9 6.9 C 66.9 7.2 66.0 7.7 64.8 8.2 C 63.5 9.0 62.4 9.2 61.5 10.0 C 61.2 10.1 61.0 10.0 60.5 10.4 C 60.1 10.4 60.4 10.6 59.9 10.9 C 59.5 10.9 58.9 11.4 58.5 11.5 C 58.0 11.8 57.5 12.1 57.1 12.1 C 57.0 12.0 57.0 11.9 56.9 12.0 C 56.4 12.0 57.2 11.4 56.9 11.1 " fill="#FFFFFF"></path><path d="M 6.6 39.9 C 6.6 39.8 6.6 40.0 6.6 40.0 C 6.7 40.0 6.7 39.9 6.6 39.9 M 7.8 45.3 C 7.7 45.2 7.6 45.0 7.4 45.2 C 7.3 44.8 7.1 45.0 7.0 44.7 C 6.8 44.2 6.5 43.6 6.4 43.1 C 5.9 42.6 5.9 42.0 5.4 41.2 C 5.1 40.5 5.0 40.1 4.6 39.5 C 4.6 39.0 4.3 38.6 4.1 38.2 C 3.9 37.7 3.8 37.2 3.5 36.8 C 3.2 36.1 3.1 35.5 2.6 34.7 C 2.6 34.5 2.6 34.3 2.6 34.1 C 2.5 33.9 2.5 33.7 2.3 33.5 C 2.2 33.1 2.2 32.3 2.0 32.0 C 1.9 31.6 2.2 31.7 2.1 31.4 C 2.3 31.4 1.9 31.1 2.2 31.1 C 2.0 30.8 2.1 30.8 2.1 30.4 C 2.3 30.1 2.4 29.9 2.5 29.6 C 2.6 29.3 2.7 28.9 3.0 28.6 C 3.6 27.6 4.4 26.7 5.6 26.0 L 5.6 26.0 L 5.6 26.0 C 8.4 25.2 11.5 24.3 14.0 23.4 C 14.1 23.7 14.6 23.1 14.6 23.5 C 14.9 23.5 14.4 23.7 14.5 23.8 C 14.3 23.9 14.4 24.1 14.3 24.2 C 13.9 24.6 13.7 25.1 13.1 25.4 C 12.0 25.8 11.4 25.9 10.6 26.2 C 10.4 26.3 10.4 26.2 10.3 26.1 C 10.1 26.4 9.4 26.4 9.3 26.6 C 9.0 26.6 8.8 26.7 8.5 26.9 C 8.3 26.7 8.1 26.9 7.9 27.1 C 7.8 26.9 7.7 26.9 7.5 27.0 C 6.9 27.3 6.5 27.3 6.0 27.4 L 6.2 27.3 C 6.0 27.4 5.7 27.6 5.3 28.0 C 5.1 28.1 5.0 28.3 4.8 28.4 C 4.9 28.6 4.5 28.8 4.5 29.0 C 4.2 29.5 3.9 30.0 3.8 30.6 C 3.4 31.3 3.8 32.5 3.9 33.4 C 4.3 33.6 4.2 34.0 4.3 34.3 C 4.4 34.4 4.6 34.6 4.7 34.7 C 4.8 34.9 4.7 35.1 4.8 35.2 C 4.9 35.5 5.0 35.8 5.2 36.1 C 5.3 36.5 5.5 36.9 5.6 37.2 C 5.6 37.2 5.6 37.3 5.6 37.3 C 5.6 37.4 5.7 37.4 5.7 37.4 C 5.9 37.8 5.9 38.1 6.2 38.3 C 6.3 38.9 6.6 39.5 6.8 40.2 C 7.4 41.0 7.3 41.7 7.8 42.3 C 7.9 42.5 7.7 42.6 7.9 42.9 C 7.9 43.2 8.1 43.0 8.3 43.2 C 8.2 43.5 8.5 43.9 8.5 44.1 C 8.7 44.5 8.8 44.8 8.7 45.0 C 8.6 45.1 8.5 45.1 8.6 45.2 C 8.5 45.5 8.1 45.1 7.8 45.3 " fill="#FFFFFF"></path><path d="M 74.9 18.3 C 75.3 18.4 74.2 18.0 73.9 17.9 C 73.5 17.8 74.6 18.2 74.9 18.3 M 25.4 1.6 C 25.9 1.6 26.9 1.6 27.6 1.7 C 28.3 1.9 28.8 2.0 28.5 1.8 C 29.3 2.0 29.8 2.2 30.3 2.4 L 30.2 2.4 C 31.7 2.8 31.7 2.6 33.9 3.3 C 39.2 5.1 44.9 7.0 49.3 8.6 C 55.5 10.3 60.6 12.1 69.3 14.7 C 75.8 16.8 79.9 18.2 86.5 20.1 C 88.2 20.7 90.3 21.3 92.5 22.0 C 93.6 22.3 94.7 22.6 95.8 22.9 C 96.4 23.0 97.0 23.1 97.6 23.3 L 98.5 23.5 L 99.4 23.7 C 99.9 23.9 100.4 24.1 100.9 24.3 C 101.1 24.4 101.3 24.6 101.5 24.7 C 101.8 24.9 102.0 25.0 102.2 25.2 C 103.1 25.9 103.7 26.9 104.0 28.0 C 104.4 29.1 104.4 30.2 104.3 31.2 C 104.2 32.3 103.9 33.3 103.5 34.3 L 103.5 34.1 C 103.2 35.2 102.9 36.2 102.7 37.2 C 100.5 44.2 98.5 50.0 96.0 58.3 C 94.7 61.9 93.7 64.9 92.5 69.3 C 91.3 72.8 89.1 79.3 88.4 82.1 C 87.6 84.9 87.6 83.8 86.8 86.7 C 86.7 86.8 86.5 87.4 86.3 88.0 C 86.1 88.3 86.0 88.7 85.8 88.9 C 85.7 89.1 85.5 89.3 85.4 89.3 C 85.2 89.6 85.1 89.8 84.9 90.0 C 84.8 90.1 84.6 90.3 84.5 90.4 C 84.4 90.6 84.2 90.7 84.1 90.8 C 83.9 90.9 83.8 91.0 83.6 91.1 C 83.5 91.2 83.3 91.2 83.1 91.3 C 82.8 91.4 82.6 91.5 82.3 91.5 C 81.7 91.6 81.0 91.6 80.0 91.4 C 79.7 91.3 79.4 91.2 79.1 91.0 L 79.2 91.0 C 74.3 89.3 69.6 88.0 62.7 85.7 C 53.9 83.1 44.6 80.2 35.0 77.3 C 30.2 75.9 25.3 74.4 20.4 72.9 C 18.0 72.2 15.5 71.4 13.0 70.7 L 9.3 69.6 L 7.5 69.0 C 7.2 68.9 6.9 68.8 6.5 68.7 C 6.2 68.6 5.9 68.5 5.6 68.3 C 4.4 67.8 3.3 66.6 3.0 65.2 C 2.9 64.6 2.9 63.9 2.9 63.2 C 3.0 62.8 3.1 62.5 3.2 62.2 L 3.4 61.2 C 4.2 58.8 4.9 56.3 5.7 53.9 C 7.1 48.9 8.5 44.1 9.9 39.3 C 12.7 29.6 15.3 20.3 17.3 11.5 C 17.4 11.5 17.8 9.8 18.0 8.2 C 18.2 7.4 18.3 6.7 18.3 6.3 C 18.4 5.8 18.5 5.6 18.5 5.9 C 18.6 5.5 18.6 5.4 18.6 5.3 C 18.6 5.2 18.6 5.1 18.6 5.2 C 18.6 5.3 18.7 5.6 18.6 6.0 C 18.6 6.9 18.4 8.1 18.6 7.7 C 18.3 9.6 18.5 9.5 18.4 10.4 C 17.6 15.3 17.2 18.2 15.7 24.2 C 12.7 35.5 11.1 40.6 8.7 49.0 C 8.2 50.8 8.1 50.9 7.8 51.8 C 7.4 53.7 5.4 59.7 5.0 61.8 C 4.0 64.2 4.5 66.1 6.3 66.9 C 6.4 67.0 6.6 67.0 6.7 67.1 C 6.9 67.2 7.1 67.3 7.3 67.4 C 7.7 67.5 8.3 67.7 8.8 67.8 C 10.0 68.2 11.3 68.5 12.4 68.8 C 12.3 68.9 13.3 69.3 15.2 69.8 C 26.0 72.9 30.2 74.5 43.4 78.3 C 45.5 79.1 48.9 80.0 50.7 80.7 C 51.4 80.7 55.8 82.2 58.0 82.8 C 65.3 85.0 72.1 87.1 79.7 89.5 L 79.7 89.5 L 79.9 89.5 C 80.0 89.6 80.4 89.7 80.6 89.8 C 81.5 90.0 82.4 89.9 83.2 89.4 C 84.0 88.9 84.6 88.0 85.1 86.9 C 85.3 86.4 85.5 85.7 85.7 85.1 C 85.9 84.4 86.1 83.8 86.4 83.1 C 86.8 81.8 87.2 80.5 87.6 79.1 C 89.3 73.8 91.0 68.4 92.5 63.9 C 93.4 60.0 94.5 57.4 95.3 54.7 C 95.9 52.9 96.3 51.1 96.8 49.3 C 97.2 48.0 97.9 46.1 98.4 44.7 C 99.3 41.8 100.0 39.4 100.9 36.5 C 101.3 35.3 101.6 34.2 101.8 33.6 L 101.8 33.6 L 101.9 33.5 C 102.2 32.7 102.4 31.9 102.5 31.1 C 102.7 30.3 102.6 29.6 102.5 29.0 C 102.2 27.7 101.5 26.9 101.0 26.5 C 100.5 26.1 100.5 26.1 100.3 25.9 C 100.0 25.7 99.6 25.6 99.3 25.5 C 98.9 25.4 98.7 25.4 98.7 25.4 C 98.3 25.3 97.9 25.2 97.5 25.1 C 97.1 25.0 96.7 24.9 96.3 24.8 C 95.5 24.6 94.7 24.4 93.9 24.2 C 92.4 23.7 91.0 23.3 89.5 22.9 C 83.9 21.2 78.3 19.5 71.2 17.2 C 62.5 14.6 57.0 12.5 50.3 10.6 C 48.4 9.9 47.7 9.5 44.9 8.7 C 42.7 7.8 43.2 8.3 40.4 7.4 C 38.6 6.6 34.3 5.3 32.2 4.5 C 31.4 4.2 30.5 4.0 29.7 3.7 L 29.7 3.7 L 29.7 3.7 C 27.4 2.6 25.2 2.5 23.9 2.7 C 23.7 2.7 23.8 2.5 22.9 2.9 C 22.3 3.1 22.2 3.1 22.4 3.0 C 22.5 2.8 22.9 2.5 23.4 2.3 C 24.5 1.9 25.8 1.8 25.4 1.6 " fill="#FFFFFF"></path></g></g></g></g></g></svg>