<?xml version="1.0" encoding="UTF-8" standalone="no"?><svg xmlns="http://www.w3.org/2000/svg" xmlns:xlink="http://www.w3.org/1999/xlink" clip-rule="evenodd" stroke-miterlimit="4.00" viewBox="0 0 1920 1080"><desc>SVG generated by Keynote</desc><defs></defs><g transform="matrix(1.00, 0.00, -0.00, -1.00, 0.0, 1080.0)"><path d="M 0.0 1080.0 L 1920.0 1080.0 L 1920.0 0.0 L 0.0 0.0 Z M 0.0 1080.0 " fill="#000000"></path><g opacity="0.50"><g><clipPath id="clip-119"><path d="M -4.0 1080.0 L 1924.0 1080.0 L 1924.0 0.0 L -4.0 0.0 Z M -4.0 1080.0 "></path></clipPath><g clip-path="url(#clip-119)"><g><clipPath id="clip-120"><path d="M 0.0 0.0 L 1920.0 0.0 L 1920.0 1080.0 L 0.0 1080.0 Z M 0.0 0.0 "></path></clipPath><g clip-path="url(#clip-120)"><image xlink:href="../../8265E8B1-894B-40E3-B64F-2884FB89CC8C/assets/6B911E6F8C9E53C30B33EEA9D47922EF.jpeg" width="1150.00" height="768.00" transform="matrix(1.68, 0.00, -0.00, -1.68, -4.0, 1184.0)"></image></g></g></g></g></g><text xml:space="preserve" font-family="Baskerville-SemiBoldItalic" font-style="italic" font-weight="bold" font-size="38.0" fill="#FEFFFF" transform="matrix(1.00, 0.00, -0.00, -1.00, 309.0, 622.0)">S</text><text xml:space="preserve" font-family="Baskerville-SemiBoldItalic" font-style="italic" font-weight="bold" font-size="38.0" fill="#FEFFFF" transform="matrix(1.00, 0.00, -0.00, -1.00, 330.0, 622.0)">t</text><text xml:space="preserve" font-family="Baskerville-SemiBoldItalic" font-style="italic" font-weight="bold" font-size="38.0" fill="#FEFFFF" transform="matrix(1.00, 0.00, -0.00, -1.00, 342.6, 622.0)">a</text><text xml:space="preserve" font-family="Baskerville-SemiBoldItalic" font-style="italic" font-weight="bold" font-size="38.0" fill="#FEFFFF" transform="matrix(1.00, 0.00, -0.00, -1.00, 362.8, 622.0)">r</text><text xml:space="preserve" font-family="Baskerville-SemiBoldItalic" font-style="italic" font-weight="bold" font-size="38.0" fill="#FEFFFF" transform="matrix(1.00, 0.00, -0.00, -1.00, 379.4, 622.0)">t</text><text xml:space="preserve" font-family="Baskerville-SemiBoldItalic" font-style="italic" font-weight="bold" font-size="38.0" fill="#FEFFFF" transform="matrix(1.00, 0.00, -0.00, -1.00, 392.1, 622.0)"> </text><text xml:space="preserve" font-family="Baskerville-SemiBoldItalic" font-style="italic" font-weight="bold" font-size="38.0" fill="#FEFFFF" transform="matrix(1.00, 0.00, -0.00, -1.00, 401.6, 622.0)">t</text><text xml:space="preserve" font-family="Baskerville-SemiBoldItalic" font-style="italic" font-weight="bold" font-size="38.0" fill="#FEFFFF" transform="matrix(1.00, 0.00, -0.00, -1.00, 414.2, 622.0)">o</text><text xml:space="preserve" font-family="Baskerville-SemiBoldItalic" font-style="italic" font-weight="bold" font-size="38.0" fill="#FEFFFF" transform="matrix(1.00, 0.00, -0.00, -1.00, 434.4, 622.0)"> </text><text xml:space="preserve" font-family="Baskerville-SemiBoldItalic" font-style="italic" font-weight="bold" font-size="38.0" fill="#FEFFFF" transform="matrix(1.00, 0.00, -0.00, -1.00, 443.9, 622.0)">ﬁ</text><text xml:space="preserve" font-family="Baskerville-SemiBoldItalic" font-style="italic" font-weight="bold" font-size="38.0" fill="#FEFFFF" transform="matrix(1.00, 0.00, -0.00, -1.00, 466.8, 622.0)">n</text><text xml:space="preserve" font-family="Baskerville-SemiBoldItalic" font-style="italic" font-weight="bold" font-size="38.0" fill="#FEFFFF" transform="matrix(1.00, 0.00, -0.00, -1.00, 489.0, 622.0)">i</text><text xml:space="preserve" font-family="Baskerville-SemiBoldItalic" font-style="italic" font-weight="bold" font-size="38.0" fill="#FEFFFF" transform="matrix(1.00, 0.00, -0.00, -1.00, 500.9, 622.0)">s</text><text xml:space="preserve" font-family="Baskerville-SemiBoldItalic" font-style="italic" font-weight="bold" font-size="38.0" fill="#FEFFFF" transform="matrix(1.00, 0.00, -0.00, -1.00, 518.3, 622.0)">h</text><text xml:space="preserve" font-family="Baskerville-SemiBoldItalic" font-style="italic" font-weight="bold" font-size="38.0" fill="#FEFFFF" transform="matrix(1.00, 0.00, -0.00, -1.00, 540.1, 622.0)">,</text><text xml:space="preserve" font-family="Baskerville-SemiBoldItalic" font-style="italic" font-weight="bold" font-size="38.0" fill="#FEFFFF" transform="matrix(1.00, 0.00, -0.00, -1.00, 550.4, 622.0)"> </text><text xml:space="preserve" font-family="Baskerville-SemiBoldItalic" font-style="italic" font-weight="bold" font-size="38.0" fill="#FEFFFF" transform="matrix(1.00, 0.00, -0.00, -1.00, 559.9, 622.0)">I</text><text xml:space="preserve" font-family="Baskerville-SemiBoldItalic" font-style="italic" font-weight="bold" font-size="38.0" fill="#FEFFFF" transform="matrix(1.00, 0.00, -0.00, -1.00, 574.5, 622.0)"> </text><text xml:space="preserve" font-family="Baskerville-SemiBoldItalic" font-style="italic" font-weight="bold" font-size="38.0" fill="#FEFFFF" transform="matrix(1.00, 0.00, -0.00, -1.00, 584.0, 622.0)">w</text><text xml:space="preserve" font-family="Baskerville-SemiBoldItalic" font-style="italic" font-weight="bold" font-size="38.0" fill="#FEFFFF" transform="matrix(1.00, 0.00, -0.00, -1.00, 614.9, 622.0)">a</text><text xml:space="preserve" font-family="Baskerville-SemiBoldItalic" font-style="italic" font-weight="bold" font-size="38.0" fill="#FEFFFF" transform="matrix(1.00, 0.00, -0.00, -1.00, 635.0, 622.0)">s</text><text xml:space="preserve" font-family="Baskerville-SemiBoldItalic" font-style="italic" font-weight="bold" font-size="38.0" fill="#FEFFFF" transform="matrix(1.00, 0.00, -0.00, -1.00, 652.5, 622.0)"> </text><text xml:space="preserve" font-family="Baskerville-SemiBoldItalic" font-style="italic" font-weight="bold" font-size="38.0" fill="#FEFFFF" transform="matrix(1.00, 0.00, -0.00, -1.00, 662.0, 622.0)">o</text><text xml:space="preserve" font-family="Baskerville-SemiBoldItalic" font-style="italic" font-weight="bold" font-size="38.0" fill="#FEFFFF" transform="matrix(1.00, 0.00, -0.00, -1.00, 682.1, 622.0)">v</text><text xml:space="preserve" font-family="Baskerville-SemiBoldItalic" font-style="italic" font-weight="bold" font-size="38.0" fill="#FEFFFF" transform="matrix(1.00, 0.00, -0.00, -1.00, 702.3, 622.0)">e</text><text xml:space="preserve" font-family="Baskerville-SemiBoldItalic" font-style="italic" font-weight="bold" font-size="38.0" fill="#FEFFFF" transform="matrix(1.00, 0.00, -0.00, -1.00, 720.1, 622.0)">r</text><text xml:space="preserve" font-family="Baskerville-SemiBoldItalic" font-style="italic" font-weight="bold" font-size="38.0" fill="#FEFFFF" transform="matrix(1.00, 0.00, -0.00, -1.00, 736.8, 622.0)">w</text><text xml:space="preserve" font-family="Baskerville-SemiBoldItalic" font-style="italic" font-weight="bold" font-size="38.0" fill="#FEFFFF" transform="matrix(1.00, 0.00, -0.00, -1.00, 767.7, 622.0)">h</text><text xml:space="preserve" font-family="Baskerville-SemiBoldItalic" font-style="italic" font-weight="bold" font-size="38.0" fill="#FEFFFF" transform="matrix(1.00, 0.00, -0.00, -1.00, 789.4, 622.0)">e</text><text xml:space="preserve" font-family="Baskerville-SemiBoldItalic" font-style="italic" font-weight="bold" font-size="38.0" fill="#FEFFFF" transform="matrix(1.00, 0.00, -0.00, -1.00, 807.3, 622.0)">l</text><text xml:space="preserve" font-family="Baskerville-SemiBoldItalic" font-style="italic" font-weight="bold" font-size="38.0" fill="#FEFFFF" transform="matrix(1.00, 0.00, -0.00, -1.00, 819.2, 622.0)">m</text><text xml:space="preserve" font-family="Baskerville-SemiBoldItalic" font-style="italic" font-weight="bold" font-size="38.0" fill="#FEFFFF" transform="matrix(1.00, 0.00, -0.00, -1.00, 855.2, 622.0)">e</text><text xml:space="preserve" font-family="Baskerville-SemiBoldItalic" font-style="italic" font-weight="bold" font-size="38.0" fill="#FEFFFF" transform="matrix(1.00, 0.00, -0.00, -1.00, 873.1, 622.0)">d</text><text xml:space="preserve" font-family="Baskerville-SemiBoldItalic" font-style="italic" font-weight="bold" font-size="38.0" fill="#FEFFFF" transform="matrix(1.00, 0.00, -0.00, -1.00, 894.8, 622.0)"> </text><text xml:space="preserve" font-family="Baskerville-SemiBoldItalic" font-style="italic" font-weight="bold" font-size="38.0" fill="#FEFFFF" transform="matrix(1.00, 0.00, -0.00, -1.00, 904.3, 622.0)">b</text><text xml:space="preserve" font-family="Baskerville-SemiBoldItalic" font-style="italic" font-weight="bold" font-size="38.0" fill="#FEFFFF" transform="matrix(1.00, 0.00, -0.00, -1.00, 924.9, 622.0)">y</text><text xml:space="preserve" font-family="Baskerville-SemiBoldItalic" font-style="italic" font-weight="bold" font-size="38.0" fill="#FEFFFF" transform="matrix(1.00, 0.00, -0.00, -1.00, 945.1, 622.0)"> </text><text xml:space="preserve" font-family="Baskerville-SemiBoldItalic" font-style="italic" font-weight="bold" font-size="38.0" fill="#FEFFFF" transform="matrix(1.00, 0.00, -0.00, -1.00, 954.6, 622.0)">t</text><text xml:space="preserve" font-family="Baskerville-SemiBoldItalic" font-style="italic" font-weight="bold" font-size="38.0" fill="#FEFFFF" transform="matrix(1.00, 0.00, -0.00, -1.00, 967.3, 622.0)">h</text><text xml:space="preserve" font-family="Baskerville-SemiBoldItalic" font-style="italic" font-weight="bold" font-size="38.0" fill="#FEFFFF" transform="matrix(1.00, 0.00, -0.00, -1.00, 989.0, 622.0)">i</text><text xml:space="preserve" font-family="Baskerville-SemiBoldItalic" font-style="italic" font-weight="bold" font-size="38.0" fill="#FEFFFF" transform="matrix(1.00, 0.00, -0.00, -1.00, 1000.9, 622.0)">s</text><text xml:space="preserve" font-family="Baskerville-SemiBoldItalic" font-style="italic" font-weight="bold" font-size="38.0" fill="#FEFFFF" transform="matrix(1.00, 0.00, -0.00, -1.00, 1018.3, 622.0)"> </text><text xml:space="preserve" font-family="Baskerville-SemiBoldItalic" font-style="italic" font-weight="bold" font-size="38.0" fill="#FEFFFF" transform="matrix(1.00, 0.00, -0.00, -1.00, 1027.8, 622.0)">p</text><text xml:space="preserve" font-family="Baskerville-SemiBoldItalic" font-style="italic" font-weight="bold" font-size="38.0" fill="#FEFFFF" transform="matrix(1.00, 0.00, -0.00, -1.00, 1049.6, 622.0)">l</text><text xml:space="preserve" font-family="Baskerville-SemiBoldItalic" font-style="italic" font-weight="bold" font-size="38.0" fill="#FEFFFF" transform="matrix(1.00, 0.00, -0.00, -1.00, 1061.5, 622.0)">a</text><text xml:space="preserve" font-family="Baskerville-SemiBoldItalic" font-style="italic" font-weight="bold" font-size="38.0" fill="#FEFFFF" transform="matrix(1.00, 0.00, -0.00, -1.00, 1081.7, 622.0)">c</text><text xml:space="preserve" font-family="Baskerville-SemiBoldItalic" font-style="italic" font-weight="bold" font-size="38.0" fill="#FEFFFF" transform="matrix(1.00, 0.00, -0.00, -1.00, 1099.1, 622.0)">e</text><text xml:space="preserve" font-family="Baskerville-SemiBoldItalic" font-style="italic" font-weight="bold" font-size="38.0" fill="#FEFFFF" transform="matrix(1.00, 0.00, -0.00, -1.00, 1116.9, 622.0)"> </text><text xml:space="preserve" font-family="Baskerville-SemiBoldItalic" font-style="italic" font-weight="bold" font-size="38.0" fill="#FEFFFF" transform="matrix(1.00, 0.00, -0.00, -1.00, 1126.4, 622.0)">a</text><text xml:space="preserve" font-family="Baskerville-SemiBoldItalic" font-style="italic" font-weight="bold" font-size="38.0" fill="#FEFFFF" transform="matrix(1.00, 0.00, -0.00, -1.00, 1146.6, 622.0)">n</text><text xml:space="preserve" font-family="Baskerville-SemiBoldItalic" font-style="italic" font-weight="bold" font-size="38.0" fill="#FEFFFF" transform="matrix(1.00, 0.00, -0.00, -1.00, 1168.8, 622.0)">d</text><text xml:space="preserve" font-family="Baskerville-SemiBoldItalic" font-style="italic" font-weight="bold" font-size="38.0" fill="#FEFFFF" transform="matrix(1.00, 0.00, -0.00, -1.00, 1190.5, 622.0)"> </text><text xml:space="preserve" font-family="Baskerville-SemiBoldItalic" font-style="italic" font-weight="bold" font-size="38.0" fill="#FEFFFF" transform="matrix(1.00, 0.00, -0.00, -1.00, 1200.0, 622.0)">t</text><text xml:space="preserve" font-family="Baskerville-SemiBoldItalic" font-style="italic" font-weight="bold" font-size="38.0" fill="#FEFFFF" transform="matrix(1.00, 0.00, -0.00, -1.00, 1212.7, 622.0)">h</text><text xml:space="preserve" font-family="Baskerville-SemiBoldItalic" font-style="italic" font-weight="bold" font-size="38.0" fill="#FEFFFF" transform="matrix(1.00, 0.00, -0.00, -1.00, 1234.5, 622.0)">e</text><text xml:space="preserve" font-family="Baskerville-SemiBoldItalic" font-style="italic" font-weight="bold" font-size="38.0" fill="#FEFFFF" transform="matrix(1.00, 0.00, -0.00, -1.00, 1252.3, 622.0)">s</text><text xml:space="preserve" font-family="Baskerville-SemiBoldItalic" font-style="italic" font-weight="bold" font-size="38.0" fill="#FEFFFF" transform="matrix(1.00, 0.00, -0.00, -1.00, 1269.7, 622.0)">e</text><text xml:space="preserve" font-family="Baskerville-SemiBoldItalic" font-style="italic" font-weight="bold" font-size="38.0" fill="#FEFFFF" transform="matrix(1.00, 0.00, -0.00, -1.00, 1287.6, 622.0)"> </text><text xml:space="preserve" font-family="Baskerville-SemiBoldItalic" font-style="italic" font-weight="bold" font-size="38.0" fill="#FEFFFF" transform="matrix(1.00, 0.00, -0.00, -1.00, 1297.1, 622.0)">p</text><text xml:space="preserve" font-family="Baskerville-SemiBoldItalic" font-style="italic" font-weight="bold" font-size="38.0" fill="#FEFFFF" transform="matrix(1.00, 0.00, -0.00, -1.00, 1318.9, 622.0)">e</text><text xml:space="preserve" font-family="Baskerville-SemiBoldItalic" font-style="italic" font-weight="bold" font-size="38.0" fill="#FEFFFF" transform="matrix(1.00, 0.00, -0.00, -1.00, 1336.7, 622.0)">o</text><text xml:space="preserve" font-family="Baskerville-SemiBoldItalic" font-style="italic" font-weight="bold" font-size="38.0" fill="#FEFFFF" transform="matrix(1.00, 0.00, -0.00, -1.00, 1356.9, 622.0)">p</text><text xml:space="preserve" font-family="Baskerville-SemiBoldItalic" font-style="italic" font-weight="bold" font-size="38.0" fill="#FEFFFF" transform="matrix(1.00, 0.00, -0.00, -1.00, 1378.6, 622.0)">l</text><text xml:space="preserve" font-family="Baskerville-SemiBoldItalic" font-style="italic" font-weight="bold" font-size="38.0" fill="#FEFFFF" transform="matrix(1.00, 0.00, -0.00, -1.00, 1390.5, 622.0)">e</text><text xml:space="preserve" font-family="Baskerville-SemiBoldItalic" font-style="italic" font-weight="bold" font-size="38.0" fill="#FEFFFF" transform="matrix(1.00, 0.00, -0.00, -1.00, 1408.4, 622.0)">.</text><text xml:space="preserve" font-family="Baskerville-SemiBoldItalic" font-style="italic" font-weight="bold" font-size="38.0" fill="#FEFFFF" transform="matrix(1.00, 0.00, -0.00, -1.00, 1418.7, 622.0)"> </text><text xml:space="preserve" font-family="Baskerville-SemiBoldItalic" font-style="italic" font-weight="bold" font-size="38.0" fill="#FEFFFF" transform="matrix(1.00, 0.00, -0.00, -1.00, 1428.2, 622.0)">I</text><text xml:space="preserve" font-family="Baskerville-SemiBoldItalic" font-style="italic" font-weight="bold" font-size="38.0" fill="#FEFFFF" transform="matrix(1.00, 0.00, -0.00, -1.00, 1442.8, 622.0)"> </text><text xml:space="preserve" font-family="Baskerville-SemiBoldItalic" font-style="italic" font-weight="bold" font-size="38.0" fill="#FEFFFF" transform="matrix(1.00, 0.00, -0.00, -1.00, 1452.3, 622.0)">c</text><text xml:space="preserve" font-family="Baskerville-SemiBoldItalic" font-style="italic" font-weight="bold" font-size="38.0" fill="#FEFFFF" transform="matrix(1.00, 0.00, -0.00, -1.00, 1469.7, 622.0)">o</text><text xml:space="preserve" font-family="Baskerville-SemiBoldItalic" font-style="italic" font-weight="bold" font-size="38.0" fill="#FEFFFF" transform="matrix(1.00, 0.00, -0.00, -1.00, 1489.9, 622.0)">u</text><text xml:space="preserve" font-family="Baskerville-SemiBoldItalic" font-style="italic" font-weight="bold" font-size="38.0" fill="#FEFFFF" transform="matrix(1.00, 0.00, -0.00, -1.00, 1512.0, 622.0)">l</text><text xml:space="preserve" font-family="Baskerville-SemiBoldItalic" font-style="italic" font-weight="bold" font-size="38.0" fill="#FEFFFF" transform="matrix(1.00, 0.00, -0.00, -1.00, 1523.9, 622.0)">d</text><text xml:space="preserve" font-family="Baskerville-SemiBoldItalic" font-style="italic" font-weight="bold" font-size="38.0" fill="#FEFFFF" transform="matrix(1.00, 0.00, -0.00, -1.00, 1545.7, 622.0)"> </text><text xml:space="preserve" font-family="Baskerville-SemiBoldItalic" font-style="italic" font-weight="bold" font-size="38.0" fill="#FEFFFF" transform="matrix(1.00, 0.00, -0.00, -1.00, 1555.2, 622.0)">n</text><text xml:space="preserve" font-family="Baskerville-SemiBoldItalic" font-style="italic" font-weight="bold" font-size="38.0" fill="#FEFFFF" transform="matrix(1.00, 0.00, -0.00, -1.00, 1577.4, 622.0)">o</text><text xml:space="preserve" font-family="Baskerville-SemiBoldItalic" font-style="italic" font-weight="bold" font-size="38.0" fill="#FEFFFF" transform="matrix(1.00, 0.00, -0.00, -1.00, 1597.5, 622.0)">t</text><text xml:space="preserve" font-family="Baskerville-SemiBoldItalic" font-style="italic" font-weight="bold" font-size="38.0" fill="#FEFFFF" transform="matrix(1.00, 0.00, -0.00, -1.00, 1610.2, 622.0)"> </text><text xml:space="preserve" font-family="Baskerville-SemiBoldItalic" font-style="italic" font-weight="bold" font-size="38.0" fill="#FEFFFF" transform="matrix(1.00, 0.00, -0.00, -1.00, 356.0, 575.0)">h</text><text xml:space="preserve" font-family="Baskerville-SemiBoldItalic" font-style="italic" font-weight="bold" font-size="38.0" fill="#FEFFFF" transform="matrix(1.00, 0.00, -0.00, -1.00, 377.8, 575.0)">a</text><text xml:space="preserve" font-family="Baskerville-SemiBoldItalic" font-style="italic" font-weight="bold" font-size="38.0" fill="#FEFFFF" transform="matrix(1.00, 0.00, -0.00, -1.00, 398.0, 575.0)">v</text><text xml:space="preserve" font-family="Baskerville-SemiBoldItalic" font-style="italic" font-weight="bold" font-size="38.0" fill="#FEFFFF" transform="matrix(1.00, 0.00, -0.00, -1.00, 418.1, 575.0)">e</text><text xml:space="preserve" font-family="Baskerville-SemiBoldItalic" font-style="italic" font-weight="bold" font-size="38.0" fill="#FEFFFF" transform="matrix(1.00, 0.00, -0.00, -1.00, 436.0, 575.0)"> </text><text xml:space="preserve" font-family="Baskerville-SemiBoldItalic" font-style="italic" font-weight="bold" font-size="38.0" fill="#FEFFFF" transform="matrix(1.00, 0.00, -0.00, -1.00, 445.5, 575.0)">a</text><text xml:space="preserve" font-family="Baskerville-SemiBoldItalic" font-style="italic" font-weight="bold" font-size="38.0" fill="#FEFFFF" transform="matrix(1.00, 0.00, -0.00, -1.00, 465.6, 575.0)">s</text><text xml:space="preserve" font-family="Baskerville-SemiBoldItalic" font-style="italic" font-weight="bold" font-size="38.0" fill="#FEFFFF" transform="matrix(1.00, 0.00, -0.00, -1.00, 483.0, 575.0)">k</text><text xml:space="preserve" font-family="Baskerville-SemiBoldItalic" font-style="italic" font-weight="bold" font-size="38.0" fill="#FEFFFF" transform="matrix(1.00, 0.00, -0.00, -1.00, 504.4, 575.0)">e</text><text xml:space="preserve" font-family="Baskerville-SemiBoldItalic" font-style="italic" font-weight="bold" font-size="38.0" fill="#FEFFFF" transform="matrix(1.00, 0.00, -0.00, -1.00, 522.2, 575.0)">d</text><text xml:space="preserve" font-family="Baskerville-SemiBoldItalic" font-style="italic" font-weight="bold" font-size="38.0" fill="#FEFFFF" transform="matrix(1.00, 0.00, -0.00, -1.00, 544.0, 575.0)"> </text><text xml:space="preserve" font-family="Baskerville-SemiBoldItalic" font-style="italic" font-weight="bold" font-size="38.0" fill="#FEFFFF" transform="matrix(1.00, 0.00, -0.00, -1.00, 553.5, 575.0)">f</text><text xml:space="preserve" font-family="Baskerville-SemiBoldItalic" font-style="italic" font-weight="bold" font-size="38.0" fill="#FEFFFF" transform="matrix(1.00, 0.00, -0.00, -1.00, 565.0, 575.0)">o</text><text xml:space="preserve" font-family="Baskerville-SemiBoldItalic" font-style="italic" font-weight="bold" font-size="38.0" fill="#FEFFFF" transform="matrix(1.00, 0.00, -0.00, -1.00, 585.2, 575.0)">r</text><text xml:space="preserve" font-family="Baskerville-SemiBoldItalic" font-style="italic" font-weight="bold" font-size="38.0" fill="#FEFFFF" transform="matrix(1.00, 0.00, -0.00, -1.00, 601.8, 575.0)"> </text><text xml:space="preserve" font-family="Baskerville-SemiBoldItalic" font-style="italic" font-weight="bold" font-size="38.0" fill="#FEFFFF" transform="matrix(1.00, 0.00, -0.00, -1.00, 611.3, 575.0)">a</text><text xml:space="preserve" font-family="Baskerville-SemiBoldItalic" font-style="italic" font-weight="bold" font-size="38.0" fill="#FEFFFF" transform="matrix(1.00, 0.00, -0.00, -1.00, 631.5, 575.0)"> </text><text xml:space="preserve" font-family="Baskerville-SemiBoldItalic" font-style="italic" font-weight="bold" font-size="38.0" fill="#FEFFFF" transform="matrix(1.00, 0.00, -0.00, -1.00, 641.0, 575.0)">m</text><text xml:space="preserve" font-family="Baskerville-SemiBoldItalic" font-style="italic" font-weight="bold" font-size="38.0" fill="#FEFFFF" transform="matrix(1.00, 0.00, -0.00, -1.00, 677.0, 575.0)">o</text><text xml:space="preserve" font-family="Baskerville-SemiBoldItalic" font-style="italic" font-weight="bold" font-size="38.0" fill="#FEFFFF" transform="matrix(1.00, 0.00, -0.00, -1.00, 697.2, 575.0)">r</text><text xml:space="preserve" font-family="Baskerville-SemiBoldItalic" font-style="italic" font-weight="bold" font-size="38.0" fill="#FEFFFF" transform="matrix(1.00, 0.00, -0.00, -1.00, 713.7, 575.0)">e</text><text xml:space="preserve" font-family="Baskerville-SemiBoldItalic" font-style="italic" font-weight="bold" font-size="38.0" fill="#FEFFFF" transform="matrix(1.00, 0.00, -0.00, -1.00, 731.6, 575.0)"> </text><text xml:space="preserve" font-family="Baskerville-SemiBoldItalic" font-style="italic" font-weight="bold" font-size="38.0" fill="#FEFFFF" transform="matrix(1.00, 0.00, -0.00, -1.00, 741.1, 575.0)">a</text><text xml:space="preserve" font-family="Baskerville-SemiBoldItalic" font-style="italic" font-weight="bold" font-size="38.0" fill="#FEFFFF" transform="matrix(1.00, 0.00, -0.00, -1.00, 761.2, 575.0)">u</text><text xml:space="preserve" font-family="Baskerville-SemiBoldItalic" font-style="italic" font-weight="bold" font-size="38.0" fill="#FEFFFF" transform="matrix(1.00, 0.00, -0.00, -1.00, 783.4, 575.0)">t</text><text xml:space="preserve" font-family="Baskerville-SemiBoldItalic" font-style="italic" font-weight="bold" font-size="38.0" fill="#FEFFFF" transform="matrix(1.00, 0.00, -0.00, -1.00, 796.0, 575.0)">h</text><text xml:space="preserve" font-family="Baskerville-SemiBoldItalic" font-style="italic" font-weight="bold" font-size="38.0" fill="#FEFFFF" transform="matrix(1.00, 0.00, -0.00, -1.00, 817.8, 575.0)">e</text><text xml:space="preserve" font-family="Baskerville-SemiBoldItalic" font-style="italic" font-weight="bold" font-size="38.0" fill="#FEFFFF" transform="matrix(1.00, 0.00, -0.00, -1.00, 835.7, 575.0)">n</text><text xml:space="preserve" font-family="Baskerville-SemiBoldItalic" font-style="italic" font-weight="bold" font-size="38.0" fill="#FEFFFF" transform="matrix(1.00, 0.00, -0.00, -1.00, 857.8, 575.0)">t</text><text xml:space="preserve" font-family="Baskerville-SemiBoldItalic" font-style="italic" font-weight="bold" font-size="38.0" fill="#FEFFFF" transform="matrix(1.00, 0.00, -0.00, -1.00, 870.5, 575.0)">i</text><text xml:space="preserve" font-family="Baskerville-SemiBoldItalic" font-style="italic" font-weight="bold" font-size="38.0" fill="#FEFFFF" transform="matrix(1.00, 0.00, -0.00, -1.00, 882.4, 575.0)">c</text><text xml:space="preserve" font-family="Baskerville-SemiBoldItalic" font-style="italic" font-weight="bold" font-size="38.0" fill="#FEFFFF" transform="matrix(1.00, 0.00, -0.00, -1.00, 899.8, 575.0)"> </text><text xml:space="preserve" font-family="Baskerville-SemiBoldItalic" font-style="italic" font-weight="bold" font-size="38.0" fill="#FEFFFF" transform="matrix(1.00, 0.00, -0.00, -1.00, 909.3, 575.0)">e</text><text xml:space="preserve" font-family="Baskerville-SemiBoldItalic" font-style="italic" font-weight="bold" font-size="38.0" fill="#FEFFFF" transform="matrix(1.00, 0.00, -0.00, -1.00, 927.1, 575.0)">x</text><text xml:space="preserve" font-family="Baskerville-SemiBoldItalic" font-style="italic" font-weight="bold" font-size="38.0" fill="#FEFFFF" transform="matrix(1.00, 0.00, -0.00, -1.00, 948.1, 575.0)">p</text><text xml:space="preserve" font-family="Baskerville-SemiBoldItalic" font-style="italic" font-weight="bold" font-size="38.0" fill="#FEFFFF" transform="matrix(1.00, 0.00, -0.00, -1.00, 969.9, 575.0)">e</text><text xml:space="preserve" font-family="Baskerville-SemiBoldItalic" font-style="italic" font-weight="bold" font-size="38.0" fill="#FEFFFF" transform="matrix(1.00, 0.00, -0.00, -1.00, 987.7, 575.0)">r</text><text xml:space="preserve" font-family="Baskerville-SemiBoldItalic" font-style="italic" font-weight="bold" font-size="38.0" fill="#FEFFFF" transform="matrix(1.00, 0.00, -0.00, -1.00, 1004.4, 575.0)">i</text><text xml:space="preserve" font-family="Baskerville-SemiBoldItalic" font-style="italic" font-weight="bold" font-size="38.0" fill="#FEFFFF" transform="matrix(1.00, 0.00, -0.00, -1.00, 1016.2, 575.0)">e</text><text xml:space="preserve" font-family="Baskerville-SemiBoldItalic" font-style="italic" font-weight="bold" font-size="38.0" fill="#FEFFFF" transform="matrix(1.00, 0.00, -0.00, -1.00, 1034.1, 575.0)">n</text><text xml:space="preserve" font-family="Baskerville-SemiBoldItalic" font-style="italic" font-weight="bold" font-size="38.0" fill="#FEFFFF" transform="matrix(1.00, 0.00, -0.00, -1.00, 1056.2, 575.0)">c</text><text xml:space="preserve" font-family="Baskerville-SemiBoldItalic" font-style="italic" font-weight="bold" font-size="38.0" fill="#FEFFFF" transform="matrix(1.00, 0.00, -0.00, -1.00, 1073.6, 575.0)">e</text><text xml:space="preserve" font-family="Baskerville-SemiBoldItalic" font-style="italic" font-weight="bold" font-size="38.0" fill="#FEFFFF" transform="matrix(1.00, 0.00, -0.00, -1.00, 1091.5, 575.0)">,</text><text xml:space="preserve" font-family="Baskerville-SemiBoldItalic" font-style="italic" font-weight="bold" font-size="38.0" fill="#FEFFFF" transform="matrix(1.00, 0.00, -0.00, -1.00, 1101.8, 575.0)"> </text><text xml:space="preserve" font-family="Baskerville-SemiBoldItalic" font-style="italic" font-weight="bold" font-size="38.0" fill="#FEFFFF" transform="matrix(1.00, 0.00, -0.00, -1.00, 1111.3, 575.0)">a</text><text xml:space="preserve" font-family="Baskerville-SemiBoldItalic" font-style="italic" font-weight="bold" font-size="38.0" fill="#FEFFFF" transform="matrix(1.00, 0.00, -0.00, -1.00, 1131.4, 575.0)">n</text><text xml:space="preserve" font-family="Baskerville-SemiBoldItalic" font-style="italic" font-weight="bold" font-size="38.0" fill="#FEFFFF" transform="matrix(1.00, 0.00, -0.00, -1.00, 1153.6, 575.0)">d</text><text xml:space="preserve" font-family="Baskerville-SemiBoldItalic" font-style="italic" font-weight="bold" font-size="38.0" fill="#FEFFFF" transform="matrix(1.00, 0.00, -0.00, -1.00, 1175.4, 575.0)"> </text><text xml:space="preserve" font-family="Baskerville-SemiBoldItalic" font-style="italic" font-weight="bold" font-size="38.0" fill="#FEFFFF" transform="matrix(1.00, 0.00, -0.00, -1.00, 1184.9, 575.0)">w</text><text xml:space="preserve" font-family="Baskerville-SemiBoldItalic" font-style="italic" font-weight="bold" font-size="38.0" fill="#FEFFFF" transform="matrix(1.00, 0.00, -0.00, -1.00, 1215.8, 575.0)">o</text><text xml:space="preserve" font-family="Baskerville-SemiBoldItalic" font-style="italic" font-weight="bold" font-size="38.0" fill="#FEFFFF" transform="matrix(1.00, 0.00, -0.00, -1.00, 1235.9, 575.0)">u</text><text xml:space="preserve" font-family="Baskerville-SemiBoldItalic" font-style="italic" font-weight="bold" font-size="38.0" fill="#FEFFFF" transform="matrix(1.00, 0.00, -0.00, -1.00, 1258.1, 575.0)">l</text><text xml:space="preserve" font-family="Baskerville-SemiBoldItalic" font-style="italic" font-weight="bold" font-size="38.0" fill="#FEFFFF" transform="matrix(1.00, 0.00, -0.00, -1.00, 1270.0, 575.0)">d</text><text xml:space="preserve" font-family="Baskerville-SemiBoldItalic" font-style="italic" font-weight="bold" font-size="38.0" fill="#FEFFFF" transform="matrix(1.00, 0.00, -0.00, -1.00, 1291.8, 575.0)"> </text><text xml:space="preserve" font-family="Baskerville-SemiBoldItalic" font-style="italic" font-weight="bold" font-size="38.0" fill="#FEFFFF" transform="matrix(1.00, 0.00, -0.00, -1.00, 1301.3, 575.0)">u</text><text xml:space="preserve" font-family="Baskerville-SemiBoldItalic" font-style="italic" font-weight="bold" font-size="38.0" fill="#FEFFFF" transform="matrix(1.00, 0.00, -0.00, -1.00, 1323.4, 575.0)">n</text><text xml:space="preserve" font-family="Baskerville-SemiBoldItalic" font-style="italic" font-weight="bold" font-size="38.0" fill="#FEFFFF" transform="matrix(1.00, 0.00, -0.00, -1.00, 1345.6, 575.0)">q</text><text xml:space="preserve" font-family="Baskerville-SemiBoldItalic" font-style="italic" font-weight="bold" font-size="38.0" fill="#FEFFFF" transform="matrix(1.00, 0.00, -0.00, -1.00, 1367.0, 575.0)">u</text><text xml:space="preserve" font-family="Baskerville-SemiBoldItalic" font-style="italic" font-weight="bold" font-size="38.0" fill="#FEFFFF" transform="matrix(1.00, 0.00, -0.00, -1.00, 1389.1, 575.0)">e</text><text xml:space="preserve" font-family="Baskerville-SemiBoldItalic" font-style="italic" font-weight="bold" font-size="38.0" fill="#FEFFFF" transform="matrix(1.00, 0.00, -0.00, -1.00, 1407.0, 575.0)">s</text><text xml:space="preserve" font-family="Baskerville-SemiBoldItalic" font-style="italic" font-weight="bold" font-size="38.0" fill="#FEFFFF" transform="matrix(1.00, 0.00, -0.00, -1.00, 1424.4, 575.0)">t</text><text xml:space="preserve" font-family="Baskerville-SemiBoldItalic" font-style="italic" font-weight="bold" font-size="38.0" fill="#FEFFFF" transform="matrix(1.00, 0.00, -0.00, -1.00, 1437.0, 575.0)">i</text><text xml:space="preserve" font-family="Baskerville-SemiBoldItalic" font-style="italic" font-weight="bold" font-size="38.0" fill="#FEFFFF" transform="matrix(1.00, 0.00, -0.00, -1.00, 1448.9, 575.0)">o</text><text xml:space="preserve" font-family="Baskerville-SemiBoldItalic" font-style="italic" font-weight="bold" font-size="38.0" fill="#FEFFFF" transform="matrix(1.00, 0.00, -0.00, -1.00, 1469.1, 575.0)">n</text><text xml:space="preserve" font-family="Baskerville-SemiBoldItalic" font-style="italic" font-weight="bold" font-size="38.0" fill="#FEFFFF" transform="matrix(1.00, 0.00, -0.00, -1.00, 1491.2, 575.0)">a</text><text xml:space="preserve" font-family="Baskerville-SemiBoldItalic" font-style="italic" font-weight="bold" font-size="38.0" fill="#FEFFFF" transform="matrix(1.00, 0.00, -0.00, -1.00, 1511.4, 575.0)">b</text><text xml:space="preserve" font-family="Baskerville-SemiBoldItalic" font-style="italic" font-weight="bold" font-size="38.0" fill="#FEFFFF" transform="matrix(1.00, 0.00, -0.00, -1.00, 1532.0, 575.0)">l</text><text xml:space="preserve" font-family="Baskerville-SemiBoldItalic" font-style="italic" font-weight="bold" font-size="38.0" fill="#FEFFFF" transform="matrix(1.00, 0.00, -0.00, -1.00, 1543.9, 575.0)">y</text><text xml:space="preserve" font-family="Baskerville-SemiBoldItalic" font-style="italic" font-weight="bold" font-size="38.0" fill="#FEFFFF" transform="matrix(1.00, 0.00, -0.00, -1.00, 1564.1, 575.0)"> </text><text xml:space="preserve" font-family="Baskerville-SemiBoldItalic" font-style="italic" font-weight="bold" font-size="38.0" fill="#FEFFFF" transform="matrix(1.00, 0.00, -0.00, -1.00, 433.0, 528.0)">r</text><text xml:space="preserve" font-family="Baskerville-SemiBoldItalic" font-style="italic" font-weight="bold" font-size="38.0" fill="#FEFFFF" transform="matrix(1.00, 0.00, -0.00, -1.00, 449.6, 528.0)">e</text><text xml:space="preserve" font-family="Baskerville-SemiBoldItalic" font-style="italic" font-weight="bold" font-size="38.0" fill="#FEFFFF" transform="matrix(1.00, 0.00, -0.00, -1.00, 467.4, 528.0)">c</text><text xml:space="preserve" font-family="Baskerville-SemiBoldItalic" font-style="italic" font-weight="bold" font-size="38.0" fill="#FEFFFF" transform="matrix(1.00, 0.00, -0.00, -1.00, 484.8, 528.0)">o</text><text xml:space="preserve" font-family="Baskerville-SemiBoldItalic" font-style="italic" font-weight="bold" font-size="38.0" fill="#FEFFFF" transform="matrix(1.00, 0.00, -0.00, -1.00, 505.0, 528.0)">m</text><text xml:space="preserve" font-family="Baskerville-SemiBoldItalic" font-style="italic" font-weight="bold" font-size="38.0" fill="#FEFFFF" transform="matrix(1.00, 0.00, -0.00, -1.00, 541.0, 528.0)">m</text><text xml:space="preserve" font-family="Baskerville-SemiBoldItalic" font-style="italic" font-weight="bold" font-size="38.0" fill="#FEFFFF" transform="matrix(1.00, 0.00, -0.00, -1.00, 577.1, 528.0)">e</text><text xml:space="preserve" font-family="Baskerville-SemiBoldItalic" font-style="italic" font-weight="bold" font-size="38.0" fill="#FEFFFF" transform="matrix(1.00, 0.00, -0.00, -1.00, 594.9, 528.0)">n</text><text xml:space="preserve" font-family="Baskerville-SemiBoldItalic" font-style="italic" font-weight="bold" font-size="38.0" fill="#FEFFFF" transform="matrix(1.00, 0.00, -0.00, -1.00, 617.0, 528.0)">d</text><text xml:space="preserve" font-family="Baskerville-SemiBoldItalic" font-style="italic" font-weight="bold" font-size="38.0" fill="#FEFFFF" transform="matrix(1.00, 0.00, -0.00, -1.00, 638.8, 528.0)"> </text><text xml:space="preserve" font-family="Baskerville-SemiBoldItalic" font-style="italic" font-weight="bold" font-size="38.0" fill="#FEFFFF" transform="matrix(1.00, 0.00, -0.00, -1.00, 648.3, 528.0)">C</text><text xml:space="preserve" font-family="Baskerville-SemiBoldItalic" font-style="italic" font-weight="bold" font-size="38.0" fill="#FEFFFF" transform="matrix(1.00, 0.00, -0.00, -1.00, 674.5, 528.0)">o</text><text xml:space="preserve" font-family="Baskerville-SemiBoldItalic" font-style="italic" font-weight="bold" font-size="38.0" fill="#FEFFFF" transform="matrix(1.00, 0.00, -0.00, -1.00, 694.6, 528.0)">n</text><text xml:space="preserve" font-family="Baskerville-SemiBoldItalic" font-style="italic" font-weight="bold" font-size="38.0" fill="#FEFFFF" transform="matrix(1.00, 0.00, -0.00, -1.00, 716.8, 528.0)">d</text><text xml:space="preserve" font-family="Baskerville-SemiBoldItalic" font-style="italic" font-weight="bold" font-size="38.0" fill="#FEFFFF" transform="matrix(1.00, 0.00, -0.00, -1.00, 738.6, 528.0)">o</text><text xml:space="preserve" font-family="Baskerville-SemiBoldItalic" font-style="italic" font-weight="bold" font-size="38.0" fill="#FEFFFF" transform="matrix(1.00, 0.00, -0.00, -1.00, 758.7, 528.0)">r</text><text xml:space="preserve" font-family="Baskerville-SemiBoldItalic" font-style="italic" font-weight="bold" font-size="38.0" fill="#FEFFFF" transform="matrix(1.00, 0.00, -0.00, -1.00, 775.4, 528.0)"> </text><text xml:space="preserve" font-family="Baskerville-SemiBoldItalic" font-style="italic" font-weight="bold" font-size="38.0" fill="#FEFFFF" transform="matrix(1.00, 0.00, -0.00, -1.00, 784.9, 528.0)">V</text><text xml:space="preserve" font-family="Baskerville-SemiBoldItalic" font-style="italic" font-weight="bold" font-size="38.0" fill="#FEFFFF" transform="matrix(1.00, 0.00, -0.00, -1.00, 807.5, 528.0)">a</text><text xml:space="preserve" font-family="Baskerville-SemiBoldItalic" font-style="italic" font-weight="bold" font-size="38.0" fill="#FEFFFF" transform="matrix(1.00, 0.00, -0.00, -1.00, 827.6, 528.0)">l</text><text xml:space="preserve" font-family="Baskerville-SemiBoldItalic" font-style="italic" font-weight="bold" font-size="38.0" fill="#FEFFFF" transform="matrix(1.00, 0.00, -0.00, -1.00, 839.5, 528.0)">l</text><text xml:space="preserve" font-family="Baskerville-SemiBoldItalic" font-style="italic" font-weight="bold" font-size="38.0" fill="#FEFFFF" transform="matrix(1.00, 0.00, -0.00, -1.00, 851.4, 528.0)">e</text><text xml:space="preserve" font-family="Baskerville-SemiBoldItalic" font-style="italic" font-weight="bold" font-size="38.0" fill="#FEFFFF" transform="matrix(1.00, 0.00, -0.00, -1.00, 869.3, 528.0)">y</text><text xml:space="preserve" font-family="Baskerville-SemiBoldItalic" font-style="italic" font-weight="bold" font-size="38.0" fill="#FEFFFF" transform="matrix(1.00, 0.00, -0.00, -1.00, 889.4, 528.0)"> </text><text xml:space="preserve" font-family="Baskerville-SemiBoldItalic" font-style="italic" font-weight="bold" font-size="38.0" fill="#FEFFFF" transform="matrix(1.00, 0.00, -0.00, -1.00, 898.9, 528.0)">t</text><text xml:space="preserve" font-family="Baskerville-SemiBoldItalic" font-style="italic" font-weight="bold" font-size="38.0" fill="#FEFFFF" transform="matrix(1.00, 0.00, -0.00, -1.00, 911.6, 528.0)">o</text><text xml:space="preserve" font-family="Baskerville-SemiBoldItalic" font-style="italic" font-weight="bold" font-size="38.0" fill="#FEFFFF" transform="matrix(1.00, 0.00, -0.00, -1.00, 931.7, 528.0)"> </text><text xml:space="preserve" font-family="Baskerville-SemiBoldItalic" font-style="italic" font-weight="bold" font-size="38.0" fill="#FEFFFF" transform="matrix(1.00, 0.00, -0.00, -1.00, 941.2, 528.0)">a</text><text xml:space="preserve" font-family="Baskerville-SemiBoldItalic" font-style="italic" font-weight="bold" font-size="38.0" fill="#FEFFFF" transform="matrix(1.00, 0.00, -0.00, -1.00, 961.4, 528.0)">n</text><text xml:space="preserve" font-family="Baskerville-SemiBoldItalic" font-style="italic" font-weight="bold" font-size="38.0" fill="#FEFFFF" transform="matrix(1.00, 0.00, -0.00, -1.00, 983.6, 528.0)">y</text><text xml:space="preserve" font-family="Baskerville-SemiBoldItalic" font-style="italic" font-weight="bold" font-size="38.0" fill="#FEFFFF" transform="matrix(1.00, 0.00, -0.00, -1.00, 1003.7, 528.0)">o</text><text xml:space="preserve" font-family="Baskerville-SemiBoldItalic" font-style="italic" font-weight="bold" font-size="38.0" fill="#FEFFFF" transform="matrix(1.00, 0.00, -0.00, -1.00, 1023.9, 528.0)">n</text><text xml:space="preserve" font-family="Baskerville-SemiBoldItalic" font-style="italic" font-weight="bold" font-size="38.0" fill="#FEFFFF" transform="matrix(1.00, 0.00, -0.00, -1.00, 1046.0, 528.0)">e</text><text xml:space="preserve" font-family="Baskerville-SemiBoldItalic" font-style="italic" font-weight="bold" font-size="38.0" fill="#FEFFFF" transform="matrix(1.00, 0.00, -0.00, -1.00, 1063.9, 528.0)">.</text><text xml:space="preserve" font-family="Baskerville-SemiBoldItalic" font-style="italic" font-weight="bold" font-size="38.0" fill="#FEFFFF" transform="matrix(1.00, 0.00, -0.00, -1.00, 1074.2, 528.0)"> </text><text xml:space="preserve" font-family="Baskerville-SemiBoldItalic" font-style="italic" font-weight="bold" font-size="38.0" fill="#FEFFFF" transform="matrix(1.00, 0.00, -0.00, -1.00, 1083.7, 528.0)">I</text><text xml:space="preserve" font-family="Baskerville-SemiBoldItalic" font-style="italic" font-weight="bold" font-size="38.0" fill="#FEFFFF" transform="matrix(1.00, 0.00, -0.00, -1.00, 1098.3, 528.0)">t</text><text xml:space="preserve" font-family="Baskerville-SemiBoldItalic" font-style="italic" font-weight="bold" font-size="38.0" fill="#FEFFFF" transform="matrix(1.00, 0.00, -0.00, -1.00, 1110.9, 528.0)"> </text><text xml:space="preserve" font-family="Baskerville-SemiBoldItalic" font-style="italic" font-weight="bold" font-size="38.0" fill="#FEFFFF" transform="matrix(1.00, 0.00, -0.00, -1.00, 1120.4, 528.0)">i</text><text xml:space="preserve" font-family="Baskerville-SemiBoldItalic" font-style="italic" font-weight="bold" font-size="38.0" fill="#FEFFFF" transform="matrix(1.00, 0.00, -0.00, -1.00, 1132.3, 528.0)">s</text><text xml:space="preserve" font-family="Baskerville-SemiBoldItalic" font-style="italic" font-weight="bold" font-size="38.0" fill="#FEFFFF" transform="matrix(1.00, 0.00, -0.00, -1.00, 1149.7, 528.0)"> </text><text xml:space="preserve" font-family="Baskerville-SemiBoldItalic" font-style="italic" font-weight="bold" font-size="38.0" fill="#FEFFFF" transform="matrix(1.00, 0.00, -0.00, -1.00, 1159.2, 528.0)">t</text><text xml:space="preserve" font-family="Baskerville-SemiBoldItalic" font-style="italic" font-weight="bold" font-size="38.0" fill="#FEFFFF" transform="matrix(1.00, 0.00, -0.00, -1.00, 1171.9, 528.0)">r</text><text xml:space="preserve" font-family="Baskerville-SemiBoldItalic" font-style="italic" font-weight="bold" font-size="38.0" fill="#FEFFFF" transform="matrix(1.00, 0.00, -0.00, -1.00, 1188.8, 528.0)">u</text><text xml:space="preserve" font-family="Baskerville-SemiBoldItalic" font-style="italic" font-weight="bold" font-size="38.0" fill="#FEFFFF" transform="matrix(1.00, 0.00, -0.00, -1.00, 1210.9, 528.0)">l</text><text xml:space="preserve" font-family="Baskerville-SemiBoldItalic" font-style="italic" font-weight="bold" font-size="38.0" fill="#FEFFFF" transform="matrix(1.00, 0.00, -0.00, -1.00, 1222.8, 528.0)">y</text><text xml:space="preserve" font-family="Baskerville-SemiBoldItalic" font-style="italic" font-weight="bold" font-size="38.0" fill="#FEFFFF" transform="matrix(1.00, 0.00, -0.00, -1.00, 1243.0, 528.0)"> </text><text xml:space="preserve" font-family="Baskerville-SemiBoldItalic" font-style="italic" font-weight="bold" font-size="38.0" fill="#FEFFFF" transform="matrix(1.00, 0.00, -0.00, -1.00, 1252.5, 528.0)">u</text><text xml:space="preserve" font-family="Baskerville-SemiBoldItalic" font-style="italic" font-weight="bold" font-size="38.0" fill="#FEFFFF" transform="matrix(1.00, 0.00, -0.00, -1.00, 1274.6, 528.0)">n</text><text xml:space="preserve" font-family="Baskerville-SemiBoldItalic" font-style="italic" font-weight="bold" font-size="38.0" fill="#FEFFFF" transform="matrix(1.00, 0.00, -0.00, -1.00, 1296.8, 528.0)">f</text><text xml:space="preserve" font-family="Baskerville-SemiBoldItalic" font-style="italic" font-weight="bold" font-size="38.0" fill="#FEFFFF" transform="matrix(1.00, 0.00, -0.00, -1.00, 1308.2, 528.0)">o</text><text xml:space="preserve" font-family="Baskerville-SemiBoldItalic" font-style="italic" font-weight="bold" font-size="38.0" fill="#FEFFFF" transform="matrix(1.00, 0.00, -0.00, -1.00, 1328.4, 528.0)">r</text><text xml:space="preserve" font-family="Baskerville-SemiBoldItalic" font-style="italic" font-weight="bold" font-size="38.0" fill="#FEFFFF" transform="matrix(1.00, 0.00, -0.00, -1.00, 1345.0, 528.0)">g</text><text xml:space="preserve" font-family="Baskerville-SemiBoldItalic" font-style="italic" font-weight="bold" font-size="38.0" fill="#FEFFFF" transform="matrix(1.00, 0.00, -0.00, -1.00, 1363.7, 528.0)">e</text><text xml:space="preserve" font-family="Baskerville-SemiBoldItalic" font-style="italic" font-weight="bold" font-size="38.0" fill="#FEFFFF" transform="matrix(1.00, 0.00, -0.00, -1.00, 1381.5, 528.0)">t</text><text xml:space="preserve" font-family="Baskerville-SemiBoldItalic" font-style="italic" font-weight="bold" font-size="38.0" fill="#FEFFFF" transform="matrix(1.00, 0.00, -0.00, -1.00, 1394.2, 528.0)">t</text><text xml:space="preserve" font-family="Baskerville-SemiBoldItalic" font-style="italic" font-weight="bold" font-size="38.0" fill="#FEFFFF" transform="matrix(1.00, 0.00, -0.00, -1.00, 1406.8, 528.0)">a</text><text xml:space="preserve" font-family="Baskerville-SemiBoldItalic" font-style="italic" font-weight="bold" font-size="38.0" fill="#FEFFFF" transform="matrix(1.00, 0.00, -0.00, -1.00, 1427.0, 528.0)">b</text><text xml:space="preserve" font-family="Baskerville-SemiBoldItalic" font-style="italic" font-weight="bold" font-size="38.0" fill="#FEFFFF" transform="matrix(1.00, 0.00, -0.00, -1.00, 1447.6, 528.0)">l</text><text xml:space="preserve" font-family="Baskerville-SemiBoldItalic" font-style="italic" font-weight="bold" font-size="38.0" fill="#FEFFFF" transform="matrix(1.00, 0.00, -0.00, -1.00, 1459.5, 528.0)">e</text><text xml:space="preserve" font-family="Baskerville-SemiBoldItalic" font-style="italic" font-weight="bold" font-size="38.0" fill="#FEFFFF" transform="matrix(1.00, 0.00, -0.00, -1.00, 1477.3, 528.0)">.</text><text xml:space="preserve" font-family="Baskerville-SemiBoldItalic" font-style="italic" font-weight="bold" font-size="38.0" fill="#FEFFFF" transform="matrix(1.00, 0.00, -0.00, -1.00, 1487.6, 528.0)"> </text><text xml:space="preserve" font-family="Baskerville-SemiBoldItalic" font-style="italic" font-weight="bold" font-size="38.0" fill="#FEFFFF" transform="matrix(1.00, 0.00, -0.00, -1.00, 1497.1, 528.0)"> </text><text xml:space="preserve" font-family="Baskerville-SemiBoldItalic" font-style="italic" font-weight="bold" font-size="38.0" fill="#FEFFFF" transform="matrix(1.00, 0.00, -0.00, -1.00, 1506.6, 528.0)"> </text><text xml:space="preserve" font-family="Baskerville-SemiBoldItalic" font-style="italic" font-weight="bold" font-size="38.0" fill="#FEFFFF" transform="matrix(1.00, 0.00, -0.00, -1.00, 901.0, 433.0)">–</text><text xml:space="preserve" font-family="Baskerville-SemiBoldItalic" font-style="italic" font-weight="bold" font-size="38.0" fill="#FEFFFF" transform="matrix(1.00, 0.00, -0.00, -1.00, 920.0, 433.0)">M</text><text xml:space="preserve" font-family="Baskerville-SemiBoldItalic" font-style="italic" font-weight="bold" font-size="38.0" fill="#FEFFFF" transform="matrix(1.00, 0.00, -0.00, -1.00, 956.0, 433.0)">a</text><text xml:space="preserve" font-family="Baskerville-SemiBoldItalic" font-style="italic" font-weight="bold" font-size="38.0" fill="#FEFFFF" transform="matrix(1.00, 0.00, -0.00, -1.00, 976.2, 433.0)">r</text><text xml:space="preserve" font-family="Baskerville-SemiBoldItalic" font-style="italic" font-weight="bold" font-size="38.0" fill="#FEFFFF" transform="matrix(1.00, 0.00, -0.00, -1.00, 992.8, 433.0)">g</text><text xml:space="preserve" font-family="Baskerville-SemiBoldItalic" font-style="italic" font-weight="bold" font-size="38.0" fill="#FEFFFF" transform="matrix(1.00, 0.00, -0.00, -1.00, 1011.5, 433.0)">a</text><text xml:space="preserve" font-family="Baskerville-SemiBoldItalic" font-style="italic" font-weight="bold" font-size="38.0" fill="#FEFFFF" transform="matrix(1.00, 0.00, -0.00, -1.00, 1031.6, 433.0)">r</text><text xml:space="preserve" font-family="Baskerville-SemiBoldItalic" font-style="italic" font-weight="bold" font-size="38.0" fill="#FEFFFF" transform="matrix(1.00, 0.00, -0.00, -1.00, 1048.2, 433.0)">e</text><text xml:space="preserve" font-family="Baskerville-SemiBoldItalic" font-style="italic" font-weight="bold" font-size="38.0" fill="#FEFFFF" transform="matrix(1.00, 0.00, -0.00, -1.00, 1066.0, 433.0)">t</text><text xml:space="preserve" font-family="Baskerville-SemiBoldItalic" font-style="italic" font-weight="bold" font-size="38.0" fill="#FEFFFF" transform="matrix(1.00, 0.00, -0.00, -1.00, 1078.7, 433.0)"> </text><text xml:space="preserve" font-family="Baskerville-SemiBoldItalic" font-style="italic" font-weight="bold" font-size="38.0" fill="#FEFFFF" transform="matrix(1.00, 0.00, -0.00, -1.00, 1088.2, 433.0)">K</text><text xml:space="preserve" font-family="Baskerville-SemiBoldItalic" font-style="italic" font-weight="bold" font-size="38.0" fill="#FEFFFF" transform="matrix(1.00, 0.00, -0.00, -1.00, 1115.5, 433.0)">i</text><text xml:space="preserve" font-family="Baskerville-SemiBoldItalic" font-style="italic" font-weight="bold" font-size="38.0" fill="#FEFFFF" transform="matrix(1.00, 0.00, -0.00, -1.00, 1127.4, 433.0)">m</text><path d="M 0.0 0.0 L 1858.0 0.0 L 1858.0 1025.6 L 0.0 1025.6 Z M 0.0 0.0 " fill="none" stroke="#FEFFFF" stroke-width="16.00" transform="matrix(1.00, 0.00, 0.00, -1.00, 31.0, 1052.8)"></path></g></svg>