<?xml version="1.0" encoding="UTF-8" standalone="no"?><svg xmlns="http://www.w3.org/2000/svg" xmlns:xlink="http://www.w3.org/1999/xlink" clip-rule="evenodd" stroke-miterlimit="4.00" viewBox="0 0 1920 1080"><desc>SVG generated by Keynote</desc><defs></defs><g transform="matrix(1.00, 0.00, -0.00, -1.00, 0.0, 1080.0)"><path d="M 0.0 1080.0 L 1920.0 1080.0 L 1920.0 0.0 L 0.0 0.0 Z M 0.0 1080.0 " fill="#000000"></path><g opacity="0.28"><g><clipPath id="clip-39"><path d="M -4.0 1080.0 L 1924.0 1080.0 L 1924.0 0.0 L -4.0 0.0 Z M -4.0 1080.0 "></path></clipPath><g clip-path="url(#clip-39)"><g><clipPath id="clip-40"><path d="M 0.0 0.0 L 1920.0 0.0 L 1920.0 1080.0 L 0.0 1080.0 Z M 0.0 0.0 "></path></clipPath><g clip-path="url(#clip-40)"><image xlink:href="../../2D75F3B9-2563-47DC-B643-0B676825CFDE/assets/A90D41918FFA35B4B93C73CBF7AF40D9.jpeg" width="1152.00" height="767.00" transform="matrix(2.17, 0.00, -0.00, -2.17, -1.0, 1088.0)"></image></g></g></g></g></g><text xml:space="preserve" font-family="Baskerville" font-size="42.0" fill="#FEFFFF" transform="matrix(1.00, 0.00, -0.00, -1.00, 487.0, 497.0)">T</text><text xml:space="preserve" font-family="Baskerville" font-size="42.0" fill="#FEFFFF" transform="matrix(1.00, 0.00, -0.00, -1.00, 512.8, 497.0)">a</text><text xml:space="preserve" font-family="Baskerville" font-size="42.0" fill="#FEFFFF" transform="matrix(1.00, 0.00, -0.00, -1.00, 532.4, 497.0)">k</text><text xml:space="preserve" font-family="Baskerville" font-size="42.0" fill="#FEFFFF" transform="matrix(1.00, 0.00, -0.00, -1.00, 551.7, 497.0)">e</text><text xml:space="preserve" font-family="Baskerville" font-size="42.0" fill="#FEFFFF" transform="matrix(1.00, 0.00, -0.00, -1.00, 570.1, 497.0)"> </text><text xml:space="preserve" font-family="Baskerville" font-size="42.0" fill="#FEFFFF" transform="matrix(1.00, 0.00, -0.00, -1.00, 580.6, 497.0)">t</text><text xml:space="preserve" font-family="Baskerville" font-size="42.0" fill="#FEFFFF" transform="matrix(1.00, 0.00, -0.00, -1.00, 592.8, 497.0)">h</text><text xml:space="preserve" font-family="Baskerville" font-size="42.0" fill="#FEFFFF" transform="matrix(1.00, 0.00, -0.00, -1.00, 615.1, 497.0)">i</text><text xml:space="preserve" font-family="Baskerville" font-size="42.0" fill="#FEFFFF" transform="matrix(1.00, 0.00, -0.00, -1.00, 625.6, 497.0)">s</text><text xml:space="preserve" font-family="Baskerville" font-size="42.0" fill="#FEFFFF" transform="matrix(1.00, 0.00, -0.00, -1.00, 639.7, 497.0)"> </text><text xml:space="preserve" font-family="Baskerville" font-size="42.0" fill="#FEFFFF" transform="matrix(1.00, 0.00, -0.00, -1.00, 650.2, 497.0)">‘</text><text xml:space="preserve" font-family="Baskerville" font-size="42.0" fill="#FEFFFF" transform="matrix(1.00, 0.00, -0.00, -1.00, 660.7, 497.0)">r</text><text xml:space="preserve" font-family="Baskerville" font-size="42.0" fill="#FEFFFF" transform="matrix(1.00, 0.00, -0.00, -1.00, 675.2, 497.0)">o</text><text xml:space="preserve" font-family="Baskerville" font-size="42.0" fill="#FEFFFF" transform="matrix(1.00, 0.00, -0.00, -1.00, 696.2, 497.0)">u</text><text xml:space="preserve" font-family="Baskerville" font-size="42.0" fill="#FEFFFF" transform="matrix(1.00, 0.00, -0.00, -1.00, 718.0, 497.0)">g</text><text xml:space="preserve" font-family="Baskerville" font-size="42.0" fill="#FEFFFF" transform="matrix(1.00, 0.00, -0.00, -1.00, 737.7, 497.0)">h</text><text xml:space="preserve" font-family="Baskerville" font-size="42.0" fill="#FEFFFF" transform="matrix(1.00, 0.00, -0.00, -1.00, 760.0, 497.0)">-</text><text xml:space="preserve" font-family="Baskerville" font-size="42.0" fill="#FEFFFF" transform="matrix(1.00, 0.00, -0.00, -1.00, 773.1, 497.0)">c</text><text xml:space="preserve" font-family="Baskerville" font-size="42.0" fill="#FEFFFF" transform="matrix(1.00, 0.00, -0.00, -1.00, 791.1, 497.0)">u</text><text xml:space="preserve" font-family="Baskerville" font-size="42.0" fill="#FEFFFF" transform="matrix(1.00, 0.00, -0.00, -1.00, 813.0, 497.0)">t</text><text xml:space="preserve" font-family="Baskerville" font-size="42.0" fill="#FEFFFF" transform="matrix(1.00, 0.00, -0.00, -1.00, 825.2, 497.0)"> </text><text xml:space="preserve" font-family="Baskerville" font-size="42.0" fill="#FEFFFF" transform="matrix(1.00, 0.00, -0.00, -1.00, 835.7, 497.0)">d</text><text xml:space="preserve" font-family="Baskerville" font-size="42.0" fill="#FEFFFF" transform="matrix(1.00, 0.00, -0.00, -1.00, 857.6, 497.0)">i</text><text xml:space="preserve" font-family="Baskerville" font-size="42.0" fill="#FEFFFF" transform="matrix(1.00, 0.00, -0.00, -1.00, 868.1, 497.0)">a</text><text xml:space="preserve" font-family="Baskerville" font-size="42.0" fill="#FEFFFF" transform="matrix(1.00, 0.00, -0.00, -1.00, 887.8, 497.0)">m</text><text xml:space="preserve" font-family="Baskerville" font-size="42.0" fill="#FEFFFF" transform="matrix(1.00, 0.00, -0.00, -1.00, 921.5, 497.0)">o</text><text xml:space="preserve" font-family="Baskerville" font-size="42.0" fill="#FEFFFF" transform="matrix(1.00, 0.00, -0.00, -1.00, 942.5, 497.0)">n</text><text xml:space="preserve" font-family="Baskerville" font-size="42.0" fill="#FEFFFF" transform="matrix(1.00, 0.00, -0.00, -1.00, 964.8, 497.0)">d</text><text xml:space="preserve" font-family="Baskerville" font-size="42.0" fill="#FEFFFF" transform="matrix(1.00, 0.00, -0.00, -1.00, 986.7, 497.0)">”</text><text xml:space="preserve" font-family="Baskerville" font-size="42.0" fill="#FEFFFF" transform="matrix(1.00, 0.00, -0.00, -1.00, 1005.9, 497.0)"> </text><text xml:space="preserve" font-family="Baskerville" font-size="42.0" fill="#FEFFFF" transform="matrix(1.00, 0.00, -0.00, -1.00, 1016.4, 497.0)">a</text><text xml:space="preserve" font-family="Baskerville" font-size="42.0" fill="#FEFFFF" transform="matrix(1.00, 0.00, -0.00, -1.00, 1036.1, 497.0)">n</text><text xml:space="preserve" font-family="Baskerville" font-size="42.0" fill="#FEFFFF" transform="matrix(1.00, 0.00, -0.00, -1.00, 1058.4, 497.0)">d</text><text xml:space="preserve" font-family="Baskerville" font-size="42.0" fill="#FEFFFF" transform="matrix(1.00, 0.00, -0.00, -1.00, 1080.3, 497.0)"> </text><text xml:space="preserve" font-family="Baskerville" font-size="42.0" fill="#FEFFFF" transform="matrix(1.00, 0.00, -0.00, -1.00, 1090.8, 497.0)">c</text><text xml:space="preserve" font-family="Baskerville" font-size="42.0" fill="#FEFFFF" transform="matrix(1.00, 0.00, -0.00, -1.00, 1108.8, 497.0)">r</text><text xml:space="preserve" font-family="Baskerville" font-size="42.0" fill="#FEFFFF" transform="matrix(1.00, 0.00, -0.00, -1.00, 1123.7, 497.0)">e</text><text xml:space="preserve" font-family="Baskerville" font-size="42.0" fill="#FEFFFF" transform="matrix(1.00, 0.00, -0.00, -1.00, 1142.0, 497.0)">a</text><text xml:space="preserve" font-family="Baskerville" font-size="42.0" fill="#FEFFFF" transform="matrix(1.00, 0.00, -0.00, -1.00, 1161.3, 497.0)">t</text><text xml:space="preserve" font-family="Baskerville" font-size="42.0" fill="#FEFFFF" transform="matrix(1.00, 0.00, -0.00, -1.00, 1173.5, 497.0)">e</text><text xml:space="preserve" font-family="Baskerville" font-size="42.0" fill="#FEFFFF" transform="matrix(1.00, 0.00, -0.00, -1.00, 1191.9, 497.0)"> </text><text xml:space="preserve" font-family="Baskerville" font-size="42.0" fill="#FEFFFF" transform="matrix(1.00, 0.00, -0.00, -1.00, 1202.4, 497.0)">a</text><text xml:space="preserve" font-family="Baskerville" font-size="42.0" fill="#FEFFFF" transform="matrix(1.00, 0.00, -0.00, -1.00, 1222.1, 497.0)">n</text><text xml:space="preserve" font-family="Baskerville" font-size="42.0" fill="#FEFFFF" transform="matrix(1.00, 0.00, -0.00, -1.00, 1244.4, 497.0)"> </text><text xml:space="preserve" font-family="Baskerville" font-size="42.0" fill="#FEFFFF" transform="matrix(1.00, 0.00, -0.00, -1.00, 1254.9, 497.0)">a</text><text xml:space="preserve" font-family="Baskerville" font-size="42.0" fill="#FEFFFF" transform="matrix(1.00, 0.00, -0.00, -1.00, 1274.6, 497.0)">u</text><text xml:space="preserve" font-family="Baskerville" font-size="42.0" fill="#FEFFFF" transform="matrix(1.00, 0.00, -0.00, -1.00, 1296.4, 497.0)">t</text><text xml:space="preserve" font-family="Baskerville" font-size="42.0" fill="#FEFFFF" transform="matrix(1.00, 0.00, -0.00, -1.00, 1308.7, 497.0)">h</text><text xml:space="preserve" font-family="Baskerville" font-size="42.0" fill="#FEFFFF" transform="matrix(1.00, 0.00, -0.00, -1.00, 1331.0, 497.0)">e</text><text xml:space="preserve" font-family="Baskerville" font-size="42.0" fill="#FEFFFF" transform="matrix(1.00, 0.00, -0.00, -1.00, 1349.3, 497.0)">n</text><text xml:space="preserve" font-family="Baskerville" font-size="42.0" fill="#FEFFFF" transform="matrix(1.00, 0.00, -0.00, -1.00, 1371.7, 497.0)">t</text><text xml:space="preserve" font-family="Baskerville" font-size="42.0" fill="#FEFFFF" transform="matrix(1.00, 0.00, -0.00, -1.00, 1383.9, 497.0)">i</text><text xml:space="preserve" font-family="Baskerville" font-size="42.0" fill="#FEFFFF" transform="matrix(1.00, 0.00, -0.00, -1.00, 1394.4, 497.0)">c</text><text xml:space="preserve" font-family="Baskerville" font-size="42.0" fill="#FEFFFF" transform="matrix(1.00, 0.00, -0.00, -1.00, 1412.3, 497.0)">,</text><text xml:space="preserve" font-family="Baskerville" font-size="42.0" fill="#FEFFFF" transform="matrix(1.00, 0.00, -0.00, -1.00, 1422.8, 497.0)"> </text><text xml:space="preserve" font-family="Baskerville" font-size="42.0" fill="#FEFFFF" transform="matrix(1.00, 0.00, -0.00, -1.00, 460.0, 435.0)">a</text><text xml:space="preserve" font-family="Baskerville" font-size="42.0" fill="#FEFFFF" transform="matrix(1.00, 0.00, -0.00, -1.00, 479.7, 435.0)">l</text><text xml:space="preserve" font-family="Baskerville" font-size="42.0" fill="#FEFFFF" transform="matrix(1.00, 0.00, -0.00, -1.00, 489.7, 435.0)">b</text><text xml:space="preserve" font-family="Baskerville" font-size="42.0" fill="#FEFFFF" transform="matrix(1.00, 0.00, -0.00, -1.00, 511.6, 435.0)">e</text><text xml:space="preserve" font-family="Baskerville" font-size="42.0" fill="#FEFFFF" transform="matrix(1.00, 0.00, -0.00, -1.00, 530.0, 435.0)">i</text><text xml:space="preserve" font-family="Baskerville" font-size="42.0" fill="#FEFFFF" transform="matrix(1.00, 0.00, -0.00, -1.00, 540.5, 435.0)">t</text><text xml:space="preserve" font-family="Baskerville" font-size="42.0" fill="#FEFFFF" transform="matrix(1.00, 0.00, -0.00, -1.00, 552.7, 435.0)"> </text><text xml:space="preserve" font-family="Baskerville" font-size="42.0" fill="#FEFFFF" transform="matrix(1.00, 0.00, -0.00, -1.00, 563.2, 435.0)">l</text><text xml:space="preserve" font-family="Baskerville" font-size="42.0" fill="#FEFFFF" transform="matrix(1.00, 0.00, -0.00, -1.00, 573.2, 435.0)">u</text><text xml:space="preserve" font-family="Baskerville" font-size="42.0" fill="#FEFFFF" transform="matrix(1.00, 0.00, -0.00, -1.00, 595.1, 435.0)">x</text><text xml:space="preserve" font-family="Baskerville" font-size="42.0" fill="#FEFFFF" transform="matrix(1.00, 0.00, -0.00, -1.00, 615.2, 435.0)">u</text><text xml:space="preserve" font-family="Baskerville" font-size="42.0" fill="#FEFFFF" transform="matrix(1.00, 0.00, -0.00, -1.00, 637.1, 435.0)">r</text><text xml:space="preserve" font-family="Baskerville" font-size="42.0" fill="#FEFFFF" transform="matrix(1.00, 0.00, -0.00, -1.00, 652.4, 435.0)">i</text><text xml:space="preserve" font-family="Baskerville" font-size="42.0" fill="#FEFFFF" transform="matrix(1.00, 0.00, -0.00, -1.00, 662.9, 435.0)">o</text><text xml:space="preserve" font-family="Baskerville" font-size="42.0" fill="#FEFFFF" transform="matrix(1.00, 0.00, -0.00, -1.00, 683.9, 435.0)">u</text><text xml:space="preserve" font-family="Baskerville" font-size="42.0" fill="#FEFFFF" transform="matrix(1.00, 0.00, -0.00, -1.00, 705.8, 435.0)">s</text><text xml:space="preserve" font-family="Baskerville" font-size="42.0" fill="#FEFFFF" transform="matrix(1.00, 0.00, -0.00, -1.00, 719.0, 435.0)">,</text><text xml:space="preserve" font-family="Baskerville" font-size="42.0" fill="#FEFFFF" transform="matrix(1.00, 0.00, -0.00, -1.00, 729.5, 435.0)"> </text><text xml:space="preserve" font-family="Baskerville" font-size="42.0" fill="#FEFFFF" transform="matrix(1.00, 0.00, -0.00, -1.00, 740.1, 435.0)">c</text><text xml:space="preserve" font-family="Baskerville" font-size="42.0" fill="#FEFFFF" transform="matrix(1.00, 0.00, -0.00, -1.00, 758.1, 435.0)">o</text><text xml:space="preserve" font-family="Baskerville" font-size="42.0" fill="#FEFFFF" transform="matrix(1.00, 0.00, -0.00, -1.00, 779.1, 435.0)">n</text><text xml:space="preserve" font-family="Baskerville" font-size="42.0" fill="#FEFFFF" transform="matrix(1.00, 0.00, -0.00, -1.00, 801.4, 435.0)">s</text><text xml:space="preserve" font-family="Baskerville" font-size="42.0" fill="#FEFFFF" transform="matrix(1.00, 0.00, -0.00, -1.00, 815.4, 435.0)">e</text><text xml:space="preserve" font-family="Baskerville" font-size="42.0" fill="#FEFFFF" transform="matrix(1.00, 0.00, -0.00, -1.00, 833.8, 435.0)">r</text><text xml:space="preserve" font-family="Baskerville" font-size="42.0" fill="#FEFFFF" transform="matrix(1.00, 0.00, -0.00, -1.00, 849.1, 435.0)">v</text><text xml:space="preserve" font-family="Baskerville" font-size="42.0" fill="#FEFFFF" transform="matrix(1.00, 0.00, -0.00, -1.00, 867.9, 435.0)">a</text><text xml:space="preserve" font-family="Baskerville" font-size="42.0" fill="#FEFFFF" transform="matrix(1.00, 0.00, -0.00, -1.00, 887.2, 435.0)">t</text><text xml:space="preserve" font-family="Baskerville" font-size="42.0" fill="#FEFFFF" transform="matrix(1.00, 0.00, -0.00, -1.00, 899.4, 435.0)">i</text><text xml:space="preserve" font-family="Baskerville" font-size="42.0" fill="#FEFFFF" transform="matrix(1.00, 0.00, -0.00, -1.00, 909.9, 435.0)">o</text><text xml:space="preserve" font-family="Baskerville" font-size="42.0" fill="#FEFFFF" transform="matrix(1.00, 0.00, -0.00, -1.00, 930.9, 435.0)">n</text><text xml:space="preserve" font-family="Baskerville" font-size="42.0" fill="#FEFFFF" transform="matrix(1.00, 0.00, -0.00, -1.00, 953.3, 435.0)"> </text><text xml:space="preserve" font-family="Baskerville" font-size="42.0" fill="#FEFFFF" transform="matrix(1.00, 0.00, -0.00, -1.00, 963.8, 435.0)">e</text><text xml:space="preserve" font-family="Baskerville" font-size="42.0" fill="#FEFFFF" transform="matrix(1.00, 0.00, -0.00, -1.00, 982.1, 435.0)">c</text><text xml:space="preserve" font-family="Baskerville" font-size="42.0" fill="#FEFFFF" transform="matrix(1.00, 0.00, -0.00, -1.00, 1000.1, 435.0)">o</text><text xml:space="preserve" font-family="Baskerville" font-size="42.0" fill="#FEFFFF" transform="matrix(1.00, 0.00, -0.00, -1.00, 1021.1, 435.0)">t</text><text xml:space="preserve" font-family="Baskerville" font-size="42.0" fill="#FEFFFF" transform="matrix(1.00, 0.00, -0.00, -1.00, 1033.3, 435.0)">o</text><text xml:space="preserve" font-family="Baskerville" font-size="42.0" fill="#FEFFFF" transform="matrix(1.00, 0.00, -0.00, -1.00, 1054.3, 435.0)">u</text><text xml:space="preserve" font-family="Baskerville" font-size="42.0" fill="#FEFFFF" transform="matrix(1.00, 0.00, -0.00, -1.00, 1076.2, 435.0)">r</text><text xml:space="preserve" font-family="Baskerville" font-size="42.0" fill="#FEFFFF" transform="matrix(1.00, 0.00, -0.00, -1.00, 1091.5, 435.0)">i</text><text xml:space="preserve" font-family="Baskerville" font-size="42.0" fill="#FEFFFF" transform="matrix(1.00, 0.00, -0.00, -1.00, 1102.0, 435.0)">s</text><text xml:space="preserve" font-family="Baskerville" font-size="42.0" fill="#FEFFFF" transform="matrix(1.00, 0.00, -0.00, -1.00, 1116.0, 435.0)">m</text><text xml:space="preserve" font-family="Baskerville" font-size="42.0" fill="#FEFFFF" transform="matrix(1.00, 0.00, -0.00, -1.00, 1149.7, 435.0)"> </text><text xml:space="preserve" font-family="Baskerville" font-size="42.0" fill="#FEFFFF" transform="matrix(1.00, 0.00, -0.00, -1.00, 1160.2, 435.0)">d</text><text xml:space="preserve" font-family="Baskerville" font-size="42.0" fill="#FEFFFF" transform="matrix(1.00, 0.00, -0.00, -1.00, 1182.1, 435.0)">e</text><text xml:space="preserve" font-family="Baskerville" font-size="42.0" fill="#FEFFFF" transform="matrix(1.00, 0.00, -0.00, -1.00, 1200.4, 435.0)">s</text><text xml:space="preserve" font-family="Baskerville" font-size="42.0" fill="#FEFFFF" transform="matrix(1.00, 0.00, -0.00, -1.00, 1214.5, 435.0)">t</text><text xml:space="preserve" font-family="Baskerville" font-size="42.0" fill="#FEFFFF" transform="matrix(1.00, 0.00, -0.00, -1.00, 1226.7, 435.0)">i</text><text xml:space="preserve" font-family="Baskerville" font-size="42.0" fill="#FEFFFF" transform="matrix(1.00, 0.00, -0.00, -1.00, 1237.2, 435.0)">n</text><text xml:space="preserve" font-family="Baskerville" font-size="42.0" fill="#FEFFFF" transform="matrix(1.00, 0.00, -0.00, -1.00, 1259.5, 435.0)">a</text><text xml:space="preserve" font-family="Baskerville" font-size="42.0" fill="#FEFFFF" transform="matrix(1.00, 0.00, -0.00, -1.00, 1278.8, 435.0)">t</text><text xml:space="preserve" font-family="Baskerville" font-size="42.0" fill="#FEFFFF" transform="matrix(1.00, 0.00, -0.00, -1.00, 1291.0, 435.0)">i</text><text xml:space="preserve" font-family="Baskerville" font-size="42.0" fill="#FEFFFF" transform="matrix(1.00, 0.00, -0.00, -1.00, 1301.5, 435.0)">o</text><text xml:space="preserve" font-family="Baskerville" font-size="42.0" fill="#FEFFFF" transform="matrix(1.00, 0.00, -0.00, -1.00, 1322.5, 435.0)">n</text><text xml:space="preserve" font-family="Baskerville" font-size="42.0" fill="#FEFFFF" transform="matrix(1.00, 0.00, -0.00, -1.00, 1344.8, 435.0)"> </text><text xml:space="preserve" font-family="Baskerville" font-size="42.0" fill="#FEFFFF" transform="matrix(1.00, 0.00, -0.00, -1.00, 1355.3, 435.0)">j</text><text xml:space="preserve" font-family="Baskerville" font-size="42.0" fill="#FEFFFF" transform="matrix(1.00, 0.00, -0.00, -1.00, 1365.8, 435.0)">e</text><text xml:space="preserve" font-family="Baskerville" font-size="42.0" fill="#FEFFFF" transform="matrix(1.00, 0.00, -0.00, -1.00, 1384.2, 435.0)">w</text><text xml:space="preserve" font-family="Baskerville" font-size="42.0" fill="#FEFFFF" transform="matrix(1.00, 0.00, -0.00, -1.00, 1412.2, 435.0)">e</text><text xml:space="preserve" font-family="Baskerville" font-size="42.0" fill="#FEFFFF" transform="matrix(1.00, 0.00, -0.00, -1.00, 1430.6, 435.0)">l</text><text xml:space="preserve" font-family="Baskerville" font-size="42.0" fill="#FEFFFF" transform="matrix(1.00, 0.00, -0.00, -1.00, 1440.6, 435.0)">.</text><text xml:space="preserve" font-family="Baskerville" font-size="42.0" fill="#FEFFFF" transform="matrix(1.00, 0.00, -0.00, -1.00, 1451.1, 435.0)"> </text><text xml:space="preserve" font-family="Bebas" font-size="40.0" fill="#FEFFFF" transform="matrix(1.00, 0.00, -0.00, -1.00, 899.0, 577.0)">V</text><text xml:space="preserve" font-family="Bebas" font-size="40.0" fill="#FEFFFF" transform="matrix(1.00, 0.00, -0.00, -1.00, 923.7, 577.0)">i</text><text xml:space="preserve" font-family="Bebas" font-size="40.0" fill="#FEFFFF" transform="matrix(1.00, 0.00, -0.00, -1.00, 933.5, 577.0)">s</text><text xml:space="preserve" font-family="Bebas" font-size="40.0" fill="#FEFFFF" transform="matrix(1.00, 0.00, -0.00, -1.00, 955.7, 577.0)">i</text><text xml:space="preserve" font-family="Bebas" font-size="40.0" fill="#FEFFFF" transform="matrix(1.00, 0.00, -0.00, -1.00, 965.8, 577.0)">o</text><text xml:space="preserve" font-family="Bebas" font-size="40.0" fill="#FEFFFF" transform="matrix(1.00, 0.00, -0.00, -1.00, 987.5, 577.0)">n</text><path d="M 0.0 0.0 L 1858.0 0.0 L 1858.0 1025.6 L 0.0 1025.6 Z M 0.0 0.0 " fill="none" stroke="#FEFFFF" stroke-width="16.00" transform="matrix(1.00, 0.00, 0.00, -1.00, 31.0, 1052.8)"></path></g></svg>