<?xml version="1.0" encoding="UTF-8" standalone="no"?><svg xmlns="http://www.w3.org/2000/svg" xmlns:xlink="http://www.w3.org/1999/xlink" clip-rule="evenodd" stroke-miterlimit="4.00" viewBox="0 0 1920 1080"><desc>SVG generated by Keynote</desc><defs></defs><g transform="matrix(1.00, 0.00, -0.00, -1.00, 0.0, 1080.0)"><path d="M 0.0 1080.0 L 1920.0 1080.0 L 1920.0 0.0 L 0.0 0.0 Z M 0.0 1080.0 " fill="#000000"></path><g opacity="0.50"><g><clipPath id="clip-41"><path d="M -4.0 1080.0 L 1924.0 1080.0 L 1924.0 0.0 L -4.0 0.0 Z M -4.0 1080.0 "></path></clipPath><g clip-path="url(#clip-41)"><g><clipPath id="clip-42"><path d="M 0.0 0.0 L 1920.0 0.0 L 1920.0 1080.0 L 0.0 1080.0 Z M 0.0 0.0 "></path></clipPath><g clip-path="url(#clip-42)"><image xlink:href="B24154136217886940E3A7FEF5B26C5E.jpeg" width="1150.00" height="768.00" transform="matrix(1.68, 0.00, -0.00, -1.68, -4.0, 1184.0)"></image></g></g></g></g></g><path d="M 0.0 0.0 L 1858.0 0.0 L 1858.0 1025.6 L 0.0 1025.6 Z M 0.0 0.0 " fill="none" stroke="#FEFFFF" stroke-width="16.00" transform="matrix(1.00, 0.00, 0.00, -1.00, 31.0, 1052.8)"></path><text xml:space="preserve" font-family="Bebas" font-size="40.0" fill="#FEFFFF" transform="matrix(1.00, 0.00, -0.00, -1.00, 824.0, 617.0)">G</text><text xml:space="preserve" font-family="Bebas" font-size="40.0" fill="#FEFFFF" transform="matrix(1.00, 0.00, -0.00, -1.00, 845.6, 617.0)">O</text><text xml:space="preserve" font-family="Bebas" font-size="40.0" fill="#FEFFFF" transform="matrix(1.00, 0.00, -0.00, -1.00, 866.3, 617.0)">A</text><text xml:space="preserve" font-family="Bebas" font-size="40.0" fill="#FEFFFF" transform="matrix(1.00, 0.00, -0.00, -1.00, 890.2, 617.0)">L</text><text xml:space="preserve" font-family="Bebas" font-size="40.0" fill="#FEFFFF" transform="matrix(1.00, 0.00, -0.00, -1.00, 908.5, 617.0)"> </text><text xml:space="preserve" font-family="Bebas" font-size="40.0" fill="#FEFFFF" transform="matrix(1.00, 0.00, -0.00, -1.00, 912.2, 617.0)"> </text><text xml:space="preserve" font-family="LucidaGrande" font-size="40.0" fill="#FEFFFF" transform="matrix(1.00, 0.00, -0.00, -1.00, 915.9, 617.0)">–</text><text xml:space="preserve" font-family="Bebas" font-size="40.0" fill="#FEFFFF" transform="matrix(1.00, 0.00, -0.00, -1.00, 935.9, 617.0)"> </text><text xml:space="preserve" font-family="Bebas" font-size="40.0" fill="#FEFFFF" transform="matrix(1.00, 0.00, -0.00, -1.00, 939.6, 617.0)"> </text><text xml:space="preserve" font-family="Bebas" font-size="40.0" fill="#FEFFFF" transform="matrix(1.00, 0.00, -0.00, -1.00, 943.3, 617.0)">T</text><text xml:space="preserve" font-family="Bebas" font-size="40.0" fill="#FEFFFF" transform="matrix(1.00, 0.00, -0.00, -1.00, 964.4, 617.0)">H</text><text xml:space="preserve" font-family="Bebas" font-size="40.0" fill="#FEFFFF" transform="matrix(1.00, 0.00, -0.00, -1.00, 986.4, 617.0)">E</text><text xml:space="preserve" font-family="Bebas" font-size="40.0" fill="#FEFFFF" transform="matrix(1.00, 0.00, -0.00, -1.00, 1005.4, 617.0)"> </text><text xml:space="preserve" font-family="Bebas" font-size="40.0" fill="#FEFFFF" transform="matrix(1.00, 0.00, -0.00, -1.00, 1009.1, 617.0)"> </text><text xml:space="preserve" font-family="Bebas" font-size="40.0" fill="#FEFFFF" transform="matrix(1.00, 0.00, -0.00, -1.00, 1012.8, 617.0)">L</text><text xml:space="preserve" font-family="Bebas" font-size="40.0" fill="#FEFFFF" transform="matrix(1.00, 0.00, -0.00, -1.00, 1031.2, 617.0)">O</text><text xml:space="preserve" font-family="Bebas" font-size="40.0" fill="#FEFFFF" transform="matrix(1.00, 0.00, -0.00, -1.00, 1052.8, 617.0)">G</text><text xml:space="preserve" font-family="Bebas" font-size="40.0" fill="#FEFFFF" transform="matrix(1.00, 0.00, -0.00, -1.00, 1074.4, 617.0)">O</text><text xml:space="preserve" font-family="Baskerville" font-size="42.0" fill="#FEFFFF" transform="matrix(1.00, 0.00, -0.00, -1.00, 481.0, 537.0)">D</text><text xml:space="preserve" font-family="Baskerville" font-size="42.0" fill="#FEFFFF" transform="matrix(1.00, 0.00, -0.00, -1.00, 512.9, 537.0)">e</text><text xml:space="preserve" font-family="Baskerville" font-size="42.0" fill="#FEFFFF" transform="matrix(1.00, 0.00, -0.00, -1.00, 531.3, 537.0)">s</text><text xml:space="preserve" font-family="Baskerville" font-size="42.0" fill="#FEFFFF" transform="matrix(1.00, 0.00, -0.00, -1.00, 545.3, 537.0)">i</text><text xml:space="preserve" font-family="Baskerville" font-size="42.0" fill="#FEFFFF" transform="matrix(1.00, 0.00, -0.00, -1.00, 555.8, 537.0)">g</text><text xml:space="preserve" font-family="Baskerville" font-size="42.0" fill="#FEFFFF" transform="matrix(1.00, 0.00, -0.00, -1.00, 575.5, 537.0)">n</text><text xml:space="preserve" font-family="Baskerville" font-size="42.0" fill="#FEFFFF" transform="matrix(1.00, 0.00, -0.00, -1.00, 597.8, 537.0)"> </text><text xml:space="preserve" font-family="Baskerville" font-size="42.0" fill="#FEFFFF" transform="matrix(1.00, 0.00, -0.00, -1.00, 608.3, 537.0)">a</text><text xml:space="preserve" font-family="Baskerville" font-size="42.0" fill="#FEFFFF" transform="matrix(1.00, 0.00, -0.00, -1.00, 628.0, 537.0)"> </text><text xml:space="preserve" font-family="Baskerville" font-size="42.0" fill="#FEFFFF" transform="matrix(1.00, 0.00, -0.00, -1.00, 638.5, 537.0)">l</text><text xml:space="preserve" font-family="Baskerville" font-size="42.0" fill="#FEFFFF" transform="matrix(1.00, 0.00, -0.00, -1.00, 648.6, 537.0)">o</text><text xml:space="preserve" font-family="Baskerville" font-size="42.0" fill="#FEFFFF" transform="matrix(1.00, 0.00, -0.00, -1.00, 669.6, 537.0)">g</text><text xml:space="preserve" font-family="Baskerville" font-size="42.0" fill="#FEFFFF" transform="matrix(1.00, 0.00, -0.00, -1.00, 689.2, 537.0)">o</text><text xml:space="preserve" font-family="Baskerville" font-size="42.0" fill="#FEFFFF" transform="matrix(1.00, 0.00, -0.00, -1.00, 710.2, 537.0)">t</text><text xml:space="preserve" font-family="Baskerville" font-size="42.0" fill="#FEFFFF" transform="matrix(1.00, 0.00, -0.00, -1.00, 722.5, 537.0)">y</text><text xml:space="preserve" font-family="Baskerville" font-size="42.0" fill="#FEFFFF" transform="matrix(1.00, 0.00, -0.00, -1.00, 741.7, 537.0)">p</text><text xml:space="preserve" font-family="Baskerville" font-size="42.0" fill="#FEFFFF" transform="matrix(1.00, 0.00, -0.00, -1.00, 763.6, 537.0)">e</text><text xml:space="preserve" font-family="Baskerville" font-size="42.0" fill="#FEFFFF" transform="matrix(1.00, 0.00, -0.00, -1.00, 782.0, 537.0)"> </text><text xml:space="preserve" font-family="Baskerville" font-size="42.0" fill="#FEFFFF" transform="matrix(1.00, 0.00, -0.00, -1.00, 792.5, 537.0)">a</text><text xml:space="preserve" font-family="Baskerville" font-size="42.0" fill="#FEFFFF" transform="matrix(1.00, 0.00, -0.00, -1.00, 812.1, 537.0)">n</text><text xml:space="preserve" font-family="Baskerville" font-size="42.0" fill="#FEFFFF" transform="matrix(1.00, 0.00, -0.00, -1.00, 834.5, 537.0)">d</text><text xml:space="preserve" font-family="Baskerville" font-size="42.0" fill="#FEFFFF" transform="matrix(1.00, 0.00, -0.00, -1.00, 856.3, 537.0)"> </text><text xml:space="preserve" font-family="Baskerville" font-size="42.0" fill="#FEFFFF" transform="matrix(1.00, 0.00, -0.00, -1.00, 866.8, 537.0)">b</text><text xml:space="preserve" font-family="Baskerville" font-size="42.0" fill="#FEFFFF" transform="matrix(1.00, 0.00, -0.00, -1.00, 888.7, 537.0)">r</text><text xml:space="preserve" font-family="Baskerville" font-size="42.0" fill="#FEFFFF" transform="matrix(1.00, 0.00, -0.00, -1.00, 904.0, 537.0)">a</text><text xml:space="preserve" font-family="Baskerville" font-size="42.0" fill="#FEFFFF" transform="matrix(1.00, 0.00, -0.00, -1.00, 923.7, 537.0)">n</text><text xml:space="preserve" font-family="Baskerville" font-size="42.0" fill="#FEFFFF" transform="matrix(1.00, 0.00, -0.00, -1.00, 946.0, 537.0)">d</text><text xml:space="preserve" font-family="Baskerville" font-size="42.0" fill="#FEFFFF" transform="matrix(1.00, 0.00, -0.00, -1.00, 967.9, 537.0)"> </text><text xml:space="preserve" font-family="Baskerville" font-size="42.0" fill="#FEFFFF" transform="matrix(1.00, 0.00, -0.00, -1.00, 978.4, 537.0)">m</text><text xml:space="preserve" font-family="Baskerville" font-size="42.0" fill="#FEFFFF" transform="matrix(1.00, 0.00, -0.00, -1.00, 1012.1, 537.0)">a</text><text xml:space="preserve" font-family="Baskerville" font-size="42.0" fill="#FEFFFF" transform="matrix(1.00, 0.00, -0.00, -1.00, 1031.8, 537.0)">r</text><text xml:space="preserve" font-family="Baskerville" font-size="42.0" fill="#FEFFFF" transform="matrix(1.00, 0.00, -0.00, -1.00, 1046.3, 537.0)">k</text><text xml:space="preserve" font-family="Baskerville" font-size="42.0" fill="#FEFFFF" transform="matrix(1.00, 0.00, -0.00, -1.00, 1065.6, 537.0)"> </text><text xml:space="preserve" font-family="Baskerville" font-size="42.0" fill="#FEFFFF" transform="matrix(1.00, 0.00, -0.00, -1.00, 1076.1, 537.0)">t</text><text xml:space="preserve" font-family="Baskerville" font-size="42.0" fill="#FEFFFF" transform="matrix(1.00, 0.00, -0.00, -1.00, 1088.3, 537.0)">h</text><text xml:space="preserve" font-family="Baskerville" font-size="42.0" fill="#FEFFFF" transform="matrix(1.00, 0.00, -0.00, -1.00, 1110.6, 537.0)">a</text><text xml:space="preserve" font-family="Baskerville" font-size="42.0" fill="#FEFFFF" transform="matrix(1.00, 0.00, -0.00, -1.00, 1129.9, 537.0)">t</text><text xml:space="preserve" font-family="Baskerville" font-size="42.0" fill="#FEFFFF" transform="matrix(1.00, 0.00, -0.00, -1.00, 1142.1, 537.0)"> </text><text xml:space="preserve" font-family="Baskerville" font-size="42.0" fill="#FEFFFF" transform="matrix(1.00, 0.00, -0.00, -1.00, 1152.6, 537.0)">p</text><text xml:space="preserve" font-family="Baskerville" font-size="42.0" fill="#FEFFFF" transform="matrix(1.00, 0.00, -0.00, -1.00, 1174.5, 537.0)">r</text><text xml:space="preserve" font-family="Baskerville" font-size="42.0" fill="#FEFFFF" transform="matrix(1.00, 0.00, -0.00, -1.00, 1189.0, 537.0)">o</text><text xml:space="preserve" font-family="Baskerville" font-size="42.0" fill="#FEFFFF" transform="matrix(1.00, 0.00, -0.00, -1.00, 1208.8, 537.0)">v</text><text xml:space="preserve" font-family="Baskerville" font-size="42.0" fill="#FEFFFF" transform="matrix(1.00, 0.00, -0.00, -1.00, 1228.1, 537.0)">i</text><text xml:space="preserve" font-family="Baskerville" font-size="42.0" fill="#FEFFFF" transform="matrix(1.00, 0.00, -0.00, -1.00, 1238.6, 537.0)">d</text><text xml:space="preserve" font-family="Baskerville" font-size="42.0" fill="#FEFFFF" transform="matrix(1.00, 0.00, -0.00, -1.00, 1260.5, 537.0)">e</text><text xml:space="preserve" font-family="Baskerville" font-size="42.0" fill="#FEFFFF" transform="matrix(1.00, 0.00, -0.00, -1.00, 1278.9, 537.0)">s</text><text xml:space="preserve" font-family="Baskerville" font-size="42.0" fill="#FEFFFF" transform="matrix(1.00, 0.00, -0.00, -1.00, 1292.9, 537.0)"> </text><text xml:space="preserve" font-family="Baskerville" font-size="42.0" fill="#FEFFFF" transform="matrix(1.00, 0.00, -0.00, -1.00, 1303.4, 537.0)">p</text><text xml:space="preserve" font-family="Baskerville" font-size="42.0" fill="#FEFFFF" transform="matrix(1.00, 0.00, -0.00, -1.00, 1325.3, 537.0)">u</text><text xml:space="preserve" font-family="Baskerville" font-size="42.0" fill="#FEFFFF" transform="matrix(1.00, 0.00, -0.00, -1.00, 1347.1, 537.0)">r</text><text xml:space="preserve" font-family="Baskerville" font-size="42.0" fill="#FEFFFF" transform="matrix(1.00, 0.00, -0.00, -1.00, 1363.6, 537.0)">p</text><text xml:space="preserve" font-family="Baskerville" font-size="42.0" fill="#FEFFFF" transform="matrix(1.00, 0.00, -0.00, -1.00, 1385.5, 537.0)">o</text><text xml:space="preserve" font-family="Baskerville" font-size="42.0" fill="#FEFFFF" transform="matrix(1.00, 0.00, -0.00, -1.00, 1406.5, 537.0)">s</text><text xml:space="preserve" font-family="Baskerville" font-size="42.0" fill="#FEFFFF" transform="matrix(1.00, 0.00, -0.00, -1.00, 1420.5, 537.0)">e</text><text xml:space="preserve" font-family="Baskerville" font-size="42.0" fill="#FEFFFF" transform="matrix(1.00, 0.00, -0.00, -1.00, 1438.8, 537.0)"> </text><text xml:space="preserve" font-family="Baskerville" font-size="42.0" fill="#FEFFFF" transform="matrix(1.00, 0.00, -0.00, -1.00, 555.0, 475.0)">f</text><text xml:space="preserve" font-family="Baskerville" font-size="42.0" fill="#FEFFFF" transform="matrix(1.00, 0.00, -0.00, -1.00, 566.0, 475.0)">o</text><text xml:space="preserve" font-family="Baskerville" font-size="42.0" fill="#FEFFFF" transform="matrix(1.00, 0.00, -0.00, -1.00, 587.0, 475.0)">r</text><text xml:space="preserve" font-family="Baskerville" font-size="42.0" fill="#FEFFFF" transform="matrix(1.00, 0.00, -0.00, -1.00, 602.3, 475.0)"> </text><text xml:space="preserve" font-family="Baskerville" font-size="42.0" fill="#FEFFFF" transform="matrix(1.00, 0.00, -0.00, -1.00, 612.8, 475.0)">p</text><text xml:space="preserve" font-family="Baskerville" font-size="42.0" fill="#FEFFFF" transform="matrix(1.00, 0.00, -0.00, -1.00, 634.7, 475.0)">e</text><text xml:space="preserve" font-family="Baskerville" font-size="42.0" fill="#FEFFFF" transform="matrix(1.00, 0.00, -0.00, -1.00, 653.0, 475.0)">o</text><text xml:space="preserve" font-family="Baskerville" font-size="42.0" fill="#FEFFFF" transform="matrix(1.00, 0.00, -0.00, -1.00, 674.0, 475.0)">p</text><text xml:space="preserve" font-family="Baskerville" font-size="42.0" fill="#FEFFFF" transform="matrix(1.00, 0.00, -0.00, -1.00, 695.9, 475.0)">l</text><text xml:space="preserve" font-family="Baskerville" font-size="42.0" fill="#FEFFFF" transform="matrix(1.00, 0.00, -0.00, -1.00, 706.0, 475.0)">e</text><text xml:space="preserve" font-family="Baskerville" font-size="42.0" fill="#FEFFFF" transform="matrix(1.00, 0.00, -0.00, -1.00, 724.3, 475.0)"> </text><text xml:space="preserve" font-family="Baskerville" font-size="42.0" fill="#FEFFFF" transform="matrix(1.00, 0.00, -0.00, -1.00, 734.8, 475.0)">s</text><text xml:space="preserve" font-family="Baskerville" font-size="42.0" fill="#FEFFFF" transform="matrix(1.00, 0.00, -0.00, -1.00, 748.8, 475.0)">e</text><text xml:space="preserve" font-family="Baskerville" font-size="42.0" fill="#FEFFFF" transform="matrix(1.00, 0.00, -0.00, -1.00, 767.2, 475.0)">e</text><text xml:space="preserve" font-family="Baskerville" font-size="42.0" fill="#FEFFFF" transform="matrix(1.00, 0.00, -0.00, -1.00, 785.5, 475.0)">k</text><text xml:space="preserve" font-family="Baskerville" font-size="42.0" fill="#FEFFFF" transform="matrix(1.00, 0.00, -0.00, -1.00, 804.8, 475.0)">i</text><text xml:space="preserve" font-family="Baskerville" font-size="42.0" fill="#FEFFFF" transform="matrix(1.00, 0.00, -0.00, -1.00, 815.3, 475.0)">n</text><text xml:space="preserve" font-family="Baskerville" font-size="42.0" fill="#FEFFFF" transform="matrix(1.00, 0.00, -0.00, -1.00, 837.6, 475.0)">g</text><text xml:space="preserve" font-family="Baskerville" font-size="42.0" fill="#FEFFFF" transform="matrix(1.00, 0.00, -0.00, -1.00, 857.3, 475.0)"> </text><text xml:space="preserve" font-family="Baskerville" font-size="42.0" fill="#FEFFFF" transform="matrix(1.00, 0.00, -0.00, -1.00, 867.8, 475.0)">a</text><text xml:space="preserve" font-family="Baskerville" font-size="42.0" fill="#FEFFFF" transform="matrix(1.00, 0.00, -0.00, -1.00, 887.5, 475.0)">n</text><text xml:space="preserve" font-family="Baskerville" font-size="42.0" fill="#FEFFFF" transform="matrix(1.00, 0.00, -0.00, -1.00, 909.8, 475.0)"> </text><text xml:space="preserve" font-family="Baskerville" font-size="42.0" fill="#FEFFFF" transform="matrix(1.00, 0.00, -0.00, -1.00, 920.3, 475.0)">e</text><text xml:space="preserve" font-family="Baskerville" font-size="42.0" fill="#FEFFFF" transform="matrix(1.00, 0.00, -0.00, -1.00, 938.7, 475.0)">n</text><text xml:space="preserve" font-family="Baskerville" font-size="42.0" fill="#FEFFFF" transform="matrix(1.00, 0.00, -0.00, -1.00, 961.0, 475.0)">l</text><text xml:space="preserve" font-family="Baskerville" font-size="42.0" fill="#FEFFFF" transform="matrix(1.00, 0.00, -0.00, -1.00, 971.1, 475.0)">i</text><text xml:space="preserve" font-family="Baskerville" font-size="42.0" fill="#FEFFFF" transform="matrix(1.00, 0.00, -0.00, -1.00, 981.6, 475.0)">g</text><text xml:space="preserve" font-family="Baskerville" font-size="42.0" fill="#FEFFFF" transform="matrix(1.00, 0.00, -0.00, -1.00, 1001.2, 475.0)">h</text><text xml:space="preserve" font-family="Baskerville" font-size="42.0" fill="#FEFFFF" transform="matrix(1.00, 0.00, -0.00, -1.00, 1023.6, 475.0)">t</text><text xml:space="preserve" font-family="Baskerville" font-size="42.0" fill="#FEFFFF" transform="matrix(1.00, 0.00, -0.00, -1.00, 1035.8, 475.0)">e</text><text xml:space="preserve" font-family="Baskerville" font-size="42.0" fill="#FEFFFF" transform="matrix(1.00, 0.00, -0.00, -1.00, 1054.1, 475.0)">n</text><text xml:space="preserve" font-family="Baskerville" font-size="42.0" fill="#FEFFFF" transform="matrix(1.00, 0.00, -0.00, -1.00, 1076.5, 475.0)">i</text><text xml:space="preserve" font-family="Baskerville" font-size="42.0" fill="#FEFFFF" transform="matrix(1.00, 0.00, -0.00, -1.00, 1087.0, 475.0)">n</text><text xml:space="preserve" font-family="Baskerville" font-size="42.0" fill="#FEFFFF" transform="matrix(1.00, 0.00, -0.00, -1.00, 1109.3, 475.0)">g</text><text xml:space="preserve" font-family="Baskerville" font-size="42.0" fill="#FEFFFF" transform="matrix(1.00, 0.00, -0.00, -1.00, 1129.0, 475.0)"> </text><text xml:space="preserve" font-family="Baskerville" font-size="42.0" fill="#FEFFFF" transform="matrix(1.00, 0.00, -0.00, -1.00, 1139.5, 475.0)">e</text><text xml:space="preserve" font-family="Baskerville" font-size="42.0" fill="#FEFFFF" transform="matrix(1.00, 0.00, -0.00, -1.00, 1157.4, 475.0)">x</text><text xml:space="preserve" font-family="Baskerville" font-size="42.0" fill="#FEFFFF" transform="matrix(1.00, 0.00, -0.00, -1.00, 1177.5, 475.0)">p</text><text xml:space="preserve" font-family="Baskerville" font-size="42.0" fill="#FEFFFF" transform="matrix(1.00, 0.00, -0.00, -1.00, 1199.4, 475.0)">e</text><text xml:space="preserve" font-family="Baskerville" font-size="42.0" fill="#FEFFFF" transform="matrix(1.00, 0.00, -0.00, -1.00, 1217.8, 475.0)">d</text><text xml:space="preserve" font-family="Baskerville" font-size="42.0" fill="#FEFFFF" transform="matrix(1.00, 0.00, -0.00, -1.00, 1239.6, 475.0)">i</text><text xml:space="preserve" font-family="Baskerville" font-size="42.0" fill="#FEFFFF" transform="matrix(1.00, 0.00, -0.00, -1.00, 1250.1, 475.0)">t</text><text xml:space="preserve" font-family="Baskerville" font-size="42.0" fill="#FEFFFF" transform="matrix(1.00, 0.00, -0.00, -1.00, 1262.4, 475.0)">i</text><text xml:space="preserve" font-family="Baskerville" font-size="42.0" fill="#FEFFFF" transform="matrix(1.00, 0.00, -0.00, -1.00, 1272.9, 475.0)">o</text><text xml:space="preserve" font-family="Baskerville" font-size="42.0" fill="#FEFFFF" transform="matrix(1.00, 0.00, -0.00, -1.00, 1293.9, 475.0)">n</text><text xml:space="preserve" font-family="Baskerville" font-size="42.0" fill="#FEFFFF" transform="matrix(1.00, 0.00, -0.00, -1.00, 1316.2, 475.0)"> </text><text xml:space="preserve" font-family="Baskerville" font-size="42.0" fill="#FEFFFF" transform="matrix(1.00, 0.00, -0.00, -1.00, 1326.7, 475.0)">o</text><text xml:space="preserve" font-family="Baskerville" font-size="42.0" fill="#FEFFFF" transform="matrix(1.00, 0.00, -0.00, -1.00, 1347.7, 475.0)">f</text><text xml:space="preserve" font-family="Baskerville" font-size="42.0" fill="#FEFFFF" transform="matrix(1.00, 0.00, -0.00, -1.00, 1365.1, 475.0)"> </text><text xml:space="preserve" font-family="Baskerville" font-size="42.0" fill="#FEFFFF" transform="matrix(1.00, 0.00, -0.00, -1.00, 594.0, 412.0)">A</text><text xml:space="preserve" font-family="Baskerville" font-size="42.0" fill="#FEFFFF" transform="matrix(1.00, 0.00, -0.00, -1.00, 622.5, 412.0)">r</text><text xml:space="preserve" font-family="Baskerville" font-size="42.0" fill="#FEFFFF" transform="matrix(1.00, 0.00, -0.00, -1.00, 637.4, 412.0)">g</text><text xml:space="preserve" font-family="Baskerville" font-size="42.0" fill="#FEFFFF" transform="matrix(1.00, 0.00, -0.00, -1.00, 657.0, 412.0)">e</text><text xml:space="preserve" font-family="Baskerville" font-size="42.0" fill="#FEFFFF" transform="matrix(1.00, 0.00, -0.00, -1.00, 675.4, 412.0)">n</text><text xml:space="preserve" font-family="Baskerville" font-size="42.0" fill="#FEFFFF" transform="matrix(1.00, 0.00, -0.00, -1.00, 697.7, 412.0)">t</text><text xml:space="preserve" font-family="Baskerville" font-size="42.0" fill="#FEFFFF" transform="matrix(1.00, 0.00, -0.00, -1.00, 709.9, 412.0)">i</text><text xml:space="preserve" font-family="Baskerville" font-size="42.0" fill="#FEFFFF" transform="matrix(1.00, 0.00, -0.00, -1.00, 720.4, 412.0)">n</text><text xml:space="preserve" font-family="Baskerville" font-size="42.0" fill="#FEFFFF" transform="matrix(1.00, 0.00, -0.00, -1.00, 742.8, 412.0)">a</text><text xml:space="preserve" font-family="Baskerville" font-size="42.0" fill="#FEFFFF" transform="matrix(1.00, 0.00, -0.00, -1.00, 762.4, 412.0)">’</text><text xml:space="preserve" font-family="Baskerville" font-size="42.0" fill="#FEFFFF" transform="matrix(1.00, 0.00, -0.00, -1.00, 771.4, 412.0)">s</text><text xml:space="preserve" font-family="Baskerville" font-size="42.0" fill="#FEFFFF" transform="matrix(1.00, 0.00, -0.00, -1.00, 785.4, 412.0)"> </text><text xml:space="preserve" font-family="Baskerville" font-size="42.0" fill="#FEFFFF" transform="matrix(1.00, 0.00, -0.00, -1.00, 795.9, 412.0)">t</text><text xml:space="preserve" font-family="Baskerville" font-size="42.0" fill="#FEFFFF" transform="matrix(1.00, 0.00, -0.00, -1.00, 808.1, 412.0)">r</text><text xml:space="preserve" font-family="Baskerville" font-size="42.0" fill="#FEFFFF" transform="matrix(1.00, 0.00, -0.00, -1.00, 823.4, 412.0)">u</text><text xml:space="preserve" font-family="Baskerville" font-size="42.0" fill="#FEFFFF" transform="matrix(1.00, 0.00, -0.00, -1.00, 845.3, 412.0)">e</text><text xml:space="preserve" font-family="Baskerville" font-size="42.0" fill="#FEFFFF" transform="matrix(1.00, 0.00, -0.00, -1.00, 863.7, 412.0)"> </text><text xml:space="preserve" font-family="Baskerville" font-size="42.0" fill="#FEFFFF" transform="matrix(1.00, 0.00, -0.00, -1.00, 874.2, 412.0)">b</text><text xml:space="preserve" font-family="Baskerville" font-size="42.0" fill="#FEFFFF" transform="matrix(1.00, 0.00, -0.00, -1.00, 896.0, 412.0)">e</text><text xml:space="preserve" font-family="Baskerville" font-size="42.0" fill="#FEFFFF" transform="matrix(1.00, 0.00, -0.00, -1.00, 914.4, 412.0)">a</text><text xml:space="preserve" font-family="Baskerville" font-size="42.0" fill="#FEFFFF" transform="matrix(1.00, 0.00, -0.00, -1.00, 934.1, 412.0)">u</text><text xml:space="preserve" font-family="Baskerville" font-size="42.0" fill="#FEFFFF" transform="matrix(1.00, 0.00, -0.00, -1.00, 956.0, 412.0)">t</text><text xml:space="preserve" font-family="Baskerville" font-size="42.0" fill="#FEFFFF" transform="matrix(1.00, 0.00, -0.00, -1.00, 968.2, 412.0)">y</text><text xml:space="preserve" font-family="Baskerville" font-size="42.0" fill="#FEFFFF" transform="matrix(1.00, 0.00, -0.00, -1.00, 982.0, 412.0)">,</text><text xml:space="preserve" font-family="Baskerville" font-size="42.0" fill="#FEFFFF" transform="matrix(1.00, 0.00, -0.00, -1.00, 992.5, 412.0)"> </text><text xml:space="preserve" font-family="Baskerville" font-size="42.0" fill="#FEFFFF" transform="matrix(1.00, 0.00, -0.00, -1.00, 1003.0, 412.0)">c</text><text xml:space="preserve" font-family="Baskerville" font-size="42.0" fill="#FEFFFF" transform="matrix(1.00, 0.00, -0.00, -1.00, 1021.0, 412.0)">u</text><text xml:space="preserve" font-family="Baskerville" font-size="42.0" fill="#FEFFFF" transform="matrix(1.00, 0.00, -0.00, -1.00, 1042.8, 412.0)">l</text><text xml:space="preserve" font-family="Baskerville" font-size="42.0" fill="#FEFFFF" transform="matrix(1.00, 0.00, -0.00, -1.00, 1052.9, 412.0)">t</text><text xml:space="preserve" font-family="Baskerville" font-size="42.0" fill="#FEFFFF" transform="matrix(1.00, 0.00, -0.00, -1.00, 1065.1, 412.0)">u</text><text xml:space="preserve" font-family="Baskerville" font-size="42.0" fill="#FEFFFF" transform="matrix(1.00, 0.00, -0.00, -1.00, 1087.0, 412.0)">r</text><text xml:space="preserve" font-family="Baskerville" font-size="42.0" fill="#FEFFFF" transform="matrix(1.00, 0.00, -0.00, -1.00, 1101.9, 412.0)">e</text><text xml:space="preserve" font-family="Baskerville" font-size="42.0" fill="#FEFFFF" transform="matrix(1.00, 0.00, -0.00, -1.00, 1120.2, 412.0)"> </text><text xml:space="preserve" font-family="Baskerville" font-size="42.0" fill="#FEFFFF" transform="matrix(1.00, 0.00, -0.00, -1.00, 1130.7, 412.0)">a</text><text xml:space="preserve" font-family="Baskerville" font-size="42.0" fill="#FEFFFF" transform="matrix(1.00, 0.00, -0.00, -1.00, 1150.4, 412.0)">n</text><text xml:space="preserve" font-family="Baskerville" font-size="42.0" fill="#FEFFFF" transform="matrix(1.00, 0.00, -0.00, -1.00, 1172.7, 412.0)">d</text><text xml:space="preserve" font-family="Baskerville" font-size="42.0" fill="#FEFFFF" transform="matrix(1.00, 0.00, -0.00, -1.00, 1194.6, 412.0)"> </text><text xml:space="preserve" font-family="Baskerville" font-size="42.0" fill="#FEFFFF" transform="matrix(1.00, 0.00, -0.00, -1.00, 1205.1, 412.0)">h</text><text xml:space="preserve" font-family="Baskerville" font-size="42.0" fill="#FEFFFF" transform="matrix(1.00, 0.00, -0.00, -1.00, 1227.5, 412.0)">i</text><text xml:space="preserve" font-family="Baskerville" font-size="42.0" fill="#FEFFFF" transform="matrix(1.00, 0.00, -0.00, -1.00, 1238.0, 412.0)">s</text><text xml:space="preserve" font-family="Baskerville" font-size="42.0" fill="#FEFFFF" transform="matrix(1.00, 0.00, -0.00, -1.00, 1252.0, 412.0)">t</text><text xml:space="preserve" font-family="Baskerville" font-size="42.0" fill="#FEFFFF" transform="matrix(1.00, 0.00, -0.00, -1.00, 1264.2, 412.0)">o</text><text xml:space="preserve" font-family="Baskerville" font-size="42.0" fill="#FEFFFF" transform="matrix(1.00, 0.00, -0.00, -1.00, 1285.2, 412.0)">r</text><text xml:space="preserve" font-family="Baskerville" font-size="42.0" fill="#FEFFFF" transform="matrix(1.00, 0.00, -0.00, -1.00, 1300.9, 412.0)">y</text><text xml:space="preserve" font-family="Baskerville" font-size="42.0" fill="#FEFFFF" transform="matrix(1.00, 0.00, -0.00, -1.00, 1314.8, 412.0)">.</text></g></svg>