<?xml version="1.0" encoding="UTF-8" standalone="no"?><svg xmlns="http://www.w3.org/2000/svg" xmlns:xlink="http://www.w3.org/1999/xlink" clip-rule="evenodd" stroke-miterlimit="4.00" viewBox="0 0 1920 1080"><desc>SVG generated by Keynote</desc><defs></defs><g transform="matrix(1.00, 0.00, -0.00, -1.00, 0.0, 1080.0)"><path d="M 0.0 1080.0 L 1920.0 1080.0 L 1920.0 0.0 L 0.0 0.0 Z M 0.0 1080.0 " fill="#432754"></path><text xml:space="preserve" font-family="billy" font-size="134.0" fill="#FEFFFF" transform="matrix(1.00, 0.00, -0.00, -1.00, 342.0, 556.0)">W</text><text xml:space="preserve" font-family="billy" font-size="134.0" fill="#FEFFFF" transform="matrix(1.00, 0.00, -0.00, -1.00, 402.2, 556.0)">e</text><text xml:space="preserve" font-family="billy" font-size="134.0" fill="#FEFFFF" transform="matrix(1.00, 0.00, -0.00, -1.00, 434.3, 556.0)"> </text><text xml:space="preserve" font-family="billy" font-size="134.0" fill="#FEFFFF" transform="matrix(1.00, 0.00, -0.00, -1.00, 471.3, 556.0)">b</text><text xml:space="preserve" font-family="billy" font-size="134.0" fill="#FEFFFF" transform="matrix(1.00, 0.00, -0.00, -1.00, 511.4, 556.0)">e</text><text xml:space="preserve" font-family="billy" font-size="134.0" fill="#FEFFFF" transform="matrix(1.00, 0.00, -0.00, -1.00, 547.4, 556.0)">l</text><text xml:space="preserve" font-family="billy" font-size="134.0" fill="#FEFFFF" transform="matrix(1.00, 0.00, -0.00, -1.00, 565.2, 556.0)">i</text><text xml:space="preserve" font-family="billy" font-size="134.0" fill="#FEFFFF" transform="matrix(1.00, 0.00, -0.00, -1.00, 579.7, 556.0)">e</text><text xml:space="preserve" font-family="billy" font-size="134.0" fill="#FEFFFF" transform="matrix(1.00, 0.00, -0.00, -1.00, 615.1, 556.0)">v</text><text xml:space="preserve" font-family="billy" font-size="134.0" fill="#FEFFFF" transform="matrix(1.00, 0.00, -0.00, -1.00, 649.4, 556.0)">e</text><text xml:space="preserve" font-family="billy" font-size="134.0" fill="#FEFFFF" transform="matrix(1.00, 0.00, -0.00, -1.00, 681.6, 556.0)"> </text><text xml:space="preserve" font-family="billy" font-size="134.0" fill="#FEFFFF" transform="matrix(1.00, 0.00, -0.00, -1.00, 718.5, 556.0)">i</text><text xml:space="preserve" font-family="billy" font-size="134.0" fill="#FEFFFF" transform="matrix(1.00, 0.00, -0.00, -1.00, 731.9, 556.0)">t</text><text xml:space="preserve" font-family="billy" font-size="134.0" fill="#FEFFFF" transform="matrix(1.00, 0.00, -0.00, -1.00, 760.3, 556.0)"> </text><text xml:space="preserve" font-family="billy" font-size="134.0" fill="#FEFFFF" transform="matrix(1.00, 0.00, -0.00, -1.00, 797.3, 556.0)">i</text><text xml:space="preserve" font-family="billy" font-size="134.0" fill="#FEFFFF" transform="matrix(1.00, 0.00, -0.00, -1.00, 808.7, 556.0)">s</text><text xml:space="preserve" font-family="billy" font-size="134.0" fill="#FEFFFF" transform="matrix(1.00, 0.00, -0.00, -1.00, 837.7, 556.0)"> </text><text xml:space="preserve" font-family="billy" font-size="134.0" fill="#FEFFFF" transform="matrix(1.00, 0.00, -0.00, -1.00, 874.7, 556.0)">b</text><text xml:space="preserve" font-family="billy" font-size="134.0" fill="#FEFFFF" transform="matrix(1.00, 0.00, -0.00, -1.00, 912.3, 556.0)">i</text><text xml:space="preserve" font-family="billy" font-size="134.0" fill="#FEFFFF" transform="matrix(1.00, 0.00, -0.00, -1.00, 925.2, 556.0)">g</text><text xml:space="preserve" font-family="billy" font-size="134.0" fill="#FEFFFF" transform="matrix(1.00, 0.00, -0.00, -1.00, 967.6, 556.0)">g</text><text xml:space="preserve" font-family="billy" font-size="134.0" fill="#FEFFFF" transform="matrix(1.00, 0.00, -0.00, -1.00, 1009.7, 556.0)">e</text><text xml:space="preserve" font-family="billy" font-size="134.0" fill="#FEFFFF" transform="matrix(1.00, 0.00, -0.00, -1.00, 1046.6, 556.0)">r</text><text xml:space="preserve" font-family="billy" font-size="134.0" fill="#FEFFFF" transform="matrix(1.00, 0.00, -0.00, -1.00, 1080.1, 556.0)"> </text><text xml:space="preserve" font-family="billy" font-size="134.0" fill="#FEFFFF" transform="matrix(1.00, 0.00, -0.00, -1.00, 1117.1, 556.0)">t</text><text xml:space="preserve" font-family="billy" font-size="134.0" fill="#FEFFFF" transform="matrix(1.00, 0.00, -0.00, -1.00, 1145.5, 556.0)">h</text><text xml:space="preserve" font-family="billy" font-size="134.0" fill="#FEFFFF" transform="matrix(1.00, 0.00, -0.00, -1.00, 1182.0, 556.0)">a</text><text xml:space="preserve" font-family="billy" font-size="134.0" fill="#FEFFFF" transform="matrix(1.00, 0.00, -0.00, -1.00, 1219.0, 556.0)">n</text><text xml:space="preserve" font-family="billy" font-size="134.0" fill="#FEFFFF" transform="matrix(1.00, 0.00, -0.00, -1.00, 1254.9, 556.0)"> </text><text xml:space="preserve" font-family="billy" font-size="134.0" fill="#FEFFFF" transform="matrix(1.00, 0.00, -0.00, -1.00, 1291.9, 556.0)">u</text><text xml:space="preserve" font-family="billy" font-size="134.0" fill="#FEFFFF" transform="matrix(1.00, 0.00, -0.00, -1.00, 1327.8, 556.0)">s</text><text xml:space="preserve" font-family="billy" font-size="134.0" fill="#FEFFFF" transform="matrix(1.00, 0.00, -0.00, -1.00, 1356.8, 556.0)"> </text><text xml:space="preserve" font-family="billy" font-size="134.0" fill="#FEFFFF" transform="matrix(1.00, 0.00, -0.00, -1.00, 1393.8, 556.0)">i</text><text xml:space="preserve" font-family="billy" font-size="134.0" fill="#FEFFFF" transform="matrix(1.00, 0.00, -0.00, -1.00, 1407.2, 556.0)">m</text><text xml:space="preserve" font-family="billy" font-size="134.0" fill="#FEFFFF" transform="matrix(1.00, 0.00, -0.00, -1.00, 1469.5, 556.0)">a</text><text xml:space="preserve" font-family="billy" font-size="134.0" fill="#FEFFFF" transform="matrix(1.00, 0.00, -0.00, -1.00, 1504.0, 556.0)">g</text><text xml:space="preserve" font-family="billy" font-size="134.0" fill="#FEFFFF" transform="matrix(1.00, 0.00, -0.00, -1.00, 1546.1, 556.0)">e</text><text xml:space="preserve" font-family="billy" font-size="134.0" fill="#FEFFFF" transform="matrix(1.00, 0.00, -0.00, -1.00, 1578.3, 556.0)"> </text><text xml:space="preserve" font-family="billy" font-size="134.0" fill="#FEFFFF" transform="matrix(1.00, 0.00, -0.00, -1.00, 654.0, 456.0)">f</text><text xml:space="preserve" font-family="billy" font-size="134.0" fill="#FEFFFF" transform="matrix(1.00, 0.00, -0.00, -1.00, 683.7, 456.0)">r</text><text xml:space="preserve" font-family="billy" font-size="134.0" fill="#FEFFFF" transform="matrix(1.00, 0.00, -0.00, -1.00, 715.8, 456.0)">o</text><text xml:space="preserve" font-family="billy" font-size="134.0" fill="#FEFFFF" transform="matrix(1.00, 0.00, -0.00, -1.00, 758.0, 456.0)">m</text><text xml:space="preserve" font-family="billy" font-size="134.0" fill="#FEFFFF" transform="matrix(1.00, 0.00, -0.00, -1.00, 817.6, 456.0)"> </text><text xml:space="preserve" font-family="billy" font-size="134.0" fill="#FEFFFF" transform="matrix(1.00, 0.00, -0.00, -1.00, 854.6, 456.0)">n</text><text xml:space="preserve" font-family="billy" font-size="134.0" fill="#FEFFFF" transform="matrix(1.00, 0.00, -0.00, -1.00, 893.6, 456.0)">e</text><text xml:space="preserve" font-family="billy" font-size="134.0" fill="#FEFFFF" transform="matrix(1.00, 0.00, -0.00, -1.00, 929.8, 456.0)">w</text><text xml:space="preserve" font-family="billy" font-size="134.0" fill="#FEFFFF" transform="matrix(1.00, 0.00, -0.00, -1.00, 983.5, 456.0)">s</text><text xml:space="preserve" font-family="billy" font-size="134.0" fill="#FEFFFF" transform="matrix(1.00, 0.00, -0.00, -1.00, 1012.5, 456.0)">p</text><text xml:space="preserve" font-family="billy" font-size="134.0" fill="#FEFFFF" transform="matrix(1.00, 0.00, -0.00, -1.00, 1044.9, 456.0)">a</text><text xml:space="preserve" font-family="billy" font-size="134.0" fill="#FEFFFF" transform="matrix(1.00, 0.00, -0.00, -1.00, 1079.5, 456.0)">p</text><text xml:space="preserve" font-family="billy" font-size="134.0" fill="#FEFFFF" transform="matrix(1.00, 0.00, -0.00, -1.00, 1115.0, 456.0)">e</text><text xml:space="preserve" font-family="billy" font-size="134.0" fill="#FEFFFF" transform="matrix(1.00, 0.00, -0.00, -1.00, 1151.8, 456.0)">r</text><text xml:space="preserve" font-family="billy" font-size="134.0" fill="#FEFFFF" transform="matrix(1.00, 0.00, -0.00, -1.00, 1185.3, 456.0)">?</text><text xml:space="preserve" font-family="billy" font-size="134.0" fill="#FEFFFF" transform="matrix(1.00, 0.00, -0.00, -1.00, 1212.1, 456.0)">?</text><text xml:space="preserve" font-family="billy" font-size="134.0" fill="#FEFFFF" transform="matrix(1.00, 0.00, -0.00, -1.00, 1238.9, 456.0)">?</text></g></svg>